G04 start of page 12 for group -3984 idx -3984 *
G04 Title: (unknown), fab *
G04 Creator: pcb 20110918 *
G04 CreationDate: Tue 11 Feb 2014 10:14:15 PM GMT UTC *
G04 For: ndholmes *
G04 Format: Gerber/RS-274X *
G04 PCB-Dimensions: 285500 200000 *
G04 PCB-Coordinate-Origin: lower left *
%MOIN*%
%FSLAX25Y25*%
%LNFAB*%
%ADD87C,0.0100*%
%ADD86C,0.0060*%
%ADD85R,0.0080X0.0080*%
G54D85*X17000Y186200D02*Y179800D01*
X13800Y183000D02*X20200D01*
X15400Y184600D02*X18600D01*
X15400D02*Y181400D01*
X18600D01*
Y184600D02*Y181400D01*
X268000Y186200D02*Y179800D01*
X264800Y183000D02*X271200D01*
X266400Y184600D02*X269600D01*
X266400D02*Y181400D01*
X269600D01*
Y184600D02*Y181400D01*
X15000Y214450D02*Y208050D01*
X11800Y211250D02*X18200D01*
X13400Y212850D02*X16600D01*
X13400D02*Y209650D01*
X16600D01*
Y212850D02*Y209650D01*
G54D86*X135000Y213500D02*Y212750D01*
X136500Y211250D01*
X138000Y212750D01*
Y213500D02*Y212750D01*
X136500Y211250D02*Y207500D01*
X139800Y210500D02*X142050D01*
X139800Y207500D02*X142800D01*
X139800Y213500D02*Y207500D01*
Y213500D02*X142800D01*
X147600D02*X148350Y212750D01*
X145350Y213500D02*X147600D01*
X144600Y212750D02*X145350Y213500D01*
X144600Y212750D02*Y211250D01*
X145350Y210500D01*
X147600D01*
X148350Y209750D01*
Y208250D01*
X147600Y207500D02*X148350Y208250D01*
X145350Y207500D02*X147600D01*
X144600Y208250D02*X145350Y207500D01*
X98000Y212750D02*X98750Y213500D01*
X101000D01*
X101750Y212750D01*
Y211250D01*
X98000Y207500D02*X101750Y211250D01*
X98000Y207500D02*X101750D01*
X45000Y208250D02*X45750Y207500D01*
X45000Y212750D02*Y208250D01*
Y212750D02*X45750Y213500D01*
X47250D01*
X48000Y212750D01*
Y208250D01*
X47250Y207500D02*X48000Y208250D01*
X45750Y207500D02*X47250D01*
X45000Y209000D02*X48000Y212000D01*
X49800Y207500D02*X50550D01*
X53100D02*X54600D01*
X53850Y213500D02*Y207500D01*
X52350Y212000D02*X53850Y213500D01*
X56400Y212750D02*X57150Y213500D01*
X59400D01*
X60150Y212750D01*
Y211250D01*
X56400Y207500D02*X60150Y211250D01*
X56400Y207500D02*X60150D01*
X61950D02*X64950Y210500D01*
Y212750D02*Y210500D01*
X64200Y213500D02*X64950Y212750D01*
X62700Y213500D02*X64200D01*
X61950Y212750D02*X62700Y213500D01*
X61950Y212750D02*Y211250D01*
X62700Y210500D01*
X64950D01*
X147000Y189000D02*Y185800D01*
Y189000D02*X149773Y190600D01*
X147000Y189000D02*X144227Y190600D01*
X145400Y189000D02*G75*G03X148600Y189000I1600J0D01*G01*
G75*G03X145400Y189000I-1600J0D01*G01*
X47000D02*Y185800D01*
Y189000D02*X49773Y190600D01*
X47000Y189000D02*X44227Y190600D01*
X45400Y189000D02*G75*G03X48600Y189000I1600J0D01*G01*
G75*G03X45400Y189000I-1600J0D01*G01*
X15000Y226250D02*Y223050D01*
Y226250D02*X17773Y227850D01*
X15000Y226250D02*X12227Y227850D01*
X13400Y226250D02*G75*G03X16600Y226250I1600J0D01*G01*
G75*G03X13400Y226250I-1600J0D01*G01*
X135000Y228500D02*Y227750D01*
X136500Y226250D01*
X138000Y227750D01*
Y228500D02*Y227750D01*
X136500Y226250D02*Y222500D01*
X139800Y225500D02*X142050D01*
X139800Y222500D02*X142800D01*
X139800Y228500D02*Y222500D01*
Y228500D02*X142800D01*
X147600D02*X148350Y227750D01*
X145350Y228500D02*X147600D01*
X144600Y227750D02*X145350Y228500D01*
X144600Y227750D02*Y226250D01*
X145350Y225500D01*
X147600D01*
X148350Y224750D01*
Y223250D01*
X147600Y222500D02*X148350Y223250D01*
X145350Y222500D02*X147600D01*
X144600Y223250D02*X145350Y222500D01*
X98000Y227750D02*X98750Y228500D01*
X101000D01*
X101750Y227750D01*
Y226250D01*
X98000Y222500D02*X101750Y226250D01*
X98000Y222500D02*X101750D01*
X45000Y223250D02*X45750Y222500D01*
X45000Y227750D02*Y223250D01*
Y227750D02*X45750Y228500D01*
X47250D01*
X48000Y227750D01*
Y223250D01*
X47250Y222500D02*X48000Y223250D01*
X45750Y222500D02*X47250D01*
X45000Y224000D02*X48000Y227000D01*
X49800Y222500D02*X50550D01*
X53100D02*X54600D01*
X53850Y228500D02*Y222500D01*
X52350Y227000D02*X53850Y228500D01*
X56400Y227750D02*X57150Y228500D01*
X59400D01*
X60150Y227750D01*
Y226250D01*
X56400Y222500D02*X60150Y226250D01*
X56400Y222500D02*X60150D01*
X61950Y223250D02*X62700Y222500D01*
X61950Y224750D02*Y223250D01*
Y224750D02*X62700Y225500D01*
X64200D01*
X64950Y224750D01*
Y223250D01*
X64200Y222500D02*X64950Y223250D01*
X62700Y222500D02*X64200D01*
X61950Y226250D02*X62700Y225500D01*
X61950Y227750D02*Y226250D01*
Y227750D02*X62700Y228500D01*
X64200D01*
X64950Y227750D01*
Y226250D01*
X64200Y225500D02*X64950Y226250D01*
X165700Y128100D02*X168900D01*
X165700D02*Y124900D01*
X168900D01*
Y128100D02*Y124900D01*
X179100Y128100D02*X182300D01*
X179100D02*Y124900D01*
X182300D01*
Y128100D02*Y124900D01*
X165700Y75100D02*X168900D01*
X165700D02*Y71900D01*
X168900D01*
Y75100D02*Y71900D01*
X179100Y75100D02*X182300D01*
X179100D02*Y71900D01*
X182300D01*
Y75100D02*Y71900D01*
X13400Y242850D02*X16600D01*
X13400D02*Y239650D01*
X16600D01*
Y242850D02*Y239650D01*
X135000Y243500D02*Y242750D01*
X136500Y241250D01*
X138000Y242750D01*
Y243500D02*Y242750D01*
X136500Y241250D02*Y237500D01*
X139800Y240500D02*X142050D01*
X139800Y237500D02*X142800D01*
X139800Y243500D02*Y237500D01*
Y243500D02*X142800D01*
X147600D02*X148350Y242750D01*
X145350Y243500D02*X147600D01*
X144600Y242750D02*X145350Y243500D01*
X144600Y242750D02*Y241250D01*
X145350Y240500D01*
X147600D01*
X148350Y239750D01*
Y238250D01*
X147600Y237500D02*X148350Y238250D01*
X145350Y237500D02*X147600D01*
X144600Y238250D02*X145350Y237500D01*
X98000Y240500D02*X101000Y243500D01*
X98000Y240500D02*X101750D01*
X101000Y243500D02*Y237500D01*
X45000Y238250D02*X45750Y237500D01*
X45000Y242750D02*Y238250D01*
Y242750D02*X45750Y243500D01*
X47250D01*
X48000Y242750D01*
Y238250D01*
X47250Y237500D02*X48000Y238250D01*
X45750Y237500D02*X47250D01*
X45000Y239000D02*X48000Y242000D01*
X49800Y237500D02*X50550D01*
X52350Y238250D02*X53100Y237500D01*
X52350Y242750D02*Y238250D01*
Y242750D02*X53100Y243500D01*
X54600D01*
X55350Y242750D01*
Y238250D01*
X54600Y237500D02*X55350Y238250D01*
X53100Y237500D02*X54600D01*
X52350Y239000D02*X55350Y242000D01*
X59400Y243500D02*X60150Y242750D01*
X57900Y243500D02*X59400D01*
X57150Y242750D02*X57900Y243500D01*
X57150Y242750D02*Y238250D01*
X57900Y237500D01*
X59400Y240500D02*X60150Y239750D01*
X57150Y240500D02*X59400D01*
X57900Y237500D02*X59400D01*
X60150Y238250D01*
Y239750D02*Y238250D01*
X61950Y240500D02*X64950Y243500D01*
X61950Y240500D02*X65700D01*
X64950Y243500D02*Y237500D01*
X219700Y166000D02*G75*G03X221300Y166000I800J0D01*G01*
G75*G03X219700Y166000I-800J0D01*G01*
X199700D02*G75*G03X201300Y166000I800J0D01*G01*
G75*G03X199700Y166000I-800J0D01*G01*
X179700D02*G75*G03X181300Y166000I800J0D01*G01*
G75*G03X179700Y166000I-800J0D01*G01*
X14200Y256250D02*G75*G03X15800Y256250I800J0D01*G01*
G75*G03X14200Y256250I-800J0D01*G01*
X135000Y258500D02*Y257750D01*
X136500Y256250D01*
X138000Y257750D01*
Y258500D02*Y257750D01*
X136500Y256250D02*Y252500D01*
X139800Y255500D02*X142050D01*
X139800Y252500D02*X142800D01*
X139800Y258500D02*Y252500D01*
Y258500D02*X142800D01*
X147600D02*X148350Y257750D01*
X145350Y258500D02*X147600D01*
X144600Y257750D02*X145350Y258500D01*
X144600Y257750D02*Y256250D01*
X145350Y255500D01*
X147600D01*
X148350Y254750D01*
Y253250D01*
X147600Y252500D02*X148350Y253250D01*
X145350Y252500D02*X147600D01*
X144600Y253250D02*X145350Y252500D01*
X98000Y257750D02*X98750Y258500D01*
X100250D01*
X101000Y257750D01*
Y253250D01*
X100250Y252500D02*X101000Y253250D01*
X98750Y252500D02*X100250D01*
X98000Y253250D02*X98750Y252500D01*
Y255500D02*X101000D01*
X45000Y253250D02*X45750Y252500D01*
X45000Y257750D02*Y253250D01*
Y257750D02*X45750Y258500D01*
X47250D01*
X48000Y257750D01*
Y253250D01*
X47250Y252500D02*X48000Y253250D01*
X45750Y252500D02*X47250D01*
X45000Y254000D02*X48000Y257000D01*
X49800Y252500D02*X50550D01*
X52350Y253250D02*X53100Y252500D01*
X52350Y257750D02*Y253250D01*
Y257750D02*X53100Y258500D01*
X54600D01*
X55350Y257750D01*
Y253250D01*
X54600Y252500D02*X55350Y253250D01*
X53100Y252500D02*X54600D01*
X52350Y254000D02*X55350Y257000D01*
X57150Y258500D02*X60150D01*
X57150D02*Y255500D01*
X57900Y256250D01*
X59400D01*
X60150Y255500D01*
Y253250D01*
X59400Y252500D02*X60150Y253250D01*
X57900Y252500D02*X59400D01*
X57150Y253250D02*X57900Y252500D01*
X61950Y258500D02*X64950D01*
X61950D02*Y255500D01*
X62700Y256250D01*
X64200D01*
X64950Y255500D01*
Y253250D01*
X64200Y252500D02*X64950Y253250D01*
X62700Y252500D02*X64200D01*
X61950Y253250D02*X62700Y252500D01*
X9300Y14700D02*X11700Y12300D01*
X9300D02*X11700Y14700D01*
X29300D02*X31700Y12300D01*
X29300D02*X31700Y14700D01*
X49300D02*X51700Y12300D01*
X49300D02*X51700Y14700D01*
X69300D02*X71700Y12300D01*
X69300D02*X71700Y14700D01*
X89300D02*X91700Y12300D01*
X89300D02*X91700Y14700D01*
X109300D02*X111700Y12300D01*
X109300D02*X111700Y14700D01*
X129300D02*X131700Y12300D01*
X129300D02*X131700Y14700D01*
X149300D02*X151700Y12300D01*
X149300D02*X151700Y14700D01*
X253800D02*X256200Y12300D01*
X253800D02*X256200Y14700D01*
X273800D02*X276200Y12300D01*
X273800D02*X276200Y14700D01*
X213800D02*X216200Y12300D01*
X213800D02*X216200Y14700D01*
X233800D02*X236200Y12300D01*
X233800D02*X236200Y14700D01*
X13800Y272450D02*X16200Y270050D01*
X13800D02*X16200Y272450D01*
X135000Y273500D02*Y272750D01*
X136500Y271250D01*
X138000Y272750D01*
Y273500D02*Y272750D01*
X136500Y271250D02*Y267500D01*
X139800Y270500D02*X142050D01*
X139800Y267500D02*X142800D01*
X139800Y273500D02*Y267500D01*
Y273500D02*X142800D01*
X147600D02*X148350Y272750D01*
X145350Y273500D02*X147600D01*
X144600Y272750D02*X145350Y273500D01*
X144600Y272750D02*Y271250D01*
X145350Y270500D01*
X147600D01*
X148350Y269750D01*
Y268250D01*
X147600Y267500D02*X148350Y268250D01*
X145350Y267500D02*X147600D01*
X144600Y268250D02*X145350Y267500D01*
X98750D02*X100250D01*
X99500Y273500D02*Y267500D01*
X98000Y272000D02*X99500Y273500D01*
X102050Y272750D02*X102800Y273500D01*
X105050D01*
X105800Y272750D01*
Y271250D01*
X102050Y267500D02*X105800Y271250D01*
X102050Y267500D02*X105800D01*
X45000Y268250D02*X45750Y267500D01*
X45000Y272750D02*Y268250D01*
Y272750D02*X45750Y273500D01*
X47250D01*
X48000Y272750D01*
Y268250D01*
X47250Y267500D02*X48000Y268250D01*
X45750Y267500D02*X47250D01*
X45000Y269000D02*X48000Y272000D01*
X49800Y267500D02*X50550D01*
X52350Y268250D02*X53100Y267500D01*
X52350Y272750D02*Y268250D01*
Y272750D02*X53100Y273500D01*
X54600D01*
X55350Y272750D01*
Y268250D01*
X54600Y267500D02*X55350Y268250D01*
X53100Y267500D02*X54600D01*
X52350Y269000D02*X55350Y272000D01*
X57150Y270500D02*X60150Y273500D01*
X57150Y270500D02*X60900D01*
X60150Y273500D02*Y267500D01*
X62700Y268250D02*X63450Y267500D01*
X62700Y269750D02*Y268250D01*
Y269750D02*X63450Y270500D01*
X64950D01*
X65700Y269750D01*
Y268250D01*
X64950Y267500D02*X65700Y268250D01*
X63450Y267500D02*X64950D01*
X62700Y271250D02*X63450Y270500D01*
X62700Y272750D02*Y271250D01*
Y272750D02*X63450Y273500D01*
X64950D01*
X65700Y272750D01*
Y271250D01*
X64950Y270500D02*X65700Y271250D01*
X142000Y165600D02*Y162400D01*
X140400Y164000D02*X143600D01*
X137000Y155600D02*Y152400D01*
X135400Y154000D02*X138600D01*
X132000Y165600D02*Y162400D01*
X130400Y164000D02*X133600D01*
X127000Y155600D02*Y152400D01*
X125400Y154000D02*X128600D01*
X122000Y165600D02*Y162400D01*
X120400Y164000D02*X123600D01*
X117000Y155600D02*Y152400D01*
X115400Y154000D02*X118600D01*
X112000Y165600D02*Y162400D01*
X110400Y164000D02*X113600D01*
X107000Y155600D02*Y152400D01*
X105400Y154000D02*X108600D01*
X87000Y165600D02*Y162400D01*
X85400Y164000D02*X88600D01*
X82000Y155600D02*Y152400D01*
X80400Y154000D02*X83600D01*
X77000Y165600D02*Y162400D01*
X75400Y164000D02*X78600D01*
X72000Y155600D02*Y152400D01*
X70400Y154000D02*X73600D01*
X67000Y165600D02*Y162400D01*
X65400Y164000D02*X68600D01*
X62000Y155600D02*Y152400D01*
X60400Y154000D02*X63600D01*
X57000Y165600D02*Y162400D01*
X55400Y164000D02*X58600D01*
X52000Y155600D02*Y152400D01*
X50400Y154000D02*X53600D01*
X15000Y287850D02*Y284650D01*
X13400Y286250D02*X16600D01*
X135000Y288500D02*Y287750D01*
X136500Y286250D01*
X138000Y287750D01*
Y288500D02*Y287750D01*
X136500Y286250D02*Y282500D01*
X139800Y285500D02*X142050D01*
X139800Y282500D02*X142800D01*
X139800Y288500D02*Y282500D01*
Y288500D02*X142800D01*
X147600D02*X148350Y287750D01*
X145350Y288500D02*X147600D01*
X144600Y287750D02*X145350Y288500D01*
X144600Y287750D02*Y286250D01*
X145350Y285500D01*
X147600D01*
X148350Y284750D01*
Y283250D01*
X147600Y282500D02*X148350Y283250D01*
X145350Y282500D02*X147600D01*
X144600Y283250D02*X145350Y282500D01*
X98750D02*X100250D01*
X99500Y288500D02*Y282500D01*
X98000Y287000D02*X99500Y288500D01*
X104300D02*X105050Y287750D01*
X102800Y288500D02*X104300D01*
X102050Y287750D02*X102800Y288500D01*
X102050Y287750D02*Y283250D01*
X102800Y282500D01*
X104300Y285500D02*X105050Y284750D01*
X102050Y285500D02*X104300D01*
X102800Y282500D02*X104300D01*
X105050Y283250D01*
Y284750D02*Y283250D01*
X45000D02*X45750Y282500D01*
X45000Y287750D02*Y283250D01*
Y287750D02*X45750Y288500D01*
X47250D01*
X48000Y287750D01*
Y283250D01*
X47250Y282500D02*X48000Y283250D01*
X45750Y282500D02*X47250D01*
X45000Y284000D02*X48000Y287000D01*
X49800Y282500D02*X50550D01*
X52350Y283250D02*X53100Y282500D01*
X52350Y287750D02*Y283250D01*
Y287750D02*X53100Y288500D01*
X54600D01*
X55350Y287750D01*
Y283250D01*
X54600Y282500D02*X55350Y283250D01*
X53100Y282500D02*X54600D01*
X52350Y284000D02*X55350Y287000D01*
X57150Y287750D02*X57900Y288500D01*
X59400D01*
X60150Y287750D01*
Y283250D01*
X59400Y282500D02*X60150Y283250D01*
X57900Y282500D02*X59400D01*
X57150Y283250D02*X57900Y282500D01*
Y285500D02*X60150D01*
X61950Y288500D02*X64950D01*
X61950D02*Y285500D01*
X62700Y286250D01*
X64200D01*
X64950Y285500D01*
Y283250D01*
X64200Y282500D02*X64950Y283250D01*
X62700Y282500D02*X64200D01*
X61950Y283250D02*X62700Y282500D01*
X52000Y105500D02*Y103900D01*
Y105500D02*X53387Y106300D01*
X52000Y105500D02*X50613Y106300D01*
X27500Y105500D02*Y103900D01*
Y105500D02*X28887Y106300D01*
X27500Y105500D02*X26113Y106300D01*
X132000Y105500D02*Y103900D01*
Y105500D02*X133387Y106300D01*
X132000Y105500D02*X130613Y106300D01*
X107500Y105500D02*Y103900D01*
Y105500D02*X108887Y106300D01*
X107500Y105500D02*X106113Y106300D01*
X182000Y31000D02*Y29400D01*
Y31000D02*X183387Y31800D01*
X182000Y31000D02*X180613Y31800D01*
X176500Y31000D02*Y29400D01*
Y31000D02*X177887Y31800D01*
X176500Y31000D02*X175113Y31800D01*
X171000Y31000D02*Y29400D01*
Y31000D02*X172387Y31800D01*
X171000Y31000D02*X169613Y31800D01*
X165500Y31000D02*Y29400D01*
Y31000D02*X166887Y31800D01*
X165500Y31000D02*X164113Y31800D01*
X182000Y36000D02*Y34400D01*
Y36000D02*X183387Y36800D01*
X182000Y36000D02*X180613Y36800D01*
X176500Y36000D02*Y34400D01*
Y36000D02*X177887Y36800D01*
X176500Y36000D02*X175113Y36800D01*
X171000Y36000D02*Y34400D01*
Y36000D02*X172387Y36800D01*
X171000Y36000D02*X169613Y36800D01*
X165500Y36000D02*Y34400D01*
Y36000D02*X166887Y36800D01*
X165500Y36000D02*X164113Y36800D01*
X182000Y19000D02*Y17400D01*
Y19000D02*X183387Y19800D01*
X182000Y19000D02*X180613Y19800D01*
X176500Y19000D02*Y17400D01*
Y19000D02*X177887Y19800D01*
X176500Y19000D02*X175113Y19800D01*
X171000Y19000D02*Y17400D01*
Y19000D02*X172387Y19800D01*
X171000Y19000D02*X169613Y19800D01*
X165500Y19000D02*Y17400D01*
Y19000D02*X166887Y19800D01*
X165500Y19000D02*X164113Y19800D01*
X182000Y13500D02*Y11900D01*
Y13500D02*X183387Y14300D01*
X182000Y13500D02*X180613Y14300D01*
X176500Y13500D02*Y11900D01*
Y13500D02*X177887Y14300D01*
X176500Y13500D02*X175113Y14300D01*
X171000Y13500D02*Y11900D01*
Y13500D02*X172387Y14300D01*
X171000Y13500D02*X169613Y14300D01*
X165500Y13500D02*Y11900D01*
Y13500D02*X166887Y14300D01*
X165500Y13500D02*X164113Y14300D01*
X20427Y70645D02*Y69045D01*
Y70645D02*X21814Y71445D01*
X20427Y70645D02*X19040Y71445D01*
X14927Y70645D02*Y69045D01*
Y70645D02*X16314Y71445D01*
X14927Y70645D02*X13540Y71445D01*
X9427Y70645D02*Y69045D01*
Y70645D02*X10814Y71445D01*
X9427Y70645D02*X8040Y71445D01*
X3927Y70645D02*Y69045D01*
Y70645D02*X5314Y71445D01*
X3927Y70645D02*X2540Y71445D01*
X20427Y75645D02*Y74045D01*
Y75645D02*X21814Y76445D01*
X20427Y75645D02*X19040Y76445D01*
X14927Y75645D02*Y74045D01*
Y75645D02*X16314Y76445D01*
X14927Y75645D02*X13540Y76445D01*
X9427Y75645D02*Y74045D01*
Y75645D02*X10814Y76445D01*
X9427Y75645D02*X8040Y76445D01*
X3927Y75645D02*Y74045D01*
Y75645D02*X5314Y76445D01*
X3927Y75645D02*X2540Y76445D01*
X20427Y80645D02*Y79045D01*
Y80645D02*X21814Y81445D01*
X20427Y80645D02*X19040Y81445D01*
X14927Y80645D02*Y79045D01*
Y80645D02*X16314Y81445D01*
X14927Y80645D02*X13540Y81445D01*
X9427Y80645D02*Y79045D01*
Y80645D02*X10814Y81445D01*
X9427Y80645D02*X8040Y81445D01*
X3927Y80645D02*Y79045D01*
Y80645D02*X5314Y81445D01*
X3927Y80645D02*X2540Y81445D01*
X151395Y74500D02*Y72900D01*
Y74500D02*X152782Y75300D01*
X151395Y74500D02*X150008Y75300D01*
X145895Y74500D02*Y72900D01*
Y74500D02*X147282Y75300D01*
X145895Y74500D02*X144508Y75300D01*
X140395Y74500D02*Y72900D01*
Y74500D02*X141782Y75300D01*
X140395Y74500D02*X139008Y75300D01*
X151395Y79500D02*Y77900D01*
Y79500D02*X152782Y80300D01*
X151395Y79500D02*X150008Y80300D01*
X145895Y79500D02*Y77900D01*
Y79500D02*X147282Y80300D01*
X145895Y79500D02*X144508Y80300D01*
X140395Y79500D02*Y77900D01*
Y79500D02*X141782Y80300D01*
X140395Y79500D02*X139008Y80300D01*
X151395Y84500D02*Y82900D01*
Y84500D02*X152782Y85300D01*
X151395Y84500D02*X150008Y85300D01*
X145895Y84500D02*Y82900D01*
Y84500D02*X147282Y85300D01*
X145895Y84500D02*X144508Y85300D01*
X140395Y84500D02*Y82900D01*
Y84500D02*X141782Y85300D01*
X140395Y84500D02*X139008Y85300D01*
X87632Y70616D02*Y69016D01*
Y70616D02*X89019Y71416D01*
X87632Y70616D02*X86245Y71416D01*
X82132Y70616D02*Y69016D01*
Y70616D02*X83519Y71416D01*
X82132Y70616D02*X80745Y71416D01*
X76632Y70616D02*Y69016D01*
Y70616D02*X78019Y71416D01*
X76632Y70616D02*X75245Y71416D01*
X71132Y70616D02*Y69016D01*
Y70616D02*X72519Y71416D01*
X71132Y70616D02*X69745Y71416D01*
X87632Y75616D02*Y74016D01*
Y75616D02*X89019Y76416D01*
X87632Y75616D02*X86245Y76416D01*
X82132Y75616D02*Y74016D01*
Y75616D02*X83519Y76416D01*
X82132Y75616D02*X80745Y76416D01*
X76632Y75616D02*Y74016D01*
Y75616D02*X78019Y76416D01*
X76632Y75616D02*X75245Y76416D01*
X71132Y75616D02*Y74016D01*
Y75616D02*X72519Y76416D01*
X71132Y75616D02*X69745Y76416D01*
X87632Y80616D02*Y79016D01*
Y80616D02*X89019Y81416D01*
X87632Y80616D02*X86245Y81416D01*
X82132Y80616D02*Y79016D01*
Y80616D02*X83519Y81416D01*
X82132Y80616D02*X80745Y81416D01*
X76632Y80616D02*Y79016D01*
Y80616D02*X78019Y81416D01*
X76632Y80616D02*X75245Y81416D01*
X71132Y80616D02*Y79016D01*
Y80616D02*X72519Y81416D01*
X71132Y80616D02*X69745Y81416D01*
X87658Y86127D02*Y84527D01*
Y86127D02*X89045Y86927D01*
X87658Y86127D02*X86271Y86927D01*
X82158Y86127D02*Y84527D01*
Y86127D02*X83545Y86927D01*
X82158Y86127D02*X80771Y86927D01*
X76658Y86127D02*Y84527D01*
Y86127D02*X78045Y86927D01*
X76658Y86127D02*X75271Y86927D01*
X71158Y86127D02*Y84527D01*
Y86127D02*X72545Y86927D01*
X71158Y86127D02*X69771Y86927D01*
X87658Y91127D02*Y89527D01*
Y91127D02*X89045Y91927D01*
X87658Y91127D02*X86271Y91927D01*
X82158Y91127D02*Y89527D01*
Y91127D02*X83545Y91927D01*
X82158Y91127D02*X80771Y91927D01*
X76658Y91127D02*Y89527D01*
Y91127D02*X78045Y91927D01*
X76658Y91127D02*X75271Y91927D01*
X71158Y91127D02*Y89527D01*
Y91127D02*X72545Y91927D01*
X71158Y91127D02*X69771Y91927D01*
X87658Y96127D02*Y94527D01*
Y96127D02*X89045Y96927D01*
X87658Y96127D02*X86271Y96927D01*
X82158Y96127D02*Y94527D01*
Y96127D02*X83545Y96927D01*
X82158Y96127D02*X80771Y96927D01*
X76658Y96127D02*Y94527D01*
Y96127D02*X78045Y96927D01*
X76658Y96127D02*X75271Y96927D01*
X71158Y96127D02*Y94527D01*
Y96127D02*X72545Y96927D01*
X71158Y96127D02*X69771Y96927D01*
X87500Y112000D02*Y110400D01*
Y112000D02*X88887Y112800D01*
X87500Y112000D02*X86113Y112800D01*
X82000Y112000D02*Y110400D01*
Y112000D02*X83387Y112800D01*
X82000Y112000D02*X80613Y112800D01*
X76500Y112000D02*Y110400D01*
Y112000D02*X77887Y112800D01*
X76500Y112000D02*X75113Y112800D01*
X71000Y112000D02*Y110400D01*
Y112000D02*X72387Y112800D01*
X71000Y112000D02*X69613Y112800D01*
X87500Y117000D02*Y115400D01*
Y117000D02*X88887Y117800D01*
X87500Y117000D02*X86113Y117800D01*
X82000Y117000D02*Y115400D01*
Y117000D02*X83387Y117800D01*
X82000Y117000D02*X80613Y117800D01*
X76500Y117000D02*Y115400D01*
Y117000D02*X77887Y117800D01*
X76500Y117000D02*X75113Y117800D01*
X71000Y117000D02*Y115400D01*
Y117000D02*X72387Y117800D01*
X71000Y117000D02*X69613Y117800D01*
X183500Y105500D02*Y103900D01*
Y105500D02*X184887Y106300D01*
X183500Y105500D02*X182113Y106300D01*
X179000Y105500D02*Y103900D01*
Y105500D02*X180387Y106300D01*
X179000Y105500D02*X177613Y106300D01*
X174500Y105500D02*Y103900D01*
Y105500D02*X175887Y106300D01*
X174500Y105500D02*X173113Y106300D01*
X170000Y105500D02*Y103900D01*
Y105500D02*X171387Y106300D01*
X170000Y105500D02*X168613Y106300D01*
X165500Y105500D02*Y103900D01*
Y105500D02*X166887Y106300D01*
X165500Y105500D02*X164113Y106300D01*
X256500Y105500D02*Y103900D01*
Y105500D02*X257887Y106300D01*
X256500Y105500D02*X255113Y106300D01*
X232000Y105500D02*Y103900D01*
Y105500D02*X233387Y106300D01*
X232000Y105500D02*X230613Y106300D01*
X281395Y74500D02*Y72900D01*
Y74500D02*X282782Y75300D01*
X281395Y74500D02*X280008Y75300D01*
X275895Y74500D02*Y72900D01*
Y74500D02*X277282Y75300D01*
X275895Y74500D02*X274508Y75300D01*
X270395Y74500D02*Y72900D01*
Y74500D02*X271782Y75300D01*
X270395Y74500D02*X269008Y75300D01*
X264895Y74500D02*Y72900D01*
Y74500D02*X266282Y75300D01*
X264895Y74500D02*X263508Y75300D01*
X281395Y79500D02*Y77900D01*
Y79500D02*X282782Y80300D01*
X281395Y79500D02*X280008Y80300D01*
X275895Y79500D02*Y77900D01*
Y79500D02*X277282Y80300D01*
X275895Y79500D02*X274508Y80300D01*
X270395Y79500D02*Y77900D01*
Y79500D02*X271782Y80300D01*
X270395Y79500D02*X269008Y80300D01*
X264895Y79500D02*Y77900D01*
Y79500D02*X266282Y80300D01*
X264895Y79500D02*X263508Y80300D01*
X281395Y84500D02*Y82900D01*
Y84500D02*X282782Y85300D01*
X281395Y84500D02*X280008Y85300D01*
X275895Y84500D02*Y82900D01*
Y84500D02*X277282Y85300D01*
X275895Y84500D02*X274508Y85300D01*
X270395Y84500D02*Y82900D01*
Y84500D02*X271782Y85300D01*
X270395Y84500D02*X269008Y85300D01*
X264895Y84500D02*Y82900D01*
Y84500D02*X266282Y85300D01*
X264895Y84500D02*X263508Y85300D01*
X210473Y71489D02*Y69889D01*
Y71489D02*X211860Y72289D01*
X210473Y71489D02*X209086Y72289D01*
X210473Y76489D02*Y74889D01*
Y76489D02*X211860Y77289D01*
X210473Y76489D02*X209086Y77289D01*
X210473Y81489D02*Y79889D01*
Y81489D02*X211860Y82289D01*
X210473Y81489D02*X209086Y82289D01*
X210500Y87000D02*Y85400D01*
Y87000D02*X211887Y87800D01*
X210500Y87000D02*X209113Y87800D01*
X210500Y92000D02*Y90400D01*
Y92000D02*X211887Y92800D01*
X210500Y92000D02*X209113Y92800D01*
X210500Y97000D02*Y95400D01*
Y97000D02*X211887Y97800D01*
X210500Y97000D02*X209113Y97800D01*
X67000Y178000D02*Y176400D01*
Y178000D02*X68387Y178800D01*
X67000Y178000D02*X65613Y178800D01*
X72000Y182000D02*Y180400D01*
Y182000D02*X73387Y182800D01*
X72000Y182000D02*X70613Y182800D01*
X77000Y186000D02*Y184400D01*
Y186000D02*X78387Y186800D01*
X77000Y186000D02*X75613Y186800D01*
X62000Y174000D02*Y172400D01*
Y174000D02*X63387Y174800D01*
X62000Y174000D02*X60613Y174800D01*
X82000Y190000D02*Y188400D01*
Y190000D02*X83387Y190800D01*
X82000Y190000D02*X80613Y190800D01*
X87000Y194000D02*Y192400D01*
Y194000D02*X88387Y194800D01*
X87000Y194000D02*X85613Y194800D01*
X224000Y105500D02*Y103900D01*
Y105500D02*X225387Y106300D01*
X224000Y105500D02*X222613Y106300D01*
X219500Y105500D02*Y103900D01*
Y105500D02*X220887Y106300D01*
X219500Y105500D02*X218113Y106300D01*
X226500Y76500D02*Y74900D01*
Y76500D02*X227887Y77300D01*
X226500Y76500D02*X225113Y77300D01*
X221000Y76500D02*Y74900D01*
Y76500D02*X222387Y77300D01*
X221000Y76500D02*X219613Y77300D01*
X215500Y76500D02*Y74900D01*
Y76500D02*X216887Y77300D01*
X215500Y76500D02*X214113Y77300D01*
X226500Y81500D02*Y79900D01*
Y81500D02*X227887Y82300D01*
X226500Y81500D02*X225113Y82300D01*
X221000Y81500D02*Y79900D01*
Y81500D02*X222387Y82300D01*
X221000Y81500D02*X219613Y82300D01*
X215500Y81500D02*Y79900D01*
Y81500D02*X216887Y82300D01*
X215500Y81500D02*X214113Y82300D01*
X247000Y192000D02*Y190400D01*
Y192000D02*X248387Y192800D01*
X247000Y192000D02*X245613Y192800D01*
X174000Y79500D02*Y77900D01*
Y79500D02*X175387Y80300D01*
X174000Y79500D02*X172613Y80300D01*
X174000Y67500D02*Y65900D01*
Y67500D02*X175387Y68300D01*
X174000Y67500D02*X172613Y68300D01*
X188000Y61500D02*Y59900D01*
Y61500D02*X189387Y62300D01*
X188000Y61500D02*X186613Y62300D01*
X179000Y61500D02*Y59900D01*
Y61500D02*X180387Y62300D01*
X179000Y61500D02*X177613Y62300D01*
X183500Y61500D02*Y59900D01*
Y61500D02*X184887Y62300D01*
X183500Y61500D02*X182113Y62300D01*
X165500Y61500D02*Y59900D01*
Y61500D02*X166887Y62300D01*
X165500Y61500D02*X164113Y62300D01*
X170000Y61500D02*Y59900D01*
Y61500D02*X171387Y62300D01*
X170000Y61500D02*X168613Y62300D01*
X174500Y61500D02*Y59900D01*
Y61500D02*X175887Y62300D01*
X174500Y61500D02*X173113Y62300D01*
X195500Y99000D02*Y97400D01*
Y99000D02*X196887Y99800D01*
X195500Y99000D02*X194113Y99800D01*
X201000Y99000D02*Y97400D01*
Y99000D02*X202387Y99800D01*
X201000Y99000D02*X199613Y99800D01*
X195500Y94500D02*Y92900D01*
Y94500D02*X196887Y95300D01*
X195500Y94500D02*X194113Y95300D01*
X201000Y94500D02*Y92900D01*
Y94500D02*X202387Y95300D01*
X201000Y94500D02*X199613Y95300D01*
X195500Y90000D02*Y88400D01*
Y90000D02*X196887Y90800D01*
X195500Y90000D02*X194113Y90800D01*
X201000Y90000D02*Y88400D01*
Y90000D02*X202387Y90800D01*
X201000Y90000D02*X199613Y90800D01*
X195500Y85500D02*Y83900D01*
Y85500D02*X196887Y86300D01*
X195500Y85500D02*X194113Y86300D01*
X201000Y85500D02*Y83900D01*
Y85500D02*X202387Y86300D01*
X201000Y85500D02*X199613Y86300D01*
X195500Y81000D02*Y79400D01*
Y81000D02*X196887Y81800D01*
X195500Y81000D02*X194113Y81800D01*
X201000Y81000D02*Y79400D01*
Y81000D02*X202387Y81800D01*
X201000Y81000D02*X199613Y81800D01*
X195500Y76500D02*Y74900D01*
Y76500D02*X196887Y77300D01*
X195500Y76500D02*X194113Y77300D01*
X201000Y76500D02*Y74900D01*
Y76500D02*X202387Y77300D01*
X201000Y76500D02*X199613Y77300D01*
X195500Y72000D02*Y70400D01*
Y72000D02*X196887Y72800D01*
X195500Y72000D02*X194113Y72800D01*
X201000Y72000D02*Y70400D01*
Y72000D02*X202387Y72800D01*
X201000Y72000D02*X199613Y72800D01*
X165500Y57000D02*Y55400D01*
Y57000D02*X166887Y57800D01*
X165500Y57000D02*X164113Y57800D01*
X170000Y57000D02*Y55400D01*
Y57000D02*X171387Y57800D01*
X170000Y57000D02*X168613Y57800D01*
X174500Y57000D02*Y55400D01*
Y57000D02*X175887Y57800D01*
X174500Y57000D02*X173113Y57800D01*
X165500Y52500D02*Y50900D01*
Y52500D02*X166887Y53300D01*
X165500Y52500D02*X164113Y53300D01*
X170000Y52500D02*Y50900D01*
Y52500D02*X171387Y53300D01*
X170000Y52500D02*X168613Y53300D01*
X174500Y52500D02*Y50900D01*
Y52500D02*X175887Y53300D01*
X174500Y52500D02*X173113Y53300D01*
X15000Y301250D02*Y299650D01*
Y301250D02*X16387Y302050D01*
X15000Y301250D02*X13613Y302050D01*
X135000Y303500D02*Y302750D01*
X136500Y301250D01*
X138000Y302750D01*
Y303500D02*Y302750D01*
X136500Y301250D02*Y297500D01*
X139800Y300500D02*X142050D01*
X139800Y297500D02*X142800D01*
X139800Y303500D02*Y297500D01*
Y303500D02*X142800D01*
X147600D02*X148350Y302750D01*
X145350Y303500D02*X147600D01*
X144600Y302750D02*X145350Y303500D01*
X144600Y302750D02*Y301250D01*
X145350Y300500D01*
X147600D01*
X148350Y299750D01*
Y298250D01*
X147600Y297500D02*X148350Y298250D01*
X145350Y297500D02*X147600D01*
X144600Y298250D02*X145350Y297500D01*
X98750D02*X100250D01*
X99500Y303500D02*Y297500D01*
X98000Y302000D02*X99500Y303500D01*
X102050Y300500D02*X105050Y303500D01*
X102050Y300500D02*X105800D01*
X105050Y303500D02*Y297500D01*
X108350D02*X109850D01*
X109100Y303500D02*Y297500D01*
X107600Y302000D02*X109100Y303500D01*
X45000Y298250D02*X45750Y297500D01*
X45000Y302750D02*Y298250D01*
Y302750D02*X45750Y303500D01*
X47250D01*
X48000Y302750D01*
Y298250D01*
X47250Y297500D02*X48000Y298250D01*
X45750Y297500D02*X47250D01*
X45000Y299000D02*X48000Y302000D01*
X49800Y297500D02*X50550D01*
X52350Y298250D02*X53100Y297500D01*
X52350Y302750D02*Y298250D01*
Y302750D02*X53100Y303500D01*
X54600D01*
X55350Y302750D01*
Y298250D01*
X54600Y297500D02*X55350Y298250D01*
X53100Y297500D02*X54600D01*
X52350Y299000D02*X55350Y302000D01*
X57150Y302750D02*X57900Y303500D01*
X60150D01*
X60900Y302750D01*
Y301250D01*
X57150Y297500D02*X60900Y301250D01*
X57150Y297500D02*X60900D01*
X62700Y298250D02*X63450Y297500D01*
X62700Y302750D02*Y298250D01*
Y302750D02*X63450Y303500D01*
X64950D01*
X65700Y302750D01*
Y298250D01*
X64950Y297500D02*X65700Y298250D01*
X63450Y297500D02*X64950D01*
X62700Y299000D02*X65700Y302000D01*
X3000Y318500D02*X3750Y317750D01*
X750Y318500D02*X3000D01*
X0Y317750D02*X750Y318500D01*
X0Y317750D02*Y316250D01*
X750Y315500D01*
X3000D01*
X3750Y314750D01*
Y313250D01*
X3000Y312500D02*X3750Y313250D01*
X750Y312500D02*X3000D01*
X0Y313250D02*X750Y312500D01*
X5550Y315500D02*Y313250D01*
X6300Y312500D01*
X8550Y315500D02*Y311000D01*
X7800Y310250D02*X8550Y311000D01*
X6300Y310250D02*X7800D01*
X5550Y311000D02*X6300Y310250D01*
Y312500D02*X7800D01*
X8550Y313250D01*
X11100Y314750D02*Y312500D01*
Y314750D02*X11850Y315500D01*
X12600D01*
X13350Y314750D01*
Y312500D01*
Y314750D02*X14100Y315500D01*
X14850D01*
X15600Y314750D01*
Y312500D01*
X10350Y315500D02*X11100Y314750D01*
X17400Y318500D02*Y312500D01*
Y313250D02*X18150Y312500D01*
X19650D01*
X20400Y313250D01*
Y314750D02*Y313250D01*
X19650Y315500D02*X20400Y314750D01*
X18150Y315500D02*X19650D01*
X17400Y314750D02*X18150Y315500D01*
X22200Y314750D02*Y313250D01*
Y314750D02*X22950Y315500D01*
X24450D01*
X25200Y314750D01*
Y313250D01*
X24450Y312500D02*X25200Y313250D01*
X22950Y312500D02*X24450D01*
X22200Y313250D02*X22950Y312500D01*
X27000Y318500D02*Y313250D01*
X27750Y312500D01*
X0Y309250D02*X29250D01*
X41750Y318500D02*Y312500D01*
X44000Y318500D02*X44750Y317750D01*
Y313250D01*
X44000Y312500D02*X44750Y313250D01*
X41000Y312500D02*X44000D01*
X41000Y318500D02*X44000D01*
X46550Y317000D02*Y316250D01*
Y314750D02*Y312500D01*
X50300Y315500D02*X51050Y314750D01*
X48800Y315500D02*X50300D01*
X48050Y314750D02*X48800Y315500D01*
X48050Y314750D02*Y313250D01*
X48800Y312500D01*
X51050Y315500D02*Y313250D01*
X51800Y312500D01*
X48800D02*X50300D01*
X51050Y313250D01*
X54350Y314750D02*Y312500D01*
Y314750D02*X55100Y315500D01*
X55850D01*
X56600Y314750D01*
Y312500D01*
Y314750D02*X57350Y315500D01*
X58100D01*
X58850Y314750D01*
Y312500D01*
X53600Y315500D02*X54350Y314750D01*
X60650Y312500D02*X61400D01*
X65900Y313250D02*X66650Y312500D01*
X65900Y317750D02*X66650Y318500D01*
X65900Y317750D02*Y313250D01*
X68450Y318500D02*X69950D01*
X69200D02*Y312500D01*
X68450D02*X69950D01*
X72500Y314750D02*Y312500D01*
Y314750D02*X73250Y315500D01*
X74000D01*
X74750Y314750D01*
Y312500D01*
X71750Y315500D02*X72500Y314750D01*
X77300Y315500D02*X79550D01*
X76550Y314750D02*X77300Y315500D01*
X76550Y314750D02*Y313250D01*
X77300Y312500D01*
X79550D01*
X81350Y318500D02*Y312500D01*
Y314750D02*X82100Y315500D01*
X83600D01*
X84350Y314750D01*
Y312500D01*
X86150Y318500D02*X86900Y317750D01*
Y313250D01*
X86150Y312500D02*X86900Y313250D01*
X41000Y309250D02*X88700D01*
X95750Y312500D02*X98000D01*
X95000Y313250D02*X95750Y312500D01*
X95000Y317750D02*Y313250D01*
Y317750D02*X95750Y318500D01*
X98000D01*
X99800Y314750D02*Y313250D01*
Y314750D02*X100550Y315500D01*
X102050D01*
X102800Y314750D01*
Y313250D01*
X102050Y312500D02*X102800Y313250D01*
X100550Y312500D02*X102050D01*
X99800Y313250D02*X100550Y312500D01*
X104600Y315500D02*Y313250D01*
X105350Y312500D01*
X106850D01*
X107600Y313250D01*
Y315500D02*Y313250D01*
X110150Y314750D02*Y312500D01*
Y314750D02*X110900Y315500D01*
X111650D01*
X112400Y314750D01*
Y312500D01*
X109400Y315500D02*X110150Y314750D01*
X114950Y318500D02*Y313250D01*
X115700Y312500D01*
X114200Y316250D02*X115700D01*
X95000Y309250D02*X117200D01*
X130750Y318500D02*Y312500D01*
X130000Y318500D02*X133000D01*
X133750Y317750D01*
Y316250D01*
X133000Y315500D02*X133750Y316250D01*
X130750Y315500D02*X133000D01*
X135550Y318500D02*Y313250D01*
X136300Y312500D01*
X140050Y315500D02*X140800Y314750D01*
X138550Y315500D02*X140050D01*
X137800Y314750D02*X138550Y315500D01*
X137800Y314750D02*Y313250D01*
X138550Y312500D01*
X140800Y315500D02*Y313250D01*
X141550Y312500D01*
X138550D02*X140050D01*
X140800Y313250D01*
X144100Y318500D02*Y313250D01*
X144850Y312500D01*
X143350Y316250D02*X144850D01*
X147100Y312500D02*X149350D01*
X146350Y313250D02*X147100Y312500D01*
X146350Y314750D02*Y313250D01*
Y314750D02*X147100Y315500D01*
X148600D01*
X149350Y314750D01*
X146350Y314000D02*X149350D01*
Y314750D02*Y314000D01*
X154150Y318500D02*Y312500D01*
X153400D02*X154150Y313250D01*
X151900Y312500D02*X153400D01*
X151150Y313250D02*X151900Y312500D01*
X151150Y314750D02*Y313250D01*
Y314750D02*X151900Y315500D01*
X153400D01*
X154150Y314750D01*
X157450Y315500D02*Y314750D01*
Y313250D02*Y312500D01*
X155950Y317750D02*Y317000D01*
Y317750D02*X156700Y318500D01*
X158200D01*
X158950Y317750D01*
Y317000D01*
X157450Y315500D02*X158950Y317000D01*
X130000Y309250D02*X160750D01*
X0Y333500D02*X3000D01*
X1500D02*Y327500D01*
X4800Y333500D02*Y327500D01*
Y329750D02*X5550Y330500D01*
X7050D01*
X7800Y329750D01*
Y327500D01*
X10350D02*X12600D01*
X9600Y328250D02*X10350Y327500D01*
X9600Y329750D02*Y328250D01*
Y329750D02*X10350Y330500D01*
X11850D01*
X12600Y329750D01*
X9600Y329000D02*X12600D01*
Y329750D02*Y329000D01*
X15150Y329750D02*Y327500D01*
Y329750D02*X15900Y330500D01*
X17400D01*
X14400D02*X15150Y329750D01*
X19950Y327500D02*X22200D01*
X19200Y328250D02*X19950Y327500D01*
X19200Y329750D02*Y328250D01*
Y329750D02*X19950Y330500D01*
X21450D01*
X22200Y329750D01*
X19200Y329000D02*X22200D01*
Y329750D02*Y329000D01*
X28950Y330500D02*X29700Y329750D01*
X27450Y330500D02*X28950D01*
X26700Y329750D02*X27450Y330500D01*
X26700Y329750D02*Y328250D01*
X27450Y327500D01*
X29700Y330500D02*Y328250D01*
X30450Y327500D01*
X27450D02*X28950D01*
X29700Y328250D01*
X33000Y329750D02*Y327500D01*
Y329750D02*X33750Y330500D01*
X35250D01*
X32250D02*X33000Y329750D01*
X37800Y327500D02*X40050D01*
X37050Y328250D02*X37800Y327500D01*
X37050Y329750D02*Y328250D01*
Y329750D02*X37800Y330500D01*
X39300D01*
X40050Y329750D01*
X37050Y329000D02*X40050D01*
Y329750D02*Y329000D01*
X44550Y327500D02*X48300Y331250D01*
Y333500D02*Y331250D01*
X44550Y333500D02*X48300D01*
X55800D02*Y327500D01*
X55050D02*X55800Y328250D01*
X53550Y327500D02*X55050D01*
X52800Y328250D02*X53550Y327500D01*
X52800Y329750D02*Y328250D01*
Y329750D02*X53550Y330500D01*
X55050D01*
X55800Y329750D01*
X57600Y332000D02*Y331250D01*
Y329750D02*Y327500D01*
X59850Y332750D02*Y327500D01*
Y332750D02*X60600Y333500D01*
X61350D01*
X59100Y330500D02*X60600D01*
X63600Y332750D02*Y327500D01*
Y332750D02*X64350Y333500D01*
X65100D01*
X62850Y330500D02*X64350D01*
X67350Y327500D02*X69600D01*
X66600Y328250D02*X67350Y327500D01*
X66600Y329750D02*Y328250D01*
Y329750D02*X67350Y330500D01*
X68850D01*
X69600Y329750D01*
X66600Y329000D02*X69600D01*
Y329750D02*Y329000D01*
X72150Y329750D02*Y327500D01*
Y329750D02*X72900Y330500D01*
X74400D01*
X71400D02*X72150Y329750D01*
X76950Y327500D02*X79200D01*
X76200Y328250D02*X76950Y327500D01*
X76200Y329750D02*Y328250D01*
Y329750D02*X76950Y330500D01*
X78450D01*
X79200Y329750D01*
X76200Y329000D02*X79200D01*
Y329750D02*Y329000D01*
X81750Y329750D02*Y327500D01*
Y329750D02*X82500Y330500D01*
X83250D01*
X84000Y329750D01*
Y327500D01*
X81000Y330500D02*X81750Y329750D01*
X86550Y333500D02*Y328250D01*
X87300Y327500D01*
X85800Y331250D02*X87300D01*
X94500Y333500D02*Y327500D01*
X93750D02*X94500Y328250D01*
X92250Y327500D02*X93750D01*
X91500Y328250D02*X92250Y327500D01*
X91500Y329750D02*Y328250D01*
Y329750D02*X92250Y330500D01*
X93750D01*
X94500Y329750D01*
X97050D02*Y327500D01*
Y329750D02*X97800Y330500D01*
X99300D01*
X96300D02*X97050Y329750D01*
X101100Y332000D02*Y331250D01*
Y329750D02*Y327500D01*
X102600Y333500D02*Y328250D01*
X103350Y327500D01*
X104850Y333500D02*Y328250D01*
X105600Y327500D01*
X110550D02*X112800D01*
X113550Y328250D01*
X112800Y329000D02*X113550Y328250D01*
X110550Y329000D02*X112800D01*
X109800Y329750D02*X110550Y329000D01*
X109800Y329750D02*X110550Y330500D01*
X112800D01*
X113550Y329750D01*
X109800Y328250D02*X110550Y327500D01*
X115350Y332000D02*Y331250D01*
Y329750D02*Y327500D01*
X116850Y330500D02*X119850D01*
X116850Y327500D02*X119850Y330500D01*
X116850Y327500D02*X119850D01*
X122400D02*X124650D01*
X121650Y328250D02*X122400Y327500D01*
X121650Y329750D02*Y328250D01*
Y329750D02*X122400Y330500D01*
X123900D01*
X124650Y329750D01*
X121650Y329000D02*X124650D01*
Y329750D02*Y329000D01*
X127200Y327500D02*X129450D01*
X130200Y328250D01*
X129450Y329000D02*X130200Y328250D01*
X127200Y329000D02*X129450D01*
X126450Y329750D02*X127200Y329000D01*
X126450Y329750D02*X127200Y330500D01*
X129450D01*
X130200Y329750D01*
X126450Y328250D02*X127200Y327500D01*
X134700Y330500D02*Y328250D01*
X135450Y327500D01*
X136950D01*
X137700Y328250D01*
Y330500D02*Y328250D01*
X140250Y327500D02*X142500D01*
X143250Y328250D01*
X142500Y329000D02*X143250Y328250D01*
X140250Y329000D02*X142500D01*
X139500Y329750D02*X140250Y329000D01*
X139500Y329750D02*X140250Y330500D01*
X142500D01*
X143250Y329750D01*
X139500Y328250D02*X140250Y327500D01*
X145800D02*X148050D01*
X145050Y328250D02*X145800Y327500D01*
X145050Y329750D02*Y328250D01*
Y329750D02*X145800Y330500D01*
X147300D01*
X148050Y329750D01*
X145050Y329000D02*X148050D01*
Y329750D02*Y329000D01*
X152850Y333500D02*Y327500D01*
X152100D02*X152850Y328250D01*
X150600Y327500D02*X152100D01*
X149850Y328250D02*X150600Y327500D01*
X149850Y329750D02*Y328250D01*
Y329750D02*X150600Y330500D01*
X152100D01*
X152850Y329750D01*
X157350Y332000D02*Y331250D01*
Y329750D02*Y327500D01*
X159600Y329750D02*Y327500D01*
Y329750D02*X160350Y330500D01*
X161100D01*
X161850Y329750D01*
Y327500D01*
X158850Y330500D02*X159600Y329750D01*
X167100Y333500D02*Y328250D01*
X167850Y327500D01*
X166350Y331250D02*X167850D01*
X169350Y333500D02*Y327500D01*
Y329750D02*X170100Y330500D01*
X171600D01*
X172350Y329750D01*
Y327500D01*
X174150Y332000D02*Y331250D01*
Y329750D02*Y327500D01*
X176400D02*X178650D01*
X179400Y328250D01*
X178650Y329000D02*X179400Y328250D01*
X176400Y329000D02*X178650D01*
X175650Y329750D02*X176400Y329000D01*
X175650Y329750D02*X176400Y330500D01*
X178650D01*
X179400Y329750D01*
X175650Y328250D02*X176400Y327500D01*
X183900Y333500D02*Y328250D01*
X184650Y327500D01*
X188400Y330500D02*X189150Y329750D01*
X186900Y330500D02*X188400D01*
X186150Y329750D02*X186900Y330500D01*
X186150Y329750D02*Y328250D01*
X186900Y327500D01*
X189150Y330500D02*Y328250D01*
X189900Y327500D01*
X186900D02*X188400D01*
X189150Y328250D01*
X191700Y330500D02*Y328250D01*
X192450Y327500D01*
X194700Y330500D02*Y326000D01*
X193950Y325250D02*X194700Y326000D01*
X192450Y325250D02*X193950D01*
X191700Y326000D02*X192450Y325250D01*
Y327500D02*X193950D01*
X194700Y328250D01*
X196500Y329750D02*Y328250D01*
Y329750D02*X197250Y330500D01*
X198750D01*
X199500Y329750D01*
Y328250D01*
X198750Y327500D02*X199500Y328250D01*
X197250Y327500D02*X198750D01*
X196500Y328250D02*X197250Y327500D01*
X201300Y330500D02*Y328250D01*
X202050Y327500D01*
X203550D01*
X204300Y328250D01*
Y330500D02*Y328250D01*
X206850Y333500D02*Y328250D01*
X207600Y327500D01*
X206100Y331250D02*X207600D01*
X209100Y326000D02*X210600Y327500D01*
X215850D02*X217350D01*
X216600Y333500D02*Y327500D01*
X215100Y332000D02*X216600Y333500D01*
X219150Y328250D02*X219900Y327500D01*
X219150Y329750D02*Y328250D01*
Y329750D02*X219900Y330500D01*
X221400D01*
X222150Y329750D01*
Y328250D01*
X221400Y327500D02*X222150Y328250D01*
X219900Y327500D02*X221400D01*
X219150Y331250D02*X219900Y330500D01*
X219150Y332750D02*Y331250D01*
Y332750D02*X219900Y333500D01*
X221400D01*
X222150Y332750D01*
Y331250D01*
X221400Y330500D02*X222150Y331250D01*
X223950Y328250D02*X224700Y327500D01*
X223950Y332750D02*Y328250D01*
Y332750D02*X224700Y333500D01*
X226200D01*
X226950Y332750D01*
Y328250D01*
X226200Y327500D02*X226950Y328250D01*
X224700Y327500D02*X226200D01*
X223950Y329000D02*X226950Y332000D01*
X231450Y333500D02*Y327500D01*
Y329750D02*X232200Y330500D01*
X233700D01*
X234450Y329750D01*
Y327500D01*
X236250Y329750D02*Y328250D01*
Y329750D02*X237000Y330500D01*
X238500D01*
X239250Y329750D01*
Y328250D01*
X238500Y327500D02*X239250Y328250D01*
X237000Y327500D02*X238500D01*
X236250Y328250D02*X237000Y327500D01*
X241050Y333500D02*Y328250D01*
X241800Y327500D01*
X244050D02*X246300D01*
X243300Y328250D02*X244050Y327500D01*
X243300Y329750D02*Y328250D01*
Y329750D02*X244050Y330500D01*
X245550D01*
X246300Y329750D01*
X243300Y329000D02*X246300D01*
Y329750D02*Y329000D01*
X248850Y327500D02*X251100D01*
X251850Y328250D01*
X251100Y329000D02*X251850Y328250D01*
X248850Y329000D02*X251100D01*
X248100Y329750D02*X248850Y329000D01*
X248100Y329750D02*X248850Y330500D01*
X251100D01*
X251850Y329750D01*
X248100Y328250D02*X248850Y327500D01*
X257100Y333500D02*Y328250D01*
X257850Y327500D01*
X256350Y331250D02*X257850D01*
X259350Y329750D02*Y328250D01*
Y329750D02*X260100Y330500D01*
X261600D01*
X262350Y329750D01*
Y328250D01*
X261600Y327500D02*X262350Y328250D01*
X260100Y327500D02*X261600D01*
X259350Y328250D02*X260100Y327500D01*
X264900Y333500D02*Y328250D01*
X265650Y327500D01*
X264150Y331250D02*X265650D01*
X269400Y330500D02*X270150Y329750D01*
X267900Y330500D02*X269400D01*
X267150Y329750D02*X267900Y330500D01*
X267150Y329750D02*Y328250D01*
X267900Y327500D01*
X270150Y330500D02*Y328250D01*
X270900Y327500D01*
X267900D02*X269400D01*
X270150Y328250D01*
X272700Y333500D02*Y328250D01*
X273450Y327500D01*
G54D87*X0Y200000D02*X285500D01*
X0D02*Y0D01*
X285500Y200000D02*Y0D01*
X0D02*X285500D01*
G54D86*X200000Y213500D02*Y207500D01*
Y213500D02*X202250Y211250D01*
X204500Y213500D01*
Y207500D01*
X208550Y210500D02*X209300Y209750D01*
X207050Y210500D02*X208550D01*
X206300Y209750D02*X207050Y210500D01*
X206300Y209750D02*Y208250D01*
X207050Y207500D01*
X209300Y210500D02*Y208250D01*
X210050Y207500D01*
X207050D02*X208550D01*
X209300Y208250D01*
X211850Y210500D02*X214850Y207500D01*
X211850D02*X214850Y210500D01*
X216650Y212000D02*Y211250D01*
Y209750D02*Y207500D01*
X218900Y209750D02*Y207500D01*
Y209750D02*X219650Y210500D01*
X220400D01*
X221150Y209750D01*
Y207500D01*
Y209750D02*X221900Y210500D01*
X222650D01*
X223400Y209750D01*
Y207500D01*
X218150Y210500D02*X218900Y209750D01*
X225200Y210500D02*Y208250D01*
X225950Y207500D01*
X227450D01*
X228200Y208250D01*
Y210500D02*Y208250D01*
X230750Y209750D02*Y207500D01*
Y209750D02*X231500Y210500D01*
X232250D01*
X233000Y209750D01*
Y207500D01*
Y209750D02*X233750Y210500D01*
X234500D01*
X235250Y209750D01*
Y207500D01*
X230000Y210500D02*X230750Y209750D01*
X240500Y213500D02*Y207500D01*
X242750Y213500D02*X243500Y212750D01*
Y208250D01*
X242750Y207500D02*X243500Y208250D01*
X239750Y207500D02*X242750D01*
X239750Y213500D02*X242750D01*
X245300Y212000D02*Y211250D01*
Y209750D02*Y207500D01*
X247550Y209750D02*Y207500D01*
Y209750D02*X248300Y210500D01*
X249050D01*
X249800Y209750D01*
Y207500D01*
Y209750D02*X250550Y210500D01*
X251300D01*
X252050Y209750D01*
Y207500D01*
X246800Y210500D02*X247550Y209750D01*
X254600Y207500D02*X256850D01*
X253850Y208250D02*X254600Y207500D01*
X253850Y209750D02*Y208250D01*
Y209750D02*X254600Y210500D01*
X256100D01*
X256850Y209750D01*
X253850Y209000D02*X256850D01*
Y209750D02*Y209000D01*
X259400Y209750D02*Y207500D01*
Y209750D02*X260150Y210500D01*
X260900D01*
X261650Y209750D01*
Y207500D01*
X258650Y210500D02*X259400Y209750D01*
X264200Y207500D02*X266450D01*
X267200Y208250D01*
X266450Y209000D02*X267200Y208250D01*
X264200Y209000D02*X266450D01*
X263450Y209750D02*X264200Y209000D01*
X263450Y209750D02*X264200Y210500D01*
X266450D01*
X267200Y209750D01*
X263450Y208250D02*X264200Y207500D01*
X269000Y212000D02*Y211250D01*
Y209750D02*Y207500D01*
X270500Y209750D02*Y208250D01*
Y209750D02*X271250Y210500D01*
X272750D01*
X273500Y209750D01*
Y208250D01*
X272750Y207500D02*X273500Y208250D01*
X271250Y207500D02*X272750D01*
X270500Y208250D02*X271250Y207500D01*
X276050Y209750D02*Y207500D01*
Y209750D02*X276800Y210500D01*
X277550D01*
X278300Y209750D01*
Y207500D01*
X275300Y210500D02*X276050Y209750D01*
X280850Y207500D02*X283100D01*
X283850Y208250D01*
X283100Y209000D02*X283850Y208250D01*
X280850Y209000D02*X283100D01*
X280100Y209750D02*X280850Y209000D01*
X280100Y209750D02*X280850Y210500D01*
X283100D01*
X283850Y209750D01*
X280100Y208250D02*X280850Y207500D01*
X285650Y211250D02*X286400D01*
X285650Y209750D02*X286400D01*
X290900Y212750D02*X291650Y213500D01*
X293900D01*
X294650Y212750D01*
Y211250D01*
X290900Y207500D02*X294650Y211250D01*
X290900Y207500D02*X294650D01*
X296450Y208250D02*X297200Y207500D01*
X296450Y209750D02*Y208250D01*
Y209750D02*X297200Y210500D01*
X298700D01*
X299450Y209750D01*
Y208250D01*
X298700Y207500D02*X299450Y208250D01*
X297200Y207500D02*X298700D01*
X296450Y211250D02*X297200Y210500D01*
X296450Y212750D02*Y211250D01*
Y212750D02*X297200Y213500D01*
X298700D01*
X299450Y212750D01*
Y211250D01*
X298700Y210500D02*X299450Y211250D01*
X301250Y213500D02*X304250D01*
X301250D02*Y210500D01*
X302000Y211250D01*
X303500D01*
X304250Y210500D01*
Y208250D01*
X303500Y207500D02*X304250Y208250D01*
X302000Y207500D02*X303500D01*
X301250Y208250D02*X302000Y207500D01*
X306050Y213500D02*X309050D01*
X306050D02*Y210500D01*
X306800Y211250D01*
X308300D01*
X309050Y210500D01*
Y208250D01*
X308300Y207500D02*X309050Y208250D01*
X306800Y207500D02*X308300D01*
X306050Y208250D02*X306800Y207500D01*
X310850D02*X311600D01*
X313400Y208250D02*X314150Y207500D01*
X313400Y212750D02*Y208250D01*
Y212750D02*X314150Y213500D01*
X315650D01*
X316400Y212750D01*
Y208250D01*
X315650Y207500D02*X316400Y208250D01*
X314150Y207500D02*X315650D01*
X313400Y209000D02*X316400Y212000D01*
X318200Y208250D02*X318950Y207500D01*
X318200Y212750D02*Y208250D01*
Y212750D02*X318950Y213500D01*
X320450D01*
X321200Y212750D01*
Y208250D01*
X320450Y207500D02*X321200Y208250D01*
X318950Y207500D02*X320450D01*
X318200Y209000D02*X321200Y212000D01*
X323000Y208250D02*X323750Y207500D01*
X323000Y212750D02*Y208250D01*
Y212750D02*X323750Y213500D01*
X325250D01*
X326000Y212750D01*
Y208250D01*
X325250Y207500D02*X326000Y208250D01*
X323750Y207500D02*X325250D01*
X323000Y209000D02*X326000Y212000D01*
X327800Y208250D02*X328550Y207500D01*
X327800Y212750D02*Y208250D01*
Y212750D02*X328550Y213500D01*
X330050D01*
X330800Y212750D01*
Y208250D01*
X330050Y207500D02*X330800Y208250D01*
X328550Y207500D02*X330050D01*
X327800Y209000D02*X330800Y212000D01*
X332600Y208250D02*X333350Y207500D01*
X332600Y212750D02*Y208250D01*
Y212750D02*X333350Y213500D01*
X334850D01*
X335600Y212750D01*
Y208250D01*
X334850Y207500D02*X335600Y208250D01*
X333350Y207500D02*X334850D01*
X332600Y209000D02*X335600Y212000D01*
X337400Y208250D02*X338150Y207500D01*
X337400Y212750D02*Y208250D01*
Y212750D02*X338150Y213500D01*
X339650D01*
X340400Y212750D01*
Y208250D01*
X339650Y207500D02*X340400Y208250D01*
X338150Y207500D02*X339650D01*
X337400Y209000D02*X340400Y212000D01*
X345650Y209750D02*Y207500D01*
Y209750D02*X346400Y210500D01*
X347150D01*
X347900Y209750D01*
Y207500D01*
Y209750D02*X348650Y210500D01*
X349400D01*
X350150Y209750D01*
Y207500D01*
X344900Y210500D02*X345650Y209750D01*
X351950Y212000D02*Y211250D01*
Y209750D02*Y207500D01*
X353450Y213500D02*Y208250D01*
X354200Y207500D01*
X356450D02*X358700D01*
X359450Y208250D01*
X358700Y209000D02*X359450Y208250D01*
X356450Y209000D02*X358700D01*
X355700Y209750D02*X356450Y209000D01*
X355700Y209750D02*X356450Y210500D01*
X358700D01*
X359450Y209750D01*
X355700Y208250D02*X356450Y207500D01*
X363950Y210500D02*Y208250D01*
X364700Y207500D01*
X365450D01*
X366200Y208250D01*
Y210500D02*Y208250D01*
X366950Y207500D01*
X367700D01*
X368450Y208250D01*
Y210500D02*Y208250D01*
X370250Y212000D02*Y211250D01*
Y209750D02*Y207500D01*
X374750Y213500D02*Y207500D01*
X374000D02*X374750Y208250D01*
X372500Y207500D02*X374000D01*
X371750Y208250D02*X372500Y207500D01*
X371750Y209750D02*Y208250D01*
Y209750D02*X372500Y210500D01*
X374000D01*
X374750Y209750D01*
X377300Y207500D02*X379550D01*
X376550Y208250D02*X377300Y207500D01*
X376550Y209750D02*Y208250D01*
Y209750D02*X377300Y210500D01*
X378800D01*
X379550Y209750D01*
X376550Y209000D02*X379550D01*
Y209750D02*Y209000D01*
X381350Y206000D02*X382850Y207500D01*
X387350Y212750D02*X388100Y213500D01*
X390350D01*
X391100Y212750D01*
Y211250D01*
X387350Y207500D02*X391100Y211250D01*
X387350Y207500D02*X391100D01*
X392900Y208250D02*X393650Y207500D01*
X392900Y212750D02*Y208250D01*
Y212750D02*X393650Y213500D01*
X395150D01*
X395900Y212750D01*
Y208250D01*
X395150Y207500D02*X395900Y208250D01*
X393650Y207500D02*X395150D01*
X392900Y209000D02*X395900Y212000D01*
X397700Y208250D02*X398450Y207500D01*
X397700Y212750D02*Y208250D01*
Y212750D02*X398450Y213500D01*
X399950D01*
X400700Y212750D01*
Y208250D01*
X399950Y207500D02*X400700Y208250D01*
X398450Y207500D02*X399950D01*
X397700Y209000D02*X400700Y212000D01*
X402500Y208250D02*X403250Y207500D01*
X402500Y212750D02*Y208250D01*
Y212750D02*X403250Y213500D01*
X404750D01*
X405500Y212750D01*
Y208250D01*
X404750Y207500D02*X405500Y208250D01*
X403250Y207500D02*X404750D01*
X402500Y209000D02*X405500Y212000D01*
X407300Y207500D02*X408050D01*
X409850Y208250D02*X410600Y207500D01*
X409850Y212750D02*Y208250D01*
Y212750D02*X410600Y213500D01*
X412100D01*
X412850Y212750D01*
Y208250D01*
X412100Y207500D02*X412850Y208250D01*
X410600Y207500D02*X412100D01*
X409850Y209000D02*X412850Y212000D01*
X414650Y208250D02*X415400Y207500D01*
X414650Y212750D02*Y208250D01*
Y212750D02*X415400Y213500D01*
X416900D01*
X417650Y212750D01*
Y208250D01*
X416900Y207500D02*X417650Y208250D01*
X415400Y207500D02*X416900D01*
X414650Y209000D02*X417650Y212000D01*
X419450Y208250D02*X420200Y207500D01*
X419450Y212750D02*Y208250D01*
Y212750D02*X420200Y213500D01*
X421700D01*
X422450Y212750D01*
Y208250D01*
X421700Y207500D02*X422450Y208250D01*
X420200Y207500D02*X421700D01*
X419450Y209000D02*X422450Y212000D01*
X424250Y208250D02*X425000Y207500D01*
X424250Y212750D02*Y208250D01*
Y212750D02*X425000Y213500D01*
X426500D01*
X427250Y212750D01*
Y208250D01*
X426500Y207500D02*X427250Y208250D01*
X425000Y207500D02*X426500D01*
X424250Y209000D02*X427250Y212000D01*
X429050Y208250D02*X429800Y207500D01*
X429050Y212750D02*Y208250D01*
Y212750D02*X429800Y213500D01*
X431300D01*
X432050Y212750D01*
Y208250D01*
X431300Y207500D02*X432050Y208250D01*
X429800Y207500D02*X431300D01*
X429050Y209000D02*X432050Y212000D01*
X433850Y208250D02*X434600Y207500D01*
X433850Y212750D02*Y208250D01*
Y212750D02*X434600Y213500D01*
X436100D01*
X436850Y212750D01*
Y208250D01*
X436100Y207500D02*X436850Y208250D01*
X434600Y207500D02*X436100D01*
X433850Y209000D02*X436850Y212000D01*
X442100Y209750D02*Y207500D01*
Y209750D02*X442850Y210500D01*
X443600D01*
X444350Y209750D01*
Y207500D01*
Y209750D02*X445100Y210500D01*
X445850D01*
X446600Y209750D01*
Y207500D01*
X441350Y210500D02*X442100Y209750D01*
X448400Y212000D02*Y211250D01*
Y209750D02*Y207500D01*
X449900Y213500D02*Y208250D01*
X450650Y207500D01*
X452900D02*X455150D01*
X455900Y208250D01*
X455150Y209000D02*X455900Y208250D01*
X452900Y209000D02*X455150D01*
X452150Y209750D02*X452900Y209000D01*
X452150Y209750D02*X452900Y210500D01*
X455150D01*
X455900Y209750D01*
X452150Y208250D02*X452900Y207500D01*
X460400Y213500D02*Y207500D01*
Y209750D02*X461150Y210500D01*
X462650D01*
X463400Y209750D01*
Y207500D01*
X465200Y212000D02*Y211250D01*
Y209750D02*Y207500D01*
X468950Y210500D02*X469700Y209750D01*
X467450Y210500D02*X468950D01*
X466700Y209750D02*X467450Y210500D01*
X466700Y209750D02*Y208250D01*
X467450Y207500D01*
X468950D01*
X469700Y208250D01*
X466700Y206000D02*X467450Y205250D01*
X468950D01*
X469700Y206000D01*
Y210500D02*Y206000D01*
X471500Y213500D02*Y207500D01*
Y209750D02*X472250Y210500D01*
X473750D01*
X474500Y209750D01*
Y207500D01*
X0Y-9500D02*X3000D01*
X3750Y-8750D01*
Y-7250D02*Y-8750D01*
X3000Y-6500D02*X3750Y-7250D01*
X750Y-6500D02*X3000D01*
X750Y-3500D02*Y-9500D01*
X0Y-3500D02*X3000D01*
X3750Y-4250D01*
Y-5750D01*
X3000Y-6500D02*X3750Y-5750D01*
X5550Y-7250D02*Y-8750D01*
Y-7250D02*X6300Y-6500D01*
X7800D01*
X8550Y-7250D01*
Y-8750D01*
X7800Y-9500D02*X8550Y-8750D01*
X6300Y-9500D02*X7800D01*
X5550Y-8750D02*X6300Y-9500D01*
X12600Y-6500D02*X13350Y-7250D01*
X11100Y-6500D02*X12600D01*
X10350Y-7250D02*X11100Y-6500D01*
X10350Y-7250D02*Y-8750D01*
X11100Y-9500D01*
X13350Y-6500D02*Y-8750D01*
X14100Y-9500D01*
X11100D02*X12600D01*
X13350Y-8750D01*
X16650Y-7250D02*Y-9500D01*
Y-7250D02*X17400Y-6500D01*
X18900D01*
X15900D02*X16650Y-7250D01*
X23700Y-3500D02*Y-9500D01*
X22950D02*X23700Y-8750D01*
X21450Y-9500D02*X22950D01*
X20700Y-8750D02*X21450Y-9500D01*
X20700Y-7250D02*Y-8750D01*
Y-7250D02*X21450Y-6500D01*
X22950D01*
X23700Y-7250D01*
X28200D02*Y-8750D01*
Y-7250D02*X28950Y-6500D01*
X30450D01*
X31200Y-7250D01*
Y-8750D01*
X30450Y-9500D02*X31200Y-8750D01*
X28950Y-9500D02*X30450D01*
X28200Y-8750D02*X28950Y-9500D01*
X33000Y-6500D02*Y-8750D01*
X33750Y-9500D01*
X35250D01*
X36000Y-8750D01*
Y-6500D02*Y-8750D01*
X38550Y-3500D02*Y-8750D01*
X39300Y-9500D01*
X37800Y-5750D02*X39300D01*
X40800Y-3500D02*Y-8750D01*
X41550Y-9500D01*
X43050Y-5000D02*Y-5750D01*
Y-7250D02*Y-9500D01*
X45300Y-7250D02*Y-9500D01*
Y-7250D02*X46050Y-6500D01*
X46800D01*
X47550Y-7250D01*
Y-9500D01*
X44550Y-6500D02*X45300Y-7250D01*
X50100Y-9500D02*X52350D01*
X49350Y-8750D02*X50100Y-9500D01*
X49350Y-7250D02*Y-8750D01*
Y-7250D02*X50100Y-6500D01*
X51600D01*
X52350Y-7250D01*
X49350Y-8000D02*X52350D01*
Y-7250D02*Y-8000D01*
X56850Y-5000D02*Y-5750D01*
Y-7250D02*Y-9500D01*
X59100D02*X61350D01*
X62100Y-8750D01*
X61350Y-8000D02*X62100Y-8750D01*
X59100Y-8000D02*X61350D01*
X58350Y-7250D02*X59100Y-8000D01*
X58350Y-7250D02*X59100Y-6500D01*
X61350D01*
X62100Y-7250D01*
X58350Y-8750D02*X59100Y-9500D01*
X67350Y-3500D02*Y-8750D01*
X68100Y-9500D01*
X66600Y-5750D02*X68100D01*
X69600Y-3500D02*Y-9500D01*
Y-7250D02*X70350Y-6500D01*
X71850D01*
X72600Y-7250D01*
Y-9500D01*
X75150D02*X77400D01*
X74400Y-8750D02*X75150Y-9500D01*
X74400Y-7250D02*Y-8750D01*
Y-7250D02*X75150Y-6500D01*
X76650D01*
X77400Y-7250D01*
X74400Y-8000D02*X77400D01*
Y-7250D02*Y-8000D01*
X82650Y-6500D02*X84900D01*
X81900Y-7250D02*X82650Y-6500D01*
X81900Y-7250D02*Y-8750D01*
X82650Y-9500D01*
X84900D01*
X87450D02*X89700D01*
X86700Y-8750D02*X87450Y-9500D01*
X86700Y-7250D02*Y-8750D01*
Y-7250D02*X87450Y-6500D01*
X88950D01*
X89700Y-7250D01*
X86700Y-8000D02*X89700D01*
Y-7250D02*Y-8000D01*
X92250Y-7250D02*Y-9500D01*
Y-7250D02*X93000Y-6500D01*
X93750D01*
X94500Y-7250D01*
Y-9500D01*
X91500Y-6500D02*X92250Y-7250D01*
X97050Y-3500D02*Y-8750D01*
X97800Y-9500D01*
X96300Y-5750D02*X97800D01*
X100050Y-9500D02*X102300D01*
X99300Y-8750D02*X100050Y-9500D01*
X99300Y-7250D02*Y-8750D01*
Y-7250D02*X100050Y-6500D01*
X101550D01*
X102300Y-7250D01*
X99300Y-8000D02*X102300D01*
Y-7250D02*Y-8000D01*
X104850Y-7250D02*Y-9500D01*
Y-7250D02*X105600Y-6500D01*
X107100D01*
X104100D02*X104850Y-7250D01*
X108900Y-3500D02*Y-8750D01*
X109650Y-9500D01*
X111150Y-5000D02*Y-5750D01*
Y-7250D02*Y-9500D01*
X113400Y-7250D02*Y-9500D01*
Y-7250D02*X114150Y-6500D01*
X114900D01*
X115650Y-7250D01*
Y-9500D01*
X112650Y-6500D02*X113400Y-7250D01*
X118200Y-9500D02*X120450D01*
X117450Y-8750D02*X118200Y-9500D01*
X117450Y-7250D02*Y-8750D01*
Y-7250D02*X118200Y-6500D01*
X119700D01*
X120450Y-7250D01*
X117450Y-8000D02*X120450D01*
Y-7250D02*Y-8000D01*
X124950Y-7250D02*Y-8750D01*
Y-7250D02*X125700Y-6500D01*
X127200D01*
X127950Y-7250D01*
Y-8750D01*
X127200Y-9500D02*X127950Y-8750D01*
X125700Y-9500D02*X127200D01*
X124950Y-8750D02*X125700Y-9500D01*
X130500Y-4250D02*Y-9500D01*
Y-4250D02*X131250Y-3500D01*
X132000D01*
X129750Y-6500D02*X131250D01*
X136950Y-3500D02*Y-8750D01*
X137700Y-9500D01*
X136200Y-5750D02*X137700D01*
X139200Y-3500D02*Y-9500D01*
Y-7250D02*X139950Y-6500D01*
X141450D01*
X142200Y-7250D01*
Y-9500D01*
X144000Y-5000D02*Y-5750D01*
Y-7250D02*Y-9500D01*
X146250D02*X148500D01*
X149250Y-8750D01*
X148500Y-8000D02*X149250Y-8750D01*
X146250Y-8000D02*X148500D01*
X145500Y-7250D02*X146250Y-8000D01*
X145500Y-7250D02*X146250Y-6500D01*
X148500D01*
X149250Y-7250D01*
X145500Y-8750D02*X146250Y-9500D01*
X153750Y-8750D02*X154500Y-9500D01*
X153750Y-7250D02*Y-8750D01*
Y-7250D02*X154500Y-6500D01*
X156000D01*
X156750Y-7250D01*
Y-8750D01*
X156000Y-9500D02*X156750Y-8750D01*
X154500Y-9500D02*X156000D01*
X153750Y-5750D02*X154500Y-6500D01*
X153750Y-4250D02*Y-5750D01*
Y-4250D02*X154500Y-3500D01*
X156000D01*
X156750Y-4250D01*
Y-5750D01*
X156000Y-6500D02*X156750Y-5750D01*
X158550Y-9500D02*X159300D01*
X161100Y-8750D02*X161850Y-9500D01*
X161100Y-4250D02*Y-8750D01*
Y-4250D02*X161850Y-3500D01*
X163350D01*
X164100Y-4250D01*
Y-8750D01*
X163350Y-9500D02*X164100Y-8750D01*
X161850Y-9500D02*X163350D01*
X161100Y-8000D02*X164100Y-5000D01*
X165900Y-8750D02*X166650Y-9500D01*
X165900Y-4250D02*Y-8750D01*
Y-4250D02*X166650Y-3500D01*
X168150D01*
X168900Y-4250D01*
Y-8750D01*
X168150Y-9500D02*X168900Y-8750D01*
X166650Y-9500D02*X168150D01*
X165900Y-8000D02*X168900Y-5000D01*
X170700Y-8750D02*X171450Y-9500D01*
X170700Y-4250D02*Y-8750D01*
Y-4250D02*X171450Y-3500D01*
X172950D01*
X173700Y-4250D01*
Y-8750D01*
X172950Y-9500D02*X173700Y-8750D01*
X171450Y-9500D02*X172950D01*
X170700Y-8000D02*X173700Y-5000D01*
X175500Y-8750D02*X176250Y-9500D01*
X175500Y-4250D02*Y-8750D01*
Y-4250D02*X176250Y-3500D01*
X177750D01*
X178500Y-4250D01*
Y-8750D01*
X177750Y-9500D02*X178500Y-8750D01*
X176250Y-9500D02*X177750D01*
X175500Y-8000D02*X178500Y-5000D01*
X180300Y-8750D02*X181050Y-9500D01*
X180300Y-4250D02*Y-8750D01*
Y-4250D02*X181050Y-3500D01*
X182550D01*
X183300Y-4250D01*
Y-8750D01*
X182550Y-9500D02*X183300Y-8750D01*
X181050Y-9500D02*X182550D01*
X180300Y-8000D02*X183300Y-5000D01*
X185100Y-8750D02*X185850Y-9500D01*
X185100Y-4250D02*Y-8750D01*
Y-4250D02*X185850Y-3500D01*
X187350D01*
X188100Y-4250D01*
Y-8750D01*
X187350Y-9500D02*X188100Y-8750D01*
X185850Y-9500D02*X187350D01*
X185100Y-8000D02*X188100Y-5000D01*
X193350Y-7250D02*Y-9500D01*
Y-7250D02*X194100Y-6500D01*
X194850D01*
X195600Y-7250D01*
Y-9500D01*
Y-7250D02*X196350Y-6500D01*
X197100D01*
X197850Y-7250D01*
Y-9500D01*
X192600Y-6500D02*X193350Y-7250D01*
X199650Y-5000D02*Y-5750D01*
Y-7250D02*Y-9500D01*
X201150Y-3500D02*Y-8750D01*
X201900Y-9500D01*
X206850Y-7250D02*Y-9500D01*
Y-7250D02*X207600Y-6500D01*
X209100D01*
X206100D02*X206850Y-7250D01*
X211650Y-9500D02*X213900D01*
X210900Y-8750D02*X211650Y-9500D01*
X210900Y-7250D02*Y-8750D01*
Y-7250D02*X211650Y-6500D01*
X213150D01*
X213900Y-7250D01*
X210900Y-8000D02*X213900D01*
Y-7250D02*Y-8000D01*
X216450Y-6500D02*X218700D01*
X215700Y-7250D02*X216450Y-6500D01*
X215700Y-7250D02*Y-8750D01*
X216450Y-9500D01*
X218700D01*
X221250Y-3500D02*Y-8750D01*
X222000Y-9500D01*
X220500Y-5750D02*X222000D01*
X225750Y-6500D02*X226500Y-7250D01*
X224250Y-6500D02*X225750D01*
X223500Y-7250D02*X224250Y-6500D01*
X223500Y-7250D02*Y-8750D01*
X224250Y-9500D01*
X226500Y-6500D02*Y-8750D01*
X227250Y-9500D01*
X224250D02*X225750D01*
X226500Y-8750D01*
X229800Y-7250D02*Y-9500D01*
Y-7250D02*X230550Y-6500D01*
X231300D01*
X232050Y-7250D01*
Y-9500D01*
X229050Y-6500D02*X229800Y-7250D01*
X236100Y-6500D02*X236850Y-7250D01*
X234600Y-6500D02*X236100D01*
X233850Y-7250D02*X234600Y-6500D01*
X233850Y-7250D02*Y-8750D01*
X234600Y-9500D01*
X236100D01*
X236850Y-8750D01*
X233850Y-11000D02*X234600Y-11750D01*
X236100D01*
X236850Y-11000D01*
Y-6500D02*Y-11000D01*
X238650Y-3500D02*Y-8750D01*
X239400Y-9500D01*
X241650D02*X243900D01*
X240900Y-8750D02*X241650Y-9500D01*
X240900Y-7250D02*Y-8750D01*
Y-7250D02*X241650Y-6500D01*
X243150D01*
X243900Y-7250D01*
X240900Y-8000D02*X243900D01*
Y-7250D02*Y-8000D01*
X248400Y-6500D02*X251400D01*
X255900Y-8750D02*X256650Y-9500D01*
X255900Y-4250D02*Y-8750D01*
Y-4250D02*X256650Y-3500D01*
X258150D01*
X258900Y-4250D01*
Y-8750D01*
X258150Y-9500D02*X258900Y-8750D01*
X256650Y-9500D02*X258150D01*
X255900Y-8000D02*X258900Y-5000D01*
X260700Y-11000D02*X262200Y-9500D01*
X264000Y-8750D02*X264750Y-9500D01*
X264000Y-4250D02*Y-8750D01*
Y-4250D02*X264750Y-3500D01*
X266250D01*
X267000Y-4250D01*
Y-8750D01*
X266250Y-9500D02*X267000Y-8750D01*
X264750Y-9500D02*X266250D01*
X264000Y-8000D02*X267000Y-5000D01*
X272250Y-3500D02*Y-8750D01*
X273000Y-9500D01*
X271500Y-5750D02*X273000D01*
X274500Y-7250D02*Y-8750D01*
Y-7250D02*X275250Y-6500D01*
X276750D01*
X277500Y-7250D01*
Y-8750D01*
X276750Y-9500D02*X277500Y-8750D01*
X275250Y-9500D02*X276750D01*
X274500Y-8750D02*X275250Y-9500D01*
X282000Y-4250D02*X282750Y-3500D01*
X285000D01*
X285750Y-4250D01*
Y-5750D01*
X282000Y-9500D02*X285750Y-5750D01*
X282000Y-9500D02*X285750D01*
X287550Y-8750D02*X288300Y-9500D01*
X287550Y-7250D02*Y-8750D01*
Y-7250D02*X288300Y-6500D01*
X289800D01*
X290550Y-7250D01*
Y-8750D01*
X289800Y-9500D02*X290550Y-8750D01*
X288300Y-9500D02*X289800D01*
X287550Y-5750D02*X288300Y-6500D01*
X287550Y-4250D02*Y-5750D01*
Y-4250D02*X288300Y-3500D01*
X289800D01*
X290550Y-4250D01*
Y-5750D01*
X289800Y-6500D02*X290550Y-5750D01*
X292350Y-3500D02*X295350D01*
X292350D02*Y-6500D01*
X293100Y-5750D01*
X294600D01*
X295350Y-6500D01*
Y-8750D01*
X294600Y-9500D02*X295350Y-8750D01*
X293100Y-9500D02*X294600D01*
X292350Y-8750D02*X293100Y-9500D01*
X297150Y-3500D02*X300150D01*
X297150D02*Y-6500D01*
X297900Y-5750D01*
X299400D01*
X300150Y-6500D01*
Y-8750D01*
X299400Y-9500D02*X300150Y-8750D01*
X297900Y-9500D02*X299400D01*
X297150Y-8750D02*X297900Y-9500D01*
X301950D02*X302700D01*
X304500Y-8750D02*X305250Y-9500D01*
X304500Y-4250D02*Y-8750D01*
Y-4250D02*X305250Y-3500D01*
X306750D01*
X307500Y-4250D01*
Y-8750D01*
X306750Y-9500D02*X307500Y-8750D01*
X305250Y-9500D02*X306750D01*
X304500Y-8000D02*X307500Y-5000D01*
X309300Y-8750D02*X310050Y-9500D01*
X309300Y-4250D02*Y-8750D01*
Y-4250D02*X310050Y-3500D01*
X311550D01*
X312300Y-4250D01*
Y-8750D01*
X311550Y-9500D02*X312300Y-8750D01*
X310050Y-9500D02*X311550D01*
X309300Y-8000D02*X312300Y-5000D01*
X314100Y-8750D02*X314850Y-9500D01*
X314100Y-4250D02*Y-8750D01*
Y-4250D02*X314850Y-3500D01*
X316350D01*
X317100Y-4250D01*
Y-8750D01*
X316350Y-9500D02*X317100Y-8750D01*
X314850Y-9500D02*X316350D01*
X314100Y-8000D02*X317100Y-5000D01*
X318900Y-8750D02*X319650Y-9500D01*
X318900Y-4250D02*Y-8750D01*
Y-4250D02*X319650Y-3500D01*
X321150D01*
X321900Y-4250D01*
Y-8750D01*
X321150Y-9500D02*X321900Y-8750D01*
X319650Y-9500D02*X321150D01*
X318900Y-8000D02*X321900Y-5000D01*
X323700Y-8750D02*X324450Y-9500D01*
X323700Y-4250D02*Y-8750D01*
Y-4250D02*X324450Y-3500D01*
X325950D01*
X326700Y-4250D01*
Y-8750D01*
X325950Y-9500D02*X326700Y-8750D01*
X324450Y-9500D02*X325950D01*
X323700Y-8000D02*X326700Y-5000D01*
X328500Y-8750D02*X329250Y-9500D01*
X328500Y-4250D02*Y-8750D01*
Y-4250D02*X329250Y-3500D01*
X330750D01*
X331500Y-4250D01*
Y-8750D01*
X330750Y-9500D02*X331500Y-8750D01*
X329250Y-9500D02*X330750D01*
X328500Y-8000D02*X331500Y-5000D01*
X333300Y-11000D02*X334800Y-9500D01*
X336600Y-4250D02*X337350Y-3500D01*
X339600D01*
X340350Y-4250D01*
Y-5750D01*
X336600Y-9500D02*X340350Y-5750D01*
X336600Y-9500D02*X340350D01*
X342150Y-8750D02*X342900Y-9500D01*
X342150Y-4250D02*Y-8750D01*
Y-4250D02*X342900Y-3500D01*
X344400D01*
X345150Y-4250D01*
Y-8750D01*
X344400Y-9500D02*X345150Y-8750D01*
X342900Y-9500D02*X344400D01*
X342150Y-8000D02*X345150Y-5000D01*
X346950Y-8750D02*X347700Y-9500D01*
X346950Y-4250D02*Y-8750D01*
Y-4250D02*X347700Y-3500D01*
X349200D01*
X349950Y-4250D01*
Y-8750D01*
X349200Y-9500D02*X349950Y-8750D01*
X347700Y-9500D02*X349200D01*
X346950Y-8000D02*X349950Y-5000D01*
X351750Y-8750D02*X352500Y-9500D01*
X351750Y-4250D02*Y-8750D01*
Y-4250D02*X352500Y-3500D01*
X354000D01*
X354750Y-4250D01*
Y-8750D01*
X354000Y-9500D02*X354750Y-8750D01*
X352500Y-9500D02*X354000D01*
X351750Y-8000D02*X354750Y-5000D01*
X356550Y-9500D02*X357300D01*
X359100Y-8750D02*X359850Y-9500D01*
X359100Y-4250D02*Y-8750D01*
Y-4250D02*X359850Y-3500D01*
X361350D01*
X362100Y-4250D01*
Y-8750D01*
X361350Y-9500D02*X362100Y-8750D01*
X359850Y-9500D02*X361350D01*
X359100Y-8000D02*X362100Y-5000D01*
X363900Y-8750D02*X364650Y-9500D01*
X363900Y-4250D02*Y-8750D01*
Y-4250D02*X364650Y-3500D01*
X366150D01*
X366900Y-4250D01*
Y-8750D01*
X366150Y-9500D02*X366900Y-8750D01*
X364650Y-9500D02*X366150D01*
X363900Y-8000D02*X366900Y-5000D01*
X368700Y-8750D02*X369450Y-9500D01*
X368700Y-4250D02*Y-8750D01*
Y-4250D02*X369450Y-3500D01*
X370950D01*
X371700Y-4250D01*
Y-8750D01*
X370950Y-9500D02*X371700Y-8750D01*
X369450Y-9500D02*X370950D01*
X368700Y-8000D02*X371700Y-5000D01*
X373500Y-8750D02*X374250Y-9500D01*
X373500Y-4250D02*Y-8750D01*
Y-4250D02*X374250Y-3500D01*
X375750D01*
X376500Y-4250D01*
Y-8750D01*
X375750Y-9500D02*X376500Y-8750D01*
X374250Y-9500D02*X375750D01*
X373500Y-8000D02*X376500Y-5000D01*
X378300Y-8750D02*X379050Y-9500D01*
X378300Y-4250D02*Y-8750D01*
Y-4250D02*X379050Y-3500D01*
X380550D01*
X381300Y-4250D01*
Y-8750D01*
X380550Y-9500D02*X381300Y-8750D01*
X379050Y-9500D02*X380550D01*
X378300Y-8000D02*X381300Y-5000D01*
X383100Y-8750D02*X383850Y-9500D01*
X383100Y-4250D02*Y-8750D01*
Y-4250D02*X383850Y-3500D01*
X385350D01*
X386100Y-4250D01*
Y-8750D01*
X385350Y-9500D02*X386100Y-8750D01*
X383850Y-9500D02*X385350D01*
X383100Y-8000D02*X386100Y-5000D01*
X391350Y-7250D02*Y-9500D01*
Y-7250D02*X392100Y-6500D01*
X392850D01*
X393600Y-7250D01*
Y-9500D01*
Y-7250D02*X394350Y-6500D01*
X395100D01*
X395850Y-7250D01*
Y-9500D01*
X390600Y-6500D02*X391350Y-7250D01*
X397650Y-5000D02*Y-5750D01*
Y-7250D02*Y-9500D01*
X399150Y-3500D02*Y-8750D01*
X399900Y-9500D01*
X402150D02*X404400D01*
X405150Y-8750D01*
X404400Y-8000D02*X405150Y-8750D01*
X402150Y-8000D02*X404400D01*
X401400Y-7250D02*X402150Y-8000D01*
X401400Y-7250D02*X402150Y-6500D01*
X404400D01*
X405150Y-7250D01*
X401400Y-8750D02*X402150Y-9500D01*
X200750Y228500D02*Y222500D01*
X203000Y228500D02*X203750Y227750D01*
Y223250D01*
X203000Y222500D02*X203750Y223250D01*
X200000Y222500D02*X203000D01*
X200000Y228500D02*X203000D01*
X207800Y225500D02*X208550Y224750D01*
X206300Y225500D02*X207800D01*
X205550Y224750D02*X206300Y225500D01*
X205550Y224750D02*Y223250D01*
X206300Y222500D01*
X208550Y225500D02*Y223250D01*
X209300Y222500D01*
X206300D02*X207800D01*
X208550Y223250D01*
X211850Y228500D02*Y223250D01*
X212600Y222500D01*
X211100Y226250D02*X212600D01*
X214850Y222500D02*X217100D01*
X214100Y223250D02*X214850Y222500D01*
X214100Y224750D02*Y223250D01*
Y224750D02*X214850Y225500D01*
X216350D01*
X217100Y224750D01*
X214100Y224000D02*X217100D01*
Y224750D02*Y224000D01*
X218900Y226250D02*X219650D01*
X218900Y224750D02*X219650D01*
X224150Y228500D02*X227150D01*
X225650D02*Y222500D01*
X228950Y225500D02*Y223250D01*
X229700Y222500D01*
X231200D01*
X231950Y223250D01*
Y225500D02*Y223250D01*
X234500Y222500D02*X236750D01*
X233750Y223250D02*X234500Y222500D01*
X233750Y224750D02*Y223250D01*
Y224750D02*X234500Y225500D01*
X236000D01*
X236750Y224750D01*
X233750Y224000D02*X236750D01*
Y224750D02*Y224000D01*
X242000Y222500D02*X243500D01*
X242750Y228500D02*Y222500D01*
X241250Y227000D02*X242750Y228500D01*
X246050Y222500D02*X247550D01*
X246800Y228500D02*Y222500D01*
X245300Y227000D02*X246800Y228500D01*
X252050D02*Y222500D01*
Y228500D02*X255050D01*
X252050Y225500D02*X254300D01*
X257600Y222500D02*X259850D01*
X256850Y223250D02*X257600Y222500D01*
X256850Y224750D02*Y223250D01*
Y224750D02*X257600Y225500D01*
X259100D01*
X259850Y224750D01*
X256850Y224000D02*X259850D01*
Y224750D02*Y224000D01*
X261650Y228500D02*Y222500D01*
Y223250D02*X262400Y222500D01*
X263900D01*
X264650Y223250D01*
Y224750D02*Y223250D01*
X263900Y225500D02*X264650Y224750D01*
X262400Y225500D02*X263900D01*
X261650Y224750D02*X262400Y225500D01*
X269150Y227750D02*X269900Y228500D01*
X272150D01*
X272900Y227750D01*
Y226250D01*
X269150Y222500D02*X272900Y226250D01*
X269150Y222500D02*X272900D01*
X274700Y223250D02*X275450Y222500D01*
X274700Y227750D02*Y223250D01*
Y227750D02*X275450Y228500D01*
X276950D01*
X277700Y227750D01*
Y223250D01*
X276950Y222500D02*X277700Y223250D01*
X275450Y222500D02*X276950D01*
X274700Y224000D02*X277700Y227000D01*
X280250Y222500D02*X281750D01*
X281000Y228500D02*Y222500D01*
X279500Y227000D02*X281000Y228500D01*
X283550Y225500D02*X286550Y228500D01*
X283550Y225500D02*X287300D01*
X286550Y228500D02*Y222500D01*
X292550D02*X294050D01*
X293300Y228500D02*Y222500D01*
X291800Y227000D02*X293300Y228500D01*
X295850Y223250D02*X296600Y222500D01*
X295850Y227750D02*Y223250D01*
Y227750D02*X296600Y228500D01*
X298100D01*
X298850Y227750D01*
Y223250D01*
X298100Y222500D02*X298850Y223250D01*
X296600Y222500D02*X298100D01*
X295850Y224000D02*X298850Y227000D01*
X300650Y226250D02*X301400D01*
X300650Y224750D02*X301400D01*
X303950Y222500D02*X305450D01*
X304700Y228500D02*Y222500D01*
X303200Y227000D02*X304700Y228500D01*
X307250Y225500D02*X310250Y228500D01*
X307250Y225500D02*X311000D01*
X310250Y228500D02*Y222500D01*
X312800Y226250D02*X313550D01*
X312800Y224750D02*X313550D01*
X316100Y222500D02*X317600D01*
X316850Y228500D02*Y222500D01*
X315350Y227000D02*X316850Y228500D01*
X319400D02*X322400D01*
X319400D02*Y225500D01*
X320150Y226250D01*
X321650D01*
X322400Y225500D01*
Y223250D01*
X321650Y222500D02*X322400Y223250D01*
X320150Y222500D02*X321650D01*
X319400Y223250D02*X320150Y222500D01*
X327650Y228500D02*Y222500D01*
X326900Y228500D02*X329900D01*
X330650Y227750D01*
Y226250D01*
X329900Y225500D02*X330650Y226250D01*
X327650Y225500D02*X329900D01*
X332450Y228500D02*Y222500D01*
Y228500D02*X334700Y226250D01*
X336950Y228500D01*
Y222500D01*
X344450Y228500D02*X345200Y227750D01*
X342200Y228500D02*X344450D01*
X341450Y227750D02*X342200Y228500D01*
X341450Y227750D02*Y223250D01*
X342200Y222500D01*
X344450D01*
X345200Y223250D01*
Y224750D02*Y223250D01*
X344450Y225500D02*X345200Y224750D01*
X342950Y225500D02*X344450D01*
X347000Y228500D02*Y222500D01*
Y228500D02*X349250Y226250D01*
X351500Y228500D01*
Y222500D01*
X353300Y228500D02*X356300D01*
X354800D02*Y222500D01*
X360800Y228500D02*Y223250D01*
X361550Y222500D01*
X363050D01*
X363800Y223250D01*
Y228500D02*Y223250D01*
X365600Y228500D02*X368600D01*
X367100D02*Y222500D01*
X371150D02*X373400D01*
X370400Y223250D02*X371150Y222500D01*
X370400Y227750D02*Y223250D01*
Y227750D02*X371150Y228500D01*
X373400D01*
X200000Y242750D02*Y237500D01*
Y242750D02*X200750Y243500D01*
X203000D01*
X203750Y242750D01*
Y237500D01*
X200000Y240500D02*X203750D01*
X205550D02*Y238250D01*
X206300Y237500D01*
X207800D01*
X208550Y238250D01*
Y240500D02*Y238250D01*
X211100Y243500D02*Y238250D01*
X211850Y237500D01*
X210350Y241250D02*X211850D01*
X213350Y243500D02*Y237500D01*
Y239750D02*X214100Y240500D01*
X215600D01*
X216350Y239750D01*
Y237500D01*
X218150Y239750D02*Y238250D01*
Y239750D02*X218900Y240500D01*
X220400D01*
X221150Y239750D01*
Y238250D01*
X220400Y237500D02*X221150Y238250D01*
X218900Y237500D02*X220400D01*
X218150Y238250D02*X218900Y237500D01*
X223700Y239750D02*Y237500D01*
Y239750D02*X224450Y240500D01*
X225950D01*
X222950D02*X223700Y239750D01*
X227750Y241250D02*X228500D01*
X227750Y239750D02*X228500D01*
X233000Y243500D02*Y237500D01*
Y243500D02*Y242750D01*
X236750Y239000D01*
Y243500D02*Y237500D01*
X240800Y240500D02*X241550Y239750D01*
X239300Y240500D02*X240800D01*
X238550Y239750D02*X239300Y240500D01*
X238550Y239750D02*Y238250D01*
X239300Y237500D01*
X241550Y240500D02*Y238250D01*
X242300Y237500D01*
X239300D02*X240800D01*
X241550Y238250D01*
X244850Y243500D02*Y238250D01*
X245600Y237500D01*
X244100Y241250D02*X245600D01*
X247100Y243500D02*Y237500D01*
Y239750D02*X247850Y240500D01*
X249350D01*
X250100Y239750D01*
Y237500D01*
X254150Y240500D02*X254900Y239750D01*
X252650Y240500D02*X254150D01*
X251900Y239750D02*X252650Y240500D01*
X251900Y239750D02*Y238250D01*
X252650Y237500D01*
X254900Y240500D02*Y238250D01*
X255650Y237500D01*
X252650D02*X254150D01*
X254900Y238250D01*
X258200Y239750D02*Y237500D01*
Y239750D02*X258950Y240500D01*
X259700D01*
X260450Y239750D01*
Y237500D01*
X257450Y240500D02*X258200Y239750D01*
X265700Y243500D02*Y237500D01*
X267950Y243500D02*X268700Y242750D01*
Y238250D01*
X267950Y237500D02*X268700Y238250D01*
X264950Y237500D02*X267950D01*
X264950Y243500D02*X267950D01*
X270500Y237500D02*X271250D01*
X275750Y243500D02*Y237500D01*
X279500Y243500D02*Y237500D01*
X275750Y240500D02*X279500D01*
X281300Y239750D02*Y238250D01*
Y239750D02*X282050Y240500D01*
X283550D01*
X284300Y239750D01*
Y238250D01*
X283550Y237500D02*X284300Y238250D01*
X282050Y237500D02*X283550D01*
X281300Y238250D02*X282050Y237500D01*
X286100Y243500D02*Y238250D01*
X286850Y237500D01*
X289100Y239750D02*Y237500D01*
Y239750D02*X289850Y240500D01*
X290600D01*
X291350Y239750D01*
Y237500D01*
Y239750D02*X292100Y240500D01*
X292850D01*
X293600Y239750D01*
Y237500D01*
X288350Y240500D02*X289100Y239750D01*
X296150Y237500D02*X298400D01*
X295400Y238250D02*X296150Y237500D01*
X295400Y239750D02*Y238250D01*
Y239750D02*X296150Y240500D01*
X297650D01*
X298400Y239750D01*
X295400Y239000D02*X298400D01*
Y239750D02*Y239000D01*
X300950Y237500D02*X303200D01*
X303950Y238250D01*
X303200Y239000D02*X303950Y238250D01*
X300950Y239000D02*X303200D01*
X300200Y239750D02*X300950Y239000D01*
X300200Y239750D02*X300950Y240500D01*
X303200D01*
X303950Y239750D01*
X300200Y238250D02*X300950Y237500D01*
X200000Y258500D02*X203000D01*
X201500D02*Y252500D01*
X204800Y257000D02*Y256250D01*
Y254750D02*Y252500D01*
X207050Y258500D02*Y253250D01*
X207800Y252500D01*
X206300Y256250D02*X207800D01*
X209300Y258500D02*Y253250D01*
X210050Y252500D01*
X212300D02*X214550D01*
X211550Y253250D02*X212300Y252500D01*
X211550Y254750D02*Y253250D01*
Y254750D02*X212300Y255500D01*
X213800D01*
X214550Y254750D01*
X211550Y254000D02*X214550D01*
Y254750D02*Y254000D01*
X216350Y256250D02*X217100D01*
X216350Y254750D02*X217100D01*
X221600Y253250D02*X222350Y252500D01*
X221600Y257750D02*X222350Y258500D01*
X221600Y257750D02*Y253250D01*
X224150Y255500D02*Y253250D01*
X224900Y252500D01*
X226400D01*
X227150Y253250D01*
Y255500D02*Y253250D01*
X229700Y254750D02*Y252500D01*
Y254750D02*X230450Y255500D01*
X231200D01*
X231950Y254750D01*
Y252500D01*
X228950Y255500D02*X229700Y254750D01*
X233750Y258500D02*Y252500D01*
Y254750D02*X236000Y252500D01*
X233750Y254750D02*X235250Y256250D01*
X238550Y254750D02*Y252500D01*
Y254750D02*X239300Y255500D01*
X240050D01*
X240800Y254750D01*
Y252500D01*
X237800Y255500D02*X238550Y254750D01*
X242600D02*Y253250D01*
Y254750D02*X243350Y255500D01*
X244850D01*
X245600Y254750D01*
Y253250D01*
X244850Y252500D02*X245600Y253250D01*
X243350Y252500D02*X244850D01*
X242600Y253250D02*X243350Y252500D01*
X247400Y255500D02*Y253250D01*
X248150Y252500D01*
X248900D01*
X249650Y253250D01*
Y255500D02*Y253250D01*
X250400Y252500D01*
X251150D01*
X251900Y253250D01*
Y255500D02*Y253250D01*
X254450Y254750D02*Y252500D01*
Y254750D02*X255200Y255500D01*
X255950D01*
X256700Y254750D01*
Y252500D01*
X253700Y255500D02*X254450Y254750D01*
X258500Y258500D02*X259250Y257750D01*
Y253250D01*
X258500Y252500D02*X259250Y253250D01*
X263750Y255500D02*X266750D01*
X271250Y258500D02*Y252500D01*
Y258500D02*X274250D01*
X271250Y255500D02*X273500D01*
X278300D02*X279050Y254750D01*
X276800Y255500D02*X278300D01*
X276050Y254750D02*X276800Y255500D01*
X276050Y254750D02*Y253250D01*
X276800Y252500D01*
X279050Y255500D02*Y253250D01*
X279800Y252500D01*
X276800D02*X278300D01*
X279050Y253250D01*
X281600Y258500D02*Y252500D01*
Y253250D02*X282350Y252500D01*
X283850D01*
X284600Y253250D01*
Y254750D02*Y253250D01*
X283850Y255500D02*X284600Y254750D01*
X282350Y255500D02*X283850D01*
X281600Y254750D02*X282350Y255500D01*
X287150Y254750D02*Y252500D01*
Y254750D02*X287900Y255500D01*
X289400D01*
X286400D02*X287150Y254750D01*
X291200Y257000D02*Y256250D01*
Y254750D02*Y252500D01*
X293450Y255500D02*X295700D01*
X292700Y254750D02*X293450Y255500D01*
X292700Y254750D02*Y253250D01*
X293450Y252500D01*
X295700D01*
X299750Y255500D02*X300500Y254750D01*
X298250Y255500D02*X299750D01*
X297500Y254750D02*X298250Y255500D01*
X297500Y254750D02*Y253250D01*
X298250Y252500D01*
X300500Y255500D02*Y253250D01*
X301250Y252500D01*
X298250D02*X299750D01*
X300500Y253250D01*
X303800Y258500D02*Y253250D01*
X304550Y252500D01*
X303050Y256250D02*X304550D01*
X306050Y257000D02*Y256250D01*
Y254750D02*Y252500D01*
X307550Y254750D02*Y253250D01*
Y254750D02*X308300Y255500D01*
X309800D01*
X310550Y254750D01*
Y253250D01*
X309800Y252500D02*X310550Y253250D01*
X308300Y252500D02*X309800D01*
X307550Y253250D02*X308300Y252500D01*
X313100Y254750D02*Y252500D01*
Y254750D02*X313850Y255500D01*
X314600D01*
X315350Y254750D01*
Y252500D01*
X312350Y255500D02*X313100Y254750D01*
X320600Y258500D02*Y252500D01*
X322850Y258500D02*X323600Y257750D01*
Y253250D01*
X322850Y252500D02*X323600Y253250D01*
X319850Y252500D02*X322850D01*
X319850Y258500D02*X322850D01*
X326150Y254750D02*Y252500D01*
Y254750D02*X326900Y255500D01*
X328400D01*
X325400D02*X326150Y254750D01*
X332450Y255500D02*X333200Y254750D01*
X330950Y255500D02*X332450D01*
X330200Y254750D02*X330950Y255500D01*
X330200Y254750D02*Y253250D01*
X330950Y252500D01*
X333200Y255500D02*Y253250D01*
X333950Y252500D01*
X330950D02*X332450D01*
X333200Y253250D01*
X335750Y255500D02*Y253250D01*
X336500Y252500D01*
X337250D01*
X338000Y253250D01*
Y255500D02*Y253250D01*
X338750Y252500D01*
X339500D01*
X340250Y253250D01*
Y255500D02*Y253250D01*
X342050Y257000D02*Y256250D01*
Y254750D02*Y252500D01*
X344300Y254750D02*Y252500D01*
Y254750D02*X345050Y255500D01*
X345800D01*
X346550Y254750D01*
Y252500D01*
X343550Y255500D02*X344300Y254750D01*
X350600Y255500D02*X351350Y254750D01*
X349100Y255500D02*X350600D01*
X348350Y254750D02*X349100Y255500D01*
X348350Y254750D02*Y253250D01*
X349100Y252500D01*
X350600D01*
X351350Y253250D01*
X348350Y251000D02*X349100Y250250D01*
X350600D01*
X351350Y251000D01*
Y255500D02*Y251000D01*
M02*
