G04 start of page 10 for group -4015 idx -4015 *
G04 Title: (unknown), toppaste *
G04 Creator: pcb 20110918 *
G04 CreationDate: Tue 11 Feb 2014 10:14:15 PM GMT UTC *
G04 For: ndholmes *
G04 Format: Gerber/RS-274X *
G04 PCB-Dimensions: 285500 200000 *
G04 PCB-Coordinate-Origin: lower left *
%MOIN*%
%FSLAX25Y25*%
%LNTOPPASTE*%
%ADD84R,0.0430X0.0430*%
%ADD83R,0.0787X0.0787*%
%ADD82R,0.0240X0.0240*%
%ADD81R,0.0200X0.0200*%
%ADD80R,0.0512X0.0512*%
G54D80*X76043Y136893D02*Y136107D01*
X68957Y136893D02*Y136107D01*
X8607Y126457D02*X9393D01*
X8607Y133543D02*X9393D01*
X220107Y92957D02*X220893D01*
X220107Y100043D02*X220893D01*
X229107Y69043D02*X229893D01*
X229107Y61957D02*X229893D01*
X244650Y92914D02*X245436D01*
X244650Y100000D02*X245436D01*
X256457Y111893D02*Y111107D01*
X263543Y111893D02*Y111107D01*
X260607Y69086D02*X261393D01*
X260607Y62000D02*X261393D01*
X95193Y92914D02*X95979D01*
X95193Y100000D02*X95979D01*
X106957Y111893D02*Y111107D01*
X114043Y111893D02*Y111107D01*
X15607Y93000D02*X16393D01*
X15607Y100086D02*X16393D01*
G54D81*X252500Y83400D02*Y76900D01*
X247500Y83400D02*Y76900D01*
X242500Y83400D02*Y76900D01*
X237500Y83400D02*Y76900D01*
Y62900D02*Y56400D01*
X242500Y62900D02*Y56400D01*
X247500Y62900D02*Y56400D01*
X252500Y62900D02*Y56400D01*
G54D82*X227700Y92600D02*Y91000D01*
X235500Y92600D02*Y91000D01*
Y100800D02*Y99200D01*
X231600Y100800D02*Y99200D01*
X227700Y100800D02*Y99200D01*
X103200Y92600D02*Y91000D01*
X111000Y92600D02*Y91000D01*
Y100800D02*Y99200D01*
X107100Y100800D02*Y99200D01*
X103200Y100800D02*Y99200D01*
G54D80*X131957Y111893D02*Y111107D01*
X139043Y111893D02*Y111107D01*
X136107Y69043D02*X136893D01*
X136107Y61957D02*X136893D01*
X21414Y145393D02*Y144607D01*
X28500Y145393D02*Y144607D01*
G54D82*X127950Y92600D02*Y91000D01*
X135750Y92600D02*Y91000D01*
Y100800D02*Y99200D01*
X131850Y100800D02*Y99200D01*
X127950Y100800D02*Y99200D01*
G54D83*X113767Y41287D02*Y39713D01*
X97232Y41287D02*Y39713D01*
X34267Y41287D02*Y39713D01*
X17732Y41287D02*Y39713D01*
X46733Y41287D02*Y39713D01*
X63268Y41287D02*Y39713D01*
G54D81*X48000Y83250D02*Y76750D01*
X43000Y83250D02*Y76750D01*
X38000Y83250D02*Y76750D01*
X33000Y83250D02*Y76750D01*
Y62750D02*Y56250D01*
X38000Y62750D02*Y56250D01*
X43000Y62750D02*Y56250D01*
X48000Y62750D02*Y56250D01*
G54D82*X47950Y92600D02*Y91000D01*
X55750Y92600D02*Y91000D01*
Y100800D02*Y99200D01*
X51850Y100800D02*Y99200D01*
X47950Y100800D02*Y99200D01*
G54D80*X55107Y69043D02*X55893D01*
X55107Y61957D02*X55893D01*
X25607Y69043D02*X26393D01*
X25607Y61957D02*X26393D01*
G54D82*X23300Y92600D02*Y91000D01*
X31100Y92600D02*Y91000D01*
Y100800D02*Y99200D01*
X27200Y100800D02*Y99200D01*
X23300Y100800D02*Y99200D01*
G54D80*X40107Y92914D02*X40893D01*
X40107Y100000D02*X40893D01*
X104607Y69043D02*X105393D01*
X104607Y61957D02*X105393D01*
X120107Y93000D02*X120893D01*
X120107Y100086D02*X120893D01*
G54D81*X19500Y136500D02*X26000D01*
X19500Y131500D02*X26000D01*
X19500Y126500D02*X26000D01*
X19500Y121500D02*X26000D01*
X40000D02*X46500D01*
X40000Y126500D02*X46500D01*
X40000Y131500D02*X46500D01*
X40000Y136500D02*X46500D01*
G54D80*X51914Y111893D02*Y111107D01*
X59000Y111893D02*Y111107D01*
G54D81*X99500Y136500D02*X106000D01*
X99500Y131500D02*X106000D01*
X99500Y126500D02*X106000D01*
X99500Y121500D02*X106000D01*
X120000D02*X126500D01*
X120000Y126500D02*X126500D01*
X120000Y131500D02*X126500D01*
X120000Y136500D02*X126500D01*
X128000Y83250D02*Y76750D01*
X123000Y83250D02*Y76750D01*
X118000Y83250D02*Y76750D01*
X113000Y83250D02*Y76750D01*
Y62750D02*Y56250D01*
X118000Y62750D02*Y56250D01*
X123000Y62750D02*Y56250D01*
X128000Y62750D02*Y56250D01*
G54D83*X127233Y41287D02*Y39713D01*
X143768Y41287D02*Y39713D01*
G54D84*X165450Y25000D02*X174450D01*
X190950D02*X200050D01*
G54D83*X238267Y41287D02*Y39713D01*
X221732Y41287D02*Y39713D01*
G54D82*X252500Y92600D02*Y91000D01*
X260300Y92600D02*Y91000D01*
Y100800D02*Y99200D01*
X256400Y100800D02*Y99200D01*
X252500Y100800D02*Y99200D01*
G54D80*X231914Y111893D02*Y111107D01*
X239000Y111893D02*Y111107D01*
G54D83*X251733Y41287D02*Y39713D01*
X268268Y41287D02*Y39713D01*
G54D80*X89607Y135957D02*X90393D01*
X89607Y143043D02*X90393D01*
G54D81*X258500Y146500D02*Y140000D01*
X253500Y146500D02*Y140000D01*
X248500Y146500D02*Y140000D01*
X243500Y146500D02*Y140000D01*
Y126000D02*Y119500D01*
X248500Y126000D02*Y119500D01*
X253500Y126000D02*Y119500D01*
X258500Y126000D02*Y119500D01*
G54D80*X245107Y154457D02*X245893D01*
X245107Y161543D02*X245893D01*
X259607Y153957D02*X260393D01*
X259607Y161043D02*X260393D01*
X181095Y52755D02*Y47245D01*
X192905Y52755D02*Y47245D01*
X27457Y111893D02*Y111107D01*
X34543Y111893D02*Y111107D01*
M02*
