G04 start of page 2 for group 0 idx 0 *
G04 Title: (unknown), component *
G04 Creator: pcb 20110918 *
G04 CreationDate: Tue 11 Feb 2014 10:14:15 PM GMT UTC *
G04 For: ndholmes *
G04 Format: Gerber/RS-274X *
G04 PCB-Dimensions: 285500 200000 *
G04 PCB-Coordinate-Origin: lower left *
%MOIN*%
%FSLAX25Y25*%
%LNTOP*%
%ADD33C,0.0550*%
%ADD32C,0.1285*%
%ADD31C,0.1280*%
%ADD30C,0.0350*%
%ADD29C,0.0480*%
%ADD28C,0.0640*%
%ADD27C,0.0200*%
%ADD26C,0.0360*%
%ADD25R,0.0430X0.0430*%
%ADD24R,0.0787X0.0787*%
%ADD23R,0.0200X0.0200*%
%ADD22R,0.0240X0.0240*%
%ADD21R,0.0512X0.0512*%
%ADD20C,0.0900*%
%ADD19C,0.2937*%
%ADD18C,0.1440*%
%ADD17C,0.0700*%
%ADD16C,0.0800*%
%ADD15C,0.0940*%
%ADD14C,0.0400*%
%ADD13C,0.0100*%
%ADD12C,0.0250*%
%ADD11C,0.0001*%
G54D11*G36*
X125950Y46000D02*X132000D01*
Y18600D01*
X127600D01*
X127514Y18595D01*
X127430Y18575D01*
X127350Y18542D01*
X127276Y18496D01*
X127210Y18440D01*
X127154Y18374D01*
X127108Y18300D01*
X127075Y18220D01*
X127055Y18136D01*
X127048Y18050D01*
X127055Y17964D01*
X127075Y17880D01*
X127108Y17800D01*
X127154Y17726D01*
X127210Y17660D01*
X127276Y17604D01*
X127350Y17558D01*
X127430Y17525D01*
X127514Y17505D01*
X127600Y17500D01*
X132000D01*
Y9500D01*
X127600D01*
X127514Y9495D01*
X127430Y9475D01*
X127350Y9442D01*
X127276Y9396D01*
X127210Y9340D01*
X127154Y9274D01*
X127108Y9200D01*
X127075Y9120D01*
X127055Y9036D01*
X127048Y8950D01*
X127055Y8864D01*
X127075Y8780D01*
X127108Y8700D01*
X127154Y8626D01*
X127210Y8560D01*
X127276Y8504D01*
X127350Y8458D01*
X127430Y8425D01*
X127514Y8405D01*
X127600Y8400D01*
X132000D01*
Y8000D01*
X125950D01*
Y10048D01*
X126036Y10055D01*
X126120Y10075D01*
X126200Y10108D01*
X126274Y10154D01*
X126340Y10210D01*
X126396Y10276D01*
X126442Y10350D01*
X126475Y10430D01*
X126495Y10514D01*
X126500Y10600D01*
Y16400D01*
X126495Y16486D01*
X126475Y16570D01*
X126442Y16650D01*
X126396Y16724D01*
X126340Y16790D01*
X126274Y16846D01*
X126200Y16892D01*
X126120Y16925D01*
X126036Y16945D01*
X125950Y16952D01*
Y46000D01*
G37*
G36*
X114722D02*X125950D01*
Y16952D01*
X125864Y16945D01*
X125780Y16925D01*
X125700Y16892D01*
X125626Y16846D01*
X125560Y16790D01*
X125504Y16724D01*
X125458Y16650D01*
X125425Y16570D01*
X125405Y16486D01*
X125400Y16400D01*
Y10600D01*
X125405Y10514D01*
X125425Y10430D01*
X125458Y10350D01*
X125504Y10276D01*
X125560Y10210D01*
X125626Y10154D01*
X125700Y10108D01*
X125780Y10075D01*
X125864Y10055D01*
X125950Y10048D01*
Y8000D01*
X114722D01*
Y10705D01*
X114755Y10729D01*
X114816Y10791D01*
X114865Y10862D01*
X115090Y11265D01*
X115274Y11690D01*
X115418Y12129D01*
X115522Y12580D01*
X115584Y13038D01*
X115605Y13500D01*
X115584Y13962D01*
X115522Y14420D01*
X115418Y14871D01*
X115274Y15310D01*
X115090Y15735D01*
X114869Y16141D01*
X114819Y16212D01*
X114758Y16274D01*
X114722Y16300D01*
Y46000D01*
G37*
G36*
X109000D02*X114722D01*
Y16300D01*
X114687Y16326D01*
X114610Y16366D01*
X114527Y16393D01*
X114441Y16407D01*
X114354Y16408D01*
X114268Y16395D01*
X114184Y16368D01*
X114107Y16329D01*
X114036Y16278D01*
X113974Y16217D01*
X113922Y16147D01*
X113882Y16069D01*
X113854Y15987D01*
X113840Y15901D01*
X113840Y15813D01*
X113853Y15727D01*
X113879Y15644D01*
X113920Y15567D01*
X114096Y15251D01*
X114240Y14918D01*
X114353Y14574D01*
X114434Y14221D01*
X114484Y13862D01*
X114500Y13500D01*
X114484Y13138D01*
X114434Y12779D01*
X114353Y12426D01*
X114240Y12082D01*
X114096Y11749D01*
X113923Y11431D01*
X113883Y11354D01*
X113857Y11272D01*
X113844Y11186D01*
X113844Y11100D01*
X113858Y11014D01*
X113886Y10932D01*
X113925Y10855D01*
X113977Y10786D01*
X114038Y10725D01*
X114109Y10674D01*
X114186Y10636D01*
X114269Y10609D01*
X114354Y10596D01*
X114441Y10597D01*
X114526Y10611D01*
X114608Y10638D01*
X114685Y10678D01*
X114722Y10705D01*
Y8000D01*
X109000D01*
Y8625D01*
X109129Y8582D01*
X109580Y8478D01*
X110038Y8416D01*
X110500Y8395D01*
X110962Y8416D01*
X111420Y8478D01*
X111871Y8582D01*
X112310Y8726D01*
X112735Y8910D01*
X113141Y9131D01*
X113212Y9181D01*
X113274Y9242D01*
X113326Y9313D01*
X113366Y9390D01*
X113393Y9473D01*
X113407Y9559D01*
X113408Y9646D01*
X113395Y9732D01*
X113368Y9816D01*
X113329Y9893D01*
X113278Y9964D01*
X113217Y10026D01*
X113147Y10078D01*
X113069Y10118D01*
X112987Y10146D01*
X112901Y10160D01*
X112813Y10160D01*
X112727Y10147D01*
X112644Y10121D01*
X112567Y10080D01*
X112251Y9904D01*
X111918Y9760D01*
X111574Y9647D01*
X111221Y9566D01*
X110862Y9516D01*
X110500Y9500D01*
X110138Y9516D01*
X109779Y9566D01*
X109426Y9647D01*
X109082Y9760D01*
X109000Y9795D01*
Y17205D01*
X109082Y17240D01*
X109426Y17353D01*
X109779Y17435D01*
X110138Y17484D01*
X110500Y17500D01*
X110862Y17484D01*
X111221Y17435D01*
X111574Y17353D01*
X111918Y17240D01*
X112251Y17096D01*
X112569Y16923D01*
X112646Y16883D01*
X112728Y16857D01*
X112814Y16844D01*
X112900Y16844D01*
X112986Y16858D01*
X113068Y16886D01*
X113145Y16925D01*
X113214Y16977D01*
X113275Y17038D01*
X113326Y17109D01*
X113364Y17186D01*
X113391Y17269D01*
X113404Y17354D01*
X113403Y17441D01*
X113389Y17526D01*
X113362Y17608D01*
X113322Y17685D01*
X113271Y17755D01*
X113209Y17816D01*
X113138Y17865D01*
X112735Y18090D01*
X112310Y18274D01*
X111871Y18418D01*
X111420Y18522D01*
X110962Y18584D01*
X110500Y18605D01*
X110038Y18584D01*
X109580Y18522D01*
X109129Y18418D01*
X109000Y18375D01*
Y46000D01*
G37*
G36*
X121500Y64500D02*X160000D01*
Y47500D01*
X121500D01*
Y64500D01*
G37*
G36*
X133500Y51500D02*X160000D01*
Y22000D01*
X133500D01*
Y51500D01*
G37*
G36*
X154722Y23500D02*X160000D01*
Y1500D01*
X154722D01*
Y10705D01*
X154755Y10729D01*
X154816Y10791D01*
X154865Y10862D01*
X155090Y11265D01*
X155274Y11690D01*
X155418Y12129D01*
X155522Y12580D01*
X155584Y13038D01*
X155605Y13500D01*
X155584Y13962D01*
X155522Y14420D01*
X155418Y14871D01*
X155274Y15310D01*
X155090Y15735D01*
X154869Y16141D01*
X154819Y16212D01*
X154758Y16274D01*
X154722Y16300D01*
Y23500D01*
G37*
G36*
X150502D02*X154722D01*
Y16300D01*
X154687Y16326D01*
X154610Y16366D01*
X154527Y16393D01*
X154441Y16407D01*
X154354Y16408D01*
X154268Y16395D01*
X154184Y16368D01*
X154107Y16329D01*
X154036Y16278D01*
X153974Y16217D01*
X153922Y16147D01*
X153882Y16069D01*
X153854Y15987D01*
X153840Y15901D01*
X153840Y15813D01*
X153853Y15727D01*
X153879Y15644D01*
X153920Y15567D01*
X154096Y15251D01*
X154240Y14918D01*
X154353Y14574D01*
X154434Y14221D01*
X154484Y13862D01*
X154500Y13500D01*
X154484Y13138D01*
X154434Y12779D01*
X154353Y12426D01*
X154240Y12082D01*
X154096Y11749D01*
X153923Y11431D01*
X153883Y11354D01*
X153857Y11272D01*
X153844Y11186D01*
X153844Y11100D01*
X153858Y11014D01*
X153886Y10932D01*
X153925Y10855D01*
X153977Y10786D01*
X154038Y10725D01*
X154109Y10674D01*
X154186Y10636D01*
X154269Y10609D01*
X154354Y10596D01*
X154441Y10597D01*
X154526Y10611D01*
X154608Y10638D01*
X154685Y10678D01*
X154722Y10705D01*
Y1500D01*
X150502D01*
Y8395D01*
X150962Y8416D01*
X151420Y8478D01*
X151871Y8582D01*
X152310Y8726D01*
X152735Y8910D01*
X153141Y9131D01*
X153212Y9181D01*
X153274Y9242D01*
X153326Y9313D01*
X153366Y9390D01*
X153393Y9473D01*
X153407Y9559D01*
X153408Y9646D01*
X153395Y9732D01*
X153368Y9816D01*
X153329Y9893D01*
X153278Y9964D01*
X153217Y10026D01*
X153147Y10078D01*
X153069Y10118D01*
X152987Y10146D01*
X152901Y10160D01*
X152813Y10160D01*
X152727Y10147D01*
X152644Y10121D01*
X152567Y10080D01*
X152251Y9904D01*
X151918Y9760D01*
X151574Y9647D01*
X151221Y9566D01*
X150862Y9516D01*
X150502Y9500D01*
Y17500D01*
X150862Y17484D01*
X151221Y17435D01*
X151574Y17353D01*
X151918Y17240D01*
X152251Y17096D01*
X152569Y16923D01*
X152646Y16883D01*
X152728Y16857D01*
X152814Y16844D01*
X152900Y16844D01*
X152986Y16858D01*
X153068Y16886D01*
X153145Y16925D01*
X153214Y16977D01*
X153275Y17038D01*
X153326Y17109D01*
X153364Y17186D01*
X153391Y17269D01*
X153404Y17354D01*
X153403Y17441D01*
X153389Y17526D01*
X153362Y17608D01*
X153322Y17685D01*
X153271Y17755D01*
X153209Y17816D01*
X153138Y17865D01*
X152735Y18090D01*
X152310Y18274D01*
X151871Y18418D01*
X151420Y18522D01*
X150962Y18584D01*
X150502Y18605D01*
Y23500D01*
G37*
G36*
X146278D02*X150502D01*
Y18605D01*
X150500Y18605D01*
X150038Y18584D01*
X149580Y18522D01*
X149129Y18418D01*
X148690Y18274D01*
X148265Y18090D01*
X147859Y17869D01*
X147788Y17819D01*
X147726Y17758D01*
X147674Y17687D01*
X147634Y17610D01*
X147607Y17527D01*
X147593Y17441D01*
X147592Y17354D01*
X147605Y17268D01*
X147632Y17184D01*
X147671Y17107D01*
X147722Y17036D01*
X147783Y16974D01*
X147853Y16922D01*
X147931Y16882D01*
X148013Y16854D01*
X148099Y16840D01*
X148187Y16840D01*
X148273Y16853D01*
X148356Y16879D01*
X148433Y16920D01*
X148749Y17096D01*
X149082Y17240D01*
X149426Y17353D01*
X149779Y17435D01*
X150138Y17484D01*
X150500Y17500D01*
X150502Y17500D01*
Y9500D01*
X150500Y9500D01*
X150138Y9516D01*
X149779Y9566D01*
X149426Y9647D01*
X149082Y9760D01*
X148749Y9904D01*
X148431Y10077D01*
X148354Y10117D01*
X148272Y10143D01*
X148186Y10156D01*
X148100Y10156D01*
X148014Y10142D01*
X147932Y10114D01*
X147855Y10075D01*
X147786Y10023D01*
X147725Y9962D01*
X147674Y9891D01*
X147636Y9814D01*
X147609Y9731D01*
X147596Y9646D01*
X147597Y9559D01*
X147611Y9474D01*
X147638Y9392D01*
X147678Y9315D01*
X147729Y9245D01*
X147791Y9184D01*
X147862Y9135D01*
X148265Y8910D01*
X148690Y8726D01*
X149129Y8582D01*
X149580Y8478D01*
X150038Y8416D01*
X150500Y8395D01*
X150502Y8395D01*
Y1500D01*
X146278D01*
Y10700D01*
X146313Y10674D01*
X146390Y10634D01*
X146473Y10607D01*
X146559Y10593D01*
X146646Y10592D01*
X146732Y10605D01*
X146816Y10632D01*
X146893Y10671D01*
X146964Y10722D01*
X147026Y10783D01*
X147078Y10853D01*
X147118Y10931D01*
X147146Y11013D01*
X147160Y11099D01*
X147160Y11187D01*
X147147Y11273D01*
X147121Y11356D01*
X147080Y11433D01*
X146904Y11749D01*
X146760Y12082D01*
X146647Y12426D01*
X146565Y12779D01*
X146516Y13138D01*
X146500Y13500D01*
X146516Y13862D01*
X146565Y14221D01*
X146647Y14574D01*
X146760Y14918D01*
X146904Y15251D01*
X147077Y15569D01*
X147117Y15646D01*
X147143Y15728D01*
X147156Y15814D01*
X147156Y15900D01*
X147142Y15986D01*
X147114Y16068D01*
X147075Y16145D01*
X147023Y16214D01*
X146962Y16275D01*
X146891Y16326D01*
X146814Y16364D01*
X146731Y16391D01*
X146646Y16404D01*
X146559Y16403D01*
X146474Y16389D01*
X146392Y16362D01*
X146315Y16322D01*
X146278Y16295D01*
Y23500D01*
G37*
G36*
X138000D02*X146278D01*
Y16295D01*
X146245Y16271D01*
X146184Y16209D01*
X146135Y16138D01*
X145910Y15735D01*
X145726Y15310D01*
X145582Y14871D01*
X145478Y14420D01*
X145416Y13962D01*
X145395Y13500D01*
X145416Y13038D01*
X145478Y12580D01*
X145582Y12129D01*
X145726Y11690D01*
X145910Y11265D01*
X146131Y10859D01*
X146181Y10788D01*
X146242Y10726D01*
X146278Y10700D01*
Y1500D01*
X138000D01*
Y23500D01*
G37*
G36*
X161500Y64500D02*X186000D01*
Y1500D01*
X161500D01*
Y64500D01*
G37*
G36*
X188500Y56000D02*X195000D01*
Y1500D01*
X188500D01*
Y56000D01*
G37*
G36*
X41500Y64500D02*X80000D01*
Y47500D01*
X41500D01*
Y64500D01*
G37*
G36*
X39500D02*Y47500D01*
X1000D01*
Y64500D01*
X39500D01*
G37*
G36*
X27500Y48500D02*Y22000D01*
X1000D01*
Y48500D01*
X27500D01*
G37*
G36*
X119500Y64500D02*Y47500D01*
X81000D01*
Y64500D01*
X119500D01*
G37*
G36*
X107500Y48500D02*Y22000D01*
X81000D01*
Y48500D01*
X107500D01*
G37*
G36*
X55000Y20500D02*X56500D01*
Y6500D01*
X55000D01*
Y9998D01*
X55078Y10005D01*
X55155Y10023D01*
X55228Y10053D01*
X55295Y10094D01*
X55355Y10145D01*
X55406Y10205D01*
X55447Y10272D01*
X55477Y10345D01*
X55495Y10422D01*
X55500Y10500D01*
Y16500D01*
X55495Y16578D01*
X55477Y16655D01*
X55447Y16728D01*
X55406Y16795D01*
X55355Y16855D01*
X55295Y16906D01*
X55228Y16947D01*
X55155Y16977D01*
X55078Y16995D01*
X55000Y17002D01*
Y20500D01*
G37*
G36*
X50500D02*X55000D01*
Y17002D01*
X54922Y16995D01*
X54845Y16977D01*
X54772Y16947D01*
X54705Y16906D01*
X54645Y16855D01*
X54594Y16795D01*
X54553Y16728D01*
X54523Y16655D01*
X54505Y16578D01*
X54500Y16500D01*
Y10500D01*
X54505Y10422D01*
X54523Y10345D01*
X54553Y10272D01*
X54594Y10205D01*
X54645Y10145D01*
X54705Y10094D01*
X54772Y10053D01*
X54845Y10023D01*
X54922Y10005D01*
X55000Y9998D01*
Y6500D01*
X50500D01*
Y8500D01*
X53500D01*
X53578Y8505D01*
X53655Y8523D01*
X53728Y8553D01*
X53795Y8594D01*
X53855Y8645D01*
X53906Y8705D01*
X53947Y8772D01*
X53977Y8845D01*
X53995Y8922D01*
X54002Y9000D01*
X53995Y9078D01*
X53977Y9155D01*
X53947Y9228D01*
X53906Y9295D01*
X53855Y9355D01*
X53795Y9406D01*
X53728Y9447D01*
X53655Y9477D01*
X53578Y9495D01*
X53500Y9500D01*
X50500D01*
Y17500D01*
X53500D01*
X53578Y17505D01*
X53655Y17523D01*
X53728Y17553D01*
X53795Y17594D01*
X53855Y17645D01*
X53906Y17705D01*
X53947Y17772D01*
X53977Y17845D01*
X53995Y17922D01*
X54002Y18000D01*
X53995Y18078D01*
X53977Y18155D01*
X53947Y18228D01*
X53906Y18295D01*
X53855Y18355D01*
X53795Y18406D01*
X53728Y18447D01*
X53655Y18477D01*
X53578Y18495D01*
X53500Y18500D01*
X50500D01*
Y20500D01*
G37*
G36*
X46000D02*X50500D01*
Y18500D01*
X47500D01*
X47422Y18495D01*
X47345Y18477D01*
X47272Y18447D01*
X47205Y18406D01*
X47145Y18355D01*
X47094Y18295D01*
X47053Y18228D01*
X47023Y18155D01*
X47005Y18078D01*
X46998Y18000D01*
X47005Y17922D01*
X47023Y17845D01*
X47053Y17772D01*
X47094Y17705D01*
X47145Y17645D01*
X47205Y17594D01*
X47272Y17553D01*
X47345Y17523D01*
X47422Y17505D01*
X47500Y17500D01*
X50500D01*
Y9500D01*
X47500D01*
X47422Y9495D01*
X47345Y9477D01*
X47272Y9447D01*
X47205Y9406D01*
X47145Y9355D01*
X47094Y9295D01*
X47053Y9228D01*
X47023Y9155D01*
X47005Y9078D01*
X46998Y9000D01*
X47005Y8922D01*
X47023Y8845D01*
X47053Y8772D01*
X47094Y8705D01*
X47145Y8645D01*
X47205Y8594D01*
X47272Y8553D01*
X47345Y8523D01*
X47422Y8505D01*
X47500Y8500D01*
X50500D01*
Y6500D01*
X46000D01*
Y9998D01*
X46078Y10005D01*
X46155Y10023D01*
X46228Y10053D01*
X46295Y10094D01*
X46355Y10145D01*
X46406Y10205D01*
X46447Y10272D01*
X46477Y10345D01*
X46495Y10422D01*
X46500Y10500D01*
Y16500D01*
X46495Y16578D01*
X46477Y16655D01*
X46447Y16728D01*
X46406Y16795D01*
X46355Y16855D01*
X46295Y16906D01*
X46228Y16947D01*
X46155Y16977D01*
X46078Y16995D01*
X46000Y17002D01*
Y20500D01*
G37*
G36*
X34653D02*X46000D01*
Y17002D01*
X45922Y16995D01*
X45845Y16977D01*
X45772Y16947D01*
X45705Y16906D01*
X45645Y16855D01*
X45594Y16795D01*
X45553Y16728D01*
X45523Y16655D01*
X45505Y16578D01*
X45500Y16500D01*
Y10500D01*
X45505Y10422D01*
X45523Y10345D01*
X45553Y10272D01*
X45594Y10205D01*
X45645Y10145D01*
X45705Y10094D01*
X45772Y10053D01*
X45845Y10023D01*
X45922Y10005D01*
X46000Y9998D01*
Y6500D01*
X34653D01*
Y10738D01*
X34682Y10767D01*
X34728Y10831D01*
X34964Y11236D01*
X35157Y11665D01*
X35308Y12109D01*
X35418Y12566D01*
X35483Y13031D01*
X35506Y13500D01*
X35483Y13969D01*
X35418Y14434D01*
X35308Y14891D01*
X35157Y15335D01*
X34964Y15764D01*
X34732Y16172D01*
X34685Y16236D01*
X34653Y16268D01*
Y20500D01*
G37*
G36*
X30502D02*X34653D01*
Y16268D01*
X34628Y16292D01*
X34564Y16337D01*
X34492Y16372D01*
X34417Y16396D01*
X34338Y16407D01*
X34259Y16406D01*
X34180Y16393D01*
X34105Y16367D01*
X34035Y16330D01*
X33971Y16283D01*
X33916Y16226D01*
X33870Y16161D01*
X33835Y16090D01*
X33812Y16014D01*
X33800Y15935D01*
X33801Y15856D01*
X33815Y15778D01*
X33840Y15703D01*
X33879Y15633D01*
X34068Y15309D01*
X34221Y14967D01*
X34342Y14612D01*
X34430Y14246D01*
X34482Y13875D01*
X34500Y13500D01*
X34482Y13125D01*
X34430Y12754D01*
X34342Y12388D01*
X34221Y12033D01*
X34068Y11691D01*
X33882Y11365D01*
X33844Y11296D01*
X33819Y11221D01*
X33806Y11144D01*
X33805Y11065D01*
X33816Y10987D01*
X33839Y10912D01*
X33874Y10841D01*
X33919Y10777D01*
X33974Y10721D01*
X34037Y10673D01*
X34107Y10637D01*
X34181Y10612D01*
X34259Y10598D01*
X34338Y10597D01*
X34416Y10608D01*
X34491Y10632D01*
X34561Y10666D01*
X34626Y10712D01*
X34653Y10738D01*
Y6500D01*
X30502D01*
Y8495D01*
X30969Y8517D01*
X31434Y8582D01*
X31891Y8692D01*
X32335Y8843D01*
X32764Y9036D01*
X33172Y9268D01*
X33236Y9315D01*
X33292Y9372D01*
X33337Y9436D01*
X33372Y9508D01*
X33396Y9583D01*
X33407Y9662D01*
X33406Y9741D01*
X33393Y9820D01*
X33367Y9895D01*
X33330Y9965D01*
X33283Y10029D01*
X33226Y10084D01*
X33161Y10130D01*
X33090Y10165D01*
X33014Y10188D01*
X32935Y10200D01*
X32856Y10199D01*
X32778Y10185D01*
X32703Y10160D01*
X32633Y10121D01*
X32309Y9932D01*
X31967Y9779D01*
X31612Y9658D01*
X31246Y9570D01*
X30875Y9518D01*
X30502Y9500D01*
Y17500D01*
X30875Y17482D01*
X31246Y17430D01*
X31612Y17342D01*
X31967Y17221D01*
X32309Y17068D01*
X32635Y16882D01*
X32704Y16844D01*
X32779Y16819D01*
X32856Y16806D01*
X32935Y16805D01*
X33013Y16816D01*
X33088Y16839D01*
X33159Y16874D01*
X33223Y16919D01*
X33279Y16974D01*
X33327Y17037D01*
X33363Y17107D01*
X33388Y17181D01*
X33402Y17259D01*
X33403Y17338D01*
X33392Y17416D01*
X33368Y17491D01*
X33334Y17561D01*
X33288Y17626D01*
X33233Y17682D01*
X33169Y17728D01*
X32764Y17964D01*
X32335Y18157D01*
X31891Y18308D01*
X31434Y18418D01*
X30969Y18483D01*
X30502Y18505D01*
Y20500D01*
G37*
G36*
X26347D02*X30502D01*
Y18505D01*
X30500Y18506D01*
X30031Y18483D01*
X29566Y18418D01*
X29109Y18308D01*
X28665Y18157D01*
X28236Y17964D01*
X27828Y17732D01*
X27764Y17685D01*
X27708Y17628D01*
X27663Y17564D01*
X27628Y17492D01*
X27604Y17417D01*
X27593Y17338D01*
X27594Y17259D01*
X27607Y17180D01*
X27633Y17105D01*
X27670Y17035D01*
X27717Y16971D01*
X27774Y16916D01*
X27839Y16870D01*
X27910Y16835D01*
X27986Y16812D01*
X28065Y16800D01*
X28144Y16801D01*
X28222Y16815D01*
X28297Y16840D01*
X28367Y16879D01*
X28691Y17068D01*
X29033Y17221D01*
X29388Y17342D01*
X29754Y17430D01*
X30125Y17482D01*
X30500Y17500D01*
X30502Y17500D01*
Y9500D01*
X30500Y9500D01*
X30125Y9518D01*
X29754Y9570D01*
X29388Y9658D01*
X29033Y9779D01*
X28691Y9932D01*
X28364Y10118D01*
X28296Y10156D01*
X28221Y10181D01*
X28144Y10194D01*
X28065Y10195D01*
X27987Y10184D01*
X27912Y10161D01*
X27841Y10126D01*
X27777Y10081D01*
X27721Y10026D01*
X27673Y9963D01*
X27637Y9893D01*
X27612Y9819D01*
X27598Y9741D01*
X27597Y9662D01*
X27608Y9584D01*
X27632Y9509D01*
X27666Y9439D01*
X27712Y9374D01*
X27767Y9318D01*
X27831Y9272D01*
X28236Y9036D01*
X28665Y8843D01*
X29109Y8692D01*
X29566Y8582D01*
X30031Y8517D01*
X30500Y8494D01*
X30502Y8495D01*
Y6500D01*
X26347D01*
Y10732D01*
X26372Y10708D01*
X26436Y10663D01*
X26508Y10628D01*
X26583Y10604D01*
X26662Y10593D01*
X26741Y10594D01*
X26820Y10607D01*
X26895Y10633D01*
X26965Y10670D01*
X27029Y10717D01*
X27084Y10774D01*
X27130Y10839D01*
X27165Y10910D01*
X27188Y10986D01*
X27200Y11065D01*
X27199Y11144D01*
X27185Y11222D01*
X27160Y11297D01*
X27121Y11367D01*
X26932Y11691D01*
X26779Y12033D01*
X26658Y12388D01*
X26570Y12754D01*
X26518Y13125D01*
X26500Y13500D01*
X26518Y13875D01*
X26570Y14246D01*
X26658Y14612D01*
X26779Y14967D01*
X26932Y15309D01*
X27118Y15635D01*
X27156Y15704D01*
X27181Y15779D01*
X27194Y15856D01*
X27195Y15935D01*
X27184Y16013D01*
X27161Y16088D01*
X27126Y16159D01*
X27081Y16223D01*
X27026Y16279D01*
X26963Y16327D01*
X26893Y16363D01*
X26819Y16388D01*
X26741Y16402D01*
X26662Y16403D01*
X26584Y16392D01*
X26509Y16368D01*
X26439Y16334D01*
X26374Y16288D01*
X26347Y16262D01*
Y20500D01*
G37*
G36*
X25000D02*X26347D01*
Y16262D01*
X26318Y16233D01*
X26272Y16169D01*
X26036Y15764D01*
X25843Y15335D01*
X25692Y14891D01*
X25582Y14434D01*
X25517Y13969D01*
X25494Y13500D01*
X25517Y13031D01*
X25582Y12566D01*
X25692Y12109D01*
X25843Y11665D01*
X26036Y11236D01*
X26268Y10828D01*
X26315Y10764D01*
X26347Y10732D01*
Y6500D01*
X25000D01*
Y20500D01*
G37*
G36*
X46000Y46000D02*X52000D01*
Y18500D01*
X47500D01*
X47422Y18495D01*
X47345Y18477D01*
X47272Y18447D01*
X47205Y18406D01*
X47145Y18355D01*
X47094Y18295D01*
X47053Y18228D01*
X47023Y18155D01*
X47005Y18078D01*
X46998Y18000D01*
X47005Y17922D01*
X47023Y17845D01*
X47053Y17772D01*
X47094Y17705D01*
X47145Y17645D01*
X47205Y17594D01*
X47272Y17553D01*
X47345Y17523D01*
X47422Y17505D01*
X47500Y17500D01*
X52000D01*
Y9500D01*
X47500D01*
X47422Y9495D01*
X47345Y9477D01*
X47272Y9447D01*
X47205Y9406D01*
X47145Y9355D01*
X47094Y9295D01*
X47053Y9228D01*
X47023Y9155D01*
X47005Y9078D01*
X46998Y9000D01*
X47005Y8922D01*
X47023Y8845D01*
X47053Y8772D01*
X47094Y8705D01*
X47145Y8645D01*
X47205Y8594D01*
X47272Y8553D01*
X47345Y8523D01*
X47422Y8505D01*
X47500Y8500D01*
X52000D01*
Y8000D01*
X46000D01*
Y9998D01*
X46078Y10005D01*
X46155Y10023D01*
X46228Y10053D01*
X46295Y10094D01*
X46355Y10145D01*
X46406Y10205D01*
X46447Y10272D01*
X46477Y10345D01*
X46495Y10422D01*
X46500Y10500D01*
Y16500D01*
X46495Y16578D01*
X46477Y16655D01*
X46447Y16728D01*
X46406Y16795D01*
X46355Y16855D01*
X46295Y16906D01*
X46228Y16947D01*
X46155Y16977D01*
X46078Y16995D01*
X46000Y17002D01*
Y46000D01*
G37*
G36*
X34653D02*X46000D01*
Y17002D01*
X45922Y16995D01*
X45845Y16977D01*
X45772Y16947D01*
X45705Y16906D01*
X45645Y16855D01*
X45594Y16795D01*
X45553Y16728D01*
X45523Y16655D01*
X45505Y16578D01*
X45500Y16500D01*
Y10500D01*
X45505Y10422D01*
X45523Y10345D01*
X45553Y10272D01*
X45594Y10205D01*
X45645Y10145D01*
X45705Y10094D01*
X45772Y10053D01*
X45845Y10023D01*
X45922Y10005D01*
X46000Y9998D01*
Y8000D01*
X34653D01*
Y10738D01*
X34682Y10767D01*
X34728Y10831D01*
X34964Y11236D01*
X35157Y11665D01*
X35308Y12109D01*
X35418Y12566D01*
X35483Y13031D01*
X35506Y13500D01*
X35483Y13969D01*
X35418Y14434D01*
X35308Y14891D01*
X35157Y15335D01*
X34964Y15764D01*
X34732Y16172D01*
X34685Y16236D01*
X34653Y16268D01*
Y46000D01*
G37*
G36*
X29000D02*X34653D01*
Y16268D01*
X34628Y16292D01*
X34564Y16337D01*
X34492Y16372D01*
X34417Y16396D01*
X34338Y16407D01*
X34259Y16406D01*
X34180Y16393D01*
X34105Y16367D01*
X34035Y16330D01*
X33971Y16283D01*
X33916Y16226D01*
X33870Y16161D01*
X33835Y16090D01*
X33812Y16014D01*
X33800Y15935D01*
X33801Y15856D01*
X33815Y15778D01*
X33840Y15703D01*
X33879Y15633D01*
X34068Y15309D01*
X34221Y14967D01*
X34342Y14612D01*
X34430Y14246D01*
X34482Y13875D01*
X34500Y13500D01*
X34482Y13125D01*
X34430Y12754D01*
X34342Y12388D01*
X34221Y12033D01*
X34068Y11691D01*
X33882Y11365D01*
X33844Y11296D01*
X33819Y11221D01*
X33806Y11144D01*
X33805Y11065D01*
X33816Y10987D01*
X33839Y10912D01*
X33874Y10841D01*
X33919Y10777D01*
X33974Y10721D01*
X34037Y10673D01*
X34107Y10637D01*
X34181Y10612D01*
X34259Y10598D01*
X34338Y10597D01*
X34416Y10608D01*
X34491Y10632D01*
X34561Y10666D01*
X34626Y10712D01*
X34653Y10738D01*
Y8000D01*
X29000D01*
Y8729D01*
X29109Y8692D01*
X29566Y8582D01*
X30031Y8517D01*
X30500Y8494D01*
X30969Y8517D01*
X31434Y8582D01*
X31891Y8692D01*
X32335Y8843D01*
X32764Y9036D01*
X33172Y9268D01*
X33236Y9315D01*
X33292Y9372D01*
X33337Y9436D01*
X33372Y9508D01*
X33396Y9583D01*
X33407Y9662D01*
X33406Y9741D01*
X33393Y9820D01*
X33367Y9895D01*
X33330Y9965D01*
X33283Y10029D01*
X33226Y10084D01*
X33161Y10130D01*
X33090Y10165D01*
X33014Y10188D01*
X32935Y10200D01*
X32856Y10199D01*
X32778Y10185D01*
X32703Y10160D01*
X32633Y10121D01*
X32309Y9932D01*
X31967Y9779D01*
X31612Y9658D01*
X31246Y9570D01*
X30875Y9518D01*
X30500Y9500D01*
X30125Y9518D01*
X29754Y9570D01*
X29388Y9658D01*
X29033Y9779D01*
X29000Y9794D01*
Y17206D01*
X29033Y17221D01*
X29388Y17342D01*
X29754Y17430D01*
X30125Y17482D01*
X30500Y17500D01*
X30875Y17482D01*
X31246Y17430D01*
X31612Y17342D01*
X31967Y17221D01*
X32309Y17068D01*
X32635Y16882D01*
X32704Y16844D01*
X32779Y16819D01*
X32856Y16806D01*
X32935Y16805D01*
X33013Y16816D01*
X33088Y16839D01*
X33159Y16874D01*
X33223Y16919D01*
X33279Y16974D01*
X33327Y17037D01*
X33363Y17107D01*
X33388Y17181D01*
X33402Y17259D01*
X33403Y17338D01*
X33392Y17416D01*
X33368Y17491D01*
X33334Y17561D01*
X33288Y17626D01*
X33233Y17682D01*
X33169Y17728D01*
X32764Y17964D01*
X32335Y18157D01*
X31891Y18308D01*
X31434Y18418D01*
X30969Y18483D01*
X30500Y18506D01*
X30031Y18483D01*
X29566Y18418D01*
X29109Y18308D01*
X29000Y18271D01*
Y46000D01*
G37*
G36*
X53500Y51500D02*X80000D01*
Y22000D01*
X53500D01*
Y51500D01*
G37*
G36*
X74653Y23500D02*X80000D01*
Y1500D01*
X74653D01*
Y10738D01*
X74682Y10767D01*
X74728Y10831D01*
X74964Y11236D01*
X75157Y11665D01*
X75308Y12109D01*
X75418Y12566D01*
X75483Y13031D01*
X75506Y13500D01*
X75483Y13969D01*
X75418Y14434D01*
X75308Y14891D01*
X75157Y15335D01*
X74964Y15764D01*
X74732Y16172D01*
X74685Y16236D01*
X74653Y16268D01*
Y23500D01*
G37*
G36*
X70502D02*X74653D01*
Y16268D01*
X74628Y16292D01*
X74564Y16337D01*
X74492Y16372D01*
X74417Y16396D01*
X74338Y16407D01*
X74259Y16406D01*
X74180Y16393D01*
X74105Y16367D01*
X74035Y16330D01*
X73971Y16283D01*
X73916Y16226D01*
X73870Y16161D01*
X73835Y16090D01*
X73812Y16014D01*
X73800Y15935D01*
X73801Y15856D01*
X73815Y15778D01*
X73840Y15703D01*
X73879Y15633D01*
X74068Y15309D01*
X74221Y14967D01*
X74342Y14612D01*
X74430Y14246D01*
X74482Y13875D01*
X74500Y13500D01*
X74482Y13125D01*
X74430Y12754D01*
X74342Y12388D01*
X74221Y12033D01*
X74068Y11691D01*
X73882Y11365D01*
X73844Y11296D01*
X73819Y11221D01*
X73806Y11144D01*
X73805Y11065D01*
X73816Y10987D01*
X73839Y10912D01*
X73874Y10841D01*
X73919Y10777D01*
X73974Y10721D01*
X74037Y10673D01*
X74107Y10637D01*
X74181Y10612D01*
X74259Y10598D01*
X74338Y10597D01*
X74416Y10608D01*
X74491Y10632D01*
X74561Y10666D01*
X74626Y10712D01*
X74653Y10738D01*
Y1500D01*
X70502D01*
Y8495D01*
X70969Y8517D01*
X71434Y8582D01*
X71891Y8692D01*
X72335Y8843D01*
X72764Y9036D01*
X73172Y9268D01*
X73236Y9315D01*
X73292Y9372D01*
X73337Y9436D01*
X73372Y9508D01*
X73396Y9583D01*
X73407Y9662D01*
X73406Y9741D01*
X73393Y9820D01*
X73367Y9895D01*
X73330Y9965D01*
X73283Y10029D01*
X73226Y10084D01*
X73161Y10130D01*
X73090Y10165D01*
X73014Y10188D01*
X72935Y10200D01*
X72856Y10199D01*
X72778Y10185D01*
X72703Y10160D01*
X72633Y10121D01*
X72309Y9932D01*
X71967Y9779D01*
X71612Y9658D01*
X71246Y9570D01*
X70875Y9518D01*
X70502Y9500D01*
Y17500D01*
X70875Y17482D01*
X71246Y17430D01*
X71612Y17342D01*
X71967Y17221D01*
X72309Y17068D01*
X72635Y16882D01*
X72704Y16844D01*
X72779Y16819D01*
X72856Y16806D01*
X72935Y16805D01*
X73013Y16816D01*
X73088Y16839D01*
X73159Y16874D01*
X73223Y16919D01*
X73279Y16974D01*
X73327Y17037D01*
X73363Y17107D01*
X73388Y17181D01*
X73402Y17259D01*
X73403Y17338D01*
X73392Y17416D01*
X73368Y17491D01*
X73334Y17561D01*
X73288Y17626D01*
X73233Y17682D01*
X73169Y17728D01*
X72764Y17964D01*
X72335Y18157D01*
X71891Y18308D01*
X71434Y18418D01*
X70969Y18483D01*
X70502Y18505D01*
Y23500D01*
G37*
G36*
X66347D02*X70502D01*
Y18505D01*
X70500Y18506D01*
X70031Y18483D01*
X69566Y18418D01*
X69109Y18308D01*
X68665Y18157D01*
X68236Y17964D01*
X67828Y17732D01*
X67764Y17685D01*
X67708Y17628D01*
X67663Y17564D01*
X67628Y17492D01*
X67604Y17417D01*
X67593Y17338D01*
X67594Y17259D01*
X67607Y17180D01*
X67633Y17105D01*
X67670Y17035D01*
X67717Y16971D01*
X67774Y16916D01*
X67839Y16870D01*
X67910Y16835D01*
X67986Y16812D01*
X68065Y16800D01*
X68144Y16801D01*
X68222Y16815D01*
X68297Y16840D01*
X68367Y16879D01*
X68691Y17068D01*
X69033Y17221D01*
X69388Y17342D01*
X69754Y17430D01*
X70125Y17482D01*
X70500Y17500D01*
X70502Y17500D01*
Y9500D01*
X70500Y9500D01*
X70125Y9518D01*
X69754Y9570D01*
X69388Y9658D01*
X69033Y9779D01*
X68691Y9932D01*
X68364Y10118D01*
X68296Y10156D01*
X68221Y10181D01*
X68144Y10194D01*
X68065Y10195D01*
X67987Y10184D01*
X67912Y10161D01*
X67841Y10126D01*
X67777Y10081D01*
X67721Y10026D01*
X67673Y9963D01*
X67637Y9893D01*
X67612Y9819D01*
X67598Y9741D01*
X67597Y9662D01*
X67608Y9584D01*
X67632Y9509D01*
X67666Y9439D01*
X67712Y9374D01*
X67767Y9318D01*
X67831Y9272D01*
X68236Y9036D01*
X68665Y8843D01*
X69109Y8692D01*
X69566Y8582D01*
X70031Y8517D01*
X70500Y8494D01*
X70502Y8495D01*
Y1500D01*
X66347D01*
Y10732D01*
X66372Y10708D01*
X66436Y10663D01*
X66508Y10628D01*
X66583Y10604D01*
X66662Y10593D01*
X66741Y10594D01*
X66820Y10607D01*
X66895Y10633D01*
X66965Y10670D01*
X67029Y10717D01*
X67084Y10774D01*
X67130Y10839D01*
X67165Y10910D01*
X67188Y10986D01*
X67200Y11065D01*
X67199Y11144D01*
X67185Y11222D01*
X67160Y11297D01*
X67121Y11367D01*
X66932Y11691D01*
X66779Y12033D01*
X66658Y12388D01*
X66570Y12754D01*
X66518Y13125D01*
X66500Y13500D01*
X66518Y13875D01*
X66570Y14246D01*
X66658Y14612D01*
X66779Y14967D01*
X66932Y15309D01*
X67118Y15635D01*
X67156Y15704D01*
X67181Y15779D01*
X67194Y15856D01*
X67195Y15935D01*
X67184Y16013D01*
X67161Y16088D01*
X67126Y16159D01*
X67081Y16223D01*
X67026Y16279D01*
X66963Y16327D01*
X66893Y16363D01*
X66819Y16388D01*
X66741Y16402D01*
X66662Y16403D01*
X66584Y16392D01*
X66509Y16368D01*
X66439Y16334D01*
X66374Y16288D01*
X66347Y16262D01*
Y23500D01*
G37*
G36*
X58000D02*X66347D01*
Y16262D01*
X66318Y16233D01*
X66272Y16169D01*
X66036Y15764D01*
X65843Y15335D01*
X65692Y14891D01*
X65582Y14434D01*
X65517Y13969D01*
X65494Y13500D01*
X65517Y13031D01*
X65582Y12566D01*
X65692Y12109D01*
X65843Y11665D01*
X66036Y11236D01*
X66268Y10828D01*
X66315Y10764D01*
X66347Y10732D01*
Y1500D01*
X58000D01*
Y23500D01*
G37*
G36*
X55000Y20500D02*X56500D01*
Y1500D01*
X55000D01*
Y9998D01*
X55078Y10005D01*
X55155Y10023D01*
X55228Y10053D01*
X55295Y10094D01*
X55355Y10145D01*
X55406Y10205D01*
X55447Y10272D01*
X55477Y10345D01*
X55495Y10422D01*
X55500Y10500D01*
Y16500D01*
X55495Y16578D01*
X55477Y16655D01*
X55447Y16728D01*
X55406Y16795D01*
X55355Y16855D01*
X55295Y16906D01*
X55228Y16947D01*
X55155Y16977D01*
X55078Y16995D01*
X55000Y17002D01*
Y20500D01*
G37*
G36*
X50500D02*X55000D01*
Y17002D01*
X54922Y16995D01*
X54845Y16977D01*
X54772Y16947D01*
X54705Y16906D01*
X54645Y16855D01*
X54594Y16795D01*
X54553Y16728D01*
X54523Y16655D01*
X54505Y16578D01*
X54500Y16500D01*
Y10500D01*
X54505Y10422D01*
X54523Y10345D01*
X54553Y10272D01*
X54594Y10205D01*
X54645Y10145D01*
X54705Y10094D01*
X54772Y10053D01*
X54845Y10023D01*
X54922Y10005D01*
X55000Y9998D01*
Y1500D01*
X50500D01*
Y8500D01*
X53500D01*
X53578Y8505D01*
X53655Y8523D01*
X53728Y8553D01*
X53795Y8594D01*
X53855Y8645D01*
X53906Y8705D01*
X53947Y8772D01*
X53977Y8845D01*
X53995Y8922D01*
X54002Y9000D01*
X53995Y9078D01*
X53977Y9155D01*
X53947Y9228D01*
X53906Y9295D01*
X53855Y9355D01*
X53795Y9406D01*
X53728Y9447D01*
X53655Y9477D01*
X53578Y9495D01*
X53500Y9500D01*
X50500D01*
Y17500D01*
X53500D01*
X53578Y17505D01*
X53655Y17523D01*
X53728Y17553D01*
X53795Y17594D01*
X53855Y17645D01*
X53906Y17705D01*
X53947Y17772D01*
X53977Y17845D01*
X53995Y17922D01*
X54002Y18000D01*
X53995Y18078D01*
X53977Y18155D01*
X53947Y18228D01*
X53906Y18295D01*
X53855Y18355D01*
X53795Y18406D01*
X53728Y18447D01*
X53655Y18477D01*
X53578Y18495D01*
X53500Y18500D01*
X50500D01*
Y20500D01*
G37*
G36*
X46000D02*X50500D01*
Y18500D01*
X47500D01*
X47422Y18495D01*
X47345Y18477D01*
X47272Y18447D01*
X47205Y18406D01*
X47145Y18355D01*
X47094Y18295D01*
X47053Y18228D01*
X47023Y18155D01*
X47005Y18078D01*
X46998Y18000D01*
X47005Y17922D01*
X47023Y17845D01*
X47053Y17772D01*
X47094Y17705D01*
X47145Y17645D01*
X47205Y17594D01*
X47272Y17553D01*
X47345Y17523D01*
X47422Y17505D01*
X47500Y17500D01*
X50500D01*
Y9500D01*
X47500D01*
X47422Y9495D01*
X47345Y9477D01*
X47272Y9447D01*
X47205Y9406D01*
X47145Y9355D01*
X47094Y9295D01*
X47053Y9228D01*
X47023Y9155D01*
X47005Y9078D01*
X46998Y9000D01*
X47005Y8922D01*
X47023Y8845D01*
X47053Y8772D01*
X47094Y8705D01*
X47145Y8645D01*
X47205Y8594D01*
X47272Y8553D01*
X47345Y8523D01*
X47422Y8505D01*
X47500Y8500D01*
X50500D01*
Y1500D01*
X46000D01*
Y9998D01*
X46078Y10005D01*
X46155Y10023D01*
X46228Y10053D01*
X46295Y10094D01*
X46355Y10145D01*
X46406Y10205D01*
X46447Y10272D01*
X46477Y10345D01*
X46495Y10422D01*
X46500Y10500D01*
Y16500D01*
X46495Y16578D01*
X46477Y16655D01*
X46447Y16728D01*
X46406Y16795D01*
X46355Y16855D01*
X46295Y16906D01*
X46228Y16947D01*
X46155Y16977D01*
X46078Y16995D01*
X46000Y17002D01*
Y20500D01*
G37*
G36*
X34653D02*X46000D01*
Y17002D01*
X45922Y16995D01*
X45845Y16977D01*
X45772Y16947D01*
X45705Y16906D01*
X45645Y16855D01*
X45594Y16795D01*
X45553Y16728D01*
X45523Y16655D01*
X45505Y16578D01*
X45500Y16500D01*
Y10500D01*
X45505Y10422D01*
X45523Y10345D01*
X45553Y10272D01*
X45594Y10205D01*
X45645Y10145D01*
X45705Y10094D01*
X45772Y10053D01*
X45845Y10023D01*
X45922Y10005D01*
X46000Y9998D01*
Y1500D01*
X34653D01*
Y10738D01*
X34682Y10767D01*
X34728Y10831D01*
X34964Y11236D01*
X35157Y11665D01*
X35308Y12109D01*
X35418Y12566D01*
X35483Y13031D01*
X35506Y13500D01*
X35483Y13969D01*
X35418Y14434D01*
X35308Y14891D01*
X35157Y15335D01*
X34964Y15764D01*
X34732Y16172D01*
X34685Y16236D01*
X34653Y16268D01*
Y20500D01*
G37*
G36*
X30502D02*X34653D01*
Y16268D01*
X34628Y16292D01*
X34564Y16337D01*
X34492Y16372D01*
X34417Y16396D01*
X34338Y16407D01*
X34259Y16406D01*
X34180Y16393D01*
X34105Y16367D01*
X34035Y16330D01*
X33971Y16283D01*
X33916Y16226D01*
X33870Y16161D01*
X33835Y16090D01*
X33812Y16014D01*
X33800Y15935D01*
X33801Y15856D01*
X33815Y15778D01*
X33840Y15703D01*
X33879Y15633D01*
X34068Y15309D01*
X34221Y14967D01*
X34342Y14612D01*
X34430Y14246D01*
X34482Y13875D01*
X34500Y13500D01*
X34482Y13125D01*
X34430Y12754D01*
X34342Y12388D01*
X34221Y12033D01*
X34068Y11691D01*
X33882Y11365D01*
X33844Y11296D01*
X33819Y11221D01*
X33806Y11144D01*
X33805Y11065D01*
X33816Y10987D01*
X33839Y10912D01*
X33874Y10841D01*
X33919Y10777D01*
X33974Y10721D01*
X34037Y10673D01*
X34107Y10637D01*
X34181Y10612D01*
X34259Y10598D01*
X34338Y10597D01*
X34416Y10608D01*
X34491Y10632D01*
X34561Y10666D01*
X34626Y10712D01*
X34653Y10738D01*
Y1500D01*
X30502D01*
Y8495D01*
X30969Y8517D01*
X31434Y8582D01*
X31891Y8692D01*
X32335Y8843D01*
X32764Y9036D01*
X33172Y9268D01*
X33236Y9315D01*
X33292Y9372D01*
X33337Y9436D01*
X33372Y9508D01*
X33396Y9583D01*
X33407Y9662D01*
X33406Y9741D01*
X33393Y9820D01*
X33367Y9895D01*
X33330Y9965D01*
X33283Y10029D01*
X33226Y10084D01*
X33161Y10130D01*
X33090Y10165D01*
X33014Y10188D01*
X32935Y10200D01*
X32856Y10199D01*
X32778Y10185D01*
X32703Y10160D01*
X32633Y10121D01*
X32309Y9932D01*
X31967Y9779D01*
X31612Y9658D01*
X31246Y9570D01*
X30875Y9518D01*
X30502Y9500D01*
Y17500D01*
X30875Y17482D01*
X31246Y17430D01*
X31612Y17342D01*
X31967Y17221D01*
X32309Y17068D01*
X32635Y16882D01*
X32704Y16844D01*
X32779Y16819D01*
X32856Y16806D01*
X32935Y16805D01*
X33013Y16816D01*
X33088Y16839D01*
X33159Y16874D01*
X33223Y16919D01*
X33279Y16974D01*
X33327Y17037D01*
X33363Y17107D01*
X33388Y17181D01*
X33402Y17259D01*
X33403Y17338D01*
X33392Y17416D01*
X33368Y17491D01*
X33334Y17561D01*
X33288Y17626D01*
X33233Y17682D01*
X33169Y17728D01*
X32764Y17964D01*
X32335Y18157D01*
X31891Y18308D01*
X31434Y18418D01*
X30969Y18483D01*
X30502Y18505D01*
Y20500D01*
G37*
G36*
X26347D02*X30502D01*
Y18505D01*
X30500Y18506D01*
X30031Y18483D01*
X29566Y18418D01*
X29109Y18308D01*
X28665Y18157D01*
X28236Y17964D01*
X27828Y17732D01*
X27764Y17685D01*
X27708Y17628D01*
X27663Y17564D01*
X27628Y17492D01*
X27604Y17417D01*
X27593Y17338D01*
X27594Y17259D01*
X27607Y17180D01*
X27633Y17105D01*
X27670Y17035D01*
X27717Y16971D01*
X27774Y16916D01*
X27839Y16870D01*
X27910Y16835D01*
X27986Y16812D01*
X28065Y16800D01*
X28144Y16801D01*
X28222Y16815D01*
X28297Y16840D01*
X28367Y16879D01*
X28691Y17068D01*
X29033Y17221D01*
X29388Y17342D01*
X29754Y17430D01*
X30125Y17482D01*
X30500Y17500D01*
X30502Y17500D01*
Y9500D01*
X30500Y9500D01*
X30125Y9518D01*
X29754Y9570D01*
X29388Y9658D01*
X29033Y9779D01*
X28691Y9932D01*
X28364Y10118D01*
X28296Y10156D01*
X28221Y10181D01*
X28144Y10194D01*
X28065Y10195D01*
X27987Y10184D01*
X27912Y10161D01*
X27841Y10126D01*
X27777Y10081D01*
X27721Y10026D01*
X27673Y9963D01*
X27637Y9893D01*
X27612Y9819D01*
X27598Y9741D01*
X27597Y9662D01*
X27608Y9584D01*
X27632Y9509D01*
X27666Y9439D01*
X27712Y9374D01*
X27767Y9318D01*
X27831Y9272D01*
X28236Y9036D01*
X28665Y8843D01*
X29109Y8692D01*
X29566Y8582D01*
X30031Y8517D01*
X30500Y8494D01*
X30502Y8495D01*
Y1500D01*
X26347D01*
Y10732D01*
X26372Y10708D01*
X26436Y10663D01*
X26508Y10628D01*
X26583Y10604D01*
X26662Y10593D01*
X26741Y10594D01*
X26820Y10607D01*
X26895Y10633D01*
X26965Y10670D01*
X27029Y10717D01*
X27084Y10774D01*
X27130Y10839D01*
X27165Y10910D01*
X27188Y10986D01*
X27200Y11065D01*
X27199Y11144D01*
X27185Y11222D01*
X27160Y11297D01*
X27121Y11367D01*
X26932Y11691D01*
X26779Y12033D01*
X26658Y12388D01*
X26570Y12754D01*
X26518Y13125D01*
X26500Y13500D01*
X26518Y13875D01*
X26570Y14246D01*
X26658Y14612D01*
X26779Y14967D01*
X26932Y15309D01*
X27118Y15635D01*
X27156Y15704D01*
X27181Y15779D01*
X27194Y15856D01*
X27195Y15935D01*
X27184Y16013D01*
X27161Y16088D01*
X27126Y16159D01*
X27081Y16223D01*
X27026Y16279D01*
X26963Y16327D01*
X26893Y16363D01*
X26819Y16388D01*
X26741Y16402D01*
X26662Y16403D01*
X26584Y16392D01*
X26509Y16368D01*
X26439Y16334D01*
X26374Y16288D01*
X26347Y16262D01*
Y20500D01*
G37*
G36*
X25000D02*X26347D01*
Y16262D01*
X26318Y16233D01*
X26272Y16169D01*
X26036Y15764D01*
X25843Y15335D01*
X25692Y14891D01*
X25582Y14434D01*
X25517Y13969D01*
X25494Y13500D01*
X25517Y13031D01*
X25582Y12566D01*
X25692Y12109D01*
X25843Y11665D01*
X26036Y11236D01*
X26268Y10828D01*
X26315Y10764D01*
X26347Y10732D01*
Y1500D01*
X25000D01*
Y20500D01*
G37*
G36*
X23500Y1500D02*X15000D01*
Y9998D01*
X15078Y10005D01*
X15155Y10023D01*
X15228Y10053D01*
X15295Y10094D01*
X15355Y10145D01*
X15406Y10205D01*
X15447Y10272D01*
X15477Y10345D01*
X15495Y10422D01*
X15500Y10500D01*
Y16500D01*
X15495Y16578D01*
X15477Y16655D01*
X15447Y16728D01*
X15406Y16795D01*
X15355Y16855D01*
X15295Y16906D01*
X15228Y16947D01*
X15155Y16977D01*
X15078Y16995D01*
X15000Y17002D01*
Y25000D01*
X23500D01*
Y1500D01*
G37*
G36*
X15000D02*X10500D01*
Y8500D01*
X13500D01*
X13578Y8505D01*
X13655Y8523D01*
X13728Y8553D01*
X13795Y8594D01*
X13855Y8645D01*
X13906Y8705D01*
X13947Y8772D01*
X13977Y8845D01*
X13995Y8922D01*
X14002Y9000D01*
X13995Y9078D01*
X13977Y9155D01*
X13947Y9228D01*
X13906Y9295D01*
X13855Y9355D01*
X13795Y9406D01*
X13728Y9447D01*
X13655Y9477D01*
X13578Y9495D01*
X13500Y9500D01*
X10500D01*
Y17500D01*
X13500D01*
X13578Y17505D01*
X13655Y17523D01*
X13728Y17553D01*
X13795Y17594D01*
X13855Y17645D01*
X13906Y17705D01*
X13947Y17772D01*
X13977Y17845D01*
X13995Y17922D01*
X14002Y18000D01*
X13995Y18078D01*
X13977Y18155D01*
X13947Y18228D01*
X13906Y18295D01*
X13855Y18355D01*
X13795Y18406D01*
X13728Y18447D01*
X13655Y18477D01*
X13578Y18495D01*
X13500Y18500D01*
X10500D01*
Y25000D01*
X15000D01*
Y17002D01*
X14922Y16995D01*
X14845Y16977D01*
X14772Y16947D01*
X14705Y16906D01*
X14645Y16855D01*
X14594Y16795D01*
X14553Y16728D01*
X14523Y16655D01*
X14505Y16578D01*
X14500Y16500D01*
Y10500D01*
X14505Y10422D01*
X14523Y10345D01*
X14553Y10272D01*
X14594Y10205D01*
X14645Y10145D01*
X14705Y10094D01*
X14772Y10053D01*
X14845Y10023D01*
X14922Y10005D01*
X15000Y9998D01*
Y1500D01*
G37*
G36*
X10500D02*X6000D01*
Y9998D01*
X6078Y10005D01*
X6155Y10023D01*
X6228Y10053D01*
X6295Y10094D01*
X6355Y10145D01*
X6406Y10205D01*
X6447Y10272D01*
X6477Y10345D01*
X6495Y10422D01*
X6500Y10500D01*
Y16500D01*
X6495Y16578D01*
X6477Y16655D01*
X6447Y16728D01*
X6406Y16795D01*
X6355Y16855D01*
X6295Y16906D01*
X6228Y16947D01*
X6155Y16977D01*
X6078Y16995D01*
X6000Y17002D01*
Y25000D01*
X10500D01*
Y18500D01*
X7500D01*
X7422Y18495D01*
X7345Y18477D01*
X7272Y18447D01*
X7205Y18406D01*
X7145Y18355D01*
X7094Y18295D01*
X7053Y18228D01*
X7023Y18155D01*
X7005Y18078D01*
X6998Y18000D01*
X7005Y17922D01*
X7023Y17845D01*
X7053Y17772D01*
X7094Y17705D01*
X7145Y17645D01*
X7205Y17594D01*
X7272Y17553D01*
X7345Y17523D01*
X7422Y17505D01*
X7500Y17500D01*
X10500D01*
Y9500D01*
X7500D01*
X7422Y9495D01*
X7345Y9477D01*
X7272Y9447D01*
X7205Y9406D01*
X7145Y9355D01*
X7094Y9295D01*
X7053Y9228D01*
X7023Y9155D01*
X7005Y9078D01*
X6998Y9000D01*
X7005Y8922D01*
X7023Y8845D01*
X7053Y8772D01*
X7094Y8705D01*
X7145Y8645D01*
X7205Y8594D01*
X7272Y8553D01*
X7345Y8523D01*
X7422Y8505D01*
X7500Y8500D01*
X10500D01*
Y1500D01*
G37*
G36*
X6000D02*X1000D01*
Y25000D01*
X6000D01*
Y17002D01*
X5922Y16995D01*
X5845Y16977D01*
X5772Y16947D01*
X5705Y16906D01*
X5645Y16855D01*
X5594Y16795D01*
X5553Y16728D01*
X5523Y16655D01*
X5505Y16578D01*
X5500Y16500D01*
Y10500D01*
X5505Y10422D01*
X5523Y10345D01*
X5553Y10272D01*
X5594Y10205D01*
X5645Y10145D01*
X5705Y10094D01*
X5772Y10053D01*
X5845Y10023D01*
X5922Y10005D01*
X6000Y9998D01*
Y1500D01*
G37*
G36*
X135050Y20500D02*X136500D01*
Y6500D01*
X135050D01*
Y10048D01*
X135136Y10055D01*
X135220Y10075D01*
X135300Y10108D01*
X135374Y10154D01*
X135440Y10210D01*
X135496Y10276D01*
X135542Y10350D01*
X135575Y10430D01*
X135595Y10514D01*
X135600Y10600D01*
Y16400D01*
X135595Y16486D01*
X135575Y16570D01*
X135542Y16650D01*
X135496Y16724D01*
X135440Y16790D01*
X135374Y16846D01*
X135300Y16892D01*
X135220Y16925D01*
X135136Y16945D01*
X135050Y16952D01*
Y20500D01*
G37*
G36*
X130500D02*X135050D01*
Y16952D01*
X134964Y16945D01*
X134880Y16925D01*
X134800Y16892D01*
X134726Y16846D01*
X134660Y16790D01*
X134604Y16724D01*
X134558Y16650D01*
X134525Y16570D01*
X134505Y16486D01*
X134500Y16400D01*
Y10600D01*
X134505Y10514D01*
X134525Y10430D01*
X134558Y10350D01*
X134604Y10276D01*
X134660Y10210D01*
X134726Y10154D01*
X134800Y10108D01*
X134880Y10075D01*
X134964Y10055D01*
X135050Y10048D01*
Y6500D01*
X130500D01*
Y8400D01*
X133400D01*
X133486Y8405D01*
X133570Y8425D01*
X133650Y8458D01*
X133724Y8504D01*
X133790Y8560D01*
X133846Y8626D01*
X133892Y8700D01*
X133925Y8780D01*
X133945Y8864D01*
X133952Y8950D01*
X133945Y9036D01*
X133925Y9120D01*
X133892Y9200D01*
X133846Y9274D01*
X133790Y9340D01*
X133724Y9396D01*
X133650Y9442D01*
X133570Y9475D01*
X133486Y9495D01*
X133400Y9500D01*
X130500D01*
Y17500D01*
X133400D01*
X133486Y17505D01*
X133570Y17525D01*
X133650Y17558D01*
X133724Y17604D01*
X133790Y17660D01*
X133846Y17726D01*
X133892Y17800D01*
X133925Y17880D01*
X133945Y17964D01*
X133952Y18050D01*
X133945Y18136D01*
X133925Y18220D01*
X133892Y18300D01*
X133846Y18374D01*
X133790Y18440D01*
X133724Y18496D01*
X133650Y18542D01*
X133570Y18575D01*
X133486Y18595D01*
X133400Y18600D01*
X130500D01*
Y20500D01*
G37*
G36*
X125950D02*X130500D01*
Y18600D01*
X127600D01*
X127514Y18595D01*
X127430Y18575D01*
X127350Y18542D01*
X127276Y18496D01*
X127210Y18440D01*
X127154Y18374D01*
X127108Y18300D01*
X127075Y18220D01*
X127055Y18136D01*
X127048Y18050D01*
X127055Y17964D01*
X127075Y17880D01*
X127108Y17800D01*
X127154Y17726D01*
X127210Y17660D01*
X127276Y17604D01*
X127350Y17558D01*
X127430Y17525D01*
X127514Y17505D01*
X127600Y17500D01*
X130500D01*
Y9500D01*
X127600D01*
X127514Y9495D01*
X127430Y9475D01*
X127350Y9442D01*
X127276Y9396D01*
X127210Y9340D01*
X127154Y9274D01*
X127108Y9200D01*
X127075Y9120D01*
X127055Y9036D01*
X127048Y8950D01*
X127055Y8864D01*
X127075Y8780D01*
X127108Y8700D01*
X127154Y8626D01*
X127210Y8560D01*
X127276Y8504D01*
X127350Y8458D01*
X127430Y8425D01*
X127514Y8405D01*
X127600Y8400D01*
X130500D01*
Y6500D01*
X125950D01*
Y10048D01*
X126036Y10055D01*
X126120Y10075D01*
X126200Y10108D01*
X126274Y10154D01*
X126340Y10210D01*
X126396Y10276D01*
X126442Y10350D01*
X126475Y10430D01*
X126495Y10514D01*
X126500Y10600D01*
Y16400D01*
X126495Y16486D01*
X126475Y16570D01*
X126442Y16650D01*
X126396Y16724D01*
X126340Y16790D01*
X126274Y16846D01*
X126200Y16892D01*
X126120Y16925D01*
X126036Y16945D01*
X125950Y16952D01*
Y20500D01*
G37*
G36*
X114722D02*X125950D01*
Y16952D01*
X125864Y16945D01*
X125780Y16925D01*
X125700Y16892D01*
X125626Y16846D01*
X125560Y16790D01*
X125504Y16724D01*
X125458Y16650D01*
X125425Y16570D01*
X125405Y16486D01*
X125400Y16400D01*
Y10600D01*
X125405Y10514D01*
X125425Y10430D01*
X125458Y10350D01*
X125504Y10276D01*
X125560Y10210D01*
X125626Y10154D01*
X125700Y10108D01*
X125780Y10075D01*
X125864Y10055D01*
X125950Y10048D01*
Y6500D01*
X114722D01*
Y10705D01*
X114755Y10729D01*
X114816Y10791D01*
X114865Y10862D01*
X115090Y11265D01*
X115274Y11690D01*
X115418Y12129D01*
X115522Y12580D01*
X115584Y13038D01*
X115605Y13500D01*
X115584Y13962D01*
X115522Y14420D01*
X115418Y14871D01*
X115274Y15310D01*
X115090Y15735D01*
X114869Y16141D01*
X114819Y16212D01*
X114758Y16274D01*
X114722Y16300D01*
Y20500D01*
G37*
G36*
X110502D02*X114722D01*
Y16300D01*
X114687Y16326D01*
X114610Y16366D01*
X114527Y16393D01*
X114441Y16407D01*
X114354Y16408D01*
X114268Y16395D01*
X114184Y16368D01*
X114107Y16329D01*
X114036Y16278D01*
X113974Y16217D01*
X113922Y16147D01*
X113882Y16069D01*
X113854Y15987D01*
X113840Y15901D01*
X113840Y15813D01*
X113853Y15727D01*
X113879Y15644D01*
X113920Y15567D01*
X114096Y15251D01*
X114240Y14918D01*
X114353Y14574D01*
X114434Y14221D01*
X114484Y13862D01*
X114500Y13500D01*
X114484Y13138D01*
X114434Y12779D01*
X114353Y12426D01*
X114240Y12082D01*
X114096Y11749D01*
X113923Y11431D01*
X113883Y11354D01*
X113857Y11272D01*
X113844Y11186D01*
X113844Y11100D01*
X113858Y11014D01*
X113886Y10932D01*
X113925Y10855D01*
X113977Y10786D01*
X114038Y10725D01*
X114109Y10674D01*
X114186Y10636D01*
X114269Y10609D01*
X114354Y10596D01*
X114441Y10597D01*
X114526Y10611D01*
X114608Y10638D01*
X114685Y10678D01*
X114722Y10705D01*
Y6500D01*
X110502D01*
Y8395D01*
X110962Y8416D01*
X111420Y8478D01*
X111871Y8582D01*
X112310Y8726D01*
X112735Y8910D01*
X113141Y9131D01*
X113212Y9181D01*
X113274Y9242D01*
X113326Y9313D01*
X113366Y9390D01*
X113393Y9473D01*
X113407Y9559D01*
X113408Y9646D01*
X113395Y9732D01*
X113368Y9816D01*
X113329Y9893D01*
X113278Y9964D01*
X113217Y10026D01*
X113147Y10078D01*
X113069Y10118D01*
X112987Y10146D01*
X112901Y10160D01*
X112813Y10160D01*
X112727Y10147D01*
X112644Y10121D01*
X112567Y10080D01*
X112251Y9904D01*
X111918Y9760D01*
X111574Y9647D01*
X111221Y9566D01*
X110862Y9516D01*
X110502Y9500D01*
Y17500D01*
X110862Y17484D01*
X111221Y17435D01*
X111574Y17353D01*
X111918Y17240D01*
X112251Y17096D01*
X112569Y16923D01*
X112646Y16883D01*
X112728Y16857D01*
X112814Y16844D01*
X112900Y16844D01*
X112986Y16858D01*
X113068Y16886D01*
X113145Y16925D01*
X113214Y16977D01*
X113275Y17038D01*
X113326Y17109D01*
X113364Y17186D01*
X113391Y17269D01*
X113404Y17354D01*
X113403Y17441D01*
X113389Y17526D01*
X113362Y17608D01*
X113322Y17685D01*
X113271Y17755D01*
X113209Y17816D01*
X113138Y17865D01*
X112735Y18090D01*
X112310Y18274D01*
X111871Y18418D01*
X111420Y18522D01*
X110962Y18584D01*
X110502Y18605D01*
Y20500D01*
G37*
G36*
X106278D02*X110502D01*
Y18605D01*
X110500Y18605D01*
X110038Y18584D01*
X109580Y18522D01*
X109129Y18418D01*
X108690Y18274D01*
X108265Y18090D01*
X107859Y17869D01*
X107788Y17819D01*
X107726Y17758D01*
X107674Y17687D01*
X107634Y17610D01*
X107607Y17527D01*
X107593Y17441D01*
X107592Y17354D01*
X107605Y17268D01*
X107632Y17184D01*
X107671Y17107D01*
X107722Y17036D01*
X107783Y16974D01*
X107853Y16922D01*
X107931Y16882D01*
X108013Y16854D01*
X108099Y16840D01*
X108187Y16840D01*
X108273Y16853D01*
X108356Y16879D01*
X108433Y16920D01*
X108749Y17096D01*
X109082Y17240D01*
X109426Y17353D01*
X109779Y17435D01*
X110138Y17484D01*
X110500Y17500D01*
X110502Y17500D01*
Y9500D01*
X110500Y9500D01*
X110138Y9516D01*
X109779Y9566D01*
X109426Y9647D01*
X109082Y9760D01*
X108749Y9904D01*
X108431Y10077D01*
X108354Y10117D01*
X108272Y10143D01*
X108186Y10156D01*
X108100Y10156D01*
X108014Y10142D01*
X107932Y10114D01*
X107855Y10075D01*
X107786Y10023D01*
X107725Y9962D01*
X107674Y9891D01*
X107636Y9814D01*
X107609Y9731D01*
X107596Y9646D01*
X107597Y9559D01*
X107611Y9474D01*
X107638Y9392D01*
X107678Y9315D01*
X107729Y9245D01*
X107791Y9184D01*
X107862Y9135D01*
X108265Y8910D01*
X108690Y8726D01*
X109129Y8582D01*
X109580Y8478D01*
X110038Y8416D01*
X110500Y8395D01*
X110502Y8395D01*
Y6500D01*
X106278D01*
Y10700D01*
X106313Y10674D01*
X106390Y10634D01*
X106473Y10607D01*
X106559Y10593D01*
X106646Y10592D01*
X106732Y10605D01*
X106816Y10632D01*
X106893Y10671D01*
X106964Y10722D01*
X107026Y10783D01*
X107078Y10853D01*
X107118Y10931D01*
X107146Y11013D01*
X107160Y11099D01*
X107160Y11187D01*
X107147Y11273D01*
X107121Y11356D01*
X107080Y11433D01*
X106904Y11749D01*
X106760Y12082D01*
X106647Y12426D01*
X106565Y12779D01*
X106516Y13138D01*
X106500Y13500D01*
X106516Y13862D01*
X106565Y14221D01*
X106647Y14574D01*
X106760Y14918D01*
X106904Y15251D01*
X107077Y15569D01*
X107117Y15646D01*
X107143Y15728D01*
X107156Y15814D01*
X107156Y15900D01*
X107142Y15986D01*
X107114Y16068D01*
X107075Y16145D01*
X107023Y16214D01*
X106962Y16275D01*
X106891Y16326D01*
X106814Y16364D01*
X106731Y16391D01*
X106646Y16404D01*
X106559Y16403D01*
X106474Y16389D01*
X106392Y16362D01*
X106315Y16322D01*
X106278Y16295D01*
Y20500D01*
G37*
G36*
X105000D02*X106278D01*
Y16295D01*
X106245Y16271D01*
X106184Y16209D01*
X106135Y16138D01*
X105910Y15735D01*
X105726Y15310D01*
X105582Y14871D01*
X105478Y14420D01*
X105416Y13962D01*
X105395Y13500D01*
X105416Y13038D01*
X105478Y12580D01*
X105582Y12129D01*
X105726Y11690D01*
X105910Y11265D01*
X106131Y10859D01*
X106181Y10788D01*
X106242Y10726D01*
X106278Y10700D01*
Y6500D01*
X105000D01*
Y20500D01*
G37*
G36*
X103500Y1500D02*X95050D01*
Y10048D01*
X95136Y10055D01*
X95220Y10075D01*
X95300Y10108D01*
X95374Y10154D01*
X95440Y10210D01*
X95496Y10276D01*
X95542Y10350D01*
X95575Y10430D01*
X95595Y10514D01*
X95600Y10600D01*
Y16400D01*
X95595Y16486D01*
X95575Y16570D01*
X95542Y16650D01*
X95496Y16724D01*
X95440Y16790D01*
X95374Y16846D01*
X95300Y16892D01*
X95220Y16925D01*
X95136Y16945D01*
X95050Y16952D01*
Y25000D01*
X103500D01*
Y1500D01*
G37*
G36*
X95050D02*X90500D01*
Y8400D01*
X93400D01*
X93486Y8405D01*
X93570Y8425D01*
X93650Y8458D01*
X93724Y8504D01*
X93790Y8560D01*
X93846Y8626D01*
X93892Y8700D01*
X93925Y8780D01*
X93945Y8864D01*
X93952Y8950D01*
X93945Y9036D01*
X93925Y9120D01*
X93892Y9200D01*
X93846Y9274D01*
X93790Y9340D01*
X93724Y9396D01*
X93650Y9442D01*
X93570Y9475D01*
X93486Y9495D01*
X93400Y9500D01*
X90500D01*
Y17500D01*
X93400D01*
X93486Y17505D01*
X93570Y17525D01*
X93650Y17558D01*
X93724Y17604D01*
X93790Y17660D01*
X93846Y17726D01*
X93892Y17800D01*
X93925Y17880D01*
X93945Y17964D01*
X93952Y18050D01*
X93945Y18136D01*
X93925Y18220D01*
X93892Y18300D01*
X93846Y18374D01*
X93790Y18440D01*
X93724Y18496D01*
X93650Y18542D01*
X93570Y18575D01*
X93486Y18595D01*
X93400Y18600D01*
X90500D01*
Y25000D01*
X95050D01*
Y16952D01*
X94964Y16945D01*
X94880Y16925D01*
X94800Y16892D01*
X94726Y16846D01*
X94660Y16790D01*
X94604Y16724D01*
X94558Y16650D01*
X94525Y16570D01*
X94505Y16486D01*
X94500Y16400D01*
Y10600D01*
X94505Y10514D01*
X94525Y10430D01*
X94558Y10350D01*
X94604Y10276D01*
X94660Y10210D01*
X94726Y10154D01*
X94800Y10108D01*
X94880Y10075D01*
X94964Y10055D01*
X95050Y10048D01*
Y1500D01*
G37*
G36*
X90500D02*X85950D01*
Y10048D01*
X86036Y10055D01*
X86120Y10075D01*
X86200Y10108D01*
X86274Y10154D01*
X86340Y10210D01*
X86396Y10276D01*
X86442Y10350D01*
X86475Y10430D01*
X86495Y10514D01*
X86500Y10600D01*
Y16400D01*
X86495Y16486D01*
X86475Y16570D01*
X86442Y16650D01*
X86396Y16724D01*
X86340Y16790D01*
X86274Y16846D01*
X86200Y16892D01*
X86120Y16925D01*
X86036Y16945D01*
X85950Y16952D01*
Y25000D01*
X90500D01*
Y18600D01*
X87600D01*
X87514Y18595D01*
X87430Y18575D01*
X87350Y18542D01*
X87276Y18496D01*
X87210Y18440D01*
X87154Y18374D01*
X87108Y18300D01*
X87075Y18220D01*
X87055Y18136D01*
X87048Y18050D01*
X87055Y17964D01*
X87075Y17880D01*
X87108Y17800D01*
X87154Y17726D01*
X87210Y17660D01*
X87276Y17604D01*
X87350Y17558D01*
X87430Y17525D01*
X87514Y17505D01*
X87600Y17500D01*
X90500D01*
Y9500D01*
X87600D01*
X87514Y9495D01*
X87430Y9475D01*
X87350Y9442D01*
X87276Y9396D01*
X87210Y9340D01*
X87154Y9274D01*
X87108Y9200D01*
X87075Y9120D01*
X87055Y9036D01*
X87048Y8950D01*
X87055Y8864D01*
X87075Y8780D01*
X87108Y8700D01*
X87154Y8626D01*
X87210Y8560D01*
X87276Y8504D01*
X87350Y8458D01*
X87430Y8425D01*
X87514Y8405D01*
X87600Y8400D01*
X90500D01*
Y1500D01*
G37*
G36*
X85950D02*X81000D01*
Y25000D01*
X85950D01*
Y16952D01*
X85864Y16945D01*
X85780Y16925D01*
X85700Y16892D01*
X85626Y16846D01*
X85560Y16790D01*
X85504Y16724D01*
X85458Y16650D01*
X85425Y16570D01*
X85405Y16486D01*
X85400Y16400D01*
Y10600D01*
X85405Y10514D01*
X85425Y10430D01*
X85458Y10350D01*
X85504Y10276D01*
X85560Y10210D01*
X85626Y10154D01*
X85700Y10108D01*
X85780Y10075D01*
X85864Y10055D01*
X85950Y10048D01*
Y1500D01*
G37*
G36*
X135050Y20500D02*X136500D01*
Y1500D01*
X135050D01*
Y10048D01*
X135136Y10055D01*
X135220Y10075D01*
X135300Y10108D01*
X135374Y10154D01*
X135440Y10210D01*
X135496Y10276D01*
X135542Y10350D01*
X135575Y10430D01*
X135595Y10514D01*
X135600Y10600D01*
Y16400D01*
X135595Y16486D01*
X135575Y16570D01*
X135542Y16650D01*
X135496Y16724D01*
X135440Y16790D01*
X135374Y16846D01*
X135300Y16892D01*
X135220Y16925D01*
X135136Y16945D01*
X135050Y16952D01*
Y20500D01*
G37*
G36*
X130500D02*X135050D01*
Y16952D01*
X134964Y16945D01*
X134880Y16925D01*
X134800Y16892D01*
X134726Y16846D01*
X134660Y16790D01*
X134604Y16724D01*
X134558Y16650D01*
X134525Y16570D01*
X134505Y16486D01*
X134500Y16400D01*
Y10600D01*
X134505Y10514D01*
X134525Y10430D01*
X134558Y10350D01*
X134604Y10276D01*
X134660Y10210D01*
X134726Y10154D01*
X134800Y10108D01*
X134880Y10075D01*
X134964Y10055D01*
X135050Y10048D01*
Y1500D01*
X130500D01*
Y8400D01*
X133400D01*
X133486Y8405D01*
X133570Y8425D01*
X133650Y8458D01*
X133724Y8504D01*
X133790Y8560D01*
X133846Y8626D01*
X133892Y8700D01*
X133925Y8780D01*
X133945Y8864D01*
X133952Y8950D01*
X133945Y9036D01*
X133925Y9120D01*
X133892Y9200D01*
X133846Y9274D01*
X133790Y9340D01*
X133724Y9396D01*
X133650Y9442D01*
X133570Y9475D01*
X133486Y9495D01*
X133400Y9500D01*
X130500D01*
Y17500D01*
X133400D01*
X133486Y17505D01*
X133570Y17525D01*
X133650Y17558D01*
X133724Y17604D01*
X133790Y17660D01*
X133846Y17726D01*
X133892Y17800D01*
X133925Y17880D01*
X133945Y17964D01*
X133952Y18050D01*
X133945Y18136D01*
X133925Y18220D01*
X133892Y18300D01*
X133846Y18374D01*
X133790Y18440D01*
X133724Y18496D01*
X133650Y18542D01*
X133570Y18575D01*
X133486Y18595D01*
X133400Y18600D01*
X130500D01*
Y20500D01*
G37*
G36*
X125950D02*X130500D01*
Y18600D01*
X127600D01*
X127514Y18595D01*
X127430Y18575D01*
X127350Y18542D01*
X127276Y18496D01*
X127210Y18440D01*
X127154Y18374D01*
X127108Y18300D01*
X127075Y18220D01*
X127055Y18136D01*
X127048Y18050D01*
X127055Y17964D01*
X127075Y17880D01*
X127108Y17800D01*
X127154Y17726D01*
X127210Y17660D01*
X127276Y17604D01*
X127350Y17558D01*
X127430Y17525D01*
X127514Y17505D01*
X127600Y17500D01*
X130500D01*
Y9500D01*
X127600D01*
X127514Y9495D01*
X127430Y9475D01*
X127350Y9442D01*
X127276Y9396D01*
X127210Y9340D01*
X127154Y9274D01*
X127108Y9200D01*
X127075Y9120D01*
X127055Y9036D01*
X127048Y8950D01*
X127055Y8864D01*
X127075Y8780D01*
X127108Y8700D01*
X127154Y8626D01*
X127210Y8560D01*
X127276Y8504D01*
X127350Y8458D01*
X127430Y8425D01*
X127514Y8405D01*
X127600Y8400D01*
X130500D01*
Y1500D01*
X125950D01*
Y10048D01*
X126036Y10055D01*
X126120Y10075D01*
X126200Y10108D01*
X126274Y10154D01*
X126340Y10210D01*
X126396Y10276D01*
X126442Y10350D01*
X126475Y10430D01*
X126495Y10514D01*
X126500Y10600D01*
Y16400D01*
X126495Y16486D01*
X126475Y16570D01*
X126442Y16650D01*
X126396Y16724D01*
X126340Y16790D01*
X126274Y16846D01*
X126200Y16892D01*
X126120Y16925D01*
X126036Y16945D01*
X125950Y16952D01*
Y20500D01*
G37*
G36*
X114722D02*X125950D01*
Y16952D01*
X125864Y16945D01*
X125780Y16925D01*
X125700Y16892D01*
X125626Y16846D01*
X125560Y16790D01*
X125504Y16724D01*
X125458Y16650D01*
X125425Y16570D01*
X125405Y16486D01*
X125400Y16400D01*
Y10600D01*
X125405Y10514D01*
X125425Y10430D01*
X125458Y10350D01*
X125504Y10276D01*
X125560Y10210D01*
X125626Y10154D01*
X125700Y10108D01*
X125780Y10075D01*
X125864Y10055D01*
X125950Y10048D01*
Y1500D01*
X114722D01*
Y10705D01*
X114755Y10729D01*
X114816Y10791D01*
X114865Y10862D01*
X115090Y11265D01*
X115274Y11690D01*
X115418Y12129D01*
X115522Y12580D01*
X115584Y13038D01*
X115605Y13500D01*
X115584Y13962D01*
X115522Y14420D01*
X115418Y14871D01*
X115274Y15310D01*
X115090Y15735D01*
X114869Y16141D01*
X114819Y16212D01*
X114758Y16274D01*
X114722Y16300D01*
Y20500D01*
G37*
G36*
X110502D02*X114722D01*
Y16300D01*
X114687Y16326D01*
X114610Y16366D01*
X114527Y16393D01*
X114441Y16407D01*
X114354Y16408D01*
X114268Y16395D01*
X114184Y16368D01*
X114107Y16329D01*
X114036Y16278D01*
X113974Y16217D01*
X113922Y16147D01*
X113882Y16069D01*
X113854Y15987D01*
X113840Y15901D01*
X113840Y15813D01*
X113853Y15727D01*
X113879Y15644D01*
X113920Y15567D01*
X114096Y15251D01*
X114240Y14918D01*
X114353Y14574D01*
X114434Y14221D01*
X114484Y13862D01*
X114500Y13500D01*
X114484Y13138D01*
X114434Y12779D01*
X114353Y12426D01*
X114240Y12082D01*
X114096Y11749D01*
X113923Y11431D01*
X113883Y11354D01*
X113857Y11272D01*
X113844Y11186D01*
X113844Y11100D01*
X113858Y11014D01*
X113886Y10932D01*
X113925Y10855D01*
X113977Y10786D01*
X114038Y10725D01*
X114109Y10674D01*
X114186Y10636D01*
X114269Y10609D01*
X114354Y10596D01*
X114441Y10597D01*
X114526Y10611D01*
X114608Y10638D01*
X114685Y10678D01*
X114722Y10705D01*
Y1500D01*
X110502D01*
Y8395D01*
X110962Y8416D01*
X111420Y8478D01*
X111871Y8582D01*
X112310Y8726D01*
X112735Y8910D01*
X113141Y9131D01*
X113212Y9181D01*
X113274Y9242D01*
X113326Y9313D01*
X113366Y9390D01*
X113393Y9473D01*
X113407Y9559D01*
X113408Y9646D01*
X113395Y9732D01*
X113368Y9816D01*
X113329Y9893D01*
X113278Y9964D01*
X113217Y10026D01*
X113147Y10078D01*
X113069Y10118D01*
X112987Y10146D01*
X112901Y10160D01*
X112813Y10160D01*
X112727Y10147D01*
X112644Y10121D01*
X112567Y10080D01*
X112251Y9904D01*
X111918Y9760D01*
X111574Y9647D01*
X111221Y9566D01*
X110862Y9516D01*
X110502Y9500D01*
Y17500D01*
X110862Y17484D01*
X111221Y17435D01*
X111574Y17353D01*
X111918Y17240D01*
X112251Y17096D01*
X112569Y16923D01*
X112646Y16883D01*
X112728Y16857D01*
X112814Y16844D01*
X112900Y16844D01*
X112986Y16858D01*
X113068Y16886D01*
X113145Y16925D01*
X113214Y16977D01*
X113275Y17038D01*
X113326Y17109D01*
X113364Y17186D01*
X113391Y17269D01*
X113404Y17354D01*
X113403Y17441D01*
X113389Y17526D01*
X113362Y17608D01*
X113322Y17685D01*
X113271Y17755D01*
X113209Y17816D01*
X113138Y17865D01*
X112735Y18090D01*
X112310Y18274D01*
X111871Y18418D01*
X111420Y18522D01*
X110962Y18584D01*
X110502Y18605D01*
Y20500D01*
G37*
G36*
X106278D02*X110502D01*
Y18605D01*
X110500Y18605D01*
X110038Y18584D01*
X109580Y18522D01*
X109129Y18418D01*
X108690Y18274D01*
X108265Y18090D01*
X107859Y17869D01*
X107788Y17819D01*
X107726Y17758D01*
X107674Y17687D01*
X107634Y17610D01*
X107607Y17527D01*
X107593Y17441D01*
X107592Y17354D01*
X107605Y17268D01*
X107632Y17184D01*
X107671Y17107D01*
X107722Y17036D01*
X107783Y16974D01*
X107853Y16922D01*
X107931Y16882D01*
X108013Y16854D01*
X108099Y16840D01*
X108187Y16840D01*
X108273Y16853D01*
X108356Y16879D01*
X108433Y16920D01*
X108749Y17096D01*
X109082Y17240D01*
X109426Y17353D01*
X109779Y17435D01*
X110138Y17484D01*
X110500Y17500D01*
X110502Y17500D01*
Y9500D01*
X110500Y9500D01*
X110138Y9516D01*
X109779Y9566D01*
X109426Y9647D01*
X109082Y9760D01*
X108749Y9904D01*
X108431Y10077D01*
X108354Y10117D01*
X108272Y10143D01*
X108186Y10156D01*
X108100Y10156D01*
X108014Y10142D01*
X107932Y10114D01*
X107855Y10075D01*
X107786Y10023D01*
X107725Y9962D01*
X107674Y9891D01*
X107636Y9814D01*
X107609Y9731D01*
X107596Y9646D01*
X107597Y9559D01*
X107611Y9474D01*
X107638Y9392D01*
X107678Y9315D01*
X107729Y9245D01*
X107791Y9184D01*
X107862Y9135D01*
X108265Y8910D01*
X108690Y8726D01*
X109129Y8582D01*
X109580Y8478D01*
X110038Y8416D01*
X110500Y8395D01*
X110502Y8395D01*
Y1500D01*
X106278D01*
Y10700D01*
X106313Y10674D01*
X106390Y10634D01*
X106473Y10607D01*
X106559Y10593D01*
X106646Y10592D01*
X106732Y10605D01*
X106816Y10632D01*
X106893Y10671D01*
X106964Y10722D01*
X107026Y10783D01*
X107078Y10853D01*
X107118Y10931D01*
X107146Y11013D01*
X107160Y11099D01*
X107160Y11187D01*
X107147Y11273D01*
X107121Y11356D01*
X107080Y11433D01*
X106904Y11749D01*
X106760Y12082D01*
X106647Y12426D01*
X106565Y12779D01*
X106516Y13138D01*
X106500Y13500D01*
X106516Y13862D01*
X106565Y14221D01*
X106647Y14574D01*
X106760Y14918D01*
X106904Y15251D01*
X107077Y15569D01*
X107117Y15646D01*
X107143Y15728D01*
X107156Y15814D01*
X107156Y15900D01*
X107142Y15986D01*
X107114Y16068D01*
X107075Y16145D01*
X107023Y16214D01*
X106962Y16275D01*
X106891Y16326D01*
X106814Y16364D01*
X106731Y16391D01*
X106646Y16404D01*
X106559Y16403D01*
X106474Y16389D01*
X106392Y16362D01*
X106315Y16322D01*
X106278Y16295D01*
Y20500D01*
G37*
G36*
X105000D02*X106278D01*
Y16295D01*
X106245Y16271D01*
X106184Y16209D01*
X106135Y16138D01*
X105910Y15735D01*
X105726Y15310D01*
X105582Y14871D01*
X105478Y14420D01*
X105416Y13962D01*
X105395Y13500D01*
X105416Y13038D01*
X105478Y12580D01*
X105582Y12129D01*
X105726Y11690D01*
X105910Y11265D01*
X106131Y10859D01*
X106181Y10788D01*
X106242Y10726D01*
X106278Y10700D01*
Y1500D01*
X105000D01*
Y20500D01*
G37*
G36*
X259550D02*X261000D01*
Y6500D01*
X259550D01*
Y10048D01*
X259636Y10055D01*
X259720Y10075D01*
X259800Y10108D01*
X259874Y10154D01*
X259940Y10210D01*
X259996Y10276D01*
X260042Y10350D01*
X260075Y10430D01*
X260095Y10514D01*
X260100Y10600D01*
Y16400D01*
X260095Y16486D01*
X260075Y16570D01*
X260042Y16650D01*
X259996Y16724D01*
X259940Y16790D01*
X259874Y16846D01*
X259800Y16892D01*
X259720Y16925D01*
X259636Y16945D01*
X259550Y16952D01*
Y20500D01*
G37*
G36*
X255000D02*X259550D01*
Y16952D01*
X259464Y16945D01*
X259380Y16925D01*
X259300Y16892D01*
X259226Y16846D01*
X259160Y16790D01*
X259104Y16724D01*
X259058Y16650D01*
X259025Y16570D01*
X259005Y16486D01*
X259000Y16400D01*
Y10600D01*
X259005Y10514D01*
X259025Y10430D01*
X259058Y10350D01*
X259104Y10276D01*
X259160Y10210D01*
X259226Y10154D01*
X259300Y10108D01*
X259380Y10075D01*
X259464Y10055D01*
X259550Y10048D01*
Y6500D01*
X255000D01*
Y8400D01*
X257900D01*
X257986Y8405D01*
X258070Y8425D01*
X258150Y8458D01*
X258224Y8504D01*
X258290Y8560D01*
X258346Y8626D01*
X258392Y8700D01*
X258425Y8780D01*
X258445Y8864D01*
X258452Y8950D01*
X258445Y9036D01*
X258425Y9120D01*
X258392Y9200D01*
X258346Y9274D01*
X258290Y9340D01*
X258224Y9396D01*
X258150Y9442D01*
X258070Y9475D01*
X257986Y9495D01*
X257900Y9500D01*
X255000D01*
Y17500D01*
X257900D01*
X257986Y17505D01*
X258070Y17525D01*
X258150Y17558D01*
X258224Y17604D01*
X258290Y17660D01*
X258346Y17726D01*
X258392Y17800D01*
X258425Y17880D01*
X258445Y17964D01*
X258452Y18050D01*
X258445Y18136D01*
X258425Y18220D01*
X258392Y18300D01*
X258346Y18374D01*
X258290Y18440D01*
X258224Y18496D01*
X258150Y18542D01*
X258070Y18575D01*
X257986Y18595D01*
X257900Y18600D01*
X255000D01*
Y20500D01*
G37*
G36*
X250450D02*X255000D01*
Y18600D01*
X252100D01*
X252014Y18595D01*
X251930Y18575D01*
X251850Y18542D01*
X251776Y18496D01*
X251710Y18440D01*
X251654Y18374D01*
X251608Y18300D01*
X251575Y18220D01*
X251555Y18136D01*
X251548Y18050D01*
X251555Y17964D01*
X251575Y17880D01*
X251608Y17800D01*
X251654Y17726D01*
X251710Y17660D01*
X251776Y17604D01*
X251850Y17558D01*
X251930Y17525D01*
X252014Y17505D01*
X252100Y17500D01*
X255000D01*
Y9500D01*
X252100D01*
X252014Y9495D01*
X251930Y9475D01*
X251850Y9442D01*
X251776Y9396D01*
X251710Y9340D01*
X251654Y9274D01*
X251608Y9200D01*
X251575Y9120D01*
X251555Y9036D01*
X251548Y8950D01*
X251555Y8864D01*
X251575Y8780D01*
X251608Y8700D01*
X251654Y8626D01*
X251710Y8560D01*
X251776Y8504D01*
X251850Y8458D01*
X251930Y8425D01*
X252014Y8405D01*
X252100Y8400D01*
X255000D01*
Y6500D01*
X250450D01*
Y10048D01*
X250536Y10055D01*
X250620Y10075D01*
X250700Y10108D01*
X250774Y10154D01*
X250840Y10210D01*
X250896Y10276D01*
X250942Y10350D01*
X250975Y10430D01*
X250995Y10514D01*
X251000Y10600D01*
Y16400D01*
X250995Y16486D01*
X250975Y16570D01*
X250942Y16650D01*
X250896Y16724D01*
X250840Y16790D01*
X250774Y16846D01*
X250700Y16892D01*
X250620Y16925D01*
X250536Y16945D01*
X250450Y16952D01*
Y20500D01*
G37*
G36*
X239080D02*X250450D01*
Y16952D01*
X250364Y16945D01*
X250280Y16925D01*
X250200Y16892D01*
X250126Y16846D01*
X250060Y16790D01*
X250004Y16724D01*
X249958Y16650D01*
X249925Y16570D01*
X249905Y16486D01*
X249900Y16400D01*
Y10600D01*
X249905Y10514D01*
X249925Y10430D01*
X249958Y10350D01*
X250004Y10276D01*
X250060Y10210D01*
X250126Y10154D01*
X250200Y10108D01*
X250280Y10075D01*
X250364Y10055D01*
X250450Y10048D01*
Y6500D01*
X239080D01*
Y10788D01*
X239090Y10802D01*
X239320Y11177D01*
X239511Y11573D01*
X239665Y11985D01*
X239782Y12409D01*
X239861Y12842D01*
X239900Y13280D01*
Y13720D01*
X239861Y14158D01*
X239782Y14591D01*
X239665Y15015D01*
X239511Y15427D01*
X239320Y15823D01*
X239094Y16201D01*
X239080Y16220D01*
Y20500D01*
G37*
G36*
X235002D02*X239080D01*
Y16220D01*
X239051Y16258D01*
X238999Y16306D01*
X238939Y16346D01*
X238875Y16377D01*
X238806Y16397D01*
X238735Y16405D01*
X238664Y16403D01*
X238594Y16389D01*
X238526Y16365D01*
X238464Y16331D01*
X238407Y16287D01*
X238359Y16234D01*
X238319Y16175D01*
X238288Y16111D01*
X238268Y16042D01*
X238260Y15971D01*
X238262Y15900D01*
X238276Y15829D01*
X238300Y15762D01*
X238336Y15700D01*
X238523Y15395D01*
X238678Y15071D01*
X238804Y14735D01*
X238900Y14390D01*
X238964Y14037D01*
X238996Y13679D01*
Y13321D01*
X238964Y12963D01*
X238900Y12610D01*
X238804Y12265D01*
X238678Y11929D01*
X238523Y11605D01*
X238339Y11297D01*
X238304Y11236D01*
X238279Y11170D01*
X238266Y11100D01*
X238264Y11029D01*
X238272Y10959D01*
X238292Y10891D01*
X238322Y10827D01*
X238362Y10768D01*
X238410Y10716D01*
X238466Y10673D01*
X238528Y10639D01*
X238595Y10614D01*
X238664Y10601D01*
X238735Y10599D01*
X238805Y10607D01*
X238873Y10627D01*
X238937Y10657D01*
X238996Y10697D01*
X239048Y10745D01*
X239080Y10788D01*
Y6500D01*
X235002D01*
Y8600D01*
X235220D01*
X235658Y8639D01*
X236091Y8718D01*
X236515Y8835D01*
X236927Y8989D01*
X237323Y9180D01*
X237701Y9406D01*
X237758Y9449D01*
X237806Y9501D01*
X237846Y9561D01*
X237877Y9625D01*
X237897Y9694D01*
X237905Y9765D01*
X237903Y9836D01*
X237889Y9906D01*
X237865Y9974D01*
X237831Y10036D01*
X237787Y10093D01*
X237734Y10141D01*
X237675Y10181D01*
X237611Y10212D01*
X237542Y10232D01*
X237471Y10240D01*
X237400Y10238D01*
X237329Y10224D01*
X237262Y10200D01*
X237200Y10164D01*
X236895Y9977D01*
X236571Y9822D01*
X236235Y9696D01*
X235890Y9600D01*
X235537Y9536D01*
X235179Y9504D01*
X235002D01*
Y17496D01*
X235179D01*
X235537Y17464D01*
X235890Y17400D01*
X236235Y17304D01*
X236571Y17178D01*
X236895Y17023D01*
X237203Y16839D01*
X237264Y16804D01*
X237330Y16779D01*
X237400Y16766D01*
X237471Y16764D01*
X237541Y16772D01*
X237609Y16792D01*
X237673Y16822D01*
X237732Y16862D01*
X237784Y16910D01*
X237827Y16966D01*
X237861Y17028D01*
X237886Y17095D01*
X237899Y17164D01*
X237901Y17235D01*
X237893Y17305D01*
X237873Y17373D01*
X237843Y17437D01*
X237803Y17496D01*
X237755Y17548D01*
X237698Y17590D01*
X237323Y17820D01*
X236927Y18011D01*
X236515Y18165D01*
X236091Y18282D01*
X235658Y18361D01*
X235220Y18400D01*
X235002D01*
Y20500D01*
G37*
G36*
X230920D02*X235002D01*
Y18400D01*
X234780D01*
X234342Y18361D01*
X233909Y18282D01*
X233485Y18165D01*
X233073Y18011D01*
X232677Y17820D01*
X232299Y17594D01*
X232242Y17551D01*
X232194Y17499D01*
X232154Y17439D01*
X232123Y17375D01*
X232103Y17306D01*
X232095Y17235D01*
X232097Y17164D01*
X232111Y17094D01*
X232135Y17026D01*
X232169Y16964D01*
X232213Y16907D01*
X232266Y16859D01*
X232325Y16819D01*
X232389Y16788D01*
X232458Y16768D01*
X232529Y16760D01*
X232600Y16762D01*
X232671Y16776D01*
X232738Y16800D01*
X232800Y16836D01*
X233105Y17023D01*
X233429Y17178D01*
X233765Y17304D01*
X234110Y17400D01*
X234463Y17464D01*
X234821Y17496D01*
X235002D01*
Y9504D01*
X234821D01*
X234463Y9536D01*
X234110Y9600D01*
X233765Y9696D01*
X233429Y9822D01*
X233105Y9977D01*
X232797Y10161D01*
X232736Y10196D01*
X232670Y10221D01*
X232600Y10234D01*
X232529Y10236D01*
X232459Y10228D01*
X232391Y10208D01*
X232327Y10178D01*
X232268Y10138D01*
X232216Y10090D01*
X232173Y10034D01*
X232139Y9972D01*
X232114Y9905D01*
X232101Y9836D01*
X232099Y9765D01*
X232107Y9695D01*
X232127Y9627D01*
X232157Y9563D01*
X232197Y9504D01*
X232245Y9452D01*
X232302Y9410D01*
X232677Y9180D01*
X233073Y8989D01*
X233485Y8835D01*
X233909Y8718D01*
X234342Y8639D01*
X234780Y8600D01*
X235002D01*
Y6500D01*
X230920D01*
Y10780D01*
X230949Y10742D01*
X231001Y10694D01*
X231061Y10654D01*
X231125Y10623D01*
X231194Y10603D01*
X231265Y10595D01*
X231336Y10597D01*
X231406Y10611D01*
X231474Y10635D01*
X231536Y10669D01*
X231593Y10713D01*
X231641Y10766D01*
X231681Y10825D01*
X231712Y10889D01*
X231732Y10958D01*
X231740Y11029D01*
X231738Y11100D01*
X231724Y11171D01*
X231700Y11238D01*
X231664Y11300D01*
X231477Y11605D01*
X231322Y11929D01*
X231196Y12265D01*
X231100Y12610D01*
X231036Y12963D01*
X231004Y13321D01*
Y13679D01*
X231036Y14037D01*
X231100Y14390D01*
X231196Y14735D01*
X231322Y15071D01*
X231477Y15395D01*
X231661Y15703D01*
X231696Y15764D01*
X231721Y15830D01*
X231734Y15900D01*
X231736Y15971D01*
X231728Y16041D01*
X231708Y16109D01*
X231678Y16173D01*
X231638Y16232D01*
X231590Y16284D01*
X231534Y16327D01*
X231472Y16361D01*
X231405Y16386D01*
X231336Y16399D01*
X231265Y16401D01*
X231195Y16393D01*
X231127Y16373D01*
X231063Y16343D01*
X231004Y16303D01*
X230952Y16255D01*
X230920Y16212D01*
Y20500D01*
G37*
G36*
X229500D02*X230920D01*
Y16212D01*
X230910Y16198D01*
X230680Y15823D01*
X230489Y15427D01*
X230335Y15015D01*
X230218Y14591D01*
X230139Y14158D01*
X230100Y13720D01*
Y13280D01*
X230139Y12842D01*
X230218Y12409D01*
X230335Y11985D01*
X230489Y11573D01*
X230680Y11177D01*
X230906Y10799D01*
X230920Y10780D01*
Y6500D01*
X229500D01*
Y20500D01*
G37*
G36*
X250450Y46000D02*X256500D01*
Y18600D01*
X252100D01*
X252014Y18595D01*
X251930Y18575D01*
X251850Y18542D01*
X251776Y18496D01*
X251710Y18440D01*
X251654Y18374D01*
X251608Y18300D01*
X251575Y18220D01*
X251555Y18136D01*
X251548Y18050D01*
X251555Y17964D01*
X251575Y17880D01*
X251608Y17800D01*
X251654Y17726D01*
X251710Y17660D01*
X251776Y17604D01*
X251850Y17558D01*
X251930Y17525D01*
X252014Y17505D01*
X252100Y17500D01*
X256500D01*
Y9500D01*
X252100D01*
X252014Y9495D01*
X251930Y9475D01*
X251850Y9442D01*
X251776Y9396D01*
X251710Y9340D01*
X251654Y9274D01*
X251608Y9200D01*
X251575Y9120D01*
X251555Y9036D01*
X251548Y8950D01*
X251555Y8864D01*
X251575Y8780D01*
X251608Y8700D01*
X251654Y8626D01*
X251710Y8560D01*
X251776Y8504D01*
X251850Y8458D01*
X251930Y8425D01*
X252014Y8405D01*
X252100Y8400D01*
X256500D01*
Y8000D01*
X250450D01*
Y10048D01*
X250536Y10055D01*
X250620Y10075D01*
X250700Y10108D01*
X250774Y10154D01*
X250840Y10210D01*
X250896Y10276D01*
X250942Y10350D01*
X250975Y10430D01*
X250995Y10514D01*
X251000Y10600D01*
Y16400D01*
X250995Y16486D01*
X250975Y16570D01*
X250942Y16650D01*
X250896Y16724D01*
X250840Y16790D01*
X250774Y16846D01*
X250700Y16892D01*
X250620Y16925D01*
X250536Y16945D01*
X250450Y16952D01*
Y46000D01*
G37*
G36*
X239080D02*X250450D01*
Y16952D01*
X250364Y16945D01*
X250280Y16925D01*
X250200Y16892D01*
X250126Y16846D01*
X250060Y16790D01*
X250004Y16724D01*
X249958Y16650D01*
X249925Y16570D01*
X249905Y16486D01*
X249900Y16400D01*
Y10600D01*
X249905Y10514D01*
X249925Y10430D01*
X249958Y10350D01*
X250004Y10276D01*
X250060Y10210D01*
X250126Y10154D01*
X250200Y10108D01*
X250280Y10075D01*
X250364Y10055D01*
X250450Y10048D01*
Y8000D01*
X239080D01*
Y10788D01*
X239090Y10802D01*
X239320Y11177D01*
X239511Y11573D01*
X239665Y11985D01*
X239782Y12409D01*
X239861Y12842D01*
X239900Y13280D01*
Y13720D01*
X239861Y14158D01*
X239782Y14591D01*
X239665Y15015D01*
X239511Y15427D01*
X239320Y15823D01*
X239094Y16201D01*
X239080Y16220D01*
Y46000D01*
G37*
G36*
X233500D02*X239080D01*
Y16220D01*
X239051Y16258D01*
X238999Y16306D01*
X238939Y16346D01*
X238875Y16377D01*
X238806Y16397D01*
X238735Y16405D01*
X238664Y16403D01*
X238594Y16389D01*
X238526Y16365D01*
X238464Y16331D01*
X238407Y16287D01*
X238359Y16234D01*
X238319Y16175D01*
X238288Y16111D01*
X238268Y16042D01*
X238260Y15971D01*
X238262Y15900D01*
X238276Y15829D01*
X238300Y15762D01*
X238336Y15700D01*
X238523Y15395D01*
X238678Y15071D01*
X238804Y14735D01*
X238900Y14390D01*
X238964Y14037D01*
X238996Y13679D01*
Y13321D01*
X238964Y12963D01*
X238900Y12610D01*
X238804Y12265D01*
X238678Y11929D01*
X238523Y11605D01*
X238339Y11297D01*
X238304Y11236D01*
X238279Y11170D01*
X238266Y11100D01*
X238264Y11029D01*
X238272Y10959D01*
X238292Y10891D01*
X238322Y10827D01*
X238362Y10768D01*
X238410Y10716D01*
X238466Y10673D01*
X238528Y10639D01*
X238595Y10614D01*
X238664Y10601D01*
X238735Y10599D01*
X238805Y10607D01*
X238873Y10627D01*
X238937Y10657D01*
X238996Y10697D01*
X239048Y10745D01*
X239080Y10788D01*
Y8000D01*
X233500D01*
Y8831D01*
X233909Y8718D01*
X234342Y8639D01*
X234780Y8600D01*
X235220D01*
X235658Y8639D01*
X236091Y8718D01*
X236515Y8835D01*
X236927Y8989D01*
X237323Y9180D01*
X237701Y9406D01*
X237758Y9449D01*
X237806Y9501D01*
X237846Y9561D01*
X237877Y9625D01*
X237897Y9694D01*
X237905Y9765D01*
X237903Y9836D01*
X237889Y9906D01*
X237865Y9974D01*
X237831Y10036D01*
X237787Y10093D01*
X237734Y10141D01*
X237675Y10181D01*
X237611Y10212D01*
X237542Y10232D01*
X237471Y10240D01*
X237400Y10238D01*
X237329Y10224D01*
X237262Y10200D01*
X237200Y10164D01*
X236895Y9977D01*
X236571Y9822D01*
X236235Y9696D01*
X235890Y9600D01*
X235537Y9536D01*
X235179Y9504D01*
X234821D01*
X234463Y9536D01*
X234110Y9600D01*
X233765Y9696D01*
X233500Y9795D01*
Y17205D01*
X233765Y17304D01*
X234110Y17400D01*
X234463Y17464D01*
X234821Y17496D01*
X235179D01*
X235537Y17464D01*
X235890Y17400D01*
X236235Y17304D01*
X236571Y17178D01*
X236895Y17023D01*
X237203Y16839D01*
X237264Y16804D01*
X237330Y16779D01*
X237400Y16766D01*
X237471Y16764D01*
X237541Y16772D01*
X237609Y16792D01*
X237673Y16822D01*
X237732Y16862D01*
X237784Y16910D01*
X237827Y16966D01*
X237861Y17028D01*
X237886Y17095D01*
X237899Y17164D01*
X237901Y17235D01*
X237893Y17305D01*
X237873Y17373D01*
X237843Y17437D01*
X237803Y17496D01*
X237755Y17548D01*
X237698Y17590D01*
X237323Y17820D01*
X236927Y18011D01*
X236515Y18165D01*
X236091Y18282D01*
X235658Y18361D01*
X235220Y18400D01*
X234780D01*
X234342Y18361D01*
X233909Y18282D01*
X233500Y18169D01*
Y46000D01*
G37*
G36*
X246000Y64500D02*X284500D01*
Y47500D01*
X246000D01*
Y64500D01*
G37*
G36*
X258000Y51500D02*X284500D01*
Y22000D01*
X258000D01*
Y51500D01*
G37*
G36*
X279222Y23500D02*X284500D01*
Y1500D01*
X279222D01*
Y10705D01*
X279255Y10729D01*
X279316Y10791D01*
X279365Y10862D01*
X279590Y11265D01*
X279774Y11690D01*
X279918Y12129D01*
X280022Y12580D01*
X280084Y13038D01*
X280105Y13500D01*
X280084Y13962D01*
X280022Y14420D01*
X279918Y14871D01*
X279774Y15310D01*
X279590Y15735D01*
X279369Y16141D01*
X279319Y16212D01*
X279258Y16274D01*
X279222Y16300D01*
Y23500D01*
G37*
G36*
X275002D02*X279222D01*
Y16300D01*
X279187Y16326D01*
X279110Y16366D01*
X279027Y16393D01*
X278941Y16407D01*
X278854Y16408D01*
X278768Y16395D01*
X278684Y16368D01*
X278607Y16329D01*
X278536Y16278D01*
X278474Y16217D01*
X278422Y16147D01*
X278382Y16069D01*
X278354Y15987D01*
X278340Y15901D01*
X278340Y15813D01*
X278353Y15727D01*
X278379Y15644D01*
X278420Y15567D01*
X278596Y15251D01*
X278740Y14918D01*
X278853Y14574D01*
X278934Y14221D01*
X278984Y13862D01*
X279000Y13500D01*
X278984Y13138D01*
X278934Y12779D01*
X278853Y12426D01*
X278740Y12082D01*
X278596Y11749D01*
X278423Y11431D01*
X278383Y11354D01*
X278357Y11272D01*
X278344Y11186D01*
X278344Y11100D01*
X278358Y11014D01*
X278386Y10932D01*
X278425Y10855D01*
X278477Y10786D01*
X278538Y10725D01*
X278609Y10674D01*
X278686Y10636D01*
X278769Y10609D01*
X278854Y10596D01*
X278941Y10597D01*
X279026Y10611D01*
X279108Y10638D01*
X279185Y10678D01*
X279222Y10705D01*
Y1500D01*
X275002D01*
Y8395D01*
X275462Y8416D01*
X275920Y8478D01*
X276371Y8582D01*
X276810Y8726D01*
X277235Y8910D01*
X277641Y9131D01*
X277712Y9181D01*
X277774Y9242D01*
X277826Y9313D01*
X277866Y9390D01*
X277893Y9473D01*
X277907Y9559D01*
X277908Y9646D01*
X277895Y9732D01*
X277868Y9816D01*
X277829Y9893D01*
X277778Y9964D01*
X277717Y10026D01*
X277647Y10078D01*
X277569Y10118D01*
X277487Y10146D01*
X277401Y10160D01*
X277313Y10160D01*
X277227Y10147D01*
X277144Y10121D01*
X277067Y10080D01*
X276751Y9904D01*
X276418Y9760D01*
X276074Y9647D01*
X275721Y9566D01*
X275362Y9516D01*
X275002Y9500D01*
Y17500D01*
X275362Y17484D01*
X275721Y17435D01*
X276074Y17353D01*
X276418Y17240D01*
X276751Y17096D01*
X277069Y16923D01*
X277146Y16883D01*
X277228Y16857D01*
X277314Y16844D01*
X277400Y16844D01*
X277486Y16858D01*
X277568Y16886D01*
X277645Y16925D01*
X277714Y16977D01*
X277775Y17038D01*
X277826Y17109D01*
X277864Y17186D01*
X277891Y17269D01*
X277904Y17354D01*
X277903Y17441D01*
X277889Y17526D01*
X277862Y17608D01*
X277822Y17685D01*
X277771Y17755D01*
X277709Y17816D01*
X277638Y17865D01*
X277235Y18090D01*
X276810Y18274D01*
X276371Y18418D01*
X275920Y18522D01*
X275462Y18584D01*
X275002Y18605D01*
Y23500D01*
G37*
G36*
X270778D02*X275002D01*
Y18605D01*
X275000Y18605D01*
X274538Y18584D01*
X274080Y18522D01*
X273629Y18418D01*
X273190Y18274D01*
X272765Y18090D01*
X272359Y17869D01*
X272288Y17819D01*
X272226Y17758D01*
X272174Y17687D01*
X272134Y17610D01*
X272107Y17527D01*
X272093Y17441D01*
X272092Y17354D01*
X272105Y17268D01*
X272132Y17184D01*
X272171Y17107D01*
X272222Y17036D01*
X272283Y16974D01*
X272353Y16922D01*
X272431Y16882D01*
X272513Y16854D01*
X272599Y16840D01*
X272687Y16840D01*
X272773Y16853D01*
X272856Y16879D01*
X272933Y16920D01*
X273249Y17096D01*
X273582Y17240D01*
X273926Y17353D01*
X274279Y17435D01*
X274638Y17484D01*
X275000Y17500D01*
X275002Y17500D01*
Y9500D01*
X275000Y9500D01*
X274638Y9516D01*
X274279Y9566D01*
X273926Y9647D01*
X273582Y9760D01*
X273249Y9904D01*
X272931Y10077D01*
X272854Y10117D01*
X272772Y10143D01*
X272686Y10156D01*
X272600Y10156D01*
X272514Y10142D01*
X272432Y10114D01*
X272355Y10075D01*
X272286Y10023D01*
X272225Y9962D01*
X272174Y9891D01*
X272136Y9814D01*
X272109Y9731D01*
X272096Y9646D01*
X272097Y9559D01*
X272111Y9474D01*
X272138Y9392D01*
X272178Y9315D01*
X272229Y9245D01*
X272291Y9184D01*
X272362Y9135D01*
X272765Y8910D01*
X273190Y8726D01*
X273629Y8582D01*
X274080Y8478D01*
X274538Y8416D01*
X275000Y8395D01*
X275002Y8395D01*
Y1500D01*
X270778D01*
Y10700D01*
X270813Y10674D01*
X270890Y10634D01*
X270973Y10607D01*
X271059Y10593D01*
X271146Y10592D01*
X271232Y10605D01*
X271316Y10632D01*
X271393Y10671D01*
X271464Y10722D01*
X271526Y10783D01*
X271578Y10853D01*
X271618Y10931D01*
X271646Y11013D01*
X271660Y11099D01*
X271660Y11187D01*
X271647Y11273D01*
X271621Y11356D01*
X271580Y11433D01*
X271404Y11749D01*
X271260Y12082D01*
X271147Y12426D01*
X271065Y12779D01*
X271016Y13138D01*
X271000Y13500D01*
X271016Y13862D01*
X271065Y14221D01*
X271147Y14574D01*
X271260Y14918D01*
X271404Y15251D01*
X271577Y15569D01*
X271617Y15646D01*
X271643Y15728D01*
X271656Y15814D01*
X271656Y15900D01*
X271642Y15986D01*
X271614Y16068D01*
X271575Y16145D01*
X271523Y16214D01*
X271462Y16275D01*
X271391Y16326D01*
X271314Y16364D01*
X271231Y16391D01*
X271146Y16404D01*
X271059Y16403D01*
X270974Y16389D01*
X270892Y16362D01*
X270815Y16322D01*
X270778Y16295D01*
Y23500D01*
G37*
G36*
X262500D02*X270778D01*
Y16295D01*
X270745Y16271D01*
X270684Y16209D01*
X270635Y16138D01*
X270410Y15735D01*
X270226Y15310D01*
X270082Y14871D01*
X269978Y14420D01*
X269916Y13962D01*
X269895Y13500D01*
X269916Y13038D01*
X269978Y12580D01*
X270082Y12129D01*
X270226Y11690D01*
X270410Y11265D01*
X270631Y10859D01*
X270681Y10788D01*
X270742Y10726D01*
X270778Y10700D01*
Y1500D01*
X262500D01*
Y23500D01*
G37*
G36*
X259550Y20500D02*X261000D01*
Y1500D01*
X259550D01*
Y10048D01*
X259636Y10055D01*
X259720Y10075D01*
X259800Y10108D01*
X259874Y10154D01*
X259940Y10210D01*
X259996Y10276D01*
X260042Y10350D01*
X260075Y10430D01*
X260095Y10514D01*
X260100Y10600D01*
Y16400D01*
X260095Y16486D01*
X260075Y16570D01*
X260042Y16650D01*
X259996Y16724D01*
X259940Y16790D01*
X259874Y16846D01*
X259800Y16892D01*
X259720Y16925D01*
X259636Y16945D01*
X259550Y16952D01*
Y20500D01*
G37*
G36*
X255000D02*X259550D01*
Y16952D01*
X259464Y16945D01*
X259380Y16925D01*
X259300Y16892D01*
X259226Y16846D01*
X259160Y16790D01*
X259104Y16724D01*
X259058Y16650D01*
X259025Y16570D01*
X259005Y16486D01*
X259000Y16400D01*
Y10600D01*
X259005Y10514D01*
X259025Y10430D01*
X259058Y10350D01*
X259104Y10276D01*
X259160Y10210D01*
X259226Y10154D01*
X259300Y10108D01*
X259380Y10075D01*
X259464Y10055D01*
X259550Y10048D01*
Y1500D01*
X255000D01*
Y8400D01*
X257900D01*
X257986Y8405D01*
X258070Y8425D01*
X258150Y8458D01*
X258224Y8504D01*
X258290Y8560D01*
X258346Y8626D01*
X258392Y8700D01*
X258425Y8780D01*
X258445Y8864D01*
X258452Y8950D01*
X258445Y9036D01*
X258425Y9120D01*
X258392Y9200D01*
X258346Y9274D01*
X258290Y9340D01*
X258224Y9396D01*
X258150Y9442D01*
X258070Y9475D01*
X257986Y9495D01*
X257900Y9500D01*
X255000D01*
Y17500D01*
X257900D01*
X257986Y17505D01*
X258070Y17525D01*
X258150Y17558D01*
X258224Y17604D01*
X258290Y17660D01*
X258346Y17726D01*
X258392Y17800D01*
X258425Y17880D01*
X258445Y17964D01*
X258452Y18050D01*
X258445Y18136D01*
X258425Y18220D01*
X258392Y18300D01*
X258346Y18374D01*
X258290Y18440D01*
X258224Y18496D01*
X258150Y18542D01*
X258070Y18575D01*
X257986Y18595D01*
X257900Y18600D01*
X255000D01*
Y20500D01*
G37*
G36*
X250450D02*X255000D01*
Y18600D01*
X252100D01*
X252014Y18595D01*
X251930Y18575D01*
X251850Y18542D01*
X251776Y18496D01*
X251710Y18440D01*
X251654Y18374D01*
X251608Y18300D01*
X251575Y18220D01*
X251555Y18136D01*
X251548Y18050D01*
X251555Y17964D01*
X251575Y17880D01*
X251608Y17800D01*
X251654Y17726D01*
X251710Y17660D01*
X251776Y17604D01*
X251850Y17558D01*
X251930Y17525D01*
X252014Y17505D01*
X252100Y17500D01*
X255000D01*
Y9500D01*
X252100D01*
X252014Y9495D01*
X251930Y9475D01*
X251850Y9442D01*
X251776Y9396D01*
X251710Y9340D01*
X251654Y9274D01*
X251608Y9200D01*
X251575Y9120D01*
X251555Y9036D01*
X251548Y8950D01*
X251555Y8864D01*
X251575Y8780D01*
X251608Y8700D01*
X251654Y8626D01*
X251710Y8560D01*
X251776Y8504D01*
X251850Y8458D01*
X251930Y8425D01*
X252014Y8405D01*
X252100Y8400D01*
X255000D01*
Y1500D01*
X250450D01*
Y10048D01*
X250536Y10055D01*
X250620Y10075D01*
X250700Y10108D01*
X250774Y10154D01*
X250840Y10210D01*
X250896Y10276D01*
X250942Y10350D01*
X250975Y10430D01*
X250995Y10514D01*
X251000Y10600D01*
Y16400D01*
X250995Y16486D01*
X250975Y16570D01*
X250942Y16650D01*
X250896Y16724D01*
X250840Y16790D01*
X250774Y16846D01*
X250700Y16892D01*
X250620Y16925D01*
X250536Y16945D01*
X250450Y16952D01*
Y20500D01*
G37*
G36*
X239080D02*X250450D01*
Y16952D01*
X250364Y16945D01*
X250280Y16925D01*
X250200Y16892D01*
X250126Y16846D01*
X250060Y16790D01*
X250004Y16724D01*
X249958Y16650D01*
X249925Y16570D01*
X249905Y16486D01*
X249900Y16400D01*
Y10600D01*
X249905Y10514D01*
X249925Y10430D01*
X249958Y10350D01*
X250004Y10276D01*
X250060Y10210D01*
X250126Y10154D01*
X250200Y10108D01*
X250280Y10075D01*
X250364Y10055D01*
X250450Y10048D01*
Y1500D01*
X239080D01*
Y10788D01*
X239090Y10802D01*
X239320Y11177D01*
X239511Y11573D01*
X239665Y11985D01*
X239782Y12409D01*
X239861Y12842D01*
X239900Y13280D01*
Y13720D01*
X239861Y14158D01*
X239782Y14591D01*
X239665Y15015D01*
X239511Y15427D01*
X239320Y15823D01*
X239094Y16201D01*
X239080Y16220D01*
Y20500D01*
G37*
G36*
X235002D02*X239080D01*
Y16220D01*
X239051Y16258D01*
X238999Y16306D01*
X238939Y16346D01*
X238875Y16377D01*
X238806Y16397D01*
X238735Y16405D01*
X238664Y16403D01*
X238594Y16389D01*
X238526Y16365D01*
X238464Y16331D01*
X238407Y16287D01*
X238359Y16234D01*
X238319Y16175D01*
X238288Y16111D01*
X238268Y16042D01*
X238260Y15971D01*
X238262Y15900D01*
X238276Y15829D01*
X238300Y15762D01*
X238336Y15700D01*
X238523Y15395D01*
X238678Y15071D01*
X238804Y14735D01*
X238900Y14390D01*
X238964Y14037D01*
X238996Y13679D01*
Y13321D01*
X238964Y12963D01*
X238900Y12610D01*
X238804Y12265D01*
X238678Y11929D01*
X238523Y11605D01*
X238339Y11297D01*
X238304Y11236D01*
X238279Y11170D01*
X238266Y11100D01*
X238264Y11029D01*
X238272Y10959D01*
X238292Y10891D01*
X238322Y10827D01*
X238362Y10768D01*
X238410Y10716D01*
X238466Y10673D01*
X238528Y10639D01*
X238595Y10614D01*
X238664Y10601D01*
X238735Y10599D01*
X238805Y10607D01*
X238873Y10627D01*
X238937Y10657D01*
X238996Y10697D01*
X239048Y10745D01*
X239080Y10788D01*
Y1500D01*
X235002D01*
Y8600D01*
X235220D01*
X235658Y8639D01*
X236091Y8718D01*
X236515Y8835D01*
X236927Y8989D01*
X237323Y9180D01*
X237701Y9406D01*
X237758Y9449D01*
X237806Y9501D01*
X237846Y9561D01*
X237877Y9625D01*
X237897Y9694D01*
X237905Y9765D01*
X237903Y9836D01*
X237889Y9906D01*
X237865Y9974D01*
X237831Y10036D01*
X237787Y10093D01*
X237734Y10141D01*
X237675Y10181D01*
X237611Y10212D01*
X237542Y10232D01*
X237471Y10240D01*
X237400Y10238D01*
X237329Y10224D01*
X237262Y10200D01*
X237200Y10164D01*
X236895Y9977D01*
X236571Y9822D01*
X236235Y9696D01*
X235890Y9600D01*
X235537Y9536D01*
X235179Y9504D01*
X235002D01*
Y17496D01*
X235179D01*
X235537Y17464D01*
X235890Y17400D01*
X236235Y17304D01*
X236571Y17178D01*
X236895Y17023D01*
X237203Y16839D01*
X237264Y16804D01*
X237330Y16779D01*
X237400Y16766D01*
X237471Y16764D01*
X237541Y16772D01*
X237609Y16792D01*
X237673Y16822D01*
X237732Y16862D01*
X237784Y16910D01*
X237827Y16966D01*
X237861Y17028D01*
X237886Y17095D01*
X237899Y17164D01*
X237901Y17235D01*
X237893Y17305D01*
X237873Y17373D01*
X237843Y17437D01*
X237803Y17496D01*
X237755Y17548D01*
X237698Y17590D01*
X237323Y17820D01*
X236927Y18011D01*
X236515Y18165D01*
X236091Y18282D01*
X235658Y18361D01*
X235220Y18400D01*
X235002D01*
Y20500D01*
G37*
G36*
X230920D02*X235002D01*
Y18400D01*
X234780D01*
X234342Y18361D01*
X233909Y18282D01*
X233485Y18165D01*
X233073Y18011D01*
X232677Y17820D01*
X232299Y17594D01*
X232242Y17551D01*
X232194Y17499D01*
X232154Y17439D01*
X232123Y17375D01*
X232103Y17306D01*
X232095Y17235D01*
X232097Y17164D01*
X232111Y17094D01*
X232135Y17026D01*
X232169Y16964D01*
X232213Y16907D01*
X232266Y16859D01*
X232325Y16819D01*
X232389Y16788D01*
X232458Y16768D01*
X232529Y16760D01*
X232600Y16762D01*
X232671Y16776D01*
X232738Y16800D01*
X232800Y16836D01*
X233105Y17023D01*
X233429Y17178D01*
X233765Y17304D01*
X234110Y17400D01*
X234463Y17464D01*
X234821Y17496D01*
X235002D01*
Y9504D01*
X234821D01*
X234463Y9536D01*
X234110Y9600D01*
X233765Y9696D01*
X233429Y9822D01*
X233105Y9977D01*
X232797Y10161D01*
X232736Y10196D01*
X232670Y10221D01*
X232600Y10234D01*
X232529Y10236D01*
X232459Y10228D01*
X232391Y10208D01*
X232327Y10178D01*
X232268Y10138D01*
X232216Y10090D01*
X232173Y10034D01*
X232139Y9972D01*
X232114Y9905D01*
X232101Y9836D01*
X232099Y9765D01*
X232107Y9695D01*
X232127Y9627D01*
X232157Y9563D01*
X232197Y9504D01*
X232245Y9452D01*
X232302Y9410D01*
X232677Y9180D01*
X233073Y8989D01*
X233485Y8835D01*
X233909Y8718D01*
X234342Y8639D01*
X234780Y8600D01*
X235002D01*
Y1500D01*
X230920D01*
Y10780D01*
X230949Y10742D01*
X231001Y10694D01*
X231061Y10654D01*
X231125Y10623D01*
X231194Y10603D01*
X231265Y10595D01*
X231336Y10597D01*
X231406Y10611D01*
X231474Y10635D01*
X231536Y10669D01*
X231593Y10713D01*
X231641Y10766D01*
X231681Y10825D01*
X231712Y10889D01*
X231732Y10958D01*
X231740Y11029D01*
X231738Y11100D01*
X231724Y11171D01*
X231700Y11238D01*
X231664Y11300D01*
X231477Y11605D01*
X231322Y11929D01*
X231196Y12265D01*
X231100Y12610D01*
X231036Y12963D01*
X231004Y13321D01*
Y13679D01*
X231036Y14037D01*
X231100Y14390D01*
X231196Y14735D01*
X231322Y15071D01*
X231477Y15395D01*
X231661Y15703D01*
X231696Y15764D01*
X231721Y15830D01*
X231734Y15900D01*
X231736Y15971D01*
X231728Y16041D01*
X231708Y16109D01*
X231678Y16173D01*
X231638Y16232D01*
X231590Y16284D01*
X231534Y16327D01*
X231472Y16361D01*
X231405Y16386D01*
X231336Y16399D01*
X231265Y16401D01*
X231195Y16393D01*
X231127Y16373D01*
X231063Y16343D01*
X231004Y16303D01*
X230952Y16255D01*
X230920Y16212D01*
Y20500D01*
G37*
G36*
X229500D02*X230920D01*
Y16212D01*
X230910Y16198D01*
X230680Y15823D01*
X230489Y15427D01*
X230335Y15015D01*
X230218Y14591D01*
X230139Y14158D01*
X230100Y13720D01*
Y13280D01*
X230139Y12842D01*
X230218Y12409D01*
X230335Y11985D01*
X230489Y11573D01*
X230680Y11177D01*
X230906Y10799D01*
X230920Y10780D01*
Y1500D01*
X229500D01*
Y20500D01*
G37*
G36*
X244000Y64500D02*Y47500D01*
X205500D01*
Y64500D01*
X244000D01*
G37*
G36*
X228000Y1500D02*X219550D01*
Y10048D01*
X219636Y10055D01*
X219720Y10075D01*
X219800Y10108D01*
X219874Y10154D01*
X219940Y10210D01*
X219996Y10276D01*
X220042Y10350D01*
X220075Y10430D01*
X220095Y10514D01*
X220100Y10600D01*
Y16400D01*
X220095Y16486D01*
X220075Y16570D01*
X220042Y16650D01*
X219996Y16724D01*
X219940Y16790D01*
X219874Y16846D01*
X219800Y16892D01*
X219720Y16925D01*
X219636Y16945D01*
X219550Y16952D01*
Y25000D01*
X228000D01*
Y1500D01*
G37*
G36*
X219550D02*X215000D01*
Y8400D01*
X217900D01*
X217986Y8405D01*
X218070Y8425D01*
X218150Y8458D01*
X218224Y8504D01*
X218290Y8560D01*
X218346Y8626D01*
X218392Y8700D01*
X218425Y8780D01*
X218445Y8864D01*
X218452Y8950D01*
X218445Y9036D01*
X218425Y9120D01*
X218392Y9200D01*
X218346Y9274D01*
X218290Y9340D01*
X218224Y9396D01*
X218150Y9442D01*
X218070Y9475D01*
X217986Y9495D01*
X217900Y9500D01*
X215000D01*
Y17500D01*
X217900D01*
X217986Y17505D01*
X218070Y17525D01*
X218150Y17558D01*
X218224Y17604D01*
X218290Y17660D01*
X218346Y17726D01*
X218392Y17800D01*
X218425Y17880D01*
X218445Y17964D01*
X218452Y18050D01*
X218445Y18136D01*
X218425Y18220D01*
X218392Y18300D01*
X218346Y18374D01*
X218290Y18440D01*
X218224Y18496D01*
X218150Y18542D01*
X218070Y18575D01*
X217986Y18595D01*
X217900Y18600D01*
X215000D01*
Y25000D01*
X219550D01*
Y16952D01*
X219464Y16945D01*
X219380Y16925D01*
X219300Y16892D01*
X219226Y16846D01*
X219160Y16790D01*
X219104Y16724D01*
X219058Y16650D01*
X219025Y16570D01*
X219005Y16486D01*
X219000Y16400D01*
Y10600D01*
X219005Y10514D01*
X219025Y10430D01*
X219058Y10350D01*
X219104Y10276D01*
X219160Y10210D01*
X219226Y10154D01*
X219300Y10108D01*
X219380Y10075D01*
X219464Y10055D01*
X219550Y10048D01*
Y1500D01*
G37*
G36*
X215000D02*X210450D01*
Y10048D01*
X210536Y10055D01*
X210620Y10075D01*
X210700Y10108D01*
X210774Y10154D01*
X210840Y10210D01*
X210896Y10276D01*
X210942Y10350D01*
X210975Y10430D01*
X210995Y10514D01*
X211000Y10600D01*
Y16400D01*
X210995Y16486D01*
X210975Y16570D01*
X210942Y16650D01*
X210896Y16724D01*
X210840Y16790D01*
X210774Y16846D01*
X210700Y16892D01*
X210620Y16925D01*
X210536Y16945D01*
X210450Y16952D01*
Y25000D01*
X215000D01*
Y18600D01*
X212100D01*
X212014Y18595D01*
X211930Y18575D01*
X211850Y18542D01*
X211776Y18496D01*
X211710Y18440D01*
X211654Y18374D01*
X211608Y18300D01*
X211575Y18220D01*
X211555Y18136D01*
X211548Y18050D01*
X211555Y17964D01*
X211575Y17880D01*
X211608Y17800D01*
X211654Y17726D01*
X211710Y17660D01*
X211776Y17604D01*
X211850Y17558D01*
X211930Y17525D01*
X212014Y17505D01*
X212100Y17500D01*
X215000D01*
Y9500D01*
X212100D01*
X212014Y9495D01*
X211930Y9475D01*
X211850Y9442D01*
X211776Y9396D01*
X211710Y9340D01*
X211654Y9274D01*
X211608Y9200D01*
X211575Y9120D01*
X211555Y9036D01*
X211548Y8950D01*
X211555Y8864D01*
X211575Y8780D01*
X211608Y8700D01*
X211654Y8626D01*
X211710Y8560D01*
X211776Y8504D01*
X211850Y8458D01*
X211930Y8425D01*
X212014Y8405D01*
X212100Y8400D01*
X215000D01*
Y1500D01*
G37*
G36*
X210450D02*X205500D01*
Y25000D01*
X210450D01*
Y16952D01*
X210364Y16945D01*
X210280Y16925D01*
X210200Y16892D01*
X210126Y16846D01*
X210060Y16790D01*
X210004Y16724D01*
X209958Y16650D01*
X209925Y16570D01*
X209905Y16486D01*
X209900Y16400D01*
Y10600D01*
X209905Y10514D01*
X209925Y10430D01*
X209958Y10350D01*
X210004Y10276D01*
X210060Y10210D01*
X210126Y10154D01*
X210200Y10108D01*
X210280Y10075D01*
X210364Y10055D01*
X210450Y10048D01*
Y1500D01*
G37*
G36*
X232000Y48500D02*Y22000D01*
X205500D01*
Y48500D01*
X232000D01*
G37*
G36*
X254122Y96559D02*X254165Y96569D01*
X254383Y96659D01*
X254450Y96700D01*
X254517Y96659D01*
X254735Y96569D01*
X254965Y96514D01*
X255200Y96500D01*
X257835Y96514D01*
X258065Y96569D01*
X258283Y96659D01*
X258350Y96700D01*
X258417Y96659D01*
X258635Y96569D01*
X258865Y96514D01*
X259100Y96500D01*
X261735Y96514D01*
X261965Y96569D01*
X262183Y96659D01*
X262384Y96783D01*
X262564Y96936D01*
X262717Y97116D01*
X262841Y97317D01*
X262931Y97535D01*
X262986Y97765D01*
X263000Y98000D01*
X262986Y102235D01*
X262931Y102465D01*
X262841Y102683D01*
X262717Y102884D01*
X262564Y103064D01*
X262384Y103217D01*
X262183Y103341D01*
X261965Y103431D01*
X261735Y103486D01*
X261500Y103500D01*
X258865Y103486D01*
X258635Y103431D01*
X258600Y103416D01*
Y103647D01*
X258772Y103849D01*
X258865Y104000D01*
X284500D01*
Y66500D01*
X254122D01*
Y85250D01*
X257912D01*
X258000Y85243D01*
X258353Y85271D01*
X258353Y85271D01*
X258697Y85354D01*
X259025Y85489D01*
X259327Y85674D01*
X259596Y85904D01*
X259653Y85971D01*
X261779Y88097D01*
X261846Y88154D01*
X262065Y88410D01*
X262183Y88459D01*
X262384Y88583D01*
X262564Y88736D01*
X262717Y88916D01*
X262841Y89117D01*
X262931Y89335D01*
X262986Y89565D01*
X263000Y89800D01*
X262986Y94035D01*
X262931Y94265D01*
X262841Y94483D01*
X262717Y94684D01*
X262564Y94864D01*
X262384Y95017D01*
X262183Y95141D01*
X261965Y95231D01*
X261735Y95286D01*
X261500Y95300D01*
X258865Y95286D01*
X258635Y95231D01*
X258417Y95141D01*
X258216Y95017D01*
X258036Y94864D01*
X257883Y94684D01*
X257759Y94483D01*
X257669Y94265D01*
X257614Y94035D01*
X257600Y93800D01*
X257612Y90293D01*
X257068Y89750D01*
X254122D01*
Y96559D01*
G37*
G36*
X241091Y102559D02*X241100Y97284D01*
X241137Y97131D01*
X241197Y96986D01*
X241279Y96851D01*
X241382Y96732D01*
X241501Y96629D01*
X241636Y96547D01*
X241781Y96487D01*
X241934Y96450D01*
X242091Y96441D01*
X248152Y96450D01*
X248305Y96487D01*
X248450Y96547D01*
X248585Y96629D01*
X248704Y96732D01*
X248807Y96851D01*
X248889Y96986D01*
X248949Y97131D01*
X248986Y97284D01*
X248995Y97441D01*
X248994Y97750D01*
X249817D01*
X249869Y97535D01*
X249959Y97317D01*
X250083Y97116D01*
X250236Y96936D01*
X250416Y96783D01*
X250617Y96659D01*
X250835Y96569D01*
X251065Y96514D01*
X251300Y96500D01*
X253935Y96514D01*
X254122Y96559D01*
Y89750D01*
X249088D01*
X249000Y89757D01*
X248647Y89729D01*
X248303Y89646D01*
X247975Y89511D01*
X247673Y89326D01*
X247673Y89326D01*
X247404Y89096D01*
X247347Y89029D01*
X245971Y87653D01*
X245904Y87596D01*
X245674Y87327D01*
X245489Y87025D01*
X245354Y86697D01*
X245271Y86353D01*
X245271Y86353D01*
X245243Y86000D01*
X245250Y85912D01*
Y80000D01*
X245271Y79647D01*
X245306Y79499D01*
X245311Y75712D01*
X245355Y75528D01*
X245427Y75354D01*
X245526Y75192D01*
X245649Y75049D01*
X245792Y74926D01*
X245954Y74828D01*
X246128Y74755D01*
X246312Y74711D01*
X246500Y74700D01*
X248688Y74711D01*
X248872Y74755D01*
X249046Y74828D01*
X249208Y74926D01*
X249351Y75049D01*
X249474Y75192D01*
X249572Y75354D01*
X249645Y75528D01*
X249689Y75712D01*
X249700Y75900D01*
X249695Y79506D01*
X249729Y79647D01*
X249750Y80000D01*
Y85068D01*
X249932Y85250D01*
X254122D01*
Y66500D01*
X236278D01*
Y74719D01*
X236312Y74711D01*
X236500Y74700D01*
X238688Y74711D01*
X238872Y74755D01*
X239046Y74828D01*
X239208Y74926D01*
X239351Y75049D01*
X239474Y75192D01*
X239572Y75354D01*
X239645Y75528D01*
X239689Y75712D01*
X239700Y75900D01*
X239695Y79506D01*
X239729Y79647D01*
X239750Y80000D01*
Y85912D01*
X239757Y86000D01*
X239729Y86353D01*
X239729Y86353D01*
X239646Y86697D01*
X239511Y87025D01*
X239326Y87327D01*
X239096Y87596D01*
X239029Y87653D01*
X237848Y88834D01*
X237917Y88916D01*
X238041Y89117D01*
X238131Y89335D01*
X238186Y89565D01*
X238200Y89800D01*
X238186Y94035D01*
X238131Y94265D01*
X238041Y94483D01*
X237917Y94684D01*
X237764Y94864D01*
X237584Y95017D01*
X237383Y95141D01*
X237165Y95231D01*
X236935Y95286D01*
X236700Y95300D01*
X236278Y95298D01*
Y96510D01*
X236935Y96514D01*
X237165Y96569D01*
X237383Y96659D01*
X237584Y96783D01*
X237764Y96936D01*
X237917Y97116D01*
X238041Y97317D01*
X238131Y97535D01*
X238186Y97765D01*
X238200Y98000D01*
X238186Y102235D01*
X238131Y102465D01*
X238041Y102683D01*
X237917Y102884D01*
X237764Y103064D01*
X237584Y103217D01*
X237383Y103341D01*
X237165Y103431D01*
X236935Y103486D01*
X236700Y103500D01*
X236278Y103498D01*
Y104000D01*
X251000D01*
Y103471D01*
X250835Y103431D01*
X250617Y103341D01*
X250416Y103217D01*
X250236Y103064D01*
X250083Y102884D01*
X249959Y102683D01*
X249869Y102465D01*
X249817Y102250D01*
X248987D01*
X248986Y102716D01*
X248949Y102869D01*
X248889Y103014D01*
X248807Y103149D01*
X248704Y103268D01*
X248585Y103371D01*
X248450Y103453D01*
X248305Y103513D01*
X248152Y103550D01*
X247995Y103559D01*
X241934Y103550D01*
X241781Y103513D01*
X241636Y103453D01*
X241501Y103371D01*
X241382Y103268D01*
X241279Y103149D01*
X241197Y103014D01*
X241137Y102869D01*
X241100Y102716D01*
X241091Y102559D01*
G37*
G36*
X236278Y103498D02*X234065Y103486D01*
X233950Y103459D01*
Y103483D01*
X233986Y103514D01*
X234272Y103849D01*
X234365Y104000D01*
X236278D01*
Y103498D01*
G37*
G36*
Y66500D02*X205500D01*
Y102500D01*
X216548D01*
X216557Y97327D01*
X216594Y97174D01*
X216654Y97029D01*
X216736Y96894D01*
X216839Y96775D01*
X216958Y96672D01*
X217093Y96590D01*
X217238Y96530D01*
X217391Y96493D01*
X217548Y96484D01*
X223609Y96493D01*
X223762Y96530D01*
X223907Y96590D01*
X224042Y96672D01*
X224161Y96775D01*
X224264Y96894D01*
X224346Y97029D01*
X224406Y97174D01*
X224443Y97327D01*
X224452Y97484D01*
X224451Y97836D01*
X225014D01*
X225014Y97765D01*
X225069Y97535D01*
X225159Y97317D01*
X225283Y97116D01*
X225436Y96936D01*
X225616Y96783D01*
X225817Y96659D01*
X226035Y96569D01*
X226265Y96514D01*
X226500Y96500D01*
X229135Y96514D01*
X229365Y96569D01*
X229583Y96659D01*
X229650Y96700D01*
X229717Y96659D01*
X229935Y96569D01*
X230165Y96514D01*
X230400Y96500D01*
X233035Y96514D01*
X233265Y96569D01*
X233483Y96659D01*
X233550Y96700D01*
X233617Y96659D01*
X233835Y96569D01*
X234065Y96514D01*
X234300Y96500D01*
X236278Y96510D01*
Y95298D01*
X234065Y95286D01*
X233835Y95231D01*
X233617Y95141D01*
X233416Y95017D01*
X233236Y94864D01*
X233083Y94684D01*
X232959Y94483D01*
X232869Y94265D01*
X232814Y94035D01*
X232800Y93800D01*
X232814Y89565D01*
X232869Y89335D01*
X232959Y89117D01*
X233083Y88916D01*
X233236Y88736D01*
X233250Y88724D01*
Y88088D01*
X233243Y88000D01*
X233271Y87647D01*
X233354Y87303D01*
X233489Y86975D01*
X233674Y86673D01*
X233674Y86673D01*
X233904Y86404D01*
X233971Y86347D01*
X235250Y85068D01*
Y80000D01*
X235271Y79647D01*
X235306Y79499D01*
X235311Y75712D01*
X235355Y75528D01*
X235427Y75354D01*
X235526Y75192D01*
X235649Y75049D01*
X235792Y74926D01*
X235954Y74828D01*
X236128Y74755D01*
X236278Y74719D01*
Y66500D01*
G37*
G36*
X192500Y102500D02*X204000D01*
Y1500D01*
X192500D01*
Y102500D01*
G37*
G36*
X180702Y82500D02*X186000D01*
Y76774D01*
X185891Y76838D01*
X185773Y76884D01*
X185649Y76910D01*
X185522Y76917D01*
X185396Y76904D01*
X185274Y76872D01*
X185158Y76821D01*
X185052Y76752D01*
X184957Y76668D01*
X184877Y76569D01*
X184814Y76460D01*
X184768Y76342D01*
X184741Y76218D01*
X184734Y76091D01*
X184747Y75965D01*
X184779Y75843D01*
X184833Y75728D01*
X185021Y75350D01*
X185169Y74955D01*
X185282Y74548D01*
X185357Y74132D01*
X185395Y73711D01*
Y73289D01*
X185357Y72868D01*
X185282Y72452D01*
X185169Y72045D01*
X185021Y71650D01*
X184837Y71269D01*
X184784Y71155D01*
X184752Y71034D01*
X184739Y70908D01*
X184746Y70783D01*
X184772Y70660D01*
X184818Y70542D01*
X184881Y70433D01*
X184961Y70336D01*
X185055Y70252D01*
X185160Y70183D01*
X185276Y70133D01*
X185397Y70100D01*
X185523Y70088D01*
X185648Y70095D01*
X185771Y70121D01*
X185889Y70167D01*
X185998Y70230D01*
X186000Y70232D01*
Y57500D01*
X180702D01*
Y67200D01*
X180983D01*
X181548Y67251D01*
X182106Y67352D01*
X182652Y67503D01*
X183182Y67703D01*
X183693Y67949D01*
X183800Y68017D01*
X183894Y68101D01*
X183974Y68200D01*
X184038Y68309D01*
X184084Y68427D01*
X184110Y68551D01*
X184117Y68678D01*
X184104Y68804D01*
X184072Y68926D01*
X184021Y69042D01*
X183952Y69148D01*
X183868Y69243D01*
X183769Y69323D01*
X183660Y69386D01*
X183542Y69432D01*
X183418Y69459D01*
X183291Y69466D01*
X183165Y69453D01*
X183043Y69421D01*
X182928Y69367D01*
X182550Y69179D01*
X182155Y69031D01*
X181748Y68918D01*
X181332Y68843D01*
X180911Y68805D01*
X180702D01*
Y78195D01*
X180911D01*
X181332Y78157D01*
X181748Y78082D01*
X182155Y77969D01*
X182550Y77821D01*
X182931Y77637D01*
X183045Y77584D01*
X183166Y77552D01*
X183292Y77539D01*
X183417Y77546D01*
X183540Y77572D01*
X183658Y77618D01*
X183767Y77681D01*
X183864Y77761D01*
X183948Y77855D01*
X184017Y77960D01*
X184067Y78076D01*
X184100Y78197D01*
X184112Y78323D01*
X184105Y78448D01*
X184079Y78571D01*
X184033Y78689D01*
X183970Y78798D01*
X183891Y78895D01*
X183797Y78979D01*
X183690Y79045D01*
X183182Y79297D01*
X182652Y79497D01*
X182106Y79648D01*
X181548Y79749D01*
X180983Y79800D01*
X180702D01*
Y82500D01*
G37*
G36*
X175533D02*X180702D01*
Y79800D01*
X180417D01*
X179852Y79749D01*
X179294Y79648D01*
X178748Y79497D01*
X178218Y79297D01*
X177707Y79051D01*
X177600Y78983D01*
X177506Y78899D01*
X177426Y78800D01*
X177362Y78691D01*
X177316Y78573D01*
X177290Y78449D01*
X177283Y78322D01*
X177296Y78196D01*
X177328Y78074D01*
X177379Y77958D01*
X177448Y77852D01*
X177532Y77757D01*
X177631Y77677D01*
X177740Y77614D01*
X177858Y77568D01*
X177982Y77541D01*
X178109Y77534D01*
X178235Y77547D01*
X178357Y77579D01*
X178472Y77633D01*
X178850Y77821D01*
X179245Y77969D01*
X179652Y78082D01*
X180068Y78157D01*
X180489Y78195D01*
X180702D01*
Y68805D01*
X180489D01*
X180068Y68843D01*
X179652Y68918D01*
X179245Y69031D01*
X178850Y69179D01*
X178469Y69363D01*
X178355Y69416D01*
X178234Y69448D01*
X178108Y69461D01*
X177983Y69454D01*
X177860Y69428D01*
X177742Y69382D01*
X177633Y69319D01*
X177536Y69239D01*
X177452Y69145D01*
X177383Y69040D01*
X177333Y68924D01*
X177300Y68803D01*
X177288Y68677D01*
X177295Y68552D01*
X177321Y68429D01*
X177367Y68311D01*
X177430Y68202D01*
X177509Y68105D01*
X177603Y68021D01*
X177710Y67955D01*
X178218Y67703D01*
X178748Y67503D01*
X179294Y67352D01*
X179852Y67251D01*
X180417Y67200D01*
X180702D01*
Y57500D01*
X175533D01*
Y70153D01*
X175627Y70116D01*
X175751Y70090D01*
X175878Y70083D01*
X176004Y70096D01*
X176126Y70128D01*
X176242Y70179D01*
X176348Y70248D01*
X176443Y70332D01*
X176523Y70431D01*
X176586Y70540D01*
X176632Y70658D01*
X176659Y70782D01*
X176666Y70909D01*
X176653Y71035D01*
X176621Y71157D01*
X176567Y71272D01*
X176379Y71650D01*
X176231Y72045D01*
X176118Y72452D01*
X176043Y72868D01*
X176005Y73289D01*
Y73711D01*
X176043Y74132D01*
X176118Y74548D01*
X176231Y74955D01*
X176379Y75350D01*
X176563Y75731D01*
X176616Y75845D01*
X176648Y75966D01*
X176661Y76092D01*
X176654Y76217D01*
X176628Y76340D01*
X176582Y76458D01*
X176519Y76567D01*
X176439Y76664D01*
X176345Y76748D01*
X176240Y76817D01*
X176124Y76867D01*
X176003Y76900D01*
X175877Y76912D01*
X175752Y76905D01*
X175629Y76879D01*
X175533Y76842D01*
Y82500D01*
G37*
G36*
X172197D02*X175533D01*
Y76842D01*
X175511Y76833D01*
X175402Y76770D01*
X175305Y76691D01*
X175221Y76597D01*
X175155Y76490D01*
X174903Y75982D01*
X174703Y75452D01*
X174552Y74906D01*
X174451Y74348D01*
X174400Y73783D01*
Y73217D01*
X174451Y72652D01*
X174552Y72094D01*
X174703Y71548D01*
X174903Y71018D01*
X175149Y70507D01*
X175217Y70400D01*
X175301Y70306D01*
X175400Y70226D01*
X175509Y70162D01*
X175533Y70153D01*
Y57500D01*
X172197D01*
Y70245D01*
X172247Y70294D01*
X172302Y70371D01*
X172577Y70847D01*
X172801Y71350D01*
X172977Y71871D01*
X173104Y72406D01*
X173181Y72951D01*
X173206Y73500D01*
X173181Y74049D01*
X173104Y74594D01*
X172977Y75129D01*
X172801Y75650D01*
X172577Y76153D01*
X172307Y76632D01*
X172251Y76709D01*
X172197Y76762D01*
Y82500D01*
G37*
G36*
X167303D02*X172197D01*
Y76762D01*
X172183Y76776D01*
X172106Y76831D01*
X172020Y76874D01*
X171930Y76902D01*
X171835Y76916D01*
X171740Y76915D01*
X171646Y76900D01*
X171556Y76869D01*
X171471Y76825D01*
X171395Y76769D01*
X171328Y76701D01*
X171273Y76623D01*
X171230Y76538D01*
X171202Y76447D01*
X171188Y76353D01*
X171189Y76258D01*
X171204Y76164D01*
X171235Y76073D01*
X171280Y75990D01*
X171499Y75611D01*
X171677Y75211D01*
X171818Y74797D01*
X171919Y74371D01*
X171980Y73937D01*
X172000Y73500D01*
X171980Y73063D01*
X171919Y72629D01*
X171818Y72203D01*
X171677Y71789D01*
X171499Y71389D01*
X171285Y71007D01*
X171239Y70925D01*
X171209Y70835D01*
X171194Y70742D01*
X171193Y70648D01*
X171207Y70554D01*
X171235Y70464D01*
X171277Y70380D01*
X171332Y70303D01*
X171398Y70235D01*
X171474Y70179D01*
X171558Y70135D01*
X171647Y70105D01*
X171741Y70090D01*
X171835Y70089D01*
X171928Y70103D01*
X172018Y70131D01*
X172103Y70173D01*
X172180Y70228D01*
X172197Y70245D01*
Y57500D01*
X167303D01*
Y67594D01*
X167849Y67619D01*
X168394Y67696D01*
X168929Y67823D01*
X169450Y67999D01*
X169953Y68223D01*
X170432Y68493D01*
X170509Y68549D01*
X170576Y68617D01*
X170631Y68694D01*
X170674Y68780D01*
X170702Y68870D01*
X170716Y68965D01*
X170715Y69060D01*
X170700Y69154D01*
X170669Y69244D01*
X170625Y69329D01*
X170569Y69405D01*
X170501Y69472D01*
X170423Y69527D01*
X170338Y69570D01*
X170247Y69598D01*
X170153Y69612D01*
X170058Y69611D01*
X169964Y69596D01*
X169873Y69565D01*
X169790Y69520D01*
X169411Y69301D01*
X169011Y69123D01*
X168597Y68982D01*
X168171Y68881D01*
X167737Y68820D01*
X167303Y68800D01*
Y78200D01*
X167737Y78180D01*
X168171Y78119D01*
X168597Y78018D01*
X169011Y77877D01*
X169411Y77699D01*
X169793Y77485D01*
X169875Y77439D01*
X169965Y77409D01*
X170058Y77394D01*
X170152Y77393D01*
X170246Y77407D01*
X170336Y77435D01*
X170420Y77477D01*
X170497Y77532D01*
X170565Y77598D01*
X170621Y77674D01*
X170665Y77758D01*
X170695Y77847D01*
X170710Y77941D01*
X170711Y78035D01*
X170697Y78128D01*
X170669Y78218D01*
X170627Y78303D01*
X170572Y78380D01*
X170506Y78447D01*
X170429Y78502D01*
X169953Y78777D01*
X169450Y79001D01*
X168929Y79177D01*
X168394Y79304D01*
X167849Y79381D01*
X167303Y79406D01*
Y82500D01*
G37*
G36*
X161500D02*X167303D01*
Y79406D01*
X167300Y79406D01*
X166751Y79381D01*
X166206Y79304D01*
X165671Y79177D01*
X165150Y79001D01*
X164647Y78777D01*
X164168Y78507D01*
X164091Y78451D01*
X164024Y78383D01*
X163969Y78306D01*
X163926Y78220D01*
X163898Y78130D01*
X163884Y78035D01*
X163885Y77940D01*
X163900Y77846D01*
X163931Y77756D01*
X163975Y77671D01*
X164031Y77595D01*
X164099Y77528D01*
X164177Y77473D01*
X164262Y77430D01*
X164353Y77402D01*
X164447Y77388D01*
X164542Y77389D01*
X164636Y77404D01*
X164727Y77435D01*
X164810Y77480D01*
X165189Y77699D01*
X165589Y77877D01*
X166003Y78018D01*
X166429Y78119D01*
X166863Y78180D01*
X167300Y78200D01*
X167303Y78200D01*
Y68800D01*
X167300Y68800D01*
X166863Y68820D01*
X166429Y68881D01*
X166003Y68982D01*
X165589Y69123D01*
X165189Y69301D01*
X164807Y69515D01*
X164725Y69561D01*
X164635Y69591D01*
X164542Y69606D01*
X164448Y69607D01*
X164354Y69593D01*
X164264Y69565D01*
X164180Y69523D01*
X164103Y69468D01*
X164035Y69402D01*
X163979Y69326D01*
X163935Y69242D01*
X163905Y69153D01*
X163890Y69059D01*
X163889Y68965D01*
X163903Y68872D01*
X163931Y68782D01*
X163973Y68697D01*
X164028Y68620D01*
X164094Y68553D01*
X164171Y68498D01*
X164647Y68223D01*
X165150Y67999D01*
X165671Y67823D01*
X166206Y67696D01*
X166751Y67619D01*
X167300Y67594D01*
X167303Y67594D01*
Y57500D01*
X161500D01*
Y72388D01*
X161623Y71871D01*
X161799Y71350D01*
X162023Y70847D01*
X162293Y70368D01*
X162349Y70291D01*
X162417Y70224D01*
X162494Y70169D01*
X162580Y70126D01*
X162670Y70098D01*
X162765Y70084D01*
X162860Y70085D01*
X162954Y70100D01*
X163044Y70131D01*
X163129Y70175D01*
X163205Y70231D01*
X163272Y70299D01*
X163327Y70377D01*
X163370Y70462D01*
X163398Y70553D01*
X163412Y70647D01*
X163411Y70742D01*
X163396Y70836D01*
X163365Y70927D01*
X163320Y71010D01*
X163101Y71389D01*
X162923Y71789D01*
X162782Y72203D01*
X162681Y72629D01*
X162620Y73063D01*
X162600Y73500D01*
X162620Y73937D01*
X162681Y74371D01*
X162782Y74797D01*
X162923Y75211D01*
X163101Y75611D01*
X163315Y75993D01*
X163361Y76075D01*
X163391Y76165D01*
X163406Y76258D01*
X163407Y76352D01*
X163393Y76446D01*
X163365Y76536D01*
X163323Y76620D01*
X163268Y76697D01*
X163202Y76765D01*
X163126Y76821D01*
X163042Y76865D01*
X162953Y76895D01*
X162859Y76910D01*
X162765Y76911D01*
X162672Y76897D01*
X162582Y76869D01*
X162497Y76827D01*
X162420Y76772D01*
X162353Y76706D01*
X162298Y76629D01*
X162023Y76153D01*
X161799Y75650D01*
X161623Y75129D01*
X161500Y74612D01*
Y82500D01*
G37*
G36*
X180702D02*X186000D01*
Y76774D01*
X185891Y76838D01*
X185773Y76884D01*
X185649Y76910D01*
X185522Y76917D01*
X185396Y76904D01*
X185274Y76872D01*
X185158Y76821D01*
X185052Y76752D01*
X184957Y76668D01*
X184877Y76569D01*
X184814Y76460D01*
X184768Y76342D01*
X184741Y76218D01*
X184734Y76091D01*
X184747Y75965D01*
X184779Y75843D01*
X184833Y75728D01*
X185021Y75350D01*
X185169Y74955D01*
X185282Y74548D01*
X185357Y74132D01*
X185395Y73711D01*
Y73289D01*
X185357Y72868D01*
X185282Y72452D01*
X185169Y72045D01*
X185021Y71650D01*
X184837Y71269D01*
X184784Y71155D01*
X184752Y71034D01*
X184739Y70908D01*
X184746Y70783D01*
X184772Y70660D01*
X184818Y70542D01*
X184881Y70433D01*
X184961Y70336D01*
X185055Y70252D01*
X185160Y70183D01*
X185276Y70133D01*
X185397Y70100D01*
X185523Y70088D01*
X185648Y70095D01*
X185771Y70121D01*
X185889Y70167D01*
X185998Y70230D01*
X186000Y70232D01*
Y57500D01*
X180702D01*
Y67200D01*
X180983D01*
X181548Y67251D01*
X182106Y67352D01*
X182652Y67503D01*
X183182Y67703D01*
X183693Y67949D01*
X183800Y68017D01*
X183894Y68101D01*
X183974Y68200D01*
X184038Y68309D01*
X184084Y68427D01*
X184110Y68551D01*
X184117Y68678D01*
X184104Y68804D01*
X184072Y68926D01*
X184021Y69042D01*
X183952Y69148D01*
X183868Y69243D01*
X183769Y69323D01*
X183660Y69386D01*
X183542Y69432D01*
X183418Y69459D01*
X183291Y69466D01*
X183165Y69453D01*
X183043Y69421D01*
X182928Y69367D01*
X182550Y69179D01*
X182155Y69031D01*
X181748Y68918D01*
X181332Y68843D01*
X180911Y68805D01*
X180702D01*
Y78195D01*
X180911D01*
X181332Y78157D01*
X181748Y78082D01*
X182155Y77969D01*
X182550Y77821D01*
X182931Y77637D01*
X183045Y77584D01*
X183166Y77552D01*
X183292Y77539D01*
X183417Y77546D01*
X183540Y77572D01*
X183658Y77618D01*
X183767Y77681D01*
X183864Y77761D01*
X183948Y77855D01*
X184017Y77960D01*
X184067Y78076D01*
X184100Y78197D01*
X184112Y78323D01*
X184105Y78448D01*
X184079Y78571D01*
X184033Y78689D01*
X183970Y78798D01*
X183891Y78895D01*
X183797Y78979D01*
X183690Y79045D01*
X183182Y79297D01*
X182652Y79497D01*
X182106Y79648D01*
X181548Y79749D01*
X180983Y79800D01*
X180702D01*
Y82500D01*
G37*
G36*
X175533D02*X180702D01*
Y79800D01*
X180417D01*
X179852Y79749D01*
X179294Y79648D01*
X178748Y79497D01*
X178218Y79297D01*
X177707Y79051D01*
X177600Y78983D01*
X177506Y78899D01*
X177426Y78800D01*
X177362Y78691D01*
X177316Y78573D01*
X177290Y78449D01*
X177283Y78322D01*
X177296Y78196D01*
X177328Y78074D01*
X177379Y77958D01*
X177448Y77852D01*
X177532Y77757D01*
X177631Y77677D01*
X177740Y77614D01*
X177858Y77568D01*
X177982Y77541D01*
X178109Y77534D01*
X178235Y77547D01*
X178357Y77579D01*
X178472Y77633D01*
X178850Y77821D01*
X179245Y77969D01*
X179652Y78082D01*
X180068Y78157D01*
X180489Y78195D01*
X180702D01*
Y68805D01*
X180489D01*
X180068Y68843D01*
X179652Y68918D01*
X179245Y69031D01*
X178850Y69179D01*
X178469Y69363D01*
X178355Y69416D01*
X178234Y69448D01*
X178108Y69461D01*
X177983Y69454D01*
X177860Y69428D01*
X177742Y69382D01*
X177633Y69319D01*
X177536Y69239D01*
X177452Y69145D01*
X177383Y69040D01*
X177333Y68924D01*
X177300Y68803D01*
X177288Y68677D01*
X177295Y68552D01*
X177321Y68429D01*
X177367Y68311D01*
X177430Y68202D01*
X177509Y68105D01*
X177603Y68021D01*
X177710Y67955D01*
X178218Y67703D01*
X178748Y67503D01*
X179294Y67352D01*
X179852Y67251D01*
X180417Y67200D01*
X180702D01*
Y57500D01*
X175533D01*
Y70153D01*
X175627Y70116D01*
X175751Y70090D01*
X175878Y70083D01*
X176004Y70096D01*
X176126Y70128D01*
X176242Y70179D01*
X176348Y70248D01*
X176443Y70332D01*
X176523Y70431D01*
X176586Y70540D01*
X176632Y70658D01*
X176659Y70782D01*
X176666Y70909D01*
X176653Y71035D01*
X176621Y71157D01*
X176567Y71272D01*
X176379Y71650D01*
X176231Y72045D01*
X176118Y72452D01*
X176043Y72868D01*
X176005Y73289D01*
Y73711D01*
X176043Y74132D01*
X176118Y74548D01*
X176231Y74955D01*
X176379Y75350D01*
X176563Y75731D01*
X176616Y75845D01*
X176648Y75966D01*
X176661Y76092D01*
X176654Y76217D01*
X176628Y76340D01*
X176582Y76458D01*
X176519Y76567D01*
X176439Y76664D01*
X176345Y76748D01*
X176240Y76817D01*
X176124Y76867D01*
X176003Y76900D01*
X175877Y76912D01*
X175752Y76905D01*
X175629Y76879D01*
X175533Y76842D01*
Y82500D01*
G37*
G36*
X172197D02*X175533D01*
Y76842D01*
X175511Y76833D01*
X175402Y76770D01*
X175305Y76691D01*
X175221Y76597D01*
X175155Y76490D01*
X174903Y75982D01*
X174703Y75452D01*
X174552Y74906D01*
X174451Y74348D01*
X174400Y73783D01*
Y73217D01*
X174451Y72652D01*
X174552Y72094D01*
X174703Y71548D01*
X174903Y71018D01*
X175149Y70507D01*
X175217Y70400D01*
X175301Y70306D01*
X175400Y70226D01*
X175509Y70162D01*
X175533Y70153D01*
Y57500D01*
X172197D01*
Y70245D01*
X172247Y70294D01*
X172302Y70371D01*
X172577Y70847D01*
X172801Y71350D01*
X172977Y71871D01*
X173104Y72406D01*
X173181Y72951D01*
X173206Y73500D01*
X173181Y74049D01*
X173104Y74594D01*
X172977Y75129D01*
X172801Y75650D01*
X172577Y76153D01*
X172307Y76632D01*
X172251Y76709D01*
X172197Y76762D01*
Y82500D01*
G37*
G36*
X167303D02*X172197D01*
Y76762D01*
X172183Y76776D01*
X172106Y76831D01*
X172020Y76874D01*
X171930Y76902D01*
X171835Y76916D01*
X171740Y76915D01*
X171646Y76900D01*
X171556Y76869D01*
X171471Y76825D01*
X171395Y76769D01*
X171328Y76701D01*
X171273Y76623D01*
X171230Y76538D01*
X171202Y76447D01*
X171188Y76353D01*
X171189Y76258D01*
X171204Y76164D01*
X171235Y76073D01*
X171280Y75990D01*
X171499Y75611D01*
X171677Y75211D01*
X171818Y74797D01*
X171919Y74371D01*
X171980Y73937D01*
X172000Y73500D01*
X171980Y73063D01*
X171919Y72629D01*
X171818Y72203D01*
X171677Y71789D01*
X171499Y71389D01*
X171285Y71007D01*
X171239Y70925D01*
X171209Y70835D01*
X171194Y70742D01*
X171193Y70648D01*
X171207Y70554D01*
X171235Y70464D01*
X171277Y70380D01*
X171332Y70303D01*
X171398Y70235D01*
X171474Y70179D01*
X171558Y70135D01*
X171647Y70105D01*
X171741Y70090D01*
X171835Y70089D01*
X171928Y70103D01*
X172018Y70131D01*
X172103Y70173D01*
X172180Y70228D01*
X172197Y70245D01*
Y57500D01*
X167303D01*
Y67594D01*
X167849Y67619D01*
X168394Y67696D01*
X168929Y67823D01*
X169450Y67999D01*
X169953Y68223D01*
X170432Y68493D01*
X170509Y68549D01*
X170576Y68617D01*
X170631Y68694D01*
X170674Y68780D01*
X170702Y68870D01*
X170716Y68965D01*
X170715Y69060D01*
X170700Y69154D01*
X170669Y69244D01*
X170625Y69329D01*
X170569Y69405D01*
X170501Y69472D01*
X170423Y69527D01*
X170338Y69570D01*
X170247Y69598D01*
X170153Y69612D01*
X170058Y69611D01*
X169964Y69596D01*
X169873Y69565D01*
X169790Y69520D01*
X169411Y69301D01*
X169011Y69123D01*
X168597Y68982D01*
X168171Y68881D01*
X167737Y68820D01*
X167303Y68800D01*
Y78200D01*
X167737Y78180D01*
X168171Y78119D01*
X168597Y78018D01*
X169011Y77877D01*
X169411Y77699D01*
X169793Y77485D01*
X169875Y77439D01*
X169965Y77409D01*
X170058Y77394D01*
X170152Y77393D01*
X170246Y77407D01*
X170336Y77435D01*
X170420Y77477D01*
X170497Y77532D01*
X170565Y77598D01*
X170621Y77674D01*
X170665Y77758D01*
X170695Y77847D01*
X170710Y77941D01*
X170711Y78035D01*
X170697Y78128D01*
X170669Y78218D01*
X170627Y78303D01*
X170572Y78380D01*
X170506Y78447D01*
X170429Y78502D01*
X169953Y78777D01*
X169450Y79001D01*
X168929Y79177D01*
X168394Y79304D01*
X167849Y79381D01*
X167303Y79406D01*
Y82500D01*
G37*
G36*
X161500Y57500D02*Y72388D01*
X161623Y71871D01*
X161799Y71350D01*
X162023Y70847D01*
X162293Y70368D01*
X162349Y70291D01*
X162417Y70224D01*
X162494Y70169D01*
X162580Y70126D01*
X162670Y70098D01*
X162765Y70084D01*
X162860Y70085D01*
X162954Y70100D01*
X163044Y70131D01*
X163129Y70175D01*
X163205Y70231D01*
X163272Y70299D01*
X163327Y70377D01*
X163370Y70462D01*
X163398Y70553D01*
X163412Y70647D01*
X163411Y70742D01*
X163396Y70836D01*
X163365Y70927D01*
X163320Y71010D01*
X163101Y71389D01*
X162923Y71789D01*
X162782Y72203D01*
X162681Y72629D01*
X162620Y73063D01*
X162600Y73500D01*
X162620Y73937D01*
X162681Y74371D01*
X162782Y74797D01*
X162923Y75211D01*
X163101Y75611D01*
X163315Y75993D01*
X163361Y76075D01*
X163391Y76165D01*
X163406Y76258D01*
X163407Y76352D01*
X163393Y76446D01*
X163365Y76536D01*
X163323Y76620D01*
X163268Y76697D01*
X163202Y76765D01*
X163126Y76821D01*
X163042Y76865D01*
X162953Y76895D01*
X162859Y76910D01*
X162765Y76911D01*
X162672Y76897D01*
X162582Y76869D01*
X162497Y76827D01*
X162420Y76772D01*
X162353Y76706D01*
X162298Y76629D01*
X162023Y76153D01*
X161799Y75650D01*
X161623Y75129D01*
X161500Y74612D01*
Y82500D01*
X167303D01*
Y79406D01*
X167300Y79406D01*
X166751Y79381D01*
X166206Y79304D01*
X165671Y79177D01*
X165150Y79001D01*
X164647Y78777D01*
X164168Y78507D01*
X164091Y78451D01*
X164024Y78383D01*
X163969Y78306D01*
X163926Y78220D01*
X163898Y78130D01*
X163884Y78035D01*
X163885Y77940D01*
X163900Y77846D01*
X163931Y77756D01*
X163975Y77671D01*
X164031Y77595D01*
X164099Y77528D01*
X164177Y77473D01*
X164262Y77430D01*
X164353Y77402D01*
X164447Y77388D01*
X164542Y77389D01*
X164636Y77404D01*
X164727Y77435D01*
X164810Y77480D01*
X165189Y77699D01*
X165589Y77877D01*
X166003Y78018D01*
X166429Y78119D01*
X166863Y78180D01*
X167300Y78200D01*
X167303Y78200D01*
Y68800D01*
X167300Y68800D01*
X166863Y68820D01*
X166429Y68881D01*
X166003Y68982D01*
X165589Y69123D01*
X165189Y69301D01*
X164807Y69515D01*
X164725Y69561D01*
X164635Y69591D01*
X164542Y69606D01*
X164448Y69607D01*
X164354Y69593D01*
X164264Y69565D01*
X164180Y69523D01*
X164103Y69468D01*
X164035Y69402D01*
X163979Y69326D01*
X163935Y69242D01*
X163905Y69153D01*
X163890Y69059D01*
X163889Y68965D01*
X163903Y68872D01*
X163931Y68782D01*
X163973Y68697D01*
X164028Y68620D01*
X164094Y68553D01*
X164171Y68498D01*
X164647Y68223D01*
X165150Y67999D01*
X165671Y67823D01*
X166206Y67696D01*
X166751Y67619D01*
X167300Y67594D01*
X167303Y67594D01*
Y57500D01*
X161500D01*
G37*
G36*
X185867Y102500D02*X191000D01*
Y66500D01*
X185867D01*
Y70158D01*
X185889Y70167D01*
X185998Y70230D01*
X186095Y70309D01*
X186179Y70403D01*
X186245Y70510D01*
X186497Y71018D01*
X186697Y71548D01*
X186848Y72094D01*
X186949Y72652D01*
X187000Y73217D01*
Y73783D01*
X186949Y74348D01*
X186848Y74906D01*
X186697Y75452D01*
X186497Y75982D01*
X186251Y76493D01*
X186183Y76600D01*
X186099Y76694D01*
X186000Y76774D01*
X185891Y76838D01*
X185867Y76847D01*
Y102500D01*
G37*
G36*
X180702D02*X185867D01*
Y76847D01*
X185773Y76884D01*
X185649Y76910D01*
X185522Y76917D01*
X185396Y76904D01*
X185274Y76872D01*
X185158Y76821D01*
X185052Y76752D01*
X184957Y76668D01*
X184877Y76569D01*
X184814Y76460D01*
X184768Y76342D01*
X184741Y76218D01*
X184734Y76091D01*
X184747Y75965D01*
X184779Y75843D01*
X184833Y75728D01*
X185021Y75350D01*
X185169Y74955D01*
X185282Y74548D01*
X185357Y74132D01*
X185395Y73711D01*
Y73289D01*
X185357Y72868D01*
X185282Y72452D01*
X185169Y72045D01*
X185021Y71650D01*
X184837Y71269D01*
X184784Y71155D01*
X184752Y71034D01*
X184739Y70908D01*
X184746Y70783D01*
X184772Y70660D01*
X184818Y70542D01*
X184881Y70433D01*
X184961Y70336D01*
X185055Y70252D01*
X185160Y70183D01*
X185276Y70133D01*
X185397Y70100D01*
X185523Y70088D01*
X185648Y70095D01*
X185771Y70121D01*
X185867Y70158D01*
Y66500D01*
X180702D01*
Y67200D01*
X180983D01*
X181548Y67251D01*
X182106Y67352D01*
X182652Y67503D01*
X183182Y67703D01*
X183693Y67949D01*
X183800Y68017D01*
X183894Y68101D01*
X183974Y68200D01*
X184038Y68309D01*
X184084Y68427D01*
X184110Y68551D01*
X184117Y68678D01*
X184104Y68804D01*
X184072Y68926D01*
X184021Y69042D01*
X183952Y69148D01*
X183868Y69243D01*
X183769Y69323D01*
X183660Y69386D01*
X183542Y69432D01*
X183418Y69459D01*
X183291Y69466D01*
X183165Y69453D01*
X183043Y69421D01*
X182928Y69367D01*
X182550Y69179D01*
X182155Y69031D01*
X181748Y68918D01*
X181332Y68843D01*
X180911Y68805D01*
X180702D01*
Y78195D01*
X180911D01*
X181332Y78157D01*
X181748Y78082D01*
X182155Y77969D01*
X182550Y77821D01*
X182931Y77637D01*
X183045Y77584D01*
X183166Y77552D01*
X183292Y77539D01*
X183417Y77546D01*
X183540Y77572D01*
X183658Y77618D01*
X183767Y77681D01*
X183864Y77761D01*
X183948Y77855D01*
X184017Y77960D01*
X184067Y78076D01*
X184100Y78197D01*
X184112Y78323D01*
X184105Y78448D01*
X184079Y78571D01*
X184033Y78689D01*
X183970Y78798D01*
X183891Y78895D01*
X183797Y78979D01*
X183690Y79045D01*
X183182Y79297D01*
X182652Y79497D01*
X182106Y79648D01*
X181548Y79749D01*
X180983Y79800D01*
X180702D01*
Y102500D01*
G37*
G36*
X175533D02*X180702D01*
Y79800D01*
X180417D01*
X179852Y79749D01*
X179294Y79648D01*
X178748Y79497D01*
X178218Y79297D01*
X177707Y79051D01*
X177600Y78983D01*
X177506Y78899D01*
X177426Y78800D01*
X177362Y78691D01*
X177316Y78573D01*
X177290Y78449D01*
X177283Y78322D01*
X177296Y78196D01*
X177328Y78074D01*
X177379Y77958D01*
X177448Y77852D01*
X177532Y77757D01*
X177631Y77677D01*
X177740Y77614D01*
X177858Y77568D01*
X177982Y77541D01*
X178109Y77534D01*
X178235Y77547D01*
X178357Y77579D01*
X178472Y77633D01*
X178850Y77821D01*
X179245Y77969D01*
X179652Y78082D01*
X180068Y78157D01*
X180489Y78195D01*
X180702D01*
Y68805D01*
X180489D01*
X180068Y68843D01*
X179652Y68918D01*
X179245Y69031D01*
X178850Y69179D01*
X178469Y69363D01*
X178355Y69416D01*
X178234Y69448D01*
X178108Y69461D01*
X177983Y69454D01*
X177860Y69428D01*
X177742Y69382D01*
X177633Y69319D01*
X177536Y69239D01*
X177452Y69145D01*
X177383Y69040D01*
X177333Y68924D01*
X177300Y68803D01*
X177288Y68677D01*
X177295Y68552D01*
X177321Y68429D01*
X177367Y68311D01*
X177430Y68202D01*
X177509Y68105D01*
X177603Y68021D01*
X177710Y67955D01*
X178218Y67703D01*
X178748Y67503D01*
X179294Y67352D01*
X179852Y67251D01*
X180417Y67200D01*
X180702D01*
Y66500D01*
X175533D01*
Y70153D01*
X175627Y70116D01*
X175751Y70090D01*
X175878Y70083D01*
X176004Y70096D01*
X176126Y70128D01*
X176242Y70179D01*
X176348Y70248D01*
X176443Y70332D01*
X176523Y70431D01*
X176586Y70540D01*
X176632Y70658D01*
X176659Y70782D01*
X176666Y70909D01*
X176653Y71035D01*
X176621Y71157D01*
X176567Y71272D01*
X176379Y71650D01*
X176231Y72045D01*
X176118Y72452D01*
X176043Y72868D01*
X176005Y73289D01*
Y73711D01*
X176043Y74132D01*
X176118Y74548D01*
X176231Y74955D01*
X176379Y75350D01*
X176563Y75731D01*
X176616Y75845D01*
X176648Y75966D01*
X176661Y76092D01*
X176654Y76217D01*
X176628Y76340D01*
X176582Y76458D01*
X176519Y76567D01*
X176439Y76664D01*
X176345Y76748D01*
X176240Y76817D01*
X176124Y76867D01*
X176003Y76900D01*
X175877Y76912D01*
X175752Y76905D01*
X175629Y76879D01*
X175533Y76842D01*
Y102500D01*
G37*
G36*
X172197D02*X175533D01*
Y76842D01*
X175511Y76833D01*
X175402Y76770D01*
X175305Y76691D01*
X175221Y76597D01*
X175155Y76490D01*
X174903Y75982D01*
X174703Y75452D01*
X174552Y74906D01*
X174451Y74348D01*
X174400Y73783D01*
Y73217D01*
X174451Y72652D01*
X174552Y72094D01*
X174703Y71548D01*
X174903Y71018D01*
X175149Y70507D01*
X175217Y70400D01*
X175301Y70306D01*
X175400Y70226D01*
X175509Y70162D01*
X175533Y70153D01*
Y66500D01*
X172197D01*
Y70245D01*
X172247Y70294D01*
X172302Y70371D01*
X172577Y70847D01*
X172801Y71350D01*
X172977Y71871D01*
X173104Y72406D01*
X173181Y72951D01*
X173206Y73500D01*
X173181Y74049D01*
X173104Y74594D01*
X172977Y75129D01*
X172801Y75650D01*
X172577Y76153D01*
X172307Y76632D01*
X172251Y76709D01*
X172197Y76762D01*
Y102500D01*
G37*
G36*
X167303D02*X172197D01*
Y76762D01*
X172183Y76776D01*
X172106Y76831D01*
X172020Y76874D01*
X171930Y76902D01*
X171835Y76916D01*
X171740Y76915D01*
X171646Y76900D01*
X171556Y76869D01*
X171471Y76825D01*
X171395Y76769D01*
X171328Y76701D01*
X171273Y76623D01*
X171230Y76538D01*
X171202Y76447D01*
X171188Y76353D01*
X171189Y76258D01*
X171204Y76164D01*
X171235Y76073D01*
X171280Y75990D01*
X171499Y75611D01*
X171677Y75211D01*
X171818Y74797D01*
X171919Y74371D01*
X171980Y73937D01*
X172000Y73500D01*
X171980Y73063D01*
X171919Y72629D01*
X171818Y72203D01*
X171677Y71789D01*
X171499Y71389D01*
X171285Y71007D01*
X171239Y70925D01*
X171209Y70835D01*
X171194Y70742D01*
X171193Y70648D01*
X171207Y70554D01*
X171235Y70464D01*
X171277Y70380D01*
X171332Y70303D01*
X171398Y70235D01*
X171474Y70179D01*
X171558Y70135D01*
X171647Y70105D01*
X171741Y70090D01*
X171835Y70089D01*
X171928Y70103D01*
X172018Y70131D01*
X172103Y70173D01*
X172180Y70228D01*
X172197Y70245D01*
Y66500D01*
X167303D01*
Y67594D01*
X167849Y67619D01*
X168394Y67696D01*
X168929Y67823D01*
X169450Y67999D01*
X169953Y68223D01*
X170432Y68493D01*
X170509Y68549D01*
X170576Y68617D01*
X170631Y68694D01*
X170674Y68780D01*
X170702Y68870D01*
X170716Y68965D01*
X170715Y69060D01*
X170700Y69154D01*
X170669Y69244D01*
X170625Y69329D01*
X170569Y69405D01*
X170501Y69472D01*
X170423Y69527D01*
X170338Y69570D01*
X170247Y69598D01*
X170153Y69612D01*
X170058Y69611D01*
X169964Y69596D01*
X169873Y69565D01*
X169790Y69520D01*
X169411Y69301D01*
X169011Y69123D01*
X168597Y68982D01*
X168171Y68881D01*
X167737Y68820D01*
X167303Y68800D01*
Y78200D01*
X167737Y78180D01*
X168171Y78119D01*
X168597Y78018D01*
X169011Y77877D01*
X169411Y77699D01*
X169793Y77485D01*
X169875Y77439D01*
X169965Y77409D01*
X170058Y77394D01*
X170152Y77393D01*
X170246Y77407D01*
X170336Y77435D01*
X170420Y77477D01*
X170497Y77532D01*
X170565Y77598D01*
X170621Y77674D01*
X170665Y77758D01*
X170695Y77847D01*
X170710Y77941D01*
X170711Y78035D01*
X170697Y78128D01*
X170669Y78218D01*
X170627Y78303D01*
X170572Y78380D01*
X170506Y78447D01*
X170429Y78502D01*
X169953Y78777D01*
X169450Y79001D01*
X168929Y79177D01*
X168394Y79304D01*
X167849Y79381D01*
X167303Y79406D01*
Y102500D01*
G37*
G36*
X162403D02*X167303D01*
Y79406D01*
X167300Y79406D01*
X166751Y79381D01*
X166206Y79304D01*
X165671Y79177D01*
X165150Y79001D01*
X164647Y78777D01*
X164168Y78507D01*
X164091Y78451D01*
X164024Y78383D01*
X163969Y78306D01*
X163926Y78220D01*
X163898Y78130D01*
X163884Y78035D01*
X163885Y77940D01*
X163900Y77846D01*
X163931Y77756D01*
X163975Y77671D01*
X164031Y77595D01*
X164099Y77528D01*
X164177Y77473D01*
X164262Y77430D01*
X164353Y77402D01*
X164447Y77388D01*
X164542Y77389D01*
X164636Y77404D01*
X164727Y77435D01*
X164810Y77480D01*
X165189Y77699D01*
X165589Y77877D01*
X166003Y78018D01*
X166429Y78119D01*
X166863Y78180D01*
X167300Y78200D01*
X167303Y78200D01*
Y68800D01*
X167300Y68800D01*
X166863Y68820D01*
X166429Y68881D01*
X166003Y68982D01*
X165589Y69123D01*
X165189Y69301D01*
X164807Y69515D01*
X164725Y69561D01*
X164635Y69591D01*
X164542Y69606D01*
X164448Y69607D01*
X164354Y69593D01*
X164264Y69565D01*
X164180Y69523D01*
X164103Y69468D01*
X164035Y69402D01*
X163979Y69326D01*
X163935Y69242D01*
X163905Y69153D01*
X163890Y69059D01*
X163889Y68965D01*
X163903Y68872D01*
X163931Y68782D01*
X163973Y68697D01*
X164028Y68620D01*
X164094Y68553D01*
X164171Y68498D01*
X164647Y68223D01*
X165150Y67999D01*
X165671Y67823D01*
X166206Y67696D01*
X166751Y67619D01*
X167300Y67594D01*
X167303Y67594D01*
Y66500D01*
X162403D01*
Y70238D01*
X162417Y70224D01*
X162494Y70169D01*
X162580Y70126D01*
X162670Y70098D01*
X162765Y70084D01*
X162860Y70085D01*
X162954Y70100D01*
X163044Y70131D01*
X163129Y70175D01*
X163205Y70231D01*
X163272Y70299D01*
X163327Y70377D01*
X163370Y70462D01*
X163398Y70553D01*
X163412Y70647D01*
X163411Y70742D01*
X163396Y70836D01*
X163365Y70927D01*
X163320Y71010D01*
X163101Y71389D01*
X162923Y71789D01*
X162782Y72203D01*
X162681Y72629D01*
X162620Y73063D01*
X162600Y73500D01*
X162620Y73937D01*
X162681Y74371D01*
X162782Y74797D01*
X162923Y75211D01*
X163101Y75611D01*
X163315Y75993D01*
X163361Y76075D01*
X163391Y76165D01*
X163406Y76258D01*
X163407Y76352D01*
X163393Y76446D01*
X163365Y76536D01*
X163323Y76620D01*
X163268Y76697D01*
X163202Y76765D01*
X163126Y76821D01*
X163042Y76865D01*
X162953Y76895D01*
X162859Y76910D01*
X162765Y76911D01*
X162672Y76897D01*
X162582Y76869D01*
X162497Y76827D01*
X162420Y76772D01*
X162403Y76755D01*
Y102500D01*
G37*
G36*
X159500Y66500D02*Y102500D01*
X162403D01*
Y76755D01*
X162353Y76706D01*
X162298Y76629D01*
X162023Y76153D01*
X161799Y75650D01*
X161623Y75129D01*
X161496Y74594D01*
X161419Y74049D01*
X161394Y73500D01*
X161419Y72951D01*
X161496Y72406D01*
X161623Y71871D01*
X161799Y71350D01*
X162023Y70847D01*
X162293Y70368D01*
X162349Y70291D01*
X162403Y70238D01*
Y66500D01*
X159500D01*
G37*
G36*
X180698Y113500D02*X186000D01*
Y76774D01*
X185891Y76838D01*
X185773Y76884D01*
X185649Y76910D01*
X185522Y76917D01*
X185396Y76904D01*
X185274Y76872D01*
X185158Y76821D01*
X185052Y76752D01*
X184957Y76668D01*
X184877Y76569D01*
X184814Y76460D01*
X184768Y76342D01*
X184741Y76218D01*
X184734Y76091D01*
X184743Y76000D01*
X180698D01*
Y78195D01*
X180911D01*
X181332Y78157D01*
X181748Y78082D01*
X182155Y77969D01*
X182550Y77821D01*
X182931Y77637D01*
X183045Y77584D01*
X183166Y77552D01*
X183292Y77539D01*
X183417Y77546D01*
X183540Y77572D01*
X183658Y77618D01*
X183767Y77681D01*
X183864Y77761D01*
X183948Y77855D01*
X184017Y77960D01*
X184067Y78076D01*
X184100Y78197D01*
X184112Y78323D01*
X184105Y78448D01*
X184079Y78571D01*
X184033Y78689D01*
X183970Y78798D01*
X183891Y78895D01*
X183797Y78979D01*
X183690Y79045D01*
X183182Y79297D01*
X182652Y79497D01*
X182106Y79648D01*
X181548Y79749D01*
X180983Y79800D01*
X180698D01*
Y113500D01*
G37*
G36*
X167297D02*X180698D01*
Y79800D01*
X180417D01*
X179852Y79749D01*
X179294Y79648D01*
X178748Y79497D01*
X178218Y79297D01*
X177707Y79051D01*
X177600Y78983D01*
X177506Y78899D01*
X177426Y78800D01*
X177362Y78691D01*
X177316Y78573D01*
X177290Y78449D01*
X177283Y78322D01*
X177296Y78196D01*
X177328Y78074D01*
X177379Y77958D01*
X177448Y77852D01*
X177532Y77757D01*
X177631Y77677D01*
X177740Y77614D01*
X177858Y77568D01*
X177982Y77541D01*
X178109Y77534D01*
X178235Y77547D01*
X178357Y77579D01*
X178472Y77633D01*
X178850Y77821D01*
X179245Y77969D01*
X179652Y78082D01*
X180068Y78157D01*
X180489Y78195D01*
X180698D01*
Y76000D01*
X176652D01*
X176661Y76092D01*
X176654Y76217D01*
X176628Y76340D01*
X176582Y76458D01*
X176519Y76567D01*
X176439Y76664D01*
X176345Y76748D01*
X176240Y76817D01*
X176124Y76867D01*
X176003Y76900D01*
X175877Y76912D01*
X175752Y76905D01*
X175629Y76879D01*
X175511Y76833D01*
X175402Y76770D01*
X175305Y76691D01*
X175221Y76597D01*
X175155Y76490D01*
X174911Y76000D01*
X172645D01*
X172577Y76153D01*
X172307Y76632D01*
X172251Y76709D01*
X172183Y76776D01*
X172106Y76831D01*
X172020Y76874D01*
X171930Y76902D01*
X171835Y76916D01*
X171740Y76915D01*
X171646Y76900D01*
X171556Y76869D01*
X171471Y76825D01*
X171395Y76769D01*
X171328Y76701D01*
X171273Y76623D01*
X171230Y76538D01*
X171202Y76447D01*
X171188Y76353D01*
X171189Y76258D01*
X171204Y76164D01*
X171235Y76073D01*
X171275Y76000D01*
X167297D01*
Y78200D01*
X167300Y78200D01*
X167737Y78180D01*
X168171Y78119D01*
X168597Y78018D01*
X169011Y77877D01*
X169411Y77699D01*
X169793Y77485D01*
X169875Y77439D01*
X169965Y77409D01*
X170058Y77394D01*
X170152Y77393D01*
X170246Y77407D01*
X170336Y77435D01*
X170420Y77477D01*
X170497Y77532D01*
X170565Y77598D01*
X170621Y77674D01*
X170665Y77758D01*
X170695Y77847D01*
X170710Y77941D01*
X170711Y78035D01*
X170697Y78128D01*
X170669Y78218D01*
X170627Y78303D01*
X170572Y78380D01*
X170506Y78447D01*
X170429Y78502D01*
X169953Y78777D01*
X169450Y79001D01*
X168929Y79177D01*
X168394Y79304D01*
X167849Y79381D01*
X167300Y79406D01*
X167297Y79406D01*
Y113500D01*
G37*
G36*
X161500D02*X167297D01*
Y79406D01*
X166751Y79381D01*
X166206Y79304D01*
X165671Y79177D01*
X165150Y79001D01*
X164647Y78777D01*
X164168Y78507D01*
X164091Y78451D01*
X164024Y78383D01*
X163969Y78306D01*
X163926Y78220D01*
X163898Y78130D01*
X163884Y78035D01*
X163885Y77940D01*
X163900Y77846D01*
X163931Y77756D01*
X163975Y77671D01*
X164031Y77595D01*
X164099Y77528D01*
X164177Y77473D01*
X164262Y77430D01*
X164353Y77402D01*
X164447Y77388D01*
X164542Y77389D01*
X164636Y77404D01*
X164727Y77435D01*
X164810Y77480D01*
X165189Y77699D01*
X165589Y77877D01*
X166003Y78018D01*
X166429Y78119D01*
X166863Y78180D01*
X167297Y78200D01*
Y76000D01*
X163319D01*
X163361Y76075D01*
X163391Y76165D01*
X163406Y76258D01*
X163407Y76352D01*
X163393Y76446D01*
X163365Y76536D01*
X163323Y76620D01*
X163268Y76697D01*
X163202Y76765D01*
X163126Y76821D01*
X163042Y76865D01*
X162953Y76895D01*
X162859Y76910D01*
X162765Y76911D01*
X162672Y76897D01*
X162582Y76869D01*
X162497Y76827D01*
X162420Y76772D01*
X162353Y76706D01*
X162298Y76629D01*
X162023Y76153D01*
X161955Y76000D01*
X161500D01*
Y113500D01*
G37*
G36*
X203500Y116000D02*Y151500D01*
X231500D01*
Y118200D01*
X229067D01*
X229000Y118205D01*
X228733Y118184D01*
X228473Y118122D01*
X228226Y118019D01*
X227998Y117880D01*
X227997Y117879D01*
X227794Y117706D01*
X227751Y117655D01*
X226431Y116335D01*
X226380Y116292D01*
X226206Y116088D01*
X226152Y116000D01*
X203500D01*
G37*
G36*
X187500Y119000D02*X226000D01*
Y115699D01*
X225964Y115613D01*
X225902Y115353D01*
X225902Y115353D01*
X225881Y115086D01*
X225886Y115019D01*
Y109000D01*
X187500D01*
Y119000D01*
G37*
G36*
X159500Y102000D02*Y113500D01*
X164000D01*
Y102000D01*
X159500D01*
G37*
G36*
X183500Y105500D02*X191000D01*
Y100000D01*
X183500D01*
Y105500D01*
G37*
G36*
X258600Y107556D02*X259173Y107557D01*
X259326Y107594D01*
X259471Y107654D01*
X259606Y107736D01*
X259725Y107839D01*
X259828Y107958D01*
X259910Y108093D01*
X259970Y108238D01*
X260007Y108391D01*
X260016Y108548D01*
X260008Y113500D01*
X284500D01*
Y100500D01*
X262992D01*
X262986Y102235D01*
X262931Y102465D01*
X262841Y102683D01*
X262717Y102884D01*
X262564Y103064D01*
X262384Y103217D01*
X262183Y103341D01*
X261965Y103431D01*
X261735Y103486D01*
X261500Y103500D01*
X258865Y103486D01*
X258635Y103431D01*
X258600Y103416D01*
Y103647D01*
X258772Y103849D01*
X259003Y104225D01*
X259171Y104632D01*
X259274Y105061D01*
X259300Y105500D01*
X259274Y105939D01*
X259171Y106368D01*
X259003Y106775D01*
X258772Y107151D01*
X258600Y107353D01*
Y107556D01*
G37*
G36*
X235465Y113500D02*X251000D01*
Y103471D01*
X250835Y103431D01*
X250617Y103341D01*
X250416Y103217D01*
X250236Y103064D01*
X250083Y102884D01*
X249959Y102683D01*
X249869Y102465D01*
X249817Y102250D01*
X248987D01*
X248986Y102716D01*
X248949Y102869D01*
X248889Y103014D01*
X248807Y103149D01*
X248704Y103268D01*
X248585Y103371D01*
X248450Y103453D01*
X248305Y103513D01*
X248152Y103550D01*
X247995Y103559D01*
X241934Y103550D01*
X241781Y103513D01*
X241636Y103453D01*
X241501Y103371D01*
X241382Y103268D01*
X241279Y103149D01*
X241197Y103014D01*
X241137Y102869D01*
X241100Y102716D01*
X241091Y102559D01*
X241095Y100000D01*
X238193D01*
X238186Y102235D01*
X238131Y102465D01*
X238041Y102683D01*
X237917Y102884D01*
X237764Y103064D01*
X237584Y103217D01*
X237383Y103341D01*
X237165Y103431D01*
X236935Y103486D01*
X236700Y103500D01*
X234065Y103486D01*
X234000Y103471D01*
Y103530D01*
X234272Y103849D01*
X234503Y104225D01*
X234671Y104632D01*
X234774Y105061D01*
X234800Y105500D01*
X234774Y105939D01*
X234671Y106368D01*
X234503Y106775D01*
X234272Y107151D01*
X234000Y107470D01*
Y107556D01*
X234630Y107557D01*
X234783Y107594D01*
X234928Y107654D01*
X235063Y107736D01*
X235182Y107839D01*
X235285Y107958D01*
X235367Y108093D01*
X235427Y108238D01*
X235464Y108391D01*
X235473Y108548D01*
X235465Y113500D01*
G37*
G36*
X186004Y158000D02*X222000D01*
Y116000D01*
X186004D01*
Y123142D01*
X186124Y123193D01*
X186244Y123268D01*
X186351Y123360D01*
X186442Y123469D01*
X186513Y123591D01*
X186764Y124140D01*
X186956Y124712D01*
X187095Y125299D01*
X187179Y125897D01*
X187207Y126500D01*
X187179Y127103D01*
X187095Y127701D01*
X186956Y128288D01*
X186764Y128860D01*
X186519Y129412D01*
X186446Y129534D01*
X186355Y129643D01*
X186247Y129737D01*
X186126Y129812D01*
X186004Y129864D01*
Y158000D01*
G37*
G36*
X180703D02*X186004D01*
Y129864D01*
X185995Y129867D01*
X185857Y129902D01*
X185715Y129914D01*
X185572Y129904D01*
X185434Y129871D01*
X185302Y129818D01*
X185180Y129744D01*
X185071Y129653D01*
X184977Y129545D01*
X184902Y129424D01*
X184847Y129293D01*
X184812Y129155D01*
X184800Y129013D01*
X184810Y128871D01*
X184843Y128732D01*
X184899Y128601D01*
X185080Y128205D01*
X185219Y127792D01*
X185319Y127367D01*
X185380Y126936D01*
X185400Y126500D01*
X185380Y126064D01*
X185319Y125633D01*
X185219Y125208D01*
X185080Y124795D01*
X184903Y124397D01*
X184847Y124267D01*
X184815Y124129D01*
X184805Y123987D01*
X184817Y123846D01*
X184851Y123709D01*
X184907Y123578D01*
X184982Y123458D01*
X185074Y123351D01*
X185183Y123260D01*
X185304Y123187D01*
X185435Y123133D01*
X185573Y123101D01*
X185715Y123091D01*
X185856Y123103D01*
X185993Y123137D01*
X186004Y123142D01*
Y116000D01*
X180703D01*
Y119993D01*
X181303Y120021D01*
X181901Y120105D01*
X182488Y120244D01*
X183060Y120436D01*
X183612Y120681D01*
X183734Y120754D01*
X183843Y120845D01*
X183937Y120953D01*
X184012Y121074D01*
X184067Y121205D01*
X184102Y121343D01*
X184114Y121485D01*
X184104Y121628D01*
X184071Y121766D01*
X184018Y121898D01*
X183944Y122020D01*
X183853Y122129D01*
X183745Y122223D01*
X183624Y122298D01*
X183493Y122353D01*
X183355Y122388D01*
X183213Y122400D01*
X183071Y122390D01*
X182932Y122357D01*
X182801Y122301D01*
X182405Y122120D01*
X181992Y121981D01*
X181567Y121881D01*
X181136Y121820D01*
X180703Y121800D01*
Y131200D01*
X181136Y131180D01*
X181567Y131119D01*
X181992Y131019D01*
X182405Y130880D01*
X182803Y130703D01*
X182933Y130647D01*
X183071Y130615D01*
X183213Y130605D01*
X183354Y130617D01*
X183491Y130651D01*
X183622Y130707D01*
X183742Y130782D01*
X183849Y130874D01*
X183940Y130983D01*
X184013Y131104D01*
X184067Y131235D01*
X184099Y131373D01*
X184109Y131515D01*
X184097Y131656D01*
X184063Y131793D01*
X184007Y131924D01*
X183932Y132044D01*
X183840Y132151D01*
X183731Y132242D01*
X183609Y132313D01*
X183060Y132564D01*
X182488Y132756D01*
X181901Y132895D01*
X181303Y132979D01*
X180703Y133007D01*
Y158000D01*
G37*
G36*
X175396D02*X180703D01*
Y133007D01*
X180700Y133007D01*
X180097Y132979D01*
X179499Y132895D01*
X178912Y132756D01*
X178340Y132564D01*
X177788Y132319D01*
X177666Y132246D01*
X177557Y132155D01*
X177463Y132047D01*
X177388Y131926D01*
X177333Y131795D01*
X177298Y131657D01*
X177286Y131515D01*
X177296Y131372D01*
X177329Y131234D01*
X177382Y131102D01*
X177456Y130980D01*
X177547Y130871D01*
X177655Y130777D01*
X177776Y130702D01*
X177907Y130647D01*
X178045Y130612D01*
X178187Y130600D01*
X178329Y130610D01*
X178468Y130643D01*
X178599Y130699D01*
X178995Y130880D01*
X179408Y131019D01*
X179833Y131119D01*
X180264Y131180D01*
X180700Y131200D01*
X180703Y131200D01*
Y121800D01*
X180700Y121800D01*
X180264Y121820D01*
X179833Y121881D01*
X179408Y121981D01*
X178995Y122120D01*
X178597Y122297D01*
X178467Y122353D01*
X178329Y122385D01*
X178187Y122395D01*
X178046Y122383D01*
X177909Y122349D01*
X177778Y122293D01*
X177658Y122218D01*
X177551Y122126D01*
X177460Y122017D01*
X177387Y121896D01*
X177333Y121765D01*
X177301Y121627D01*
X177291Y121485D01*
X177303Y121344D01*
X177337Y121207D01*
X177393Y121076D01*
X177468Y120956D01*
X177560Y120849D01*
X177669Y120758D01*
X177791Y120687D01*
X178340Y120436D01*
X178912Y120244D01*
X179499Y120105D01*
X180097Y120021D01*
X180700Y119993D01*
X180703Y119993D01*
Y116000D01*
X175396D01*
Y123136D01*
X175405Y123133D01*
X175543Y123098D01*
X175685Y123086D01*
X175828Y123096D01*
X175966Y123129D01*
X176098Y123182D01*
X176220Y123256D01*
X176329Y123347D01*
X176423Y123455D01*
X176498Y123576D01*
X176553Y123707D01*
X176588Y123845D01*
X176600Y123987D01*
X176590Y124129D01*
X176557Y124268D01*
X176501Y124399D01*
X176320Y124795D01*
X176181Y125208D01*
X176081Y125633D01*
X176020Y126064D01*
X176000Y126500D01*
X176020Y126936D01*
X176081Y127367D01*
X176181Y127792D01*
X176320Y128205D01*
X176497Y128603D01*
X176553Y128733D01*
X176585Y128871D01*
X176595Y129013D01*
X176583Y129154D01*
X176549Y129291D01*
X176493Y129422D01*
X176418Y129542D01*
X176326Y129649D01*
X176217Y129740D01*
X176096Y129813D01*
X175965Y129867D01*
X175827Y129899D01*
X175685Y129909D01*
X175544Y129897D01*
X175407Y129863D01*
X175396Y129858D01*
Y158000D01*
G37*
G36*
X172467D02*X175396D01*
Y129858D01*
X175276Y129807D01*
X175156Y129732D01*
X175049Y129640D01*
X174958Y129531D01*
X174887Y129409D01*
X174636Y128860D01*
X174444Y128288D01*
X174305Y127701D01*
X174221Y127103D01*
X174193Y126500D01*
X174221Y125897D01*
X174305Y125299D01*
X174444Y124712D01*
X174636Y124140D01*
X174881Y123588D01*
X174954Y123466D01*
X175045Y123357D01*
X175153Y123263D01*
X175274Y123188D01*
X175396Y123136D01*
Y116000D01*
X172467D01*
Y123158D01*
X172489Y123167D01*
X172598Y123230D01*
X172695Y123309D01*
X172779Y123403D01*
X172845Y123510D01*
X173097Y124018D01*
X173297Y124548D01*
X173448Y125094D01*
X173549Y125652D01*
X173600Y126217D01*
Y126783D01*
X173549Y127348D01*
X173448Y127906D01*
X173297Y128452D01*
X173097Y128982D01*
X172851Y129493D01*
X172783Y129600D01*
X172699Y129694D01*
X172600Y129774D01*
X172491Y129838D01*
X172467Y129847D01*
Y158000D01*
G37*
G36*
X167302D02*X172467D01*
Y129847D01*
X172373Y129884D01*
X172249Y129910D01*
X172122Y129917D01*
X171996Y129904D01*
X171874Y129872D01*
X171758Y129821D01*
X171652Y129752D01*
X171557Y129668D01*
X171477Y129569D01*
X171414Y129460D01*
X171368Y129342D01*
X171341Y129218D01*
X171334Y129091D01*
X171347Y128965D01*
X171379Y128843D01*
X171433Y128728D01*
X171621Y128350D01*
X171769Y127955D01*
X171882Y127548D01*
X171957Y127132D01*
X171995Y126711D01*
Y126289D01*
X171957Y125868D01*
X171882Y125452D01*
X171769Y125045D01*
X171621Y124650D01*
X171437Y124269D01*
X171384Y124155D01*
X171352Y124034D01*
X171339Y123908D01*
X171346Y123783D01*
X171372Y123660D01*
X171418Y123542D01*
X171481Y123433D01*
X171561Y123336D01*
X171655Y123252D01*
X171760Y123183D01*
X171876Y123133D01*
X171997Y123100D01*
X172123Y123088D01*
X172248Y123095D01*
X172371Y123121D01*
X172467Y123158D01*
Y116000D01*
X167302D01*
Y120200D01*
X167583D01*
X168148Y120251D01*
X168706Y120352D01*
X169252Y120503D01*
X169782Y120703D01*
X170293Y120949D01*
X170400Y121017D01*
X170494Y121101D01*
X170574Y121200D01*
X170638Y121309D01*
X170684Y121427D01*
X170710Y121551D01*
X170717Y121678D01*
X170704Y121804D01*
X170672Y121926D01*
X170621Y122042D01*
X170552Y122148D01*
X170468Y122243D01*
X170369Y122323D01*
X170260Y122386D01*
X170142Y122432D01*
X170018Y122459D01*
X169891Y122466D01*
X169765Y122453D01*
X169643Y122421D01*
X169528Y122367D01*
X169150Y122179D01*
X168755Y122031D01*
X168348Y121918D01*
X167932Y121843D01*
X167511Y121805D01*
X167302D01*
Y131195D01*
X167511D01*
X167932Y131157D01*
X168348Y131082D01*
X168755Y130969D01*
X169150Y130821D01*
X169531Y130637D01*
X169645Y130584D01*
X169766Y130552D01*
X169892Y130539D01*
X170017Y130546D01*
X170140Y130572D01*
X170258Y130618D01*
X170367Y130681D01*
X170464Y130761D01*
X170548Y130855D01*
X170617Y130960D01*
X170667Y131076D01*
X170700Y131197D01*
X170712Y131323D01*
X170705Y131448D01*
X170679Y131571D01*
X170633Y131689D01*
X170570Y131798D01*
X170491Y131895D01*
X170397Y131979D01*
X170290Y132045D01*
X169782Y132297D01*
X169252Y132497D01*
X168706Y132648D01*
X168148Y132749D01*
X167583Y132800D01*
X167302D01*
Y158000D01*
G37*
G36*
X162133D02*X167302D01*
Y132800D01*
X167017D01*
X166452Y132749D01*
X165894Y132648D01*
X165348Y132497D01*
X164818Y132297D01*
X164307Y132051D01*
X164200Y131983D01*
X164106Y131899D01*
X164026Y131800D01*
X163962Y131691D01*
X163916Y131573D01*
X163890Y131449D01*
X163883Y131322D01*
X163896Y131196D01*
X163928Y131074D01*
X163979Y130958D01*
X164048Y130852D01*
X164132Y130757D01*
X164231Y130677D01*
X164340Y130614D01*
X164458Y130568D01*
X164582Y130541D01*
X164709Y130534D01*
X164835Y130547D01*
X164957Y130579D01*
X165072Y130633D01*
X165450Y130821D01*
X165845Y130969D01*
X166252Y131082D01*
X166668Y131157D01*
X167089Y131195D01*
X167302D01*
Y121805D01*
X167089D01*
X166668Y121843D01*
X166252Y121918D01*
X165845Y122031D01*
X165450Y122179D01*
X165069Y122363D01*
X164955Y122416D01*
X164834Y122448D01*
X164708Y122461D01*
X164583Y122454D01*
X164460Y122428D01*
X164342Y122382D01*
X164233Y122319D01*
X164136Y122239D01*
X164052Y122145D01*
X163983Y122040D01*
X163933Y121924D01*
X163900Y121803D01*
X163888Y121677D01*
X163895Y121552D01*
X163921Y121429D01*
X163967Y121311D01*
X164030Y121202D01*
X164109Y121105D01*
X164203Y121021D01*
X164310Y120955D01*
X164818Y120703D01*
X165348Y120503D01*
X165894Y120352D01*
X166452Y120251D01*
X167017Y120200D01*
X167302D01*
Y116000D01*
X162133D01*
Y123153D01*
X162227Y123116D01*
X162351Y123090D01*
X162478Y123083D01*
X162604Y123096D01*
X162726Y123128D01*
X162842Y123179D01*
X162948Y123248D01*
X163043Y123332D01*
X163123Y123431D01*
X163186Y123540D01*
X163232Y123658D01*
X163259Y123782D01*
X163266Y123909D01*
X163253Y124035D01*
X163221Y124157D01*
X163167Y124272D01*
X162979Y124650D01*
X162831Y125045D01*
X162718Y125452D01*
X162643Y125868D01*
X162605Y126289D01*
Y126711D01*
X162643Y127132D01*
X162718Y127548D01*
X162831Y127955D01*
X162979Y128350D01*
X163163Y128731D01*
X163216Y128845D01*
X163248Y128966D01*
X163261Y129092D01*
X163254Y129217D01*
X163228Y129340D01*
X163182Y129458D01*
X163119Y129567D01*
X163039Y129664D01*
X162945Y129748D01*
X162840Y129817D01*
X162724Y129867D01*
X162603Y129900D01*
X162477Y129912D01*
X162352Y129905D01*
X162229Y129879D01*
X162133Y129842D01*
Y158000D01*
G37*
G36*
X146500D02*X162133D01*
Y129842D01*
X162111Y129833D01*
X162002Y129770D01*
X161905Y129691D01*
X161821Y129597D01*
X161755Y129490D01*
X161503Y128982D01*
X161303Y128452D01*
X161152Y127906D01*
X161051Y127348D01*
X161000Y126783D01*
Y126217D01*
X161051Y125652D01*
X161152Y125094D01*
X161303Y124548D01*
X161503Y124018D01*
X161749Y123507D01*
X161817Y123400D01*
X161901Y123306D01*
X162000Y123226D01*
X162109Y123162D01*
X162133Y123153D01*
Y116000D01*
X146500D01*
Y158000D01*
G37*
G36*
X225750Y189500D02*X231500D01*
Y149500D01*
X225750D01*
Y162248D01*
X225868Y162257D01*
X225982Y162285D01*
X226092Y162330D01*
X226192Y162391D01*
X226282Y162468D01*
X226359Y162558D01*
X226420Y162658D01*
X226465Y162768D01*
X226493Y162882D01*
X226500Y163000D01*
Y169000D01*
X226493Y169118D01*
X226465Y169232D01*
X226420Y169342D01*
X226359Y169442D01*
X226282Y169532D01*
X226192Y169609D01*
X226092Y169670D01*
X225982Y169715D01*
X225868Y169743D01*
X225750Y169752D01*
Y189500D01*
G37*
G36*
X220500D02*X225750D01*
Y169752D01*
X225632Y169743D01*
X225518Y169715D01*
X225408Y169670D01*
X225308Y169609D01*
X225218Y169532D01*
X225141Y169442D01*
X225080Y169342D01*
X225035Y169232D01*
X225007Y169118D01*
X225000Y169000D01*
Y163000D01*
X225007Y162882D01*
X225035Y162768D01*
X225080Y162658D01*
X225141Y162558D01*
X225218Y162468D01*
X225308Y162391D01*
X225408Y162330D01*
X225518Y162285D01*
X225632Y162257D01*
X225750Y162248D01*
Y149500D01*
X220500D01*
Y160000D01*
X223500D01*
X223618Y160007D01*
X223732Y160035D01*
X223842Y160080D01*
X223942Y160141D01*
X224032Y160218D01*
X224109Y160308D01*
X224170Y160408D01*
X224215Y160518D01*
X224243Y160632D01*
X224252Y160750D01*
X224243Y160868D01*
X224215Y160982D01*
X224170Y161092D01*
X224109Y161192D01*
X224032Y161282D01*
X223942Y161359D01*
X223842Y161420D01*
X223732Y161465D01*
X223618Y161493D01*
X223500Y161500D01*
X220500D01*
Y170500D01*
X223500D01*
X223618Y170507D01*
X223732Y170535D01*
X223842Y170580D01*
X223942Y170641D01*
X224032Y170718D01*
X224109Y170808D01*
X224170Y170908D01*
X224215Y171018D01*
X224243Y171132D01*
X224252Y171250D01*
X224243Y171368D01*
X224215Y171482D01*
X224170Y171592D01*
X224109Y171692D01*
X224032Y171782D01*
X223942Y171859D01*
X223842Y171920D01*
X223732Y171965D01*
X223618Y171993D01*
X223500Y172000D01*
X220500D01*
Y189500D01*
G37*
G36*
X215250D02*X220500D01*
Y172000D01*
X217500D01*
X217382Y171993D01*
X217268Y171965D01*
X217158Y171920D01*
X217058Y171859D01*
X216968Y171782D01*
X216891Y171692D01*
X216830Y171592D01*
X216785Y171482D01*
X216757Y171368D01*
X216748Y171250D01*
X216757Y171132D01*
X216785Y171018D01*
X216830Y170908D01*
X216891Y170808D01*
X216968Y170718D01*
X217058Y170641D01*
X217158Y170580D01*
X217268Y170535D01*
X217382Y170507D01*
X217500Y170500D01*
X220500D01*
Y161500D01*
X217500D01*
X217382Y161493D01*
X217268Y161465D01*
X217158Y161420D01*
X217058Y161359D01*
X216968Y161282D01*
X216891Y161192D01*
X216830Y161092D01*
X216785Y160982D01*
X216757Y160868D01*
X216748Y160750D01*
X216757Y160632D01*
X216785Y160518D01*
X216830Y160408D01*
X216891Y160308D01*
X216968Y160218D01*
X217058Y160141D01*
X217158Y160080D01*
X217268Y160035D01*
X217382Y160007D01*
X217500Y160000D01*
X220500D01*
Y149500D01*
X215250D01*
Y162248D01*
X215368Y162257D01*
X215482Y162285D01*
X215592Y162330D01*
X215692Y162391D01*
X215782Y162468D01*
X215859Y162558D01*
X215920Y162658D01*
X215965Y162768D01*
X215993Y162882D01*
X216000Y163000D01*
Y169000D01*
X215993Y169118D01*
X215965Y169232D01*
X215920Y169342D01*
X215859Y169442D01*
X215782Y169532D01*
X215692Y169609D01*
X215592Y169670D01*
X215482Y169715D01*
X215368Y169743D01*
X215250Y169752D01*
Y189500D01*
G37*
G36*
X200491D02*X215250D01*
Y169752D01*
X215132Y169743D01*
X215018Y169715D01*
X214908Y169670D01*
X214808Y169609D01*
X214718Y169532D01*
X214641Y169442D01*
X214580Y169342D01*
X214535Y169232D01*
X214507Y169118D01*
X214500Y169000D01*
Y163000D01*
X214507Y162882D01*
X214535Y162768D01*
X214580Y162658D01*
X214641Y162558D01*
X214718Y162468D01*
X214808Y162391D01*
X214908Y162330D01*
X215018Y162285D01*
X215132Y162257D01*
X215250Y162248D01*
Y149500D01*
X200491D01*
Y159982D01*
X200500Y159981D01*
X201442Y160056D01*
X202360Y160276D01*
X203232Y160637D01*
X204038Y161131D01*
X204756Y161744D01*
X205369Y162462D01*
X205863Y163268D01*
X206224Y164140D01*
X206444Y165058D01*
X206500Y166000D01*
X206444Y166942D01*
X206224Y167860D01*
X205863Y168732D01*
X205369Y169538D01*
X204756Y170256D01*
X204038Y170869D01*
X203232Y171363D01*
X202360Y171724D01*
X201442Y171944D01*
X200500Y172019D01*
X200491Y172018D01*
Y189500D01*
G37*
G36*
X180491D02*X200491D01*
Y172018D01*
X199558Y171944D01*
X198640Y171724D01*
X197768Y171363D01*
X196962Y170869D01*
X196244Y170256D01*
X195631Y169538D01*
X195137Y168732D01*
X194776Y167860D01*
X194556Y166942D01*
X194481Y166000D01*
X194556Y165058D01*
X194776Y164140D01*
X195137Y163268D01*
X195631Y162462D01*
X196244Y161744D01*
X196962Y161131D01*
X197768Y160637D01*
X198640Y160276D01*
X199558Y160056D01*
X200491Y159982D01*
Y149500D01*
X180491D01*
Y159982D01*
X180500Y159981D01*
X181442Y160056D01*
X182360Y160276D01*
X183232Y160637D01*
X184038Y161131D01*
X184756Y161744D01*
X185369Y162462D01*
X185863Y163268D01*
X186224Y164140D01*
X186444Y165058D01*
X186500Y166000D01*
X186444Y166942D01*
X186224Y167860D01*
X185863Y168732D01*
X185369Y169538D01*
X184756Y170256D01*
X184038Y170869D01*
X183232Y171363D01*
X182360Y171724D01*
X181442Y171944D01*
X180500Y172019D01*
X180491Y172018D01*
Y189500D01*
G37*
G36*
X146500Y149500D02*Y172950D01*
X152880D01*
X153000Y172941D01*
X153478Y172978D01*
X153479Y172978D01*
X153945Y173090D01*
X154389Y173274D01*
X154798Y173525D01*
X155163Y173837D01*
X155241Y173928D01*
X162072Y180759D01*
X162163Y180837D01*
X162475Y181202D01*
X162475Y181202D01*
X162726Y181611D01*
X162910Y182055D01*
X163022Y182521D01*
X163059Y183000D01*
X163050Y183120D01*
Y189500D01*
X180491D01*
Y172018D01*
X179558Y171944D01*
X178640Y171724D01*
X177768Y171363D01*
X176962Y170869D01*
X176244Y170256D01*
X175631Y169538D01*
X175137Y168732D01*
X174776Y167860D01*
X174556Y166942D01*
X174481Y166000D01*
X174556Y165058D01*
X174776Y164140D01*
X175137Y163268D01*
X175631Y162462D01*
X176244Y161744D01*
X176962Y161131D01*
X177768Y160637D01*
X178640Y160276D01*
X179558Y160056D01*
X180491Y159982D01*
Y149500D01*
X146500D01*
G37*
G36*
X225750Y189500D02*X240500D01*
Y118200D01*
X229067D01*
X229000Y118205D01*
X228733Y118184D01*
X228473Y118122D01*
X228226Y118019D01*
X228194Y118000D01*
X225750D01*
Y162248D01*
X225868Y162257D01*
X225982Y162285D01*
X226092Y162330D01*
X226192Y162391D01*
X226282Y162468D01*
X226359Y162558D01*
X226420Y162658D01*
X226465Y162768D01*
X226493Y162882D01*
X226500Y163000D01*
Y169000D01*
X226493Y169118D01*
X226465Y169232D01*
X226420Y169342D01*
X226359Y169442D01*
X226282Y169532D01*
X226192Y169609D01*
X226092Y169670D01*
X225982Y169715D01*
X225868Y169743D01*
X225750Y169752D01*
Y189500D01*
G37*
G36*
X224000Y118000D02*Y160191D01*
X224032Y160218D01*
X224109Y160308D01*
X224170Y160408D01*
X224215Y160518D01*
X224243Y160632D01*
X224252Y160750D01*
X224243Y160868D01*
X224215Y160982D01*
X224170Y161092D01*
X224109Y161192D01*
X224032Y161282D01*
X224000Y161309D01*
Y170691D01*
X224032Y170718D01*
X224109Y170808D01*
X224170Y170908D01*
X224215Y171018D01*
X224243Y171132D01*
X224252Y171250D01*
X224243Y171368D01*
X224215Y171482D01*
X224170Y171592D01*
X224109Y171692D01*
X224032Y171782D01*
X224000Y171809D01*
Y189500D01*
X225750D01*
Y169752D01*
X225632Y169743D01*
X225518Y169715D01*
X225408Y169670D01*
X225308Y169609D01*
X225218Y169532D01*
X225141Y169442D01*
X225080Y169342D01*
X225035Y169232D01*
X225007Y169118D01*
X225000Y169000D01*
Y163000D01*
X225007Y162882D01*
X225035Y162768D01*
X225080Y162658D01*
X225141Y162558D01*
X225218Y162468D01*
X225308Y162391D01*
X225408Y162330D01*
X225518Y162285D01*
X225632Y162257D01*
X225750Y162248D01*
Y118000D01*
X224000D01*
G37*
G36*
X191000Y67500D02*Y58000D01*
X181500D01*
Y67247D01*
X181548Y67251D01*
X182106Y67352D01*
X182640Y67500D01*
X191000D01*
G37*
G36*
X49597Y96565D02*X49615Y96569D01*
X49833Y96659D01*
X49900Y96700D01*
X49967Y96659D01*
X50185Y96569D01*
X50415Y96514D01*
X50650Y96500D01*
X53285Y96514D01*
X53515Y96569D01*
X53733Y96659D01*
X53800Y96700D01*
X53867Y96659D01*
X54085Y96569D01*
X54315Y96514D01*
X54550Y96500D01*
X57185Y96514D01*
X57415Y96569D01*
X57633Y96659D01*
X57834Y96783D01*
X58014Y96936D01*
X58167Y97116D01*
X58291Y97317D01*
X58381Y97535D01*
X58436Y97765D01*
X58450Y98000D01*
X58436Y102235D01*
X58381Y102465D01*
X58291Y102683D01*
X58167Y102884D01*
X58014Y103064D01*
X57834Y103217D01*
X57633Y103341D01*
X57415Y103431D01*
X57185Y103486D01*
X56950Y103500D01*
X54315Y103486D01*
X54100Y103435D01*
Y103647D01*
X54272Y103849D01*
X54365Y104000D01*
X80000D01*
Y66500D01*
X49597D01*
Y85250D01*
X53412D01*
X53500Y85243D01*
X53853Y85271D01*
X53853Y85271D01*
X54197Y85354D01*
X54525Y85489D01*
X54827Y85674D01*
X55096Y85904D01*
X55153Y85971D01*
X57279Y88097D01*
X57346Y88154D01*
X57576Y88423D01*
X57576Y88423D01*
X57586Y88440D01*
X57633Y88459D01*
X57834Y88583D01*
X58014Y88736D01*
X58167Y88916D01*
X58291Y89117D01*
X58381Y89335D01*
X58436Y89565D01*
X58450Y89800D01*
X58436Y94035D01*
X58381Y94265D01*
X58291Y94483D01*
X58167Y94684D01*
X58014Y94864D01*
X57834Y95017D01*
X57633Y95141D01*
X57415Y95231D01*
X57185Y95286D01*
X56950Y95300D01*
X54315Y95286D01*
X54085Y95231D01*
X53867Y95141D01*
X53666Y95017D01*
X53486Y94864D01*
X53333Y94684D01*
X53209Y94483D01*
X53119Y94265D01*
X53064Y94035D01*
X53050Y93800D01*
X53062Y90244D01*
X52568Y89750D01*
X49597D01*
Y96565D01*
G37*
G36*
X31828Y96510D02*X32535Y96514D01*
X32765Y96569D01*
X32983Y96659D01*
X33184Y96783D01*
X33364Y96936D01*
X33517Y97116D01*
X33641Y97317D01*
X33731Y97535D01*
X33786Y97765D01*
X33800Y98000D01*
X33786Y102235D01*
X33731Y102465D01*
X33641Y102683D01*
X33517Y102884D01*
X33364Y103064D01*
X33184Y103217D01*
X32983Y103341D01*
X32765Y103431D01*
X32535Y103486D01*
X32300Y103500D01*
X31828Y103498D01*
Y104000D01*
X46000D01*
Y103300D01*
X45866Y103217D01*
X45686Y103064D01*
X45533Y102884D01*
X45409Y102683D01*
X45319Y102465D01*
X45267Y102250D01*
X44444D01*
X44443Y102716D01*
X44406Y102869D01*
X44346Y103014D01*
X44264Y103149D01*
X44161Y103268D01*
X44042Y103371D01*
X43907Y103453D01*
X43762Y103513D01*
X43609Y103550D01*
X43452Y103559D01*
X37391Y103550D01*
X37238Y103513D01*
X37093Y103453D01*
X36958Y103371D01*
X36839Y103268D01*
X36736Y103149D01*
X36654Y103014D01*
X36594Y102869D01*
X36557Y102716D01*
X36548Y102559D01*
X36557Y97284D01*
X36594Y97131D01*
X36654Y96986D01*
X36736Y96851D01*
X36839Y96732D01*
X36958Y96629D01*
X37093Y96547D01*
X37238Y96487D01*
X37391Y96450D01*
X37548Y96441D01*
X43609Y96450D01*
X43762Y96487D01*
X43907Y96547D01*
X44042Y96629D01*
X44161Y96732D01*
X44264Y96851D01*
X44346Y96986D01*
X44406Y97131D01*
X44443Y97284D01*
X44452Y97441D01*
X44451Y97750D01*
X45267D01*
X45319Y97535D01*
X45409Y97317D01*
X45533Y97116D01*
X45686Y96936D01*
X45866Y96783D01*
X46067Y96659D01*
X46285Y96569D01*
X46515Y96514D01*
X46750Y96500D01*
X49385Y96514D01*
X49597Y96565D01*
Y89750D01*
X44588D01*
X44500Y89757D01*
X44147Y89729D01*
X43803Y89646D01*
X43475Y89511D01*
X43173Y89326D01*
X43173Y89326D01*
X42904Y89096D01*
X42847Y89029D01*
X41471Y87653D01*
X41404Y87596D01*
X41174Y87327D01*
X40989Y87025D01*
X40854Y86697D01*
X40771Y86353D01*
X40771Y86353D01*
X40743Y86000D01*
X40750Y85912D01*
Y80000D01*
X40771Y79647D01*
X40806Y79500D01*
X40811Y75562D01*
X40855Y75378D01*
X40927Y75204D01*
X41026Y75042D01*
X41149Y74899D01*
X41292Y74776D01*
X41454Y74678D01*
X41628Y74605D01*
X41812Y74561D01*
X42000Y74550D01*
X44188Y74561D01*
X44372Y74605D01*
X44546Y74678D01*
X44708Y74776D01*
X44851Y74899D01*
X44974Y75042D01*
X45072Y75204D01*
X45145Y75378D01*
X45189Y75562D01*
X45200Y75750D01*
X45195Y79505D01*
X45229Y79647D01*
X45250Y80000D01*
Y85068D01*
X45432Y85250D01*
X49597D01*
Y66500D01*
X31828D01*
Y74560D01*
X32000Y74550D01*
X34188Y74561D01*
X34372Y74605D01*
X34546Y74678D01*
X34708Y74776D01*
X34851Y74899D01*
X34974Y75042D01*
X35072Y75204D01*
X35145Y75378D01*
X35189Y75562D01*
X35200Y75750D01*
X35195Y79505D01*
X35229Y79647D01*
X35250Y80000D01*
Y85912D01*
X35257Y86000D01*
X35229Y86353D01*
X35229Y86353D01*
X35146Y86697D01*
X35011Y87025D01*
X34826Y87327D01*
X34596Y87596D01*
X34529Y87653D01*
X33402Y88780D01*
X33517Y88916D01*
X33641Y89117D01*
X33731Y89335D01*
X33786Y89565D01*
X33800Y89800D01*
X33786Y94035D01*
X33731Y94265D01*
X33641Y94483D01*
X33517Y94684D01*
X33364Y94864D01*
X33184Y95017D01*
X32983Y95141D01*
X32765Y95231D01*
X32535Y95286D01*
X32300Y95300D01*
X31828Y95298D01*
Y96510D01*
G37*
G36*
Y103498D02*X29665Y103486D01*
X29450Y103435D01*
Y103483D01*
X29486Y103514D01*
X29772Y103849D01*
X29865Y104000D01*
X31828D01*
Y103498D01*
G37*
G36*
X12048Y102645D02*X12057Y97370D01*
X12094Y97217D01*
X12154Y97072D01*
X12236Y96937D01*
X12339Y96818D01*
X12458Y96715D01*
X12593Y96633D01*
X12738Y96573D01*
X12891Y96536D01*
X13048Y96527D01*
X19109Y96536D01*
X19262Y96573D01*
X19407Y96633D01*
X19542Y96715D01*
X19661Y96818D01*
X19764Y96937D01*
X19846Y97072D01*
X19906Y97217D01*
X19943Y97370D01*
X19952Y97527D01*
X19951Y97836D01*
X20614D01*
X20614Y97765D01*
X20669Y97535D01*
X20759Y97317D01*
X20883Y97116D01*
X21036Y96936D01*
X21216Y96783D01*
X21417Y96659D01*
X21635Y96569D01*
X21865Y96514D01*
X22100Y96500D01*
X24735Y96514D01*
X24965Y96569D01*
X25183Y96659D01*
X25250Y96700D01*
X25317Y96659D01*
X25535Y96569D01*
X25765Y96514D01*
X26000Y96500D01*
X28635Y96514D01*
X28865Y96569D01*
X29083Y96659D01*
X29150Y96700D01*
X29217Y96659D01*
X29435Y96569D01*
X29665Y96514D01*
X29900Y96500D01*
X31828Y96510D01*
Y95298D01*
X29665Y95286D01*
X29435Y95231D01*
X29217Y95141D01*
X29016Y95017D01*
X28836Y94864D01*
X28683Y94684D01*
X28559Y94483D01*
X28469Y94265D01*
X28414Y94035D01*
X28400Y93800D01*
X28414Y89565D01*
X28469Y89335D01*
X28559Y89117D01*
X28683Y88916D01*
X28750Y88837D01*
Y88088D01*
X28743Y88000D01*
X28771Y87647D01*
X28854Y87303D01*
X28989Y86975D01*
X29174Y86673D01*
X29174Y86673D01*
X29404Y86404D01*
X29471Y86347D01*
X30750Y85068D01*
Y80000D01*
X30771Y79647D01*
X30806Y79500D01*
X30811Y75562D01*
X30855Y75378D01*
X30927Y75204D01*
X31026Y75042D01*
X31149Y74899D01*
X31292Y74776D01*
X31454Y74678D01*
X31628Y74605D01*
X31812Y74561D01*
X31828Y74560D01*
Y66500D01*
X1000D01*
Y104000D01*
X21800D01*
Y103471D01*
X21635Y103431D01*
X21417Y103341D01*
X21216Y103217D01*
X21036Y103064D01*
X20883Y102884D01*
X20759Y102683D01*
X20669Y102465D01*
X20638Y102336D01*
X19944D01*
X19943Y102802D01*
X19906Y102955D01*
X19846Y103100D01*
X19764Y103235D01*
X19661Y103354D01*
X19542Y103457D01*
X19407Y103539D01*
X19262Y103599D01*
X19109Y103636D01*
X18952Y103645D01*
X12891Y103636D01*
X12738Y103599D01*
X12593Y103539D01*
X12458Y103457D01*
X12339Y103354D01*
X12236Y103235D01*
X12154Y103100D01*
X12094Y102955D01*
X12057Y102802D01*
X12048Y102645D01*
G37*
G36*
X72500Y105000D02*X87000D01*
Y66500D01*
X72500D01*
Y105000D01*
G37*
G36*
X129597Y96565D02*X129615Y96569D01*
X129833Y96659D01*
X129900Y96700D01*
X129967Y96659D01*
X130185Y96569D01*
X130415Y96514D01*
X130650Y96500D01*
X133285Y96514D01*
X133515Y96569D01*
X133733Y96659D01*
X133800Y96700D01*
X133867Y96659D01*
X134085Y96569D01*
X134315Y96514D01*
X134550Y96500D01*
X137185Y96514D01*
X137415Y96569D01*
X137633Y96659D01*
X137834Y96783D01*
X138014Y96936D01*
X138167Y97116D01*
X138291Y97317D01*
X138381Y97535D01*
X138436Y97765D01*
X138450Y98000D01*
X138436Y102235D01*
X138381Y102465D01*
X138291Y102683D01*
X138167Y102884D01*
X138014Y103064D01*
X137834Y103217D01*
X137633Y103341D01*
X137415Y103431D01*
X137185Y103486D01*
X136950Y103500D01*
X134315Y103486D01*
X134100Y103435D01*
Y103647D01*
X134272Y103849D01*
X134365Y104000D01*
X158000D01*
Y66500D01*
X129597D01*
Y85250D01*
X133412D01*
X133500Y85243D01*
X133853Y85271D01*
X133853Y85271D01*
X134197Y85354D01*
X134525Y85489D01*
X134827Y85674D01*
X135096Y85904D01*
X135153Y85971D01*
X137279Y88097D01*
X137346Y88154D01*
X137576Y88423D01*
X137576Y88423D01*
X137586Y88440D01*
X137633Y88459D01*
X137834Y88583D01*
X138014Y88736D01*
X138167Y88916D01*
X138291Y89117D01*
X138381Y89335D01*
X138436Y89565D01*
X138450Y89800D01*
X138436Y94035D01*
X138381Y94265D01*
X138291Y94483D01*
X138167Y94684D01*
X138014Y94864D01*
X137834Y95017D01*
X137633Y95141D01*
X137415Y95231D01*
X137185Y95286D01*
X136950Y95300D01*
X134315Y95286D01*
X134085Y95231D01*
X133867Y95141D01*
X133666Y95017D01*
X133486Y94864D01*
X133333Y94684D01*
X133209Y94483D01*
X133119Y94265D01*
X133064Y94035D01*
X133050Y93800D01*
X133062Y90244D01*
X132568Y89750D01*
X129597D01*
Y96565D01*
G37*
G36*
X111778Y96510D02*X112435Y96514D01*
X112665Y96569D01*
X112883Y96659D01*
X113084Y96783D01*
X113264Y96936D01*
X113417Y97116D01*
X113541Y97317D01*
X113631Y97535D01*
X113686Y97765D01*
X113700Y98000D01*
X113686Y102235D01*
X113631Y102465D01*
X113541Y102683D01*
X113417Y102884D01*
X113264Y103064D01*
X113084Y103217D01*
X112883Y103341D01*
X112665Y103431D01*
X112435Y103486D01*
X112200Y103500D01*
X111778Y103498D01*
Y104000D01*
X126000D01*
Y103300D01*
X125866Y103217D01*
X125686Y103064D01*
X125533Y102884D01*
X125409Y102683D01*
X125319Y102465D01*
X125267Y102250D01*
X124444D01*
X124443Y102802D01*
X124406Y102955D01*
X124346Y103100D01*
X124264Y103235D01*
X124161Y103354D01*
X124042Y103457D01*
X123907Y103539D01*
X123762Y103599D01*
X123609Y103636D01*
X123452Y103645D01*
X117391Y103636D01*
X117238Y103599D01*
X117093Y103539D01*
X116958Y103457D01*
X116839Y103354D01*
X116736Y103235D01*
X116654Y103100D01*
X116594Y102955D01*
X116557Y102802D01*
X116548Y102645D01*
X116557Y97370D01*
X116594Y97217D01*
X116654Y97072D01*
X116736Y96937D01*
X116839Y96818D01*
X116958Y96715D01*
X117093Y96633D01*
X117238Y96573D01*
X117391Y96536D01*
X117548Y96527D01*
X123609Y96536D01*
X123762Y96573D01*
X123907Y96633D01*
X124042Y96715D01*
X124161Y96818D01*
X124264Y96937D01*
X124346Y97072D01*
X124406Y97217D01*
X124443Y97370D01*
X124452Y97527D01*
X124452Y97750D01*
X125267D01*
X125319Y97535D01*
X125409Y97317D01*
X125533Y97116D01*
X125686Y96936D01*
X125866Y96783D01*
X126067Y96659D01*
X126285Y96569D01*
X126515Y96514D01*
X126750Y96500D01*
X129385Y96514D01*
X129597Y96565D01*
Y89750D01*
X124588D01*
X124500Y89757D01*
X124147Y89729D01*
X123803Y89646D01*
X123475Y89511D01*
X123173Y89326D01*
X123173Y89326D01*
X122904Y89096D01*
X122847Y89029D01*
X121471Y87653D01*
X121404Y87596D01*
X121174Y87327D01*
X120989Y87025D01*
X120854Y86697D01*
X120771Y86353D01*
X120771Y86353D01*
X120743Y86000D01*
X120750Y85912D01*
Y80000D01*
X120771Y79647D01*
X120806Y79500D01*
X120811Y75562D01*
X120855Y75378D01*
X120927Y75204D01*
X121026Y75042D01*
X121149Y74899D01*
X121292Y74776D01*
X121454Y74678D01*
X121628Y74605D01*
X121812Y74561D01*
X122000Y74550D01*
X124188Y74561D01*
X124372Y74605D01*
X124546Y74678D01*
X124708Y74776D01*
X124851Y74899D01*
X124974Y75042D01*
X125072Y75204D01*
X125145Y75378D01*
X125189Y75562D01*
X125200Y75750D01*
X125195Y79505D01*
X125229Y79647D01*
X125250Y80000D01*
Y85068D01*
X125432Y85250D01*
X129597D01*
Y66500D01*
X111778D01*
Y74569D01*
X111812Y74561D01*
X112000Y74550D01*
X114188Y74561D01*
X114372Y74605D01*
X114546Y74678D01*
X114708Y74776D01*
X114851Y74899D01*
X114974Y75042D01*
X115072Y75204D01*
X115145Y75378D01*
X115189Y75562D01*
X115200Y75750D01*
X115195Y79505D01*
X115229Y79647D01*
X115250Y80000D01*
Y85912D01*
X115257Y86000D01*
X115229Y86353D01*
X115229Y86353D01*
X115146Y86697D01*
X115011Y87025D01*
X114826Y87327D01*
X114596Y87596D01*
X114529Y87653D01*
X113348Y88834D01*
X113417Y88916D01*
X113541Y89117D01*
X113631Y89335D01*
X113686Y89565D01*
X113700Y89800D01*
X113686Y94035D01*
X113631Y94265D01*
X113541Y94483D01*
X113417Y94684D01*
X113264Y94864D01*
X113084Y95017D01*
X112883Y95141D01*
X112665Y95231D01*
X112435Y95286D01*
X112200Y95300D01*
X111778Y95298D01*
Y96510D01*
G37*
G36*
Y103498D02*X109565Y103486D01*
X109450Y103459D01*
Y103483D01*
X109486Y103514D01*
X109772Y103849D01*
X109865Y104000D01*
X111778D01*
Y103498D01*
G37*
G36*
X91634Y102559D02*X91643Y97284D01*
X91680Y97131D01*
X91740Y96986D01*
X91822Y96851D01*
X91925Y96732D01*
X92044Y96629D01*
X92179Y96547D01*
X92324Y96487D01*
X92477Y96450D01*
X92634Y96441D01*
X98695Y96450D01*
X98848Y96487D01*
X98993Y96547D01*
X99128Y96629D01*
X99247Y96732D01*
X99350Y96851D01*
X99432Y96986D01*
X99492Y97131D01*
X99529Y97284D01*
X99538Y97441D01*
X99537Y97836D01*
X100514D01*
X100514Y97765D01*
X100569Y97535D01*
X100659Y97317D01*
X100783Y97116D01*
X100936Y96936D01*
X101116Y96783D01*
X101317Y96659D01*
X101535Y96569D01*
X101765Y96514D01*
X102000Y96500D01*
X104635Y96514D01*
X104865Y96569D01*
X105083Y96659D01*
X105150Y96700D01*
X105217Y96659D01*
X105435Y96569D01*
X105665Y96514D01*
X105900Y96500D01*
X108535Y96514D01*
X108765Y96569D01*
X108983Y96659D01*
X109050Y96700D01*
X109117Y96659D01*
X109335Y96569D01*
X109565Y96514D01*
X109800Y96500D01*
X111778Y96510D01*
Y95298D01*
X109565Y95286D01*
X109335Y95231D01*
X109117Y95141D01*
X108916Y95017D01*
X108736Y94864D01*
X108583Y94684D01*
X108459Y94483D01*
X108369Y94265D01*
X108314Y94035D01*
X108300Y93800D01*
X108314Y89565D01*
X108369Y89335D01*
X108459Y89117D01*
X108583Y88916D01*
X108736Y88736D01*
X108750Y88724D01*
Y88088D01*
X108743Y88000D01*
X108771Y87647D01*
X108854Y87303D01*
X108989Y86975D01*
X109174Y86673D01*
X109174Y86673D01*
X109404Y86404D01*
X109471Y86347D01*
X110750Y85068D01*
Y80000D01*
X110771Y79647D01*
X110806Y79500D01*
X110811Y75562D01*
X110855Y75378D01*
X110927Y75204D01*
X111026Y75042D01*
X111149Y74899D01*
X111292Y74776D01*
X111454Y74678D01*
X111628Y74605D01*
X111778Y74569D01*
Y66500D01*
X79000D01*
Y104000D01*
X101586D01*
Y103443D01*
X101535Y103431D01*
X101317Y103341D01*
X101116Y103217D01*
X100936Y103064D01*
X100783Y102884D01*
X100659Y102683D01*
X100569Y102465D01*
X100538Y102336D01*
X99529D01*
X99529Y102716D01*
X99492Y102869D01*
X99432Y103014D01*
X99350Y103149D01*
X99247Y103268D01*
X99128Y103371D01*
X98993Y103453D01*
X98848Y103513D01*
X98695Y103550D01*
X98538Y103559D01*
X92477Y103550D01*
X92324Y103513D01*
X92179Y103453D01*
X92044Y103371D01*
X91925Y103268D01*
X91822Y103149D01*
X91740Y103014D01*
X91680Y102869D01*
X91643Y102716D01*
X91634Y102559D01*
G37*
G36*
X54100Y107556D02*X54630Y107557D01*
X54783Y107594D01*
X54928Y107654D01*
X55063Y107736D01*
X55182Y107839D01*
X55285Y107958D01*
X55367Y108093D01*
X55427Y108238D01*
X55464Y108391D01*
X55473Y108548D01*
X55465Y113500D01*
X80000D01*
Y100500D01*
X58442D01*
X58436Y102235D01*
X58381Y102465D01*
X58291Y102683D01*
X58167Y102884D01*
X58014Y103064D01*
X57834Y103217D01*
X57633Y103341D01*
X57415Y103431D01*
X57185Y103486D01*
X56950Y103500D01*
X54315Y103486D01*
X54100Y103435D01*
Y103647D01*
X54272Y103849D01*
X54503Y104225D01*
X54671Y104632D01*
X54774Y105061D01*
X54800Y105500D01*
X54774Y105939D01*
X54671Y106368D01*
X54503Y106775D01*
X54272Y107151D01*
X54100Y107353D01*
Y107556D01*
G37*
G36*
X31207Y113500D02*X46000D01*
Y103300D01*
X45866Y103217D01*
X45686Y103064D01*
X45533Y102884D01*
X45409Y102683D01*
X45319Y102465D01*
X45267Y102250D01*
X44444D01*
X44443Y102716D01*
X44406Y102869D01*
X44346Y103014D01*
X44264Y103149D01*
X44161Y103268D01*
X44042Y103371D01*
X43907Y103453D01*
X43762Y103513D01*
X43609Y103550D01*
X43452Y103559D01*
X37391Y103550D01*
X37238Y103513D01*
X37093Y103453D01*
X36958Y103371D01*
X36839Y103268D01*
X36736Y103149D01*
X36654Y103014D01*
X36594Y102869D01*
X36557Y102716D01*
X36548Y102559D01*
X36552Y100000D01*
X33793D01*
X33786Y102235D01*
X33731Y102465D01*
X33641Y102683D01*
X33517Y102884D01*
X33364Y103064D01*
X33184Y103217D01*
X32983Y103341D01*
X32765Y103431D01*
X32535Y103486D01*
X32300Y103500D01*
X29665Y103486D01*
X29500Y103447D01*
Y103530D01*
X29772Y103849D01*
X30003Y104225D01*
X30171Y104632D01*
X30274Y105061D01*
X30300Y105500D01*
X30274Y105939D01*
X30171Y106368D01*
X30003Y106775D01*
X29772Y107151D01*
X29595Y107358D01*
X30204Y107359D01*
X30388Y107403D01*
X30562Y107475D01*
X30724Y107574D01*
X30867Y107697D01*
X30990Y107840D01*
X31089Y108002D01*
X31161Y108176D01*
X31205Y108360D01*
X31216Y108548D01*
X31207Y113500D01*
G37*
G36*
X12048Y102645D02*X12057Y97370D01*
X12094Y97217D01*
X12154Y97072D01*
X12236Y96937D01*
X12339Y96818D01*
X12458Y96715D01*
X12593Y96633D01*
X12738Y96573D01*
X12891Y96536D01*
X13048Y96527D01*
X19109Y96536D01*
X19262Y96573D01*
X19407Y96633D01*
X19542Y96715D01*
X19661Y96818D01*
X19764Y96937D01*
X19846Y97072D01*
X19906Y97217D01*
X19943Y97370D01*
X19952Y97527D01*
X19951Y97836D01*
X20614D01*
X20614Y97765D01*
X20669Y97535D01*
X20759Y97317D01*
X20883Y97116D01*
X21036Y96936D01*
X21216Y96783D01*
X21417Y96659D01*
X21635Y96569D01*
X21865Y96514D01*
X22100Y96500D01*
X24735Y96514D01*
X24965Y96569D01*
X25183Y96659D01*
X25250Y96700D01*
X25317Y96659D01*
X25535Y96569D01*
X25765Y96514D01*
X26000Y96500D01*
X28635Y96514D01*
X28865Y96569D01*
X29000Y96625D01*
Y95004D01*
X28836Y94864D01*
X28683Y94684D01*
X28570Y94500D01*
X1000D01*
Y113500D01*
X21800D01*
Y103471D01*
X21635Y103431D01*
X21417Y103341D01*
X21216Y103217D01*
X21036Y103064D01*
X20883Y102884D01*
X20759Y102683D01*
X20669Y102465D01*
X20638Y102336D01*
X19944D01*
X19943Y102802D01*
X19906Y102955D01*
X19846Y103100D01*
X19764Y103235D01*
X19661Y103354D01*
X19542Y103457D01*
X19407Y103539D01*
X19262Y103599D01*
X19109Y103636D01*
X18952Y103645D01*
X12891Y103636D01*
X12738Y103599D01*
X12593Y103539D01*
X12458Y103457D01*
X12339Y103354D01*
X12236Y103235D01*
X12154Y103100D01*
X12094Y102955D01*
X12057Y102802D01*
X12048Y102645D01*
G37*
G36*
X81000Y113500D02*X95656Y103555D01*
X92477Y103550D01*
X92324Y103513D01*
X92179Y103453D01*
X92044Y103371D01*
X91925Y103268D01*
X91822Y103149D01*
X91740Y103014D01*
X91680Y102869D01*
X91643Y102716D01*
X91634Y102559D01*
X91643Y97284D01*
X91680Y97131D01*
X91740Y96986D01*
X91822Y96851D01*
X91925Y96732D01*
X92044Y96629D01*
X92179Y96547D01*
X92324Y96487D01*
X92477Y96450D01*
X92634Y96441D01*
X98695Y96450D01*
X98848Y96487D01*
X98993Y96547D01*
X99128Y96629D01*
X99247Y96732D01*
X99350Y96851D01*
X99432Y96986D01*
X99492Y97131D01*
X99529Y97284D01*
X99538Y97441D01*
X99537Y97836D01*
X100514D01*
X100514Y97765D01*
X100569Y97535D01*
X100659Y97317D01*
X100783Y97116D01*
X100936Y96936D01*
X101116Y96783D01*
X101317Y96659D01*
X101535Y96569D01*
X101765Y96514D01*
X102000Y96500D01*
X104635Y96514D01*
X104865Y96569D01*
X105083Y96659D01*
X105150Y96700D01*
X105217Y96659D01*
X105435Y96569D01*
X105665Y96514D01*
X105900Y96500D01*
X106051Y96501D01*
X108636Y94747D01*
X108583Y94684D01*
X108470Y94500D01*
X81000D01*
Y113500D01*
G37*
G36*
X110508D02*X126000D01*
Y103300D01*
X125866Y103217D01*
X125686Y103064D01*
X125533Y102884D01*
X125409Y102683D01*
X125319Y102465D01*
X125267Y102250D01*
X124444D01*
X124443Y102802D01*
X124406Y102955D01*
X124346Y103100D01*
X124264Y103235D01*
X124161Y103354D01*
X124042Y103457D01*
X123907Y103539D01*
X123762Y103599D01*
X123609Y103636D01*
X123452Y103645D01*
X117391Y103636D01*
X117238Y103599D01*
X117093Y103539D01*
X116958Y103457D01*
X116839Y103354D01*
X116736Y103235D01*
X116654Y103100D01*
X116594Y102955D01*
X116557Y102802D01*
X116548Y102645D01*
X116553Y100000D01*
X113693D01*
X113686Y102235D01*
X113631Y102465D01*
X113541Y102683D01*
X113417Y102884D01*
X113264Y103064D01*
X113084Y103217D01*
X112883Y103341D01*
X112665Y103431D01*
X112435Y103486D01*
X112200Y103500D01*
X109565Y103486D01*
X109500Y103471D01*
Y103530D01*
X109772Y103849D01*
X110003Y104225D01*
X110171Y104632D01*
X110274Y105061D01*
X110300Y105500D01*
X110274Y105939D01*
X110171Y106368D01*
X110003Y106775D01*
X109772Y107151D01*
X109500Y107470D01*
Y107557D01*
X109673Y107557D01*
X109826Y107594D01*
X109971Y107654D01*
X110106Y107736D01*
X110225Y107839D01*
X110328Y107958D01*
X110410Y108093D01*
X110470Y108238D01*
X110507Y108391D01*
X110516Y108548D01*
X110508Y113500D01*
G37*
G36*
X134100Y107556D02*X134673Y107557D01*
X134826Y107594D01*
X134971Y107654D01*
X135106Y107736D01*
X135225Y107839D01*
X135328Y107958D01*
X135410Y108093D01*
X135470Y108238D01*
X135507Y108391D01*
X135516Y108548D01*
X135508Y113500D01*
X158000D01*
Y100500D01*
X138442D01*
X138436Y102235D01*
X138381Y102465D01*
X138291Y102683D01*
X138167Y102884D01*
X138014Y103064D01*
X137834Y103217D01*
X137633Y103341D01*
X137415Y103431D01*
X137185Y103486D01*
X136950Y103500D01*
X134315Y103486D01*
X134100Y103435D01*
Y103647D01*
X134272Y103849D01*
X134503Y104225D01*
X134671Y104632D01*
X134774Y105061D01*
X134800Y105500D01*
X134774Y105939D01*
X134671Y106368D01*
X134503Y106775D01*
X134272Y107151D01*
X134100Y107353D01*
Y107556D01*
G37*
G36*
X91634Y102559D02*X91643Y97284D01*
X91680Y97131D01*
X91740Y96986D01*
X91822Y96851D01*
X91925Y96732D01*
X92044Y96629D01*
X92179Y96547D01*
X92324Y96487D01*
X92477Y96450D01*
X92634Y96441D01*
X98695Y96450D01*
X98848Y96487D01*
X98993Y96547D01*
X99128Y96629D01*
X99247Y96732D01*
X99350Y96851D01*
X99432Y96986D01*
X99492Y97131D01*
X99529Y97284D01*
X99538Y97441D01*
X99537Y97836D01*
X100514D01*
X100514Y97765D01*
X100569Y97535D01*
X100659Y97317D01*
X100783Y97116D01*
X100936Y96936D01*
X101116Y96783D01*
X101317Y96659D01*
X101500Y96584D01*
Y96000D01*
X84000D01*
Y117500D01*
X101500D01*
Y103416D01*
X101317Y103341D01*
X101116Y103217D01*
X100936Y103064D01*
X100783Y102884D01*
X100659Y102683D01*
X100569Y102465D01*
X100538Y102336D01*
X99529D01*
X99529Y102716D01*
X99492Y102869D01*
X99432Y103014D01*
X99350Y103149D01*
X99247Y103268D01*
X99128Y103371D01*
X98993Y103453D01*
X98848Y103513D01*
X98695Y103550D01*
X98538Y103559D01*
X92477Y103550D01*
X92324Y103513D01*
X92179Y103453D01*
X92044Y103371D01*
X91925Y103268D01*
X91822Y103149D01*
X91740Y103014D01*
X91680Y102869D01*
X91643Y102716D01*
X91634Y102559D01*
G37*
G36*
X56950Y103500D02*X54315Y103486D01*
X54100Y103435D01*
Y103647D01*
X54272Y103849D01*
X54503Y104225D01*
X54671Y104632D01*
X54774Y105061D01*
X54800Y105500D01*
X54774Y105939D01*
X54671Y106368D01*
X54503Y106775D01*
X54272Y107151D01*
X54100Y107353D01*
Y107556D01*
X54630Y107557D01*
X54783Y107594D01*
X54928Y107654D01*
X55063Y107736D01*
X55182Y107839D01*
X55285Y107958D01*
X55367Y108093D01*
X55427Y108238D01*
X55464Y108391D01*
X55473Y108548D01*
X55464Y114609D01*
X55427Y114762D01*
X55367Y114907D01*
X55285Y115042D01*
X55182Y115161D01*
X55063Y115264D01*
X54928Y115346D01*
X54783Y115406D01*
X54630Y115443D01*
X54500Y115450D01*
Y119000D01*
X54500Y119000D01*
Y120000D01*
X90500D01*
Y95000D01*
X57855D01*
X57834Y95017D01*
X57633Y95141D01*
X57415Y95231D01*
X57185Y95286D01*
X56950Y95300D01*
X54315Y95286D01*
X54085Y95231D01*
X53867Y95141D01*
X53666Y95017D01*
X53645Y95000D01*
X53000D01*
Y96512D01*
X53285Y96514D01*
X53515Y96569D01*
X53733Y96659D01*
X53800Y96700D01*
X53867Y96659D01*
X54085Y96569D01*
X54315Y96514D01*
X54550Y96500D01*
X57185Y96514D01*
X57415Y96569D01*
X57633Y96659D01*
X57834Y96783D01*
X58014Y96936D01*
X58167Y97116D01*
X58291Y97317D01*
X58381Y97535D01*
X58436Y97765D01*
X58450Y98000D01*
X58436Y102235D01*
X58381Y102465D01*
X58291Y102683D01*
X58167Y102884D01*
X58014Y103064D01*
X57834Y103217D01*
X57633Y103341D01*
X57415Y103431D01*
X57185Y103486D01*
X56950Y103500D01*
G37*
G54D12*X135750Y91800D02*Y89750D01*
X133500Y87500D01*
X124500D01*
X123000Y86000D01*
Y80000D01*
X113000D02*Y86000D01*
X111000Y88000D01*
Y91450D01*
X111050Y91500D01*
X107200Y100000D02*Y111243D01*
X127950Y100000D02*X120500D01*
X96000Y100086D02*X103214D01*
G54D13*X103086D02*Y115086D01*
X104500Y116500D01*
X120500D01*
G54D12*X131850Y100000D02*Y111436D01*
X131914Y111500D01*
G54D13*X127500Y100000D02*Y116000D01*
X133000Y112800D02*X131850Y111650D01*
X127500Y116000D02*X130500Y119000D01*
Y129500D01*
X120500Y116500D02*X123500Y119500D01*
Y121250D01*
X123250Y121500D01*
X133000Y119000D02*Y133000D01*
X130500Y129500D02*X128500Y131500D01*
X123250D01*
Y126500D02*X118500D01*
X117000Y128000D01*
Y135500D01*
X118000Y136500D02*X126000D01*
X117000Y135500D02*X118000Y136500D01*
G54D12*X117000Y154000D02*Y149000D01*
X111000Y143000D01*
G54D13*X133000Y121000D02*Y112800D01*
X102750Y121500D02*X107500D01*
G54D12*X102750Y131500D02*X109000D01*
X110500Y130000D01*
Y123000D01*
X102750Y136500D02*X90543D01*
X90000Y135957D01*
X111000Y143000D02*X90043D01*
X90000Y143043D01*
X110500Y123000D02*X109000Y121500D01*
X103000D01*
X102750D02*X96000D01*
X93500Y124000D01*
X84500Y131000D02*X94000D01*
X95000Y127500D02*X79000D01*
X94000Y131000D02*X94500Y131500D01*
X106500D01*
X102750Y126500D02*X96000D01*
X95000Y127500D01*
G54D13*X133000Y133000D02*X129500Y136500D01*
X123250D01*
G54D12*X127000Y154000D02*Y160500D01*
G54D13*Y158500D02*Y171000D01*
G54D12*X130500Y179500D02*X127000Y176000D01*
Y167500D01*
X132000Y164000D02*Y173000D01*
X135000Y176000D01*
X160000Y197000D02*X156500Y193500D01*
Y184500D01*
X160000Y183000D02*Y191500D01*
X162000Y193500D01*
X160000Y197000D02*X158250Y195250D01*
X151500Y179500D02*X130500D01*
X135000Y176000D02*X153000D01*
X156500Y184500D02*X151500Y179500D01*
X153000Y176000D02*X160000Y183000D01*
X47950Y100000D02*X40500D01*
X51850D02*Y111436D01*
G54D13*X47500Y100000D02*Y116000D01*
G54D12*X51850Y111436D02*X51914Y111500D01*
G54D13*X40500Y116500D02*X43500Y119500D01*
Y121250D01*
X43250Y121500D01*
X40500Y116500D02*X41750Y117750D01*
X53000Y121500D02*Y112586D01*
X51914Y111500D01*
G54D12*X44500Y87500D02*X43000Y86000D01*
Y80000D01*
X33000D02*Y86000D01*
X31000Y88000D01*
X55750Y91800D02*Y89750D01*
X53500Y87500D01*
X44500D01*
X31000Y88000D02*Y91450D01*
X31050Y91500D01*
X27200Y100000D02*Y111243D01*
X27457Y111500D01*
X16000Y100086D02*X23214D01*
X23300Y100000D01*
G54D13*Y114800D01*
X47500Y116000D02*X50500Y119000D01*
Y129500D01*
X48500Y131500D01*
X43250D01*
Y126500D02*X38500D01*
X37000Y128000D01*
Y135500D01*
X38000Y136500D01*
X46000D01*
X53000Y119000D02*Y133000D01*
X49500Y136500D01*
G54D12*X22750Y121500D02*X30500D01*
X22750Y131500D02*X32500D01*
G54D13*X23300Y114800D02*X25000Y116500D01*
X40500D01*
G54D12*X30500Y121500D02*X32500Y123500D01*
Y137500D01*
G54D13*X62000Y167500D02*Y160000D01*
G54D12*Y174000D02*Y167000D01*
X67000Y178000D02*Y157000D01*
X62000Y160000D02*Y154000D01*
G54D13*X72000Y167500D02*Y160500D01*
G54D12*Y154000D01*
X76000Y136457D02*X76043Y136500D01*
X76000Y136457D02*X76022Y136478D01*
G54D13*X67000Y157000D02*Y150000D01*
G54D12*Y151000D02*Y144000D01*
X69000Y142000D01*
Y136543D01*
X68957Y136500D01*
X68000Y124000D02*X63000Y129000D01*
X72000Y182000D02*Y167500D01*
G54D13*X49500Y136500D02*X43250D01*
G54D12*X52000Y154000D02*X31000D01*
X28500Y151500D01*
Y145000D01*
X15500Y164000D02*X57000D01*
X32500Y137500D02*X37500Y142500D01*
G54D13*X9043Y126500D02*X9000Y126457D01*
G54D12*X22750Y126500D02*X9043D01*
X22750Y136500D02*Y143664D01*
X21414Y145000D01*
X9000Y133543D02*Y157500D01*
X15500Y164000D01*
X37500Y142500D02*X59000D01*
X63000Y138500D01*
Y129000D01*
X77000Y164000D02*Y186000D01*
X82000Y190000D02*Y167000D01*
X87000Y194000D02*Y157500D01*
G54D13*X82000Y167000D02*Y159000D01*
G54D12*Y154000D02*Y160500D01*
X87000Y157500D02*X88500Y156000D01*
Y151500D01*
X82500Y145500D01*
Y133000D01*
X84500Y131000D01*
X93500Y124000D02*X68000D01*
X79000Y127500D02*X76000Y130500D01*
Y136457D01*
X260250Y91800D02*Y89750D01*
X258000Y87500D01*
X249000D01*
X247500Y86000D01*
Y80000D01*
X237500D02*Y86000D01*
X235500Y88000D01*
Y91450D01*
X235550Y91500D01*
X252450Y100000D02*X245000D01*
X220500Y100086D02*X227714D01*
X227800Y100000D01*
X231700D02*Y111243D01*
G54D13*X227586Y100086D02*Y115086D01*
X229000Y116500D01*
X243500Y118000D02*X242000Y116500D01*
X229000D01*
X228250Y115750D01*
G54D12*X248500Y143250D02*Y147000D01*
X246000Y149500D01*
G54D14*X224000Y105500D02*X202000D01*
X179000D02*X208000D01*
G54D13*X248500Y122750D02*Y128000D01*
X243500Y122750D02*Y118000D01*
X248500Y128000D02*X250000Y129500D01*
X257500D01*
X258500Y128500D01*
Y122750D01*
X253500Y117000D02*Y122750D01*
X258500Y123000D02*Y117500D01*
G54D12*X256350Y100000D02*Y111436D01*
G54D13*X252500Y100000D02*Y116000D01*
G54D12*X256350Y111436D02*X256414Y111500D01*
G54D13*X252500Y116000D02*X253500Y117000D01*
X258500Y117500D02*X256500Y115500D01*
Y112150D01*
X256350Y112000D01*
G54D12*X162000Y193500D02*X238000D01*
X240000D02*X235500D01*
X248000Y197000D02*X160000D01*
X253500Y143250D02*Y137500D01*
X252000Y136000D01*
X244500D01*
X243500Y137000D01*
Y143250D01*
X246000Y149500D02*Y153957D01*
X245500Y154457D01*
X253500Y164500D02*Y143500D01*
X258500Y143250D02*Y152457D01*
X260000Y153957D01*
X245500Y161543D02*Y165000D01*
X260000Y161043D02*Y166000D01*
X251000Y175000D01*
X247000Y171000D02*X253500Y164500D01*
X245500Y165000D02*X243000Y167500D01*
Y190500D01*
X251000Y175000D02*Y194000D01*
X248000Y197000D01*
X247000Y192000D02*Y171000D01*
X243000Y190500D02*X240000Y193500D01*
G54D15*X167300Y126500D03*
X180700D03*
X167300Y73500D03*
X180700D03*
G54D16*X70500Y13500D03*
G54D11*G36*
X86500Y17500D02*Y9500D01*
X94500D01*
Y17500D01*
X86500D01*
G37*
G54D16*X110500Y13500D03*
G54D11*G36*
X126500Y17500D02*Y9500D01*
X134500D01*
Y17500D01*
X126500D01*
G37*
G36*
X6500D02*Y9500D01*
X14500D01*
Y17500D01*
X6500D01*
G37*
G54D16*X30500Y13500D03*
G54D11*G36*
X46500Y17500D02*Y9500D01*
X54500D01*
Y17500D01*
X46500D01*
G37*
G54D16*X150500Y13500D03*
G54D11*G36*
X251000Y17500D02*Y9500D01*
X259000D01*
Y17500D01*
X251000D01*
G37*
G54D16*X235000Y13500D03*
X275000D03*
G54D11*G36*
X211000Y17500D02*Y9500D01*
X219000D01*
Y17500D01*
X211000D01*
G37*
G54D17*X142000Y164000D03*
X137000Y154000D03*
X132000Y164000D03*
X127000Y154000D03*
X122000Y164000D03*
X117000Y154000D03*
X112000Y164000D03*
X87000D03*
X77000D03*
X67000D03*
X57000D03*
X107000Y154000D03*
X82000D03*
X72000D03*
X62000D03*
X52000D03*
G54D18*X147000Y189000D03*
X47000D03*
G54D19*X17000Y183000D03*
G54D11*G36*
X216000Y170500D02*Y161500D01*
X225000D01*
Y170500D01*
X216000D01*
G37*
G54D20*X200500Y166000D03*
X180500D03*
G54D19*X268000Y183000D03*
G54D21*X229107Y61957D02*X229893D01*
X136107Y69043D02*X136893D01*
X136107Y61957D02*X136893D01*
G54D22*X135750Y92600D02*Y91000D01*
G54D23*X237500Y62900D02*Y56400D01*
G54D24*X238267Y41287D02*Y39713D01*
X221732Y41287D02*Y39713D01*
G54D25*X165450Y25000D02*X174450D01*
X190950D02*X200050D01*
G54D21*X181095Y52755D02*Y47245D01*
X192905Y52755D02*Y47245D01*
X244650Y92914D02*X245436D01*
X244650Y100000D02*X245436D01*
G54D22*X235500Y100800D02*Y99200D01*
X231600Y100800D02*Y99200D01*
X227700Y100800D02*Y99200D01*
G54D23*X258500Y146500D02*Y140000D01*
Y126000D02*Y119500D01*
G54D21*X259607Y153957D02*X260393D01*
X259607Y161043D02*X260393D01*
G54D23*X253500Y146500D02*Y140000D01*
Y126000D02*Y119500D01*
X248500Y146500D02*Y140000D01*
Y126000D02*Y119500D01*
X243500Y146500D02*Y140000D01*
Y126000D02*Y119500D01*
G54D21*X245107Y154457D02*X245893D01*
X245107Y161543D02*X245893D01*
X220107Y92957D02*X220893D01*
X220107Y100043D02*X220893D01*
X229107Y69043D02*X229893D01*
G54D22*X227700Y92600D02*Y91000D01*
X235500Y92600D02*Y91000D01*
G54D21*X256457Y111893D02*Y111107D01*
X263543Y111893D02*Y111107D01*
X231914Y111893D02*Y111107D01*
X239000Y111893D02*Y111107D01*
X260607Y69086D02*X261393D01*
X260607Y62000D02*X261393D01*
G54D24*X268268Y41287D02*Y39713D01*
G54D23*X242500Y62900D02*Y56400D01*
X247500Y62900D02*Y56400D01*
X252500Y62900D02*Y56400D01*
G54D24*X251733Y41287D02*Y39713D01*
G54D23*X252500Y83400D02*Y76900D01*
X247500Y83400D02*Y76900D01*
X242500Y83400D02*Y76900D01*
X237500Y83400D02*Y76900D01*
G54D22*X252500Y92600D02*Y91000D01*
X260300Y92600D02*Y91000D01*
Y100800D02*Y99200D01*
X256400Y100800D02*Y99200D01*
X252500Y100800D02*Y99200D01*
G54D21*X76043Y136893D02*Y136107D01*
X68957Y136893D02*Y136107D01*
X15607Y100086D02*X16393D01*
G54D22*X31100Y100800D02*Y99200D01*
X27200Y100800D02*Y99200D01*
X23300Y100800D02*Y99200D01*
G54D21*X27457Y111893D02*Y111107D01*
X34543Y111893D02*Y111107D01*
G54D22*X55750Y100800D02*Y99200D01*
X51850Y100800D02*Y99200D01*
X47950Y100800D02*Y99200D01*
G54D21*X51914Y111893D02*Y111107D01*
X59000Y111893D02*Y111107D01*
X8607Y126457D02*X9393D01*
X8607Y133543D02*X9393D01*
G54D23*X19500Y126500D02*X26000D01*
G54D21*X21414Y145393D02*Y144607D01*
X28500Y145393D02*Y144607D01*
G54D23*X19500Y136500D02*X26000D01*
X19500Y131500D02*X26000D01*
X19500Y121500D02*X26000D01*
X40000D02*X46500D01*
X40000Y126500D02*X46500D01*
X40000Y131500D02*X46500D01*
X40000Y136500D02*X46500D01*
G54D21*X106957Y111893D02*Y111107D01*
X114043Y111893D02*Y111107D01*
G54D23*X120000Y121500D02*X126500D01*
X120000Y126500D02*X126500D01*
X120000Y131500D02*X126500D01*
X120000Y136500D02*X126500D01*
X99500D02*X106000D01*
X99500Y131500D02*X106000D01*
X99500Y126500D02*X106000D01*
X99500Y121500D02*X106000D01*
G54D21*X89607Y135957D02*X90393D01*
X89607Y143043D02*X90393D01*
G54D24*X97232Y41287D02*Y39713D01*
X34267Y41287D02*Y39713D01*
G54D23*X33000Y62750D02*Y56250D01*
X38000Y62750D02*Y56250D01*
G54D24*X17732Y41287D02*Y39713D01*
X46733Y41287D02*Y39713D01*
X63268Y41287D02*Y39713D01*
G54D23*X48000Y83250D02*Y76750D01*
X43000Y83250D02*Y76750D01*
X38000Y83250D02*Y76750D01*
X33000Y83250D02*Y76750D01*
G54D21*X25607Y69043D02*X26393D01*
X25607Y61957D02*X26393D01*
G54D23*X43000Y62750D02*Y56250D01*
X48000Y62750D02*Y56250D01*
G54D21*X55107Y69043D02*X55893D01*
X55107Y61957D02*X55893D01*
X95193Y100000D02*X95979D01*
G54D22*X111000Y100800D02*Y99200D01*
X107100Y100800D02*Y99200D01*
X103200Y100800D02*Y99200D01*
G54D21*X131957Y111893D02*Y111107D01*
X139043Y111893D02*Y111107D01*
G54D22*X135750Y100800D02*Y99200D01*
X131850Y100800D02*Y99200D01*
X127950Y100800D02*Y99200D01*
G54D21*X95193Y92914D02*X95979D01*
X15607Y93000D02*X16393D01*
G54D22*X47950Y92600D02*Y91000D01*
X55750Y92600D02*Y91000D01*
X23300Y92600D02*Y91000D01*
X31100Y92600D02*Y91000D01*
G54D21*X40107Y92914D02*X40893D01*
X40107Y100000D02*X40893D01*
G54D24*X113767Y41287D02*Y39713D01*
X127233Y41287D02*Y39713D01*
X143768Y41287D02*Y39713D01*
G54D21*X104607Y69043D02*X105393D01*
X104607Y61957D02*X105393D01*
G54D23*X113000Y62750D02*Y56250D01*
X118000Y62750D02*Y56250D01*
X123000Y62750D02*Y56250D01*
X128000Y62750D02*Y56250D01*
G54D22*X103200Y92600D02*Y91000D01*
X111000Y92600D02*Y91000D01*
G54D21*X120107Y93000D02*X120893D01*
X120107Y100086D02*X120893D01*
G54D22*X127950Y92600D02*Y91000D01*
G54D23*X128000Y83250D02*Y76750D01*
X123000Y83250D02*Y76750D01*
X118000Y83250D02*Y76750D01*
X113000Y83250D02*Y76750D01*
G54D26*X132000Y105500D03*
X151395Y74500D03*
X145895D03*
X140395D03*
X151395Y79500D03*
X145895D03*
X140395D03*
X151395Y84500D03*
X145895D03*
X140395D03*
X174500Y105500D03*
X170000D03*
X165500D03*
X182000Y31000D03*
X176500D03*
X182000Y36000D03*
X176500D03*
X171000Y31000D03*
X165500D03*
X171000Y36000D03*
X165500D03*
X182000Y19000D03*
Y13500D03*
X176500D03*
X171000D03*
X165500D03*
X176500Y19000D03*
X171000D03*
X165500D03*
X183500Y105500D03*
X256500D03*
X232000D03*
X224000D03*
X219500D03*
X210500Y97000D03*
X226500Y76500D03*
X221000D03*
X215500D03*
X226500Y81500D03*
X221000D03*
X215500D03*
X195500Y85500D03*
X201000D03*
Y81000D03*
Y76500D03*
X195500Y81000D03*
Y76500D03*
X281395Y74500D03*
X275895D03*
X270395D03*
X264895D03*
X281395Y79500D03*
Y84500D03*
X275895Y79500D03*
Y84500D03*
X270395Y79500D03*
Y84500D03*
X264895Y79500D03*
Y84500D03*
X247000Y192000D03*
X179000Y105500D03*
X174000Y79500D03*
Y67500D03*
X165500Y61500D03*
X170000D03*
X174500D03*
X188000D03*
X179000D03*
X183500D03*
X165500Y57000D03*
Y52500D03*
X170000D03*
X174500D03*
X170000Y57000D03*
X174500D03*
X210473Y71489D03*
Y76489D03*
Y81489D03*
X210500Y87000D03*
Y92000D03*
X195500Y99000D03*
X201000D03*
X195500Y94500D03*
X201000D03*
X195500Y90000D03*
X201000D03*
X195500Y72000D03*
X201000D03*
X52000Y105500D03*
X107500D03*
X76632Y75616D03*
Y80616D03*
X76658Y86127D03*
Y91127D03*
Y96127D03*
X76500Y112000D03*
X71158Y91127D03*
Y96127D03*
X71000Y112000D03*
Y117000D03*
X87500D03*
X82158Y96127D03*
X82000Y112000D03*
Y117000D03*
X76500D03*
X27500Y105500D03*
X20427Y70645D03*
X14927D03*
X20427Y75645D03*
X14927D03*
X9427Y70645D03*
X3927D03*
X9427Y75645D03*
X3927D03*
X20427Y80645D03*
X14927D03*
X9427D03*
X3927D03*
X87632Y70616D03*
X82132D03*
X76632D03*
X71132D03*
Y75616D03*
Y80616D03*
X71158Y86127D03*
X87632Y75616D03*
Y80616D03*
X87658Y86127D03*
Y91127D03*
Y96127D03*
X87500Y112000D03*
X82132Y75616D03*
Y80616D03*
X82158Y86127D03*
Y91127D03*
X67000Y178000D03*
X72000Y182000D03*
X77000Y186000D03*
X82000Y190000D03*
X87000Y194000D03*
X62000Y174000D03*
G54D27*G54D28*G54D29*G54D30*G54D31*G54D32*G54D33*G54D32*M02*
