G04 start of page 8 for group -4079 idx -4079 *
G04 Title: (unknown), topsilk *
G04 Creator: pcb 20110918 *
G04 CreationDate: Tue 11 Feb 2014 10:14:15 PM GMT UTC *
G04 For: ndholmes *
G04 Format: Gerber/RS-274X *
G04 PCB-Dimensions: 285500 200000 *
G04 PCB-Coordinate-Origin: lower left *
%MOIN*%
%FSLAX25Y25*%
%LNTOPSILK*%
%ADD78C,0.0100*%
G54D78*X500Y500D02*X284500D01*
Y199500D02*X500D01*
Y500D01*
X284988D02*Y199500D01*
X282500D02*X285000D01*
X283000Y500D02*X285000D01*
X145500Y51000D02*X147500D01*
X146500Y52000D02*Y50000D01*
X93500Y51000D02*X95500D01*
X94500Y52000D02*Y50000D01*
X153500Y46000D02*Y44500D01*
X154000Y46500D02*X153500Y46000D01*
X154000Y46500D02*X157000D01*
X157500Y46000D01*
Y44500D01*
X153500Y43300D02*X157500D01*
X155000D02*X155500Y42800D01*
Y41800D01*
X155000Y41300D01*
X153500D02*X155000D01*
X155500Y40100D02*X157500Y38100D01*
X155500Y40100D02*Y37600D01*
X153500Y38100D02*X157500D01*
X155500Y34600D02*Y32600D01*
X193000Y130500D02*X194500D01*
X193000Y128500D02*X195000D01*
X193000Y132500D02*Y128500D01*
Y132500D02*X195000D01*
X196200D02*Y128500D01*
Y132500D02*Y132000D01*
X198700Y129500D01*
Y132500D02*Y128500D01*
X201900Y132500D02*X202400Y132000D01*
X200400Y132500D02*X201900D01*
X199900Y132000D02*X200400Y132500D01*
X199900Y132000D02*Y129000D01*
X200400Y128500D01*
X201900D01*
X202400Y129000D01*
Y130000D02*Y129000D01*
X201900Y130500D02*X202400Y130000D01*
X200900Y130500D02*X201900D01*
X203600Y132500D02*X204600D01*
X204100D02*Y128500D01*
X203600D02*X204600D01*
X205800Y132500D02*Y128500D01*
Y132500D02*Y132000D01*
X208300Y129500D01*
Y132500D02*Y128500D01*
X209500Y130500D02*X211000D01*
X209500Y128500D02*X211500D01*
X209500Y132500D02*Y128500D01*
Y132500D02*X211500D01*
X212700Y130500D02*X214200D01*
X212700Y128500D02*X214700D01*
X212700Y132500D02*Y128500D01*
Y132500D02*X214700D01*
X215900D02*X217900D01*
X218400Y132000D01*
Y131000D01*
X217900Y130500D02*X218400Y131000D01*
X216400Y130500D02*X217900D01*
X216400Y132500D02*Y128500D01*
Y130500D02*X218400Y128500D01*
X219600Y132500D02*X220600D01*
X220100D02*Y128500D01*
X219600D02*X220600D01*
X221800Y132500D02*Y128500D01*
Y132500D02*Y132000D01*
X224300Y129500D01*
Y132500D02*Y128500D01*
X227500Y132500D02*X228000Y132000D01*
X226000Y132500D02*X227500D01*
X225500Y132000D02*X226000Y132500D01*
X225500Y132000D02*Y129000D01*
X226000Y128500D01*
X227500D01*
X228000Y129000D01*
Y130000D02*Y129000D01*
X227500Y130500D02*X228000Y130000D01*
X226500Y130500D02*X227500D01*
X193000Y139500D02*X194000D01*
X193500D02*Y135500D01*
X193000D02*X194000D01*
X195200Y139000D02*Y136000D01*
Y139000D02*X195700Y139500D01*
X196700D01*
X197200Y139000D01*
Y136000D01*
X196700Y135500D02*X197200Y136000D01*
X195700Y135500D02*X196700D01*
X195200Y136000D02*X195700Y135500D01*
X198400Y139500D02*Y135500D01*
X199900Y137000D01*
X201400Y135500D01*
Y139500D02*Y135500D01*
X202600Y139000D02*Y135500D01*
Y139000D02*X203100Y139500D01*
X204600D01*
X205100Y139000D01*
Y135500D01*
X202600Y137500D02*X205100D01*
X210100Y139500D02*X210600Y139000D01*
X208600Y139500D02*X210100D01*
X208100Y139000D02*X208600Y139500D01*
X208100Y139000D02*Y138000D01*
X208600Y137500D01*
X210100D01*
X210600Y137000D01*
Y136000D01*
X210100Y135500D02*X210600Y136000D01*
X208600Y135500D02*X210100D01*
X208100Y136000D02*X208600Y135500D01*
X212300D02*X213800D01*
X211800Y136000D02*X212300Y135500D01*
X211800Y139000D02*Y136000D01*
Y139000D02*X212300Y139500D01*
X213800D01*
X215000Y139000D02*Y135500D01*
Y139000D02*X215500Y139500D01*
X217000D01*
X217500Y139000D01*
Y135500D01*
X215000Y137500D02*X217500D01*
X218700Y139500D02*Y135500D01*
X220700D01*
X221900Y137500D02*X223400D01*
X221900Y135500D02*X223900D01*
X221900Y139500D02*Y135500D01*
Y139500D02*X223900D01*
X225600D02*Y135500D01*
X227100Y139500D02*X227600Y139000D01*
Y136000D01*
X227100Y135500D02*X227600Y136000D01*
X225100Y135500D02*X227100D01*
X225100Y139500D02*X227100D01*
X183500Y187500D02*X183000Y188000D01*
X183500Y187500D02*X185000D01*
X185500Y188000D02*X185000Y187500D01*
X185500Y191000D02*Y188000D01*
Y191000D02*X185000Y191500D01*
X183500D02*X185000D01*
X183500D02*X183000Y191000D01*
Y190000D01*
X183500Y189500D02*X183000Y190000D01*
X183500Y189500D02*X184500D01*
X181800Y191500D02*Y187500D01*
Y188000D02*Y187500D01*
Y188000D02*X179300Y190500D01*
Y191500D02*Y187500D01*
X177600Y191500D02*Y187500D01*
X176100D02*X175600Y188000D01*
Y191000D02*Y188000D01*
X176100Y191500D02*X175600Y191000D01*
X176100Y191500D02*X178100D01*
X176100Y187500D02*X178100D01*
X193500Y119500D02*X195000D01*
X193000Y120000D02*X193500Y119500D01*
X193000Y123000D02*Y120000D01*
Y123000D02*X193500Y123500D01*
X195000D01*
X196200D02*Y119500D01*
Y121500D02*X198200Y123500D01*
X196200Y121500D02*X198200Y119500D01*
X199400Y123500D02*X201400D01*
X200400D02*Y119500D01*
X202600Y121500D02*X204600D01*
X207800Y123500D02*X208300Y123000D01*
X206300Y123500D02*X207800D01*
X205800Y123000D02*X206300Y123500D01*
X205800Y123000D02*Y122000D01*
X206300Y121500D01*
X207800D01*
X208300Y121000D01*
Y120000D01*
X207800Y119500D02*X208300Y120000D01*
X206300Y119500D02*X207800D01*
X205800Y120000D02*X206300Y119500D01*
X209500Y123500D02*Y119500D01*
X211500D01*
X213200D02*X214700D01*
X212700Y120000D02*X213200Y119500D01*
X212700Y123000D02*Y120000D01*
Y123000D02*X213200Y123500D01*
X214700D01*
X217700Y121500D02*Y120500D01*
X218700Y119500D01*
X219700Y120500D01*
Y121500D02*Y120500D01*
X221400Y119500D02*X222400D01*
X221900Y123500D02*Y119500D01*
X220900Y122500D02*X221900Y123500D01*
X223600Y119500D02*X224100D01*
X225300Y120000D02*X225800Y119500D01*
X225300Y123000D02*Y120000D01*
Y123000D02*X225800Y123500D01*
X226800D01*
X227300Y123000D01*
Y120000D01*
X226800Y119500D02*X227300Y120000D01*
X225800Y119500D02*X226800D01*
X225300Y120500D02*X227300Y122500D01*
X232500Y189500D02*X234500D01*
X233500Y190500D02*Y188500D01*
X229800Y191500D02*X230800D01*
X230300D02*Y187500D01*
X231300Y188500D02*X230300Y187500D01*
X228600Y188000D02*X228100Y187500D01*
X226600D02*X228100D01*
X226600D02*X226100Y188000D01*
Y189000D02*Y188000D01*
X228600Y191500D02*X226100Y189000D01*
Y191500D02*X228600D01*
X224900Y190500D02*Y187500D01*
Y190500D02*X223900Y191500D01*
X222900Y190500D01*
Y187500D01*
X219900Y190500D02*Y187500D01*
Y190500D02*X218900Y191500D01*
X215900D02*X218900D01*
X214900Y190000D02*Y187500D01*
X215900Y186500D01*
X218900D01*
X219900Y187500D01*
X218400Y189500D02*Y188500D01*
Y189500D02*X217900Y190000D01*
X216900D02*X217900D01*
X216900D02*X216400Y189500D01*
X215900Y190000D01*
X216400Y189500D02*Y188000D01*
Y188500D02*X216900Y188000D01*
X217900D01*
X218400Y188500D01*
X214900Y190000D02*X215900D01*
X210400Y191500D02*X211400D01*
X210900D02*Y187500D01*
X211900Y188500D02*X210900Y187500D01*
X209200Y191000D02*X208700Y191500D01*
X209200Y191000D02*Y188000D01*
X208700Y187500D01*
X207700D02*X208700D01*
X207700D02*X207200Y188000D01*
Y191000D02*Y188000D01*
X207700Y191500D02*X207200Y191000D01*
X207700Y191500D02*X208700D01*
X209200Y190500D02*X207200Y188500D01*
X206000Y191500D02*Y188000D01*
X205500Y187500D01*
X204000D02*X205500D01*
X204000D02*X203500Y188000D01*
Y191500D02*Y188000D01*
Y189500D02*X206000D01*
X217500Y51000D02*X219500D01*
X218500Y52000D02*Y50000D01*
X207000Y46000D02*Y44500D01*
X207500Y46500D02*X207000Y46000D01*
X207500Y46500D02*X210500D01*
X211000Y46000D01*
Y44500D01*
X207000Y43300D02*X211000D01*
X208500D02*X209000Y42800D01*
Y41800D01*
X208500Y41300D01*
X207000D02*X208500D01*
X211000Y40100D02*Y38100D01*
X209000Y40100D02*X211000D01*
X209000D02*X209500Y39600D01*
Y38600D01*
X209000Y38100D01*
X207500D02*X209000D01*
X207000Y38600D02*X207500Y38100D01*
X207000Y39600D02*Y38600D01*
X207500Y40100D02*X207000Y39600D01*
X209000Y35100D02*Y33100D01*
X65500Y51000D02*X67500D01*
X66500Y52000D02*Y50000D01*
X83000Y46000D02*Y44500D01*
X83500Y46500D02*X83000Y46000D01*
X83500Y46500D02*X86500D01*
X87000Y46000D01*
Y44500D01*
X83000Y43300D02*X87000D01*
X84500D02*X85000Y42800D01*
Y41800D01*
X84500Y41300D01*
X83000D02*X84500D01*
X86500Y40100D02*X87000Y39600D01*
Y38600D01*
X86500Y38100D01*
X83500D02*X86500D01*
X83000Y38600D02*X83500Y38100D01*
X83000Y39600D02*Y38600D01*
X83500Y40100D02*X83000Y39600D01*
X85000D02*Y38100D01*
Y35100D02*Y33100D01*
X74500Y46500D02*Y45000D01*
X75000Y47000D02*X74500Y46500D01*
X75000Y47000D02*X78000D01*
X78500Y46500D01*
Y45000D01*
X74500Y43800D02*X78500D01*
X76000D02*X76500Y43300D01*
Y42300D01*
X76000Y41800D01*
X74500D02*X76000D01*
X78000Y40600D02*X78500Y40100D01*
Y38600D01*
X78000Y38100D01*
X77000D02*X78000D01*
X74500Y40600D02*X77000Y38100D01*
X74500Y40600D02*Y38100D01*
X76500Y35100D02*Y33100D01*
X13500Y51000D02*X15500D01*
X14500Y52000D02*Y50000D01*
X4000Y46000D02*Y44500D01*
X4500Y46500D02*X4000Y46000D01*
X4500Y46500D02*X7500D01*
X8000Y46000D01*
Y44500D01*
X4000Y43300D02*X8000D01*
X5500D02*X6000Y42800D01*
Y41800D01*
X5500Y41300D01*
X4000D02*X5500D01*
X4000Y39600D02*Y38600D01*
Y39100D02*X8000D01*
X7000Y40100D02*X8000Y39100D01*
X6000Y35600D02*Y33600D01*
X270500Y51000D02*X272500D01*
X271500Y52000D02*Y50000D01*
X278000Y45500D02*Y44000D01*
X278500Y46000D02*X278000Y45500D01*
X278500Y46000D02*X281500D01*
X282000Y45500D01*
Y44000D01*
X278000Y42800D02*X282000D01*
X279500D02*X280000Y42300D01*
Y41300D01*
X279500Y40800D01*
X278000D02*X279500D01*
X282000Y38100D02*X281500Y37600D01*
X282000Y39100D02*Y38100D01*
X281500Y39600D02*X282000Y39100D01*
X278500Y39600D02*X281500D01*
X278500D02*X278000Y39100D01*
X280000Y38100D02*X279500Y37600D01*
X280000Y39600D02*Y38100D01*
X278000Y39100D02*Y38100D01*
X278500Y37600D01*
X279500D01*
X280000Y34600D02*Y32600D01*
X72107Y133745D02*X72893D01*
X72107Y139255D02*X72893D01*
X6245Y130393D02*Y129607D01*
X11755Y130393D02*Y129607D01*
X24564Y147755D02*X25350D01*
X24564Y142245D02*X25350D01*
X110107Y114255D02*X110893D01*
X110107Y108745D02*X110893D01*
X135107Y114255D02*X135893D01*
X135107Y108745D02*X135893D01*
X111000Y85250D02*X130000D01*
X111000D02*Y54250D01*
X130000D01*
Y85250D02*Y72250D01*
Y67250D02*Y54250D01*
Y72250D02*G75*G03X130000Y67250I0J-2500D01*G01*
X160750Y139000D02*Y61000D01*
X187250Y139000D02*Y61000D01*
X160750Y139000D02*X187250D01*
X160750Y61000D02*X187250D01*
X13245Y96936D02*Y96150D01*
X18755Y96936D02*Y96150D01*
X31000Y85250D02*X50000D01*
X31000D02*Y54250D01*
X50000D01*
Y85250D02*Y72250D01*
Y67250D02*Y54250D01*
Y72250D02*G75*G03X50000Y67250I0J-2500D01*G01*
X45950Y102800D02*Y88900D01*
X57750D01*
Y102800D02*Y88900D01*
X45950Y102800D02*X57750D01*
X28755Y65893D02*Y65107D01*
X23245Y65893D02*Y65107D01*
X21300Y102800D02*Y88900D01*
X33100D01*
Y102800D02*Y88900D01*
X21300Y102800D02*X33100D01*
X37745Y96850D02*Y96064D01*
X43255Y96850D02*Y96064D01*
X17500Y138500D02*Y119500D01*
X48500D01*
Y138500D02*Y119500D01*
X17500Y138500D02*X30500D01*
X35500D02*X48500D01*
X30500D02*G75*G03X35500Y138500I2500J0D01*G01*
X55064Y114255D02*X55850D01*
X55064Y108745D02*X55850D01*
X30607Y114255D02*X31393D01*
X30607Y108745D02*X31393D01*
X97500Y138500D02*Y119500D01*
X128500D01*
Y138500D01*
X97500D02*X110500D01*
X128500D02*X115500D01*
X110500D02*G75*G03X115500Y138500I2500J0D01*G01*
X37000Y194000D02*Y149000D01*
X157000Y194000D02*Y149000D01*
X37000D02*X157000D01*
X87245Y139893D02*Y139107D01*
X92755Y139893D02*Y139107D01*
X217745Y96893D02*Y96107D01*
X223255Y96893D02*Y96107D01*
X232255Y65893D02*Y65107D01*
X226745Y65893D02*Y65107D01*
X225700Y102800D02*Y88900D01*
X237500D01*
Y102800D02*Y88900D01*
X225700Y102800D02*X237500D01*
X235500Y85400D02*X254500D01*
X235500D02*Y54400D01*
X254500D01*
Y85400D02*Y72400D01*
Y67400D02*Y54400D01*
Y72400D02*G75*G03X254500Y67400I0J-2500D01*G01*
X216812Y47980D02*X243188D01*
Y33020D01*
X216812D02*X243188D01*
X216812Y47980D02*Y33020D01*
X242288Y96850D02*Y96064D01*
X247798Y96850D02*Y96064D01*
X259607Y114255D02*X260393D01*
X259607Y108745D02*X260393D01*
X263755Y65936D02*Y65150D01*
X258245Y65936D02*Y65150D01*
X250500Y102800D02*Y88900D01*
X262300D01*
Y102800D02*Y88900D01*
X250500Y102800D02*X262300D01*
X246812Y33020D02*X273188D01*
X246812Y47980D02*Y33020D01*
Y47980D02*X273188D01*
Y33020D01*
X245000Y700D02*X285000D01*
X245000Y30700D02*X285000D01*
X245000Y26300D02*X285000D01*
X245000Y30700D02*Y700D01*
X285000Y30700D02*Y700D01*
X205000D02*X245000D01*
X205000Y30700D02*X245000D01*
X205000Y26300D02*X245000D01*
X205000Y30700D02*Y700D01*
X245000Y30700D02*Y700D01*
X139255Y65893D02*Y65107D01*
X133745Y65893D02*Y65107D01*
X92312Y47980D02*X118688D01*
Y33020D01*
X92312D02*X118688D01*
X92312Y47980D02*Y33020D01*
X107755Y65893D02*Y65107D01*
X102245Y65893D02*Y65107D01*
X148688Y33020D02*X122312D01*
Y47980D01*
X148688D01*
Y33020D01*
X500Y700D02*X40500D01*
X500Y30700D02*X40500D01*
X500Y26300D02*X40500D01*
X500Y30700D02*Y700D01*
X40500Y30700D02*Y700D01*
X12812Y47980D02*X39188D01*
Y33020D01*
X12812D02*X39188D01*
X12812Y47980D02*Y33020D01*
X68188D02*X41812D01*
Y47980D01*
X68188D01*
Y33020D01*
X40500Y700D02*X80500D01*
X40500Y30700D02*X80500D01*
X40500Y26300D02*X80500D01*
X40500Y30700D02*Y700D01*
X80500Y30700D02*Y700D01*
X58255Y65893D02*Y65107D01*
X52745Y65893D02*Y65107D01*
X92831Y96850D02*Y96064D01*
X98341Y96850D02*Y96064D01*
X101200Y102800D02*Y88900D01*
X113000D01*
Y102800D02*Y88900D01*
X101200Y102800D02*X113000D01*
X125950D02*Y88900D01*
X137750D01*
Y102800D02*Y88900D01*
X125950Y102800D02*X137750D01*
X117745Y96936D02*Y96150D01*
X123255Y96936D02*Y96150D01*
X80500Y700D02*X120500D01*
X80500Y30700D02*X120500D01*
X80500Y26300D02*X120500D01*
X80500Y30700D02*Y700D01*
X120500Y30700D02*Y700D01*
X160500D01*
X120500Y30700D02*X160500D01*
X120500Y26300D02*X160500D01*
X120500Y30700D02*Y700D01*
X160500Y30700D02*Y700D01*
X162350Y33600D02*X173250Y42300D01*
X203150D01*
Y7700D01*
X173250D02*X203150D01*
X173250D02*X162350Y16400D01*
Y33600D02*Y16400D01*
X185032Y55314D02*X188968D01*
X185032Y44686D02*X188968D01*
X235064Y114255D02*X235850D01*
X235064Y108745D02*X235850D01*
X241500Y148500D02*X260500D01*
X241500D02*Y117500D01*
X260500D01*
Y148500D02*Y135500D01*
Y130500D02*Y117500D01*
Y135500D02*G75*G03X260500Y130500I0J-2500D01*G01*
X242745Y158393D02*Y157607D01*
X248255Y158393D02*Y157607D01*
X257245Y157893D02*Y157107D01*
X262755Y157893D02*Y157107D01*
X170500Y183700D02*X230500D01*
X170500Y148300D02*X230500D01*
X170500Y153200D02*X230500D01*
Y183700D02*Y148300D01*
X170500Y183700D02*Y148300D01*
X57565Y138150D02*X59565D01*
X60065Y137650D01*
Y136650D01*
X59565Y136150D02*X60065Y136650D01*
X58065Y136150D02*X59565D01*
X58065Y138150D02*Y134150D01*
Y136150D02*X60065Y134150D01*
X61265Y134650D02*X61765Y134150D01*
X61265Y135650D02*Y134650D01*
Y135650D02*X61765Y136150D01*
X62765D01*
X63265Y135650D01*
Y134650D01*
X62765Y134150D02*X63265Y134650D01*
X61765Y134150D02*X62765D01*
X61265Y136650D02*X61765Y136150D01*
X61265Y137650D02*Y136650D01*
Y137650D02*X61765Y138150D01*
X62765D01*
X63265Y137650D01*
Y136650D01*
X62765Y136150D02*X63265Y136650D01*
X39100Y107793D02*Y105793D01*
Y107793D02*X39600Y108293D01*
X40600D01*
X41100Y107793D02*X40600Y108293D01*
X41100Y107793D02*Y106293D01*
X39100D02*X43100D01*
X41100D02*X43100Y108293D01*
Y110993D02*Y109993D01*
X39100Y110493D02*X43100D01*
X40100Y109493D02*X39100Y110493D01*
X52000Y131000D02*Y127500D01*
X52500Y127000D01*
X53500D01*
X54000Y127500D01*
Y131000D02*Y127500D01*
X55700Y127000D02*X56700D01*
X56200Y131000D02*Y127000D01*
X55200Y130000D02*X56200Y131000D01*
X57264Y116650D02*X58764D01*
X56764Y117150D02*X57264Y116650D01*
X56764Y120150D02*Y117150D01*
Y120150D02*X57264Y120650D01*
X58764D01*
X59964Y118650D02*X61964Y120650D01*
X59964Y118650D02*X62464D01*
X61964Y120650D02*Y116650D01*
X6350Y95678D02*Y93678D01*
Y95678D02*X6850Y96178D01*
X7850D01*
X8350Y95678D02*X7850Y96178D01*
X8350Y95678D02*Y94178D01*
X6350D02*X10350D01*
X8350D02*X10350Y96178D01*
X6850Y97378D02*X6350Y97878D01*
Y99378D02*Y97878D01*
Y99378D02*X6850Y99878D01*
X7850D01*
X10350Y97378D02*X7850Y99878D01*
X10350D02*Y97378D01*
X24500Y73750D02*X28000D01*
X28500Y74250D01*
Y75250D02*Y74250D01*
Y75250D02*X28000Y75750D01*
X24500D02*X28000D01*
X26500Y76950D02*X24500Y78950D01*
X26500Y79450D02*Y76950D01*
X24500Y78950D02*X28500D01*
X53050Y86400D02*Y82900D01*
X53550Y82400D01*
X54550D01*
X55050Y82900D01*
Y86400D02*Y82900D01*
X56250Y85900D02*X56750Y86400D01*
X58250D01*
X58750Y85900D01*
Y84900D01*
X56250Y82400D02*X58750Y84900D01*
X56250Y82400D02*X58750D01*
X21950Y86750D02*Y83250D01*
X22450Y82750D01*
X23450D01*
X23950Y83250D01*
Y86750D02*Y83250D01*
X25150Y86250D02*X25650Y86750D01*
X26650D01*
X27150Y86250D01*
Y83250D01*
X26650Y82750D02*X27150Y83250D01*
X25650Y82750D02*X26650D01*
X25150Y83250D02*X25650Y82750D01*
Y84750D02*X27150D01*
X65350Y64936D02*Y63436D01*
X64850Y62936D02*X65350Y63436D01*
X61850Y62936D02*X64850D01*
X61850D02*X61350Y63436D01*
Y64936D02*Y63436D01*
Y68136D02*Y66136D01*
X63350D01*
X62850Y66636D01*
Y67636D02*Y66636D01*
Y67636D02*X63350Y68136D01*
X64850D01*
X65350Y67636D02*X64850Y68136D01*
X65350Y67636D02*Y66636D01*
X64850Y66136D02*X65350Y66636D01*
X19850Y64850D02*Y63350D01*
X19350Y62850D02*X19850Y63350D01*
X16350Y62850D02*X19350D01*
X16350D02*X15850Y63350D01*
Y64850D02*Y63350D01*
Y67550D02*X16350Y68050D01*
X15850Y67550D02*Y66550D01*
X16350Y66050D02*X15850Y66550D01*
X16350Y66050D02*X19350D01*
X19850Y66550D01*
X17850Y67550D02*X18350Y68050D01*
X17850Y67550D02*Y66050D01*
X19850Y67550D02*Y66550D01*
Y67550D02*X19350Y68050D01*
X18350D02*X19350D01*
X31157Y172500D02*X32657D01*
Y169000D01*
X32157Y168500D02*X32657Y169000D01*
X31657Y168500D02*X32157D01*
X31157Y169000D02*X31657Y168500D01*
X34357D02*X35357D01*
X34857Y172500D02*Y168500D01*
X33857Y171500D02*X34857Y172500D01*
X6850Y116807D02*Y114807D01*
Y116807D02*X7350Y117307D01*
X8350D01*
X8850Y116807D02*X8350Y117307D01*
X8850Y116807D02*Y115307D01*
X6850D02*X10850D01*
X8850D02*X10850Y117307D01*
X8850Y118507D02*X6850Y120507D01*
X8850Y121007D02*Y118507D01*
X6850Y120507D02*X10850D01*
X21264Y155650D02*X23264D01*
X23764Y155150D01*
Y154150D01*
X23264Y153650D02*X23764Y154150D01*
X21764Y153650D02*X23264D01*
X21764Y155650D02*Y151650D01*
Y153650D02*X23764Y151650D01*
X24964Y155150D02*X25464Y155650D01*
X26464D01*
X26964Y155150D01*
Y152150D01*
X26464Y151650D02*X26964Y152150D01*
X25464Y151650D02*X26464D01*
X24964Y152150D02*X25464Y151650D01*
Y153650D02*X26964D01*
X18893Y113150D02*X20393D01*
X18393Y113650D02*X18893Y113150D01*
X18393Y116650D02*Y113650D01*
Y116650D02*X18893Y117150D01*
X20393D01*
X21593Y116650D02*X22093Y117150D01*
X23093D01*
X23593Y116650D01*
Y113650D01*
X23093Y113150D02*X23593Y113650D01*
X22093Y113150D02*X23093D01*
X21593Y113650D02*X22093Y113150D01*
Y115150D02*X23593D01*
X211350Y102807D02*Y100807D01*
Y102807D02*X211850Y103307D01*
X212850D01*
X213350Y102807D02*X212850Y103307D01*
X213350Y102807D02*Y101307D01*
X211350D02*X215350D01*
X213350D02*X215350Y103307D01*
Y106007D02*Y105007D01*
X211350Y105507D02*X215350D01*
X212350Y104507D02*X211350Y105507D01*
X214850Y107207D02*X215350Y107707D01*
X211850Y107207D02*X214850D01*
X211850D02*X211350Y107707D01*
Y108707D02*Y107707D01*
Y108707D02*X211850Y109207D01*
X214850D01*
X215350Y108707D02*X214850Y109207D01*
X215350Y108707D02*Y107707D01*
X214350Y107207D02*X212350Y109207D01*
X242893Y108264D02*Y106264D01*
Y108264D02*X243393Y108764D01*
X244393D01*
X244893Y108264D02*X244393Y108764D01*
X244893Y108264D02*Y106764D01*
X242893D02*X246893D01*
X244893D02*X246893Y108764D01*
Y109964D02*X244893Y111964D01*
X243393D02*X244893D01*
X242893Y111464D02*X243393Y111964D01*
X242893Y111464D02*Y110464D01*
X243393Y109964D02*X242893Y110464D01*
X243393Y109964D02*X244393D01*
X244893Y110464D01*
Y111964D02*Y110464D01*
X215800Y88300D02*Y84800D01*
X216300Y84300D01*
X217300D01*
X217800Y84800D01*
Y88300D02*Y84800D01*
X219500Y84300D02*X220500D01*
X220000Y88300D02*Y84300D01*
X219000Y87300D02*X220000Y88300D01*
X222200Y84300D02*X223200D01*
X222700Y88300D02*Y84300D01*
X221700Y87300D02*X222700Y88300D01*
X225350Y62807D02*Y61307D01*
X224850Y60807D02*X225350Y61307D01*
X221850Y60807D02*X224850D01*
X221850D02*X221350Y61307D01*
Y62807D02*Y61307D01*
X225350Y65507D02*Y64507D01*
X221350Y65007D02*X225350D01*
X222350Y64007D02*X221350Y65007D01*
X223350Y66707D02*X221350Y68707D01*
X223350Y69207D02*Y66707D01*
X221350Y68707D02*X225350D01*
X269307Y109650D02*X270807D01*
X268807Y110150D02*X269307Y109650D01*
X268807Y113150D02*Y110150D01*
Y113150D02*X269307Y113650D01*
X270807D01*
X272507Y109650D02*X273507D01*
X273007Y113650D02*Y109650D01*
X272007Y112650D02*X273007Y113650D01*
X275207Y109650D02*X276207D01*
X275707Y113650D02*Y109650D01*
X274707Y112650D02*X275707Y113650D01*
X270850Y63264D02*Y61764D01*
X270350Y61264D02*X270850Y61764D01*
X267350Y61264D02*X270350D01*
X267350D02*X266850Y61764D01*
Y63264D02*Y61764D01*
X270850Y65964D02*Y64964D01*
X266850Y65464D02*X270850D01*
X267850Y64464D02*X266850Y65464D01*
X267350Y67164D02*X266850Y67664D01*
Y68664D02*Y67664D01*
Y68664D02*X267350Y69164D01*
X270350D01*
X270850Y68664D02*X270350Y69164D01*
X270850Y68664D02*Y67664D01*
X270350Y67164D02*X270850Y67664D01*
X268850Y69164D02*Y67664D01*
X256800Y74900D02*X260300D01*
X260800Y75400D01*
Y76400D02*Y75400D01*
Y76400D02*X260300Y76900D01*
X256800D02*X260300D01*
X260800Y79600D02*Y78600D01*
X256800Y79100D02*X260800D01*
X257800Y78100D02*X256800Y79100D01*
X257300Y80800D02*X256800Y81300D01*
Y82800D02*Y81300D01*
Y82800D02*X257300Y83300D01*
X258300D01*
X260800Y80800D02*X258300Y83300D01*
X260800D02*Y80800D01*
X266600Y101000D02*Y97500D01*
X267100Y97000D01*
X268100D01*
X268600Y97500D01*
Y101000D02*Y97500D01*
X270300Y97000D02*X271300D01*
X270800Y101000D02*Y97000D01*
X269800Y100000D02*X270800Y101000D01*
X272500Y97500D02*X273000Y97000D01*
X272500Y100500D02*Y97500D01*
Y100500D02*X273000Y101000D01*
X274000D01*
X274500Y100500D01*
Y97500D01*
X274000Y97000D02*X274500Y97500D01*
X273000Y97000D02*X274000D01*
X272500Y98000D02*X274500Y100000D01*
X198850Y44800D02*X200350D01*
X198350Y45300D02*X198850Y44800D01*
X198350Y48300D02*Y45300D01*
Y48300D02*X198850Y48800D01*
X200350D01*
X202050Y44800D02*X203050D01*
X202550Y48800D02*Y44800D01*
X201550Y47800D02*X202550Y48800D01*
X226000Y55000D02*Y51000D01*
X227500Y55000D02*X228000Y54500D01*
Y51500D01*
X227500Y51000D02*X228000Y51500D01*
X225500Y51000D02*X227500D01*
X225500Y55000D02*X227500D01*
X229200D02*X231200D01*
X229200D02*Y53000D01*
X229700Y53500D01*
X230700D01*
X231200Y53000D01*
Y51500D01*
X230700Y51000D02*X231200Y51500D01*
X229700Y51000D02*X230700D01*
X229200Y51500D02*X229700Y51000D01*
X219350Y109650D02*X220850D01*
X218850Y110150D02*X219350Y109650D01*
X218850Y113150D02*Y110150D01*
Y113150D02*X219350Y113650D01*
X220850D01*
X222550Y109650D02*X223550D01*
X223050Y113650D02*Y109650D01*
X222050Y112650D02*X223050Y113650D01*
X224750Y113150D02*X225250Y113650D01*
X226750D01*
X227250Y113150D01*
Y112150D01*
X224750Y109650D02*X227250Y112150D01*
X224750Y109650D02*X227250D01*
X235764Y155350D02*Y153350D01*
Y155350D02*X236264Y155850D01*
X237264D01*
X237764Y155350D02*X237264Y155850D01*
X237764Y155350D02*Y153850D01*
X235764D02*X239764D01*
X237764D02*X239764Y155850D01*
Y158550D02*Y157550D01*
X235764Y158050D02*X239764D01*
X236764Y157050D02*X235764Y158050D01*
X236264Y159750D02*X235764Y160250D01*
Y161750D02*Y160250D01*
Y161750D02*X236264Y162250D01*
X237264D01*
X239764Y159750D02*X237264Y162250D01*
X239764D02*Y159750D01*
X258500Y54000D02*Y50000D01*
X260000Y54000D02*X260500Y53500D01*
Y50500D01*
X260000Y50000D02*X260500Y50500D01*
X258000Y50000D02*X260000D01*
X258000Y54000D02*X260000D01*
X263200D02*X263700Y53500D01*
X262200Y54000D02*X263200D01*
X261700Y53500D02*X262200Y54000D01*
X261700Y53500D02*Y50500D01*
X262200Y50000D01*
X263200Y52000D02*X263700Y51500D01*
X261700Y52000D02*X263200D01*
X262200Y50000D02*X263200D01*
X263700Y50500D01*
Y51500D02*Y50500D01*
X263000Y130500D02*X266500D01*
X267000Y131000D01*
Y132000D02*Y131000D01*
Y132000D02*X266500Y132500D01*
X263000D02*X266500D01*
X267000Y133700D02*X265000Y135700D01*
X263500D02*X265000D01*
X263000Y135200D02*X263500Y135700D01*
X263000Y135200D02*Y134200D01*
X263500Y133700D02*X263000Y134200D01*
X263500Y133700D02*X264500D01*
X265000Y134200D01*
Y135700D02*Y134200D01*
X265850Y155764D02*Y153764D01*
Y155764D02*X266350Y156264D01*
X267350D01*
X267850Y155764D02*X267350Y156264D01*
X267850Y155764D02*Y154264D01*
X265850D02*X269850D01*
X267850D02*X269850Y156264D01*
Y158964D02*Y157964D01*
X265850Y158464D02*X269850D01*
X266850Y157464D02*X265850Y158464D01*
X269850Y161664D02*Y160664D01*
X265850Y161164D02*X269850D01*
X266850Y160164D02*X265850Y161164D01*
X86039Y102871D02*Y100871D01*
Y102871D02*X86539Y103371D01*
X87539D01*
X88039Y102871D02*X87539Y103371D01*
X88039Y102871D02*Y101371D01*
X86039D02*X90039D01*
X88039D02*X90039Y103371D01*
X86039Y106071D02*X86539Y106571D01*
X86039Y106071D02*Y105071D01*
X86539Y104571D02*X86039Y105071D01*
X86539Y104571D02*X89539D01*
X90039Y105071D01*
X88039Y106071D02*X88539Y106571D01*
X88039Y106071D02*Y104571D01*
X90039Y106071D02*Y105071D01*
Y106071D02*X89539Y106571D01*
X88539D02*X89539D01*
X98850Y63307D02*Y61807D01*
X98350Y61307D02*X98850Y61807D01*
X95350Y61307D02*X98350D01*
X95350D02*X94850Y61807D01*
Y63307D02*Y61807D01*
X98850Y66007D02*Y65007D01*
X94850Y65507D02*X98850D01*
X95850Y64507D02*X94850Y65507D01*
X98350Y67207D02*X98850Y67707D01*
X95350Y67207D02*X98350D01*
X95350D02*X94850Y67707D01*
Y68707D02*Y67707D01*
Y68707D02*X95350Y69207D01*
X98350D01*
X98850Y68707D02*X98350Y69207D01*
X98850Y68707D02*Y67707D01*
X97850Y67207D02*X95850Y69207D01*
X81000Y138000D02*Y136000D01*
Y138000D02*X81500Y138500D01*
X82500D01*
X83000Y138000D02*X82500Y138500D01*
X83000Y138000D02*Y136500D01*
X81000D02*X85000D01*
X83000D02*X85000Y138500D01*
Y139700D02*X82500Y142200D01*
X81000D02*X82500D01*
X81000D02*Y139700D01*
X97393Y112650D02*X98893D01*
X96893Y113150D02*X97393Y112650D01*
X96893Y116150D02*Y113150D01*
Y116150D02*X97393Y116650D01*
X98893D01*
X100093Y113150D02*X100593Y112650D01*
X100093Y114150D02*Y113150D01*
Y114150D02*X100593Y114650D01*
X101593D01*
X102093Y114150D01*
Y113150D01*
X101593Y112650D02*X102093Y113150D01*
X100593Y112650D02*X101593D01*
X100093Y115150D02*X100593Y114650D01*
X100093Y116150D02*Y115150D01*
Y116150D02*X100593Y116650D01*
X101593D01*
X102093Y116150D01*
Y115150D01*
X101593Y114650D02*X102093Y115150D01*
X99300Y87000D02*Y83500D01*
X99800Y83000D01*
X100800D01*
X101300Y83500D01*
Y87000D02*Y83500D01*
X102500Y83000D02*X105000Y85500D01*
Y87000D02*Y85500D01*
X102500Y87000D02*X105000D01*
X102000Y54500D02*Y50500D01*
X103500Y54500D02*X104000Y54000D01*
Y51000D01*
X103500Y50500D02*X104000Y51000D01*
X101500Y50500D02*X103500D01*
X101500Y54500D02*X103500D01*
X105200Y54000D02*X105700Y54500D01*
X106700D01*
X107200Y54000D01*
Y51000D01*
X106700Y50500D02*X107200Y51000D01*
X105700Y50500D02*X106700D01*
X105200Y51000D02*X105700Y50500D01*
Y52500D02*X107200D01*
X23000Y55500D02*Y51500D01*
X24500Y55500D02*X25000Y55000D01*
Y52000D01*
X24500Y51500D02*X25000Y52000D01*
X22500Y51500D02*X24500D01*
X22500Y55500D02*X24500D01*
X26700Y51500D02*X27700D01*
X27200Y55500D02*Y51500D01*
X26200Y54500D02*X27200Y55500D01*
X104500Y74750D02*X108000D01*
X108500Y75250D01*
Y76250D02*Y75250D01*
Y76250D02*X108000Y76750D01*
X104500D02*X108000D01*
Y77950D02*X108500Y78450D01*
X107000Y77950D02*X108000D01*
X107000D02*X106500Y78450D01*
Y79450D02*Y78450D01*
Y79450D02*X107000Y79950D01*
X108000D01*
X108500Y79450D02*X108000Y79950D01*
X108500Y79450D02*Y78450D01*
X106000Y77950D02*X106500Y78450D01*
X105000Y77950D02*X106000D01*
X105000D02*X104500Y78450D01*
Y79450D02*Y78450D01*
Y79450D02*X105000Y79950D01*
X106000D01*
X106500Y79450D02*X106000Y79950D01*
X58000Y57500D02*Y53500D01*
X59500Y57500D02*X60000Y57000D01*
Y54000D01*
X59500Y53500D02*X60000Y54000D01*
X57500Y53500D02*X59500D01*
X57500Y57500D02*X59500D01*
X61200Y57000D02*X61700Y57500D01*
X63200D01*
X63700Y57000D01*
Y56000D01*
X61200Y53500D02*X63700Y56000D01*
X61200Y53500D02*X63700D01*
X132500Y55500D02*Y51500D01*
X134000Y55500D02*X134500Y55000D01*
Y52000D01*
X134000Y51500D02*X134500Y52000D01*
X132000Y51500D02*X134000D01*
X132000Y55500D02*X134000D01*
X135700Y53500D02*X137700Y55500D01*
X135700Y53500D02*X138200D01*
X137700Y55500D02*Y51500D01*
X136807Y117150D02*X138307D01*
X136307Y117650D02*X136807Y117150D01*
X136307Y120650D02*Y117650D01*
Y120650D02*X136807Y121150D01*
X138307D01*
X139507Y117150D02*X142007Y119650D01*
Y121150D02*Y119650D01*
X139507Y121150D02*X142007D01*
X146350Y65436D02*Y63936D01*
X145850Y63436D02*X146350Y63936D01*
X142850Y63436D02*X145850D01*
X142850D02*X142350Y63936D01*
Y65436D02*Y63936D01*
X146350Y66636D02*X144350Y68636D01*
X142850D02*X144350D01*
X142350Y68136D02*X142850Y68636D01*
X142350Y68136D02*Y67136D01*
X142850Y66636D02*X142350Y67136D01*
X142850Y66636D02*X143850D01*
X144350Y67136D01*
Y68636D02*Y67136D01*
X140438Y94507D02*Y91007D01*
X140938Y90507D01*
X141938D01*
X142438Y91007D01*
Y94507D02*Y91007D01*
X145138Y94507D02*X145638Y94007D01*
X144138Y94507D02*X145138D01*
X143638Y94007D02*X144138Y94507D01*
X143638Y94007D02*Y91007D01*
X144138Y90507D01*
X145138Y92507D02*X145638Y92007D01*
X143638Y92507D02*X145138D01*
X144138Y90507D02*X145138D01*
X145638Y91007D01*
Y92007D02*Y91007D01*
X119350Y107436D02*Y105436D01*
Y107436D02*X119850Y107936D01*
X120850D01*
X121350Y107436D02*X120850Y107936D01*
X121350Y107436D02*Y105936D01*
X119350D02*X123350D01*
X121350D02*X123350Y107936D01*
X119350Y111136D02*Y109136D01*
X121350D01*
X120850Y109636D01*
Y110636D02*Y109636D01*
Y110636D02*X121350Y111136D01*
X122850D01*
X123350Y110636D02*X122850Y111136D01*
X123350Y110636D02*Y109636D01*
X122850Y109136D02*X123350Y109636D01*
X130500Y130000D02*Y126500D01*
X131000Y126000D01*
X132000D01*
X132500Y126500D01*
Y130000D02*Y126500D01*
X133700Y130000D02*X135700D01*
X133700D02*Y128000D01*
X134200Y128500D01*
X135200D01*
X135700Y128000D01*
Y126500D01*
X135200Y126000D02*X135700Y126500D01*
X134200Y126000D02*X135200D01*
X133700Y126500D02*X134200Y126000D01*
X153657Y135000D02*Y131000D01*
Y135000D02*X155657D01*
X153657Y133000D02*X155157D01*
X157357Y131000D02*X158357D01*
X157857Y135000D02*Y131000D01*
X156857Y134000D02*X157857Y135000D01*
X163000Y160000D02*X164500D01*
Y156500D01*
X164000Y156000D02*X164500Y156500D01*
X163500Y156000D02*X164000D01*
X163000Y156500D02*X163500Y156000D01*
X165700Y156500D02*X166200Y156000D01*
X165700Y157500D02*Y156500D01*
Y157500D02*X166200Y158000D01*
X167200D01*
X167700Y157500D01*
Y156500D01*
X167200Y156000D02*X167700Y156500D01*
X166200Y156000D02*X167200D01*
X165700Y158500D02*X166200Y158000D01*
X165700Y159500D02*Y158500D01*
Y159500D02*X166200Y160000D01*
X167200D01*
X167700Y159500D01*
Y158500D01*
X167200Y158000D02*X167700Y158500D01*
X168350Y47650D02*X169850D01*
X167850Y48150D02*X168350Y47650D01*
X167850Y51150D02*Y48150D01*
Y51150D02*X168350Y51650D01*
X169850D01*
X171050Y51150D02*X171550Y51650D01*
X173050D01*
X173550Y51150D01*
Y50150D01*
X171050Y47650D02*X173550Y50150D01*
X171050Y47650D02*X173550D01*
M02*
