M48
INCH
T59C0.020
T58C0.055
T57C0.129
T56C0.128
T55C0.035
T54C0.048
T53C0.064
%
T59
X013200Y010550
X015140Y007450
X014590Y007450
X014040Y007450
X015140Y007950
X014590Y007950
X014040Y007950
X015140Y008450
X014590Y008450
X014040Y008450
X017450Y010550
X017000Y010550
X016550Y010550
X018200Y003100
X017650Y003100
X018200Y003600
X017650Y003600
X017100Y003100
X016550Y003100
X017100Y003600
X016550Y003600
X018200Y001900
X018200Y001350
X017650Y001350
X017100Y001350
X016550Y001350
X017650Y001900
X017100Y001900
X016550Y001900
X018350Y010550
X025650Y010550
X023200Y010550
X022400Y010550
X021950Y010550
X021050Y009700
X022650Y007650
X022100Y007650
X021550Y007650
X022650Y008150
X022100Y008150
X021550Y008150
X019550Y008550
X020100Y008550
X020100Y008100
X020100Y007650
X019550Y008100
X019550Y007650
X028140Y007450
X027590Y007450
X027040Y007450
X026490Y007450
X028140Y007950
X028140Y008450
X027590Y007950
X027590Y008450
X027040Y007950
X027040Y008450
X026490Y007950
X026490Y008450
X024700Y019200
X017900Y010550
X017400Y007950
X017400Y006750
X016550Y006150
X017000Y006150
X017450Y006150
X018800Y006150
X017900Y006150
X018350Y006150
X016550Y005700
X016550Y005250
X017000Y005250
X017450Y005250
X017000Y005700
X017450Y005700
X021047Y007149
X021047Y007649
X021047Y008149
X021050Y008700
X021050Y009200
X019550Y009900
X020100Y009900
X019550Y009450
X020100Y009450
X019550Y009000
X020100Y009000
X019550Y007200
X020100Y007200
X005200Y010550
X010750Y010550
X007663Y007562
X007663Y008062
X007666Y008613
X007666Y009113
X007666Y009613
X007650Y011200
X007116Y009113
X007116Y009613
X007100Y011200
X007100Y011700
X008750Y011700
X008216Y009613
X008200Y011200
X008200Y011700
X007650Y011700
X002750Y010550
X002043Y007064
X001493Y007064
X002043Y007564
X001493Y007564
X000943Y007064
X000393Y007064
X000943Y007564
X000393Y007564
X002043Y008064
X001493Y008064
X000943Y008064
X000393Y008064
X008763Y007062
X008213Y007062
X007663Y007062
X007113Y007062
X007113Y007562
X007113Y008062
X007116Y008613
X008763Y007562
X008763Y008062
X008766Y008613
X008766Y009113
X008766Y009613
X008750Y011200
X008213Y007562
X008213Y008062
X008216Y008613
X008216Y009113
X006700Y017800
X007200Y018200
X007700Y018600
X008200Y019000
X008700Y019400
X006200Y017400
T55
X014200Y016400
X013700Y015400
X013200Y016400
X012700Y015400
X012200Y016400
X011700Y015400
X011200Y016400
X008700Y016400
X007700Y016400
X006700Y016400
X005700Y016400
X010700Y015400
X008200Y015400
X007200Y015400
X006200Y015400
X005200Y015400
T54
X007050Y001350
X009050Y001350
X011050Y001350
X013050Y001350
X001050Y001350
X003050Y001350
X005050Y001350
X015050Y001350
X025500Y001350
X023500Y001350
X027500Y001350
X021500Y001350
T58
X022050Y016600
X020050Y016600
X018050Y016600
T53
X016730Y012650
X018070Y012650
X016730Y007350
X018070Y007350
T56
X014700Y018900
X004700Y018900
T57
X001700Y018300
X026800Y018300
M30
