G04 start of page 7 for group -4062 idx -4062 *
G04 Title: (unknown), soldermask *
G04 Creator: pcb 20110918 *
G04 CreationDate: Tue 11 Feb 2014 10:14:15 PM GMT UTC *
G04 For: ndholmes *
G04 Format: Gerber/RS-274X *
G04 PCB-Dimensions: 285500 200000 *
G04 PCB-Coordinate-Origin: lower left *
%MOIN*%
%FSLAX25Y25*%
%LNBOTTOMMASK*%
%ADD77C,0.0960*%
%ADD76C,0.2997*%
%ADD75C,0.1500*%
%ADD74C,0.0760*%
%ADD73C,0.0001*%
%ADD72C,0.0860*%
%ADD71C,0.1000*%
G54D71*X167300Y126500D03*
X180700D03*
X167300Y73500D03*
X180700D03*
G54D72*X70500Y13500D03*
G54D73*G36*
X86200Y17800D02*Y9200D01*
X94800D01*
Y17800D01*
X86200D01*
G37*
G54D72*X110500Y13500D03*
G54D73*G36*
X126200Y17800D02*Y9200D01*
X134800D01*
Y17800D01*
X126200D01*
G37*
G36*
X6200D02*Y9200D01*
X14800D01*
Y17800D01*
X6200D01*
G37*
G54D72*X30500Y13500D03*
G54D73*G36*
X46200Y17800D02*Y9200D01*
X54800D01*
Y17800D01*
X46200D01*
G37*
G54D72*X150500Y13500D03*
G54D73*G36*
X250700Y17800D02*Y9200D01*
X259300D01*
Y17800D01*
X250700D01*
G37*
G54D72*X235000Y13500D03*
X275000D03*
G54D73*G36*
X210700Y17800D02*Y9200D01*
X219300D01*
Y17800D01*
X210700D01*
G37*
G54D74*X142000Y164000D03*
X137000Y154000D03*
X132000Y164000D03*
X127000Y154000D03*
X122000Y164000D03*
X117000Y154000D03*
X112000Y164000D03*
X87000D03*
X77000D03*
X67000D03*
X57000D03*
X107000Y154000D03*
X82000D03*
X72000D03*
X62000D03*
X52000D03*
G54D75*X147000Y189000D03*
X47000D03*
G54D76*X17000Y183000D03*
G54D73*G36*
X215700Y170800D02*Y161200D01*
X225300D01*
Y170800D01*
X215700D01*
G37*
G54D77*X200500Y166000D03*
X180500D03*
G54D76*X268000Y183000D03*
M02*
