G04 start of page 9 for group -4078 idx -4078 *
G04 Title: (unknown), bottomsilk *
G04 Creator: pcb 20110918 *
G04 CreationDate: Tue 11 Feb 2014 10:14:15 PM GMT UTC *
G04 For: ndholmes *
G04 Format: Gerber/RS-274X *
G04 PCB-Dimensions: 285500 200000 *
G04 PCB-Coordinate-Origin: lower left *
%MOIN*%
%FSLAX25Y25*%
%LNBOTTOMSILK*%
%ADD79C,0.0100*%
G54D79*X73000Y21500D02*X74500D01*
X75000Y22000D02*X74500Y21500D01*
X75000Y22000D02*Y25000D01*
X74500Y25500D01*
X73000D02*X74500D01*
X71800Y21500D02*Y25500D01*
X69300Y21500D02*Y25500D01*
Y23500D02*X71800D01*
X68100Y25000D02*X67600Y25500D01*
X66100D02*X67600D01*
X66100D02*X65600Y25000D01*
Y24000D02*Y25000D01*
X68100Y21500D02*X65600Y24000D01*
Y21500D02*X68100D01*
X62400Y23500D02*X64400D01*
X92768Y21500D02*X94268D01*
X94768Y22000D02*X94268Y21500D01*
X94768Y22000D02*Y25000D01*
X94268Y25500D01*
X92768D02*X94268D01*
X91568Y21500D02*Y25500D01*
X89068Y21500D02*Y25500D01*
Y23500D02*X91568D01*
X87868Y25000D02*X87368Y25500D01*
X86368D02*X87368D01*
X86368D02*X85868Y25000D01*
Y22000D02*Y25000D01*
X86368Y21500D02*X85868Y22000D01*
X86368Y21500D02*X87368D01*
X87868Y22000D02*X87368Y21500D01*
X85868Y23500D02*X87368D01*
X82668D02*X84668D01*
X112733Y21500D02*X114233D01*
X114733Y22000D02*X114233Y21500D01*
X114733Y22000D02*Y25000D01*
X114233Y25500D01*
X112733D02*X114233D01*
X111533Y21500D02*Y25500D01*
X109033Y21500D02*Y25500D01*
Y23500D02*X111533D01*
X107833Y25000D02*X107333Y25500D01*
X106333D02*X107333D01*
X106333D02*X105833Y25000D01*
Y22000D02*Y25000D01*
X106333Y21500D02*X105833Y22000D01*
X106333Y21500D02*X107333D01*
X107833Y22000D02*X107333Y21500D01*
X105833Y23500D02*X107333D01*
X102633D02*X104633D01*
X103633Y22500D02*Y24500D01*
X133000Y21500D02*X134500D01*
X135000Y22000D02*X134500Y21500D01*
X135000Y22000D02*Y25000D01*
X134500Y25500D01*
X133000D02*X134500D01*
X131800Y21500D02*Y25500D01*
X129300Y21500D02*Y25500D01*
Y23500D02*X131800D01*
X128100D02*X126100Y25500D01*
X125600Y23500D02*X128100D01*
X126100Y21500D02*Y25500D01*
X122400Y23500D02*X124400D01*
X123400Y22500D02*Y24500D01*
X13500Y21500D02*X15000D01*
X15500Y22000D02*X15000Y21500D01*
X15500Y22000D02*Y25000D01*
X15000Y25500D01*
X13500D02*X15000D01*
X12300Y21500D02*Y25500D01*
X9800Y21500D02*Y25500D01*
Y23500D02*X12300D01*
X7100Y21500D02*X8100D01*
X7600D02*Y25500D01*
X8600Y24500D02*X7600Y25500D01*
X3900Y23500D02*X5900D01*
X33000Y21500D02*X34500D01*
X35000Y22000D02*X34500Y21500D01*
X35000Y22000D02*Y25000D01*
X34500Y25500D01*
X33000D02*X34500D01*
X31800Y21500D02*Y25500D01*
X29300Y21500D02*Y25500D01*
Y23500D02*X31800D01*
X26600Y21500D02*X27600D01*
X27100D02*Y25500D01*
X28100Y24500D02*X27100Y25500D01*
X23400Y23500D02*X25400D01*
X24400Y22500D02*Y24500D01*
X53000Y21500D02*X54500D01*
X55000Y22000D02*X54500Y21500D01*
X55000Y22000D02*Y25000D01*
X54500Y25500D01*
X53000D02*X54500D01*
X51800Y21500D02*Y25500D01*
X49300Y21500D02*Y25500D01*
Y23500D02*X51800D01*
X48100Y25000D02*X47600Y25500D01*
X46100D02*X47600D01*
X46100D02*X45600Y25000D01*
Y24000D02*Y25000D01*
X48100Y21500D02*X45600Y24000D01*
Y21500D02*X48100D01*
X42400Y23500D02*X44400D01*
X43400Y22500D02*Y24500D01*
X153000Y21500D02*X154500D01*
X155000Y22000D02*X154500Y21500D01*
X155000Y22000D02*Y25000D01*
X154500Y25500D01*
X153000D02*X154500D01*
X151800Y21500D02*Y25500D01*
X149300Y21500D02*Y25500D01*
Y23500D02*X151800D01*
X148100D02*X146100Y25500D01*
X145600Y23500D02*X148100D01*
X146100Y21500D02*Y25500D01*
X142400Y23500D02*X144400D01*
X177500Y150500D02*X178000Y151000D01*
X176000Y150500D02*X177500D01*
X175500Y151000D02*X176000Y150500D01*
X175500Y151000D02*Y154000D01*
X176000Y154500D01*
X177500D01*
X178000Y154000D01*
Y153000D02*Y154000D01*
X177500Y152500D02*X178000Y153000D01*
X176500Y152500D02*X177500D01*
X179200Y150500D02*Y154500D01*
Y150500D02*Y151000D01*
X181700Y153500D01*
Y150500D02*Y154500D01*
X183400Y150500D02*Y154500D01*
X184900Y150500D02*X185400Y151000D01*
Y154000D01*
X184900Y154500D02*X185400Y154000D01*
X182900Y154500D02*X184900D01*
X182900Y150500D02*X184900D01*
X217000Y21500D02*X218500D01*
X219000Y22000D02*X218500Y21500D01*
X219000Y22000D02*Y25000D01*
X218500Y25500D01*
X217000D02*X218500D01*
X215800Y21500D02*Y25500D01*
X213300Y21500D02*Y25500D01*
Y23500D02*X215800D01*
X210100Y25500D02*X212100D01*
Y23500D02*Y25500D01*
Y23500D02*X211600Y24000D01*
X210600D02*X211600D01*
X210600D02*X210100Y23500D01*
Y22000D02*Y23500D01*
X210600Y21500D02*X210100Y22000D01*
X210600Y21500D02*X211600D01*
X212100Y22000D02*X211600Y21500D01*
X206900Y23500D02*X208900D01*
X203500Y48000D02*X204500D01*
X204000D02*Y52000D01*
X203500D02*X204500D01*
X205700Y50500D02*Y51500D01*
Y50500D02*X206200Y50000D01*
X207200D01*
X207700Y50500D01*
Y51500D01*
X207200Y52000D02*X207700Y51500D01*
X206200Y52000D02*X207200D01*
X205700Y51500D02*X206200Y52000D01*
X208900Y50000D02*Y51500D01*
X209400Y52000D01*
X209900D01*
X210400Y51500D01*
Y50000D02*Y51500D01*
X210900Y52000D01*
X211400D01*
X211900Y51500D01*
Y50000D02*Y51500D01*
X214600Y50000D02*X215100Y50500D01*
X213600Y50000D02*X214600D01*
X213100Y50500D02*X213600Y50000D01*
X213100Y50500D02*Y51500D01*
X213600Y52000D01*
X215100Y50000D02*Y51500D01*
X215600Y52000D01*
X213600D02*X214600D01*
X215100Y51500D01*
X220600Y48000D02*X221100Y48500D01*
X219100Y48000D02*X220600D01*
X218600Y48500D02*X219100Y48000D01*
X218600Y48500D02*Y49500D01*
X219100Y50000D01*
X220600D01*
X221100Y50500D01*
Y51500D01*
X220600Y52000D02*X221100Y51500D01*
X219100Y52000D02*X220600D01*
X218600Y51500D02*X219100Y52000D01*
X222800Y50000D02*X224300D01*
X222300Y50500D02*X222800Y50000D01*
X222300Y50500D02*Y51500D01*
X222800Y52000D01*
X224300D01*
X227000Y50000D02*X227500Y50500D01*
X226000Y50000D02*X227000D01*
X225500Y50500D02*X226000Y50000D01*
X225500Y50500D02*Y51500D01*
X226000Y52000D01*
X227500Y50000D02*Y51500D01*
X228000Y52000D01*
X226000D02*X227000D01*
X227500Y51500D01*
X229200Y48000D02*Y51500D01*
X229700Y52000D01*
X231200D02*X232700D01*
X230700Y51500D02*X231200Y52000D01*
X230700Y50500D02*Y51500D01*
Y50500D02*X231200Y50000D01*
X232200D01*
X232700Y50500D01*
X230700Y51000D02*X232700D01*
Y50500D02*Y51000D01*
X235900Y48000D02*Y52000D01*
X235400D02*X235900Y51500D01*
X234400Y52000D02*X235400D01*
X233900Y51500D02*X234400Y52000D01*
X233900Y50500D02*Y51500D01*
Y50500D02*X234400Y50000D01*
X235400D01*
X235900Y50500D01*
X238900Y50000D02*X240400D01*
X238900Y52000D02*X240900D01*
X238900Y48000D02*Y52000D01*
Y48000D02*X240900D01*
X242600Y50500D02*Y52000D01*
Y50500D02*X243100Y50000D01*
X243600D01*
X244100Y50500D01*
Y52000D01*
X242100Y50000D02*X242600Y50500D01*
X246800Y50000D02*X247300Y50500D01*
X245800Y50000D02*X246800D01*
X245300Y50500D02*X245800Y50000D01*
X245300Y50500D02*Y51500D01*
X245800Y52000D01*
X246800D01*
X247300Y51500D01*
X245300Y53000D02*X245800Y53500D01*
X246800D01*
X247300Y53000D01*
Y50000D02*Y53000D01*
X248500Y49000D02*Y49500D01*
Y50500D02*Y52000D01*
X250000Y50500D02*Y52000D01*
Y50500D02*X250500Y50000D01*
X251000D01*
X251500Y50500D01*
Y52000D01*
X249500Y50000D02*X250000Y50500D01*
X253200Y52000D02*X254700D01*
X252700Y51500D02*X253200Y52000D01*
X252700Y50500D02*Y51500D01*
Y50500D02*X253200Y50000D01*
X254200D01*
X254700Y50500D01*
X252700Y51000D02*X254700D01*
Y50500D02*Y51000D01*
X256400Y52000D02*X257900D01*
X255900Y51500D02*X256400Y52000D01*
X255900Y50500D02*Y51500D01*
Y50500D02*X256400Y50000D01*
X257400D01*
X257900Y50500D01*
X255900Y51000D02*X257900D01*
Y50500D02*Y51000D01*
X259600Y50500D02*Y52000D01*
Y50500D02*X260100Y50000D01*
X261100D01*
X259100D02*X259600Y50500D01*
X262300Y49000D02*Y49500D01*
Y50500D02*Y52000D01*
X263800Y50500D02*Y52000D01*
Y50500D02*X264300Y50000D01*
X264800D01*
X265300Y50500D01*
Y52000D01*
X263300Y50000D02*X263800Y50500D01*
X268000Y50000D02*X268500Y50500D01*
X267000Y50000D02*X268000D01*
X266500Y50500D02*X267000Y50000D01*
X266500Y50500D02*Y51500D01*
X267000Y52000D01*
X268000D01*
X268500Y51500D01*
X266500Y53000D02*X267000Y53500D01*
X268000D01*
X268500Y53000D01*
Y50000D02*Y53000D01*
X204000Y56500D02*Y60500D01*
Y59000D02*X204500Y58500D01*
X205500D01*
X206000Y59000D01*
Y60500D01*
X207700Y56500D02*Y60000D01*
X208200Y60500D01*
X207200Y58000D02*X208200D01*
X209700Y56500D02*Y60000D01*
X210200Y60500D01*
X209200Y58000D02*X210200D01*
X211700Y59000D02*Y62000D01*
X211200Y58500D02*X211700Y59000D01*
X212200Y58500D01*
X213200D01*
X213700Y59000D01*
Y60000D01*
X213200Y60500D02*X213700Y60000D01*
X212200Y60500D02*X213200D01*
X211700Y60000D02*X212200Y60500D01*
X214900Y58000D02*X215400D01*
X214900Y59000D02*X215400D01*
X216600Y60000D02*X219600Y57000D01*
X220800Y60000D02*X223800Y57000D01*
X225000Y58500D02*Y60000D01*
X225500Y60500D01*
X226000D01*
X226500Y60000D01*
Y58500D02*Y60000D01*
X227000Y60500D01*
X227500D01*
X228000Y60000D01*
Y58500D02*Y60000D01*
X229200Y58500D02*Y60000D01*
X229700Y60500D01*
X230200D01*
X230700Y60000D01*
Y58500D02*Y60000D01*
X231200Y60500D01*
X231700D01*
X232200Y60000D01*
Y58500D02*Y60000D01*
X233400Y58500D02*Y60000D01*
X233900Y60500D01*
X234400D01*
X234900Y60000D01*
Y58500D02*Y60000D01*
X235400Y60500D01*
X235900D01*
X236400Y60000D01*
Y58500D02*Y60000D01*
X237600Y60500D02*X238100D01*
X239300Y57500D02*Y58000D01*
Y59000D02*Y60500D01*
X241800Y58500D02*X242300Y59000D01*
X240800Y58500D02*X241800D01*
X240300Y59000D02*X240800Y58500D01*
X240300Y59000D02*Y60000D01*
X240800Y60500D01*
X242300Y58500D02*Y60000D01*
X242800Y60500D01*
X240800D02*X241800D01*
X242300Y60000D01*
X244500Y60500D02*X246000D01*
X246500Y60000D01*
X246000Y59500D02*X246500Y60000D01*
X244500Y59500D02*X246000D01*
X244000Y59000D02*X244500Y59500D01*
X244000Y59000D02*X244500Y58500D01*
X246000D01*
X246500Y59000D01*
X244000Y60000D02*X244500Y60500D01*
X248200Y58500D02*X249700D01*
X247700Y59000D02*X248200Y58500D01*
X247700Y59000D02*Y60000D01*
X248200Y60500D01*
X249700D01*
X252400Y58500D02*X252900Y59000D01*
X251400Y58500D02*X252400D01*
X250900Y59000D02*X251400Y58500D01*
X250900Y59000D02*Y60000D01*
X251400Y60500D01*
X252900Y58500D02*Y60000D01*
X253400Y60500D01*
X251400D02*X252400D01*
X252900Y60000D01*
X254600Y56500D02*Y60000D01*
X255100Y60500D01*
X256600D02*X258100D01*
X256100Y60000D02*X256600Y60500D01*
X256100Y59000D02*Y60000D01*
Y59000D02*X256600Y58500D01*
X257600D01*
X258100Y59000D01*
X256100Y59500D02*X258100D01*
Y59000D02*Y59500D01*
X261300Y56500D02*Y60500D01*
X260800D02*X261300Y60000D01*
X259800Y60500D02*X260800D01*
X259300Y60000D02*X259800Y60500D01*
X259300Y59000D02*Y60000D01*
Y59000D02*X259800Y58500D01*
X260800D01*
X261300Y59000D01*
X262500Y60500D02*X263000D01*
X264700Y58500D02*X266200D01*
X264200Y59000D02*X264700Y58500D01*
X264200Y59000D02*Y60000D01*
X264700Y60500D01*
X266200D01*
X267400Y59000D02*Y60000D01*
Y59000D02*X267900Y58500D01*
X268900D01*
X269400Y59000D01*
Y60000D01*
X268900Y60500D02*X269400Y60000D01*
X267900Y60500D02*X268900D01*
X267400Y60000D02*X267900Y60500D01*
X271100Y59000D02*Y60500D01*
Y59000D02*X271600Y58500D01*
X272100D01*
X272600Y59000D01*
Y60500D01*
Y59000D02*X273100Y58500D01*
X273600D01*
X274100Y59000D01*
Y60500D01*
X270600Y58500D02*X271100Y59000D01*
X222500Y69000D02*X223000Y69500D01*
X222500Y66000D02*X223000Y65500D01*
X222500Y66000D02*Y69000D01*
X224700Y69500D02*X226200D01*
X224200Y69000D02*X224700Y69500D01*
X224200Y66000D02*Y69000D01*
Y66000D02*X224700Y65500D01*
X226200D01*
X227400D02*X227900Y66000D01*
Y69000D01*
X227400Y69500D02*X227900Y69000D01*
X230900Y66000D02*X231400Y65500D01*
X232900D01*
X233400Y66000D01*
Y67000D01*
X230900Y69500D02*X233400Y67000D01*
X230900Y69500D02*X233400D01*
X234600Y69000D02*X235100Y69500D01*
X234600Y66000D02*Y69000D01*
Y66000D02*X235100Y65500D01*
X236100D01*
X236600Y66000D01*
Y69000D01*
X236100Y69500D02*X236600Y69000D01*
X235100Y69500D02*X236100D01*
X234600Y68500D02*X236600Y66500D01*
X238300Y69500D02*X239300D01*
X238800Y65500D02*Y69500D01*
X237800Y66500D02*X238800Y65500D01*
X240500Y67500D02*X242500Y65500D01*
X240500Y67500D02*X243000D01*
X242500Y65500D02*Y69500D01*
X246000Y67500D02*X248000D01*
X251500Y69500D02*X253000D01*
X251000Y69000D02*X251500Y69500D01*
X251000Y66000D02*Y69000D01*
Y66000D02*X251500Y65500D01*
X253000D01*
X254700Y69500D02*X256200D01*
X254200Y69000D02*X254700Y69500D01*
X254200Y66000D02*Y69000D01*
Y66000D02*X254700Y65500D01*
X256200D01*
X257400Y67500D02*X259400D01*
X260600Y69500D02*X262600D01*
X263100Y69000D01*
Y68000D02*Y69000D01*
X262600Y67500D02*X263100Y68000D01*
X261100Y67500D02*X262600D01*
X261100Y65500D02*Y69500D01*
X260600Y65500D02*X262600D01*
X263100Y66000D01*
Y67000D01*
X262600Y67500D02*X263100Y67000D01*
X264300Y65500D02*Y66000D01*
X265300Y67000D01*
X266300Y66000D01*
Y65500D02*Y66000D01*
X265300Y67000D02*Y69500D01*
X267500Y67500D02*X269500D01*
X272700Y65500D02*X273200Y66000D01*
X271200Y65500D02*X272700D01*
X270700Y66000D02*X271200Y65500D01*
X270700Y66000D02*Y67000D01*
X271200Y67500D01*
X272700D01*
X273200Y68000D01*
Y69000D01*
X272700Y69500D02*X273200Y69000D01*
X271200Y69500D02*X272700D01*
X270700Y69000D02*X271200Y69500D01*
X274400Y66000D02*Y69500D01*
Y66000D02*X274900Y65500D01*
X276400D01*
X276900Y66000D01*
Y69500D01*
X274400Y67500D02*X276900D01*
X237000Y21500D02*X238500D01*
X239000Y22000D02*X238500Y21500D01*
X239000Y22000D02*Y25000D01*
X238500Y25500D01*
X237000D02*X238500D01*
X235800Y21500D02*Y25500D01*
X233300Y21500D02*Y25500D01*
Y23500D02*X235800D01*
X230100Y25500D02*X232100D01*
Y23500D02*Y25500D01*
Y23500D02*X231600Y24000D01*
X230600D02*X231600D01*
X230600D02*X230100Y23500D01*
Y22000D02*Y23500D01*
X230600Y21500D02*X230100Y22000D01*
X230600Y21500D02*X231600D01*
X232100Y22000D02*X231600Y21500D01*
X226900Y23500D02*X228900D01*
X227900Y22500D02*Y24500D01*
X211000Y149500D02*X213000D01*
X212000Y148500D02*Y150500D01*
X214700Y151500D02*X215700D01*
X215200Y147500D02*Y151500D01*
X214200Y148500D02*X215200Y147500D01*
X216900Y148000D02*X217400Y147500D01*
X218900D01*
X219400Y148000D01*
Y149000D01*
X216900Y151500D02*X219400Y149000D01*
X216900Y151500D02*X219400D01*
X220600Y147500D02*Y150500D01*
X221600Y151500D01*
X222600Y150500D01*
Y147500D02*Y150500D01*
X225600Y147500D02*Y150500D01*
X226600Y151500D01*
X229600D01*
X230600Y147500D02*Y150000D01*
Y147500D02*X229600Y146500D01*
X226600D02*X229600D01*
X226600D02*X225600Y147500D01*
X227100Y148500D02*Y149500D01*
X227600Y150000D01*
X228600D01*
X229100Y149500D01*
X229600Y150000D01*
X229100Y148000D02*Y149500D01*
Y148500D02*X228600Y148000D01*
X227600D02*X228600D01*
X227600D02*X227100Y148500D01*
X229600Y150000D02*X230600D01*
X215500Y156000D02*X216500Y155000D01*
X215500Y156000D02*X216500Y157000D01*
X218200Y158000D02*X219200D01*
X218700Y154000D02*Y158000D01*
X217700Y155000D02*X218700Y154000D01*
X220400Y157500D02*X220900Y158000D01*
X220400Y154500D02*Y157500D01*
Y154500D02*X220900Y154000D01*
X221900D01*
X222400Y154500D01*
Y157500D01*
X221900Y158000D02*X222400Y157500D01*
X220900Y158000D02*X221900D01*
X220400Y157000D02*X222400Y155000D01*
X223600Y154500D02*Y158000D01*
Y154500D02*X224100Y154000D01*
X225600D01*
X226100Y154500D01*
Y158000D01*
X223600Y156000D02*X226100D01*
X257000Y21500D02*X258500D01*
X259000Y22000D02*X258500Y21500D01*
X259000Y22000D02*Y25000D01*
X258500Y25500D01*
X257000D02*X258500D01*
X255800Y21500D02*Y25500D01*
X253300Y21500D02*Y25500D01*
Y23500D02*X255800D01*
X250600Y25500D02*X250100Y25000D01*
X250600Y25500D02*X251600D01*
X252100Y25000D02*X251600Y25500D01*
X252100Y22000D02*Y25000D01*
Y22000D02*X251600Y21500D01*
X250600Y23500D02*X250100Y23000D01*
X250600Y23500D02*X252100D01*
X250600Y21500D02*X251600D01*
X250600D02*X250100Y22000D01*
Y23000D01*
X246900Y23500D02*X248900D01*
X247900Y22500D02*Y24500D01*
X277000Y21500D02*X278500D01*
X279000Y22000D02*X278500Y21500D01*
X279000Y22000D02*Y25000D01*
X278500Y25500D01*
X277000D02*X278500D01*
X275800Y21500D02*Y25500D01*
X273300Y21500D02*Y25500D01*
Y23500D02*X275800D01*
X270600Y25500D02*X270100Y25000D01*
X270600Y25500D02*X271600D01*
X272100Y25000D02*X271600Y25500D01*
X272100Y22000D02*Y25000D01*
Y22000D02*X271600Y21500D01*
X270600Y23500D02*X270100Y23000D01*
X270600Y23500D02*X272100D01*
X270600Y21500D02*X271600D01*
X270600D02*X270100Y22000D01*
Y23000D01*
X266900Y23500D02*X268900D01*
M02*
